<svg xmlns="http://www.w3.org/2000/svg" width="698.08" height="88.774" viewBox="0 0 698.08 88.774">
  <g id="backstage-title" transform="translate(-4577.907 -3547)">
    <g id="logo" transform="translate(4577.907 3564)">
      <path id="Path_1" data-name="Path 1" d="M68.865,6.6C43.8,6.6,23.5,18.871,23.5,33.968S43.8,61.336,68.865,61.336,114.23,49.065,114.23,33.968,93.928,6.6,68.865,6.6ZM95.712,39.434c-1.859-.409-4.5-3.124-7.846-3.681-3.384-.558-5.875-.149-7.4,2.826s-3.533,9.482-4.09,10.523-4.8,3.681-9.556.223c-.967-.632-2.714-3.607-1.859-7.065.892-3.458,5.206-3.533,5.615-.967-.892-.149-2.9.074-1.934,2.157s4.351,1.45,5.206-.558c.892-2.008.967-3.867-.706-5.28-1.673-1.45-3.458-2.714-5.689-2.082s-5.057,2.9-6.73,3.756c-1.673.892-6.024,2.008-9,.632s-6.582-5.206-9.631-6.247-4.722-2.082-7.214-1.45c-2.566.818-4.908,1.562-4.908.707.074-.409,5.02-4.574,11.23-3.458,5.466.967,4.983,3.533,10.746,3.756,4.685.186,5.95-4.5,6.8-8.181.967-4.09,4.574-9.147,10.6-6.321,5.764,4.016,2.566,8.924,2.082,9.556s-4.016,2.082-3.867.223c.409-.483,1.673-1.19,1.6-2.008A2.668,2.668,0,0,0,66.6,24.077a3.662,3.662,0,0,0-3.533,3.681c.074,2.082.483,5.206,6.173,5.764,3.942.074,6.507-4.5,11.862-4.983,5.392-.483,8.664,2.9,13.238,6.024s11.973,1.3,13.721.632C107.016,36.719,103.707,40.178,95.712,39.434Z" transform="translate(-23.5 -6.6)" fill="#374a87"/>
      <g id="Group_1" data-name="Group 1" transform="translate(97.721 32.202)">
        <path id="Path_2" data-name="Path 2" d="M296.191,105.2a7.766,7.766,0,0,0-.781.372,6.4,6.4,0,0,1-.93.335,7.646,7.646,0,0,1-1.078.26,6.663,6.663,0,0,1-1.264.112,6.734,6.734,0,0,1-2.343-.372,5.058,5.058,0,0,1-1.859-1.153,4.862,4.862,0,0,1-1.19-1.934,7.552,7.552,0,0,1-.446-2.714,8.367,8.367,0,0,1,.409-2.64A5.287,5.287,0,0,1,287.9,95.5a5,5,0,0,1,1.822-1.19,6.945,6.945,0,0,1,2.38-.409,8.824,8.824,0,0,1,1.934.223,9.071,9.071,0,0,1,2.119.818v1.9h-.111a6.2,6.2,0,0,0-1.971-1.19,5.456,5.456,0,0,0-2.082-.372,4.576,4.576,0,0,0-1.636.3,3.4,3.4,0,0,0-1.3.892A3.8,3.8,0,0,0,288.2,98a7.394,7.394,0,0,0,.037,4.276,4.528,4.528,0,0,0,.892,1.487,3.875,3.875,0,0,0,1.3.892,4.526,4.526,0,0,0,1.6.3,5.8,5.8,0,0,0,4.016-1.6h.111l.037,1.859Z" transform="translate(-286.3 -93.64)" fill="#374a87"/>
        <path id="Path_3" data-name="Path 3" d="M324.981,106.871h-6.619a3.486,3.486,0,0,0,.26,1.45,2.8,2.8,0,0,0,.669,1,2.669,2.669,0,0,0,1,.6,4.51,4.51,0,0,0,1.264.186,4.565,4.565,0,0,0,1.822-.372,4.924,4.924,0,0,0,1.3-.707h.074v1.636a8.553,8.553,0,0,1-1.562.521,6.065,6.065,0,0,1-1.673.223,4.816,4.816,0,0,1-3.458-1.19A4.6,4.6,0,0,1,316.8,106.8a5.038,5.038,0,0,1,1.19-3.5,4.119,4.119,0,0,1,3.161-1.3,3.647,3.647,0,0,1,2.789,1.041,4.2,4.2,0,0,1,.967,3.012v.818Zm-1.487-1.153a2.5,2.5,0,0,0-.6-1.822,2.283,2.283,0,0,0-1.785-.632,2.583,2.583,0,0,0-1.934.707,2.852,2.852,0,0,0-.818,1.785h5.131v-.037Z" transform="translate(-305.459 -98.728)" fill="#374a87"/>
        <path id="Path_4" data-name="Path 4" d="M352.374,111.247h-1.487v-5.094a11.261,11.261,0,0,0-.074-1.153,2.325,2.325,0,0,0-.26-.855,1.089,1.089,0,0,0-.6-.483,2.4,2.4,0,0,0-.967-.149,3.461,3.461,0,0,0-1.3.3,5.261,5.261,0,0,0-1.3.781v6.693H344.9V102.36h1.487v1a7.914,7.914,0,0,1,1.45-.93,3.682,3.682,0,0,1,1.562-.335,2.774,2.774,0,0,1,2.194.855,3.67,3.67,0,0,1,.744,2.529v5.764Z" transform="translate(-323.11 -98.791)" fill="#374a87"/>
        <path id="Path_5" data-name="Path 5" d="M375.815,107.116a6.845,6.845,0,0,1-.93.186,8.629,8.629,0,0,1-.892.074,2.787,2.787,0,0,1-2.082-.744,3.255,3.255,0,0,1-.707-2.38V99.53h-1V98.266h1V95.7h1.487v2.566h3.123V99.53h-3.123v4.09a9.447,9.447,0,0,0,.037,1.116,2.468,2.468,0,0,0,.223.744,1.209,1.209,0,0,0,.483.483,2.107,2.107,0,0,0,.93.149,3.04,3.04,0,0,0,.781-.112c.26-.074.446-.149.6-.186h.074v1.3Z" transform="translate(-339.002 -94.77)" fill="#374a87"/>
        <path id="Path_6" data-name="Path 6" d="M395.778,104.236H395.7l-.669-.112a4.511,4.511,0,0,0-.744-.037,3.342,3.342,0,0,0-1.339.3,8.906,8.906,0,0,0-1.264.781v6.359H390.2V102.6h1.487v1.339a6.144,6.144,0,0,1,1.6-1,3.7,3.7,0,0,1,1.413-.3,2.139,2.139,0,0,1,.558.037,4.267,4.267,0,0,1,.521.074v1.487Z" transform="translate(-351.565 -99.105)" fill="#374a87"/>
        <path id="Path_7" data-name="Path 7" d="M414.023,111.059h-1.487v-.967c-.149.074-.3.223-.558.372a3.014,3.014,0,0,1-.669.372,5.778,5.778,0,0,1-.855.3,5.268,5.268,0,0,1-1.153.112,2.941,2.941,0,0,1-2.454-4.5,3.311,3.311,0,0,1,1.227-1,6.953,6.953,0,0,1,1.971-.483c.781-.074,1.6-.149,2.454-.186v-.223a1.94,1.94,0,0,0-.186-.855,1.175,1.175,0,0,0-.521-.521,2.414,2.414,0,0,0-.781-.26,7.241,7.241,0,0,0-.93-.074,6.126,6.126,0,0,0-1.339.149,11.3,11.3,0,0,0-1.487.446h-.074v-1.525a10.353,10.353,0,0,1,1.264-.26,8.368,8.368,0,0,1,1.636-.149,7.012,7.012,0,0,1,1.636.149,4.073,4.073,0,0,1,1.227.521,2.5,2.5,0,0,1,.781.967,3.267,3.267,0,0,1,.26,1.45v6.173Zm-1.487-2.231v-2.491c-.446.037-1,.074-1.636.112a9.854,9.854,0,0,0-1.487.223,2.158,2.158,0,0,0-1.041.558,1.488,1.488,0,0,0-.409,1.078,1.433,1.433,0,0,0,.446,1.153,2.141,2.141,0,0,0,1.413.372,3.742,3.742,0,0,0,1.45-.3,3.829,3.829,0,0,0,1.263-.7Z" transform="translate(-361.741 -98.602)" fill="#374a87"/>
        <path id="Path_8" data-name="Path 8" d="M436.287,105.657H434.8V93.2h1.487Z" transform="translate(-379.581 -93.2)" fill="#374a87"/>
        <path id="Path_9" data-name="Path 9" d="M475.025,94.6l-3.086,11.936h-1.785l-2.491-9.891-2.454,9.891h-1.748L460.3,94.6h1.636l2.491,9.928,2.454-9.928h1.6l2.491,10,2.491-10Z" transform="translate(-395.599 -94.079)" fill="#374a87"/>
        <path id="Path_10" data-name="Path 10" d="M510.143,106.871h-6.582a3.486,3.486,0,0,0,.26,1.45,2.8,2.8,0,0,0,.669,1,2.67,2.67,0,0,0,1,.595,4.51,4.51,0,0,0,1.264.186,4.566,4.566,0,0,0,1.822-.372,4.927,4.927,0,0,0,1.3-.707h.074v1.636a8.556,8.556,0,0,1-1.562.521,6.068,6.068,0,0,1-1.673.223,4.816,4.816,0,0,1-3.458-1.19A4.6,4.6,0,0,1,502,106.8a5.038,5.038,0,0,1,1.19-3.5,4.119,4.119,0,0,1,3.161-1.3,3.647,3.647,0,0,1,2.789,1.041,4.2,4.2,0,0,1,.967,3.012l.037.818Zm-1.487-1.153a2.505,2.505,0,0,0-.595-1.822,2.283,2.283,0,0,0-1.785-.632,2.583,2.583,0,0,0-1.934.707,2.852,2.852,0,0,0-.818,1.785h5.132Z" transform="translate(-421.793 -98.728)" fill="#374a87"/>
        <path id="Path_11" data-name="Path 11" d="M535.823,111.059h-1.487v-.967c-.149.074-.3.223-.558.372a3.013,3.013,0,0,1-.669.372,5.776,5.776,0,0,1-.855.3,5.268,5.268,0,0,1-1.153.112,2.941,2.941,0,0,1-2.454-4.5,3.311,3.311,0,0,1,1.227-1,6.951,6.951,0,0,1,1.971-.483c.781-.074,1.6-.149,2.454-.186v-.223a1.94,1.94,0,0,0-.186-.855,1.175,1.175,0,0,0-.521-.521,2.414,2.414,0,0,0-.781-.26,7.244,7.244,0,0,0-.93-.074,6.126,6.126,0,0,0-1.339.149,11.3,11.3,0,0,0-1.487.446h-.074v-1.525a10.356,10.356,0,0,1,1.264-.26,8.369,8.369,0,0,1,1.636-.149,7.012,7.012,0,0,1,1.636.149,4.076,4.076,0,0,1,1.227.521,2.5,2.5,0,0,1,.781.967,3.266,3.266,0,0,1,.26,1.45l.037,6.173Zm-1.487-2.231v-2.491c-.446.037-1,.074-1.636.112a9.859,9.859,0,0,0-1.487.223,2.159,2.159,0,0,0-1.041.558,1.488,1.488,0,0,0-.409,1.078,1.433,1.433,0,0,0,.446,1.153,2.141,2.141,0,0,0,1.413.372,3.742,3.742,0,0,0,1.45-.3,3.827,3.827,0,0,0,1.264-.7Z" transform="translate(-438.251 -98.602)" fill="#374a87"/>
        <path id="Path_12" data-name="Path 12" d="M559.515,107.116a6.854,6.854,0,0,1-.93.186,8.626,8.626,0,0,1-.892.074,2.787,2.787,0,0,1-2.082-.744,3.255,3.255,0,0,1-.706-2.38V99.53h-1V98.266h1V95.7h1.487v2.566h3.123V99.53h-3.123v4.09a9.434,9.434,0,0,0,.037,1.116,2.464,2.464,0,0,0,.223.744,1.207,1.207,0,0,0,.483.483,2.107,2.107,0,0,0,.93.149,3.041,3.041,0,0,0,.781-.112c.26-.074.446-.149.558-.186h.074v1.3Z" transform="translate(-454.394 -94.77)" fill="#374a87"/>
        <path id="Path_13" data-name="Path 13" d="M581.374,105.657h-1.487v-5.094a11.252,11.252,0,0,0-.074-1.153,2.326,2.326,0,0,0-.26-.855,1.089,1.089,0,0,0-.6-.483,2.4,2.4,0,0,0-.967-.149,3.46,3.46,0,0,0-1.3.3,5.264,5.264,0,0,0-1.3.781v6.7H573.9V93.2h1.487v4.5a7.91,7.91,0,0,1,1.45-.93,3.682,3.682,0,0,1,1.562-.335,2.774,2.774,0,0,1,2.194.855,3.671,3.671,0,0,1,.744,2.529Z" transform="translate(-466.957 -93.2)" fill="#374a87"/>
        <path id="Path_14" data-name="Path 14" d="M608.143,106.871h-6.582a3.487,3.487,0,0,0,.26,1.45,2.8,2.8,0,0,0,.669,1,2.668,2.668,0,0,0,1,.6,4.511,4.511,0,0,0,1.264.186,4.566,4.566,0,0,0,1.822-.372,4.925,4.925,0,0,0,1.3-.707h.074v1.636a8.556,8.556,0,0,1-1.562.521,6.067,6.067,0,0,1-1.673.223,4.816,4.816,0,0,1-3.458-1.19A4.6,4.6,0,0,1,600,106.8a5.038,5.038,0,0,1,1.19-3.5,4.119,4.119,0,0,1,3.161-1.3,3.647,3.647,0,0,1,2.789,1.041,4.2,4.2,0,0,1,.967,3.012l.037.818Zm-1.45-1.153a2.506,2.506,0,0,0-.595-1.822,2.283,2.283,0,0,0-1.785-.632,2.583,2.583,0,0,0-1.934.707,2.852,2.852,0,0,0-.818,1.785h5.131Z" transform="translate(-483.352 -98.728)" fill="#374a87"/>
        <path id="Path_15" data-name="Path 15" d="M633.578,104.236H633.5l-.669-.112a4.511,4.511,0,0,0-.744-.037,3.343,3.343,0,0,0-1.339.3,8.906,8.906,0,0,0-1.264.781v6.359H628V102.6h1.487v1.339a6.145,6.145,0,0,1,1.6-1,3.7,3.7,0,0,1,1.413-.3,2.14,2.14,0,0,1,.558.037,4.259,4.259,0,0,1,.521.074Z" transform="translate(-500.94 -99.105)" fill="#374a87"/>
        <path id="Path_16" data-name="Path 16" d="M671.7,102.855a3.452,3.452,0,0,1-.335,1.562,3.3,3.3,0,0,1-.892,1.116,4.3,4.3,0,0,1-1.487.744,7.786,7.786,0,0,1-2.045.223H662.7V94.6h3.533a13.042,13.042,0,0,1,1.971.112,3.418,3.418,0,0,1,1.227.409,2.26,2.26,0,0,1,.967.892,2.8,2.8,0,0,1,.3,1.3,2.4,2.4,0,0,1-.446,1.45,3.274,3.274,0,0,1-1.153.967v.07a3.037,3.037,0,0,1,1.9,1.078,2.768,2.768,0,0,1,.7,1.973ZM669.021,97.5a1.566,1.566,0,0,0-.149-.744,1.391,1.391,0,0,0-.446-.483,2.277,2.277,0,0,0-.93-.26c-.372-.037-.818-.037-1.339-.037h-1.9v3.458H666.3a9.6,9.6,0,0,0,1.19-.074,1.745,1.745,0,0,0,.818-.335,1.082,1.082,0,0,0,.521-.632,2.248,2.248,0,0,0,.19-.893Zm1,5.429a2.547,2.547,0,0,0-.223-1.153,1.628,1.628,0,0,0-.781-.707,2.276,2.276,0,0,0-.93-.26,13.127,13.127,0,0,0-1.339-.074h-2.491v4.425h2.082a10.629,10.629,0,0,0,1.711-.112,2.188,2.188,0,0,0,1.078-.409,2.385,2.385,0,0,0,.669-.707,2.009,2.009,0,0,0,.228-1Z" transform="translate(-522.737 -94.079)" fill="#374a87"/>
        <path id="Path_17" data-name="Path 17" d="M699.937,111.561H698.45v-1a8.471,8.471,0,0,1-1.45.93,3.4,3.4,0,0,1-1.525.335,2.883,2.883,0,0,1-2.194-.855,3.613,3.613,0,0,1-.781-2.529v-5.8h1.487v5.094a9.433,9.433,0,0,0,.074,1.153,2.352,2.352,0,0,0,.26.818,1.489,1.489,0,0,0,.558.521,2.374,2.374,0,0,0,1,.149,3.446,3.446,0,0,0,1.264-.3,5.258,5.258,0,0,0,1.3-.781v-6.7h1.487v8.961Z" transform="translate(-541.456 -99.105)" fill="#374a87"/>
        <path id="Path_18" data-name="Path 18" d="M726.078,104.236H726l-.669-.112a4.509,4.509,0,0,0-.744-.037,3.343,3.343,0,0,0-1.339.3,8.912,8.912,0,0,0-1.264.781v6.359H720.5V102.6h1.487v1.339a6.145,6.145,0,0,1,1.6-1,3.7,3.7,0,0,1,1.413-.3,2.14,2.14,0,0,1,.558.037,4.262,4.262,0,0,1,.521.074Z" transform="translate(-559.045 -99.105)" fill="#374a87"/>
        <path id="Path_19" data-name="Path 19" d="M745.643,106.871h-6.582a3.486,3.486,0,0,0,.26,1.45,2.8,2.8,0,0,0,.669,1,2.671,2.671,0,0,0,1,.595,4.511,4.511,0,0,0,1.264.186,4.566,4.566,0,0,0,1.822-.372,4.927,4.927,0,0,0,1.3-.707h.074v1.636a8.557,8.557,0,0,1-1.562.521,6.067,6.067,0,0,1-1.673.223,4.816,4.816,0,0,1-3.458-1.19A4.6,4.6,0,0,1,737.5,106.8a5.038,5.038,0,0,1,1.19-3.5,4.119,4.119,0,0,1,3.161-1.3,3.646,3.646,0,0,1,2.789,1.041,4.2,4.2,0,0,1,.967,3.012l.037.818Zm-1.45-1.153a2.5,2.5,0,0,0-.6-1.822,2.283,2.283,0,0,0-1.785-.632,2.583,2.583,0,0,0-1.934.707,2.852,2.852,0,0,0-.818,1.785h5.131Z" transform="translate(-569.723 -98.728)" fill="#374a87"/>
        <path id="Path_20" data-name="Path 20" d="M771.423,111.059h-1.487v-.967c-.149.074-.3.223-.558.372a3.013,3.013,0,0,1-.669.372,5.784,5.784,0,0,1-.855.3,5.267,5.267,0,0,1-1.153.112,2.941,2.941,0,0,1-2.454-4.5,3.312,3.312,0,0,1,1.227-1,6.952,6.952,0,0,1,1.971-.483c.781-.074,1.6-.149,2.454-.186v-.223a1.94,1.94,0,0,0-.186-.855,1.174,1.174,0,0,0-.521-.521,2.414,2.414,0,0,0-.781-.26,7.239,7.239,0,0,0-.93-.074,6.125,6.125,0,0,0-1.339.149,11.3,11.3,0,0,0-1.487.446h-.037v-1.525a10.355,10.355,0,0,1,1.264-.26,8.368,8.368,0,0,1,1.636-.149,7.013,7.013,0,0,1,1.636.149,4.072,4.072,0,0,1,1.227.521,2.5,2.5,0,0,1,.781.967,3.265,3.265,0,0,1,.26,1.45v6.173Zm-1.525-2.231v-2.491c-.446.037-1,.074-1.636.112a9.856,9.856,0,0,0-1.487.223,2.158,2.158,0,0,0-1.041.558,1.488,1.488,0,0,0-.409,1.078,1.433,1.433,0,0,0,.446,1.153,2.141,2.141,0,0,0,1.413.372,3.743,3.743,0,0,0,1.45-.3,3.83,3.83,0,0,0,1.266-.7Z" transform="translate(-586.244 -98.602)" fill="#374a87"/>
        <path id="Path_21" data-name="Path 21" d="M799.437,111.561H797.95v-1a8.479,8.479,0,0,1-1.45.93,3.4,3.4,0,0,1-1.525.335,2.883,2.883,0,0,1-2.194-.855,3.612,3.612,0,0,1-.781-2.529v-5.8h1.487v5.094a9.433,9.433,0,0,0,.074,1.153,2.358,2.358,0,0,0,.26.818,1.492,1.492,0,0,0,.558.521,2.374,2.374,0,0,0,1,.149,3.446,3.446,0,0,0,1.264-.3,5.26,5.26,0,0,0,1.3-.781v-6.7h1.487v8.961Z" transform="translate(-603.958 -99.105)" fill="#374a87"/>
      </g>
      <g id="Group_2" data-name="Group 2" transform="translate(98.948 5.317)">
        <path id="Path_22" data-name="Path 22" d="M307.932,25.154a.235.235,0,0,1,.26.26V26.2c0,.186-.074.26-.26.26H289.86a.235.235,0,0,1-.26-.26v-.781c0-.186.074-.26.26-.26Zm-5.764,6.061a9.629,9.629,0,0,1,1.859.93c0,.112-.112.186-.3.223-.223.037-.335.186-.409.446a21.979,21.979,0,0,1-1.822,3.2,12.765,12.765,0,0,1-1.785,1.971,11.279,11.279,0,0,1-2.082,1.339,27.8,27.8,0,0,1-3.012,1.227,22.611,22.611,0,0,1-3.644.93.349.349,0,0,1-.3-.223,5.2,5.2,0,0,0-.744-.967.658.658,0,0,1-.186-.3,8.745,8.745,0,0,0,2.566-.372c.892-.223,1.822-.558,2.863-.93a13.376,13.376,0,0,0,2.6-1.376,6.351,6.351,0,0,0,1.785-1.487,17.092,17.092,0,0,0,1.413-1.934,14.87,14.87,0,0,0,1.2-2.677Zm-6.953-3.942,1.264.93a.542.542,0,0,1,.186.3c0,.074-.074.112-.223.149a.945.945,0,0,0-.483.186,16.933,16.933,0,0,1-1.785,1.859,17.347,17.347,0,0,1-2.863,1.9.41.41,0,0,1-.372-.186,8.63,8.63,0,0,1-.781-.669c-.112-.037-.186-.112-.186-.149a.2.2,0,0,1,.112-.149,5.992,5.992,0,0,0,1.376-.632,11.042,11.042,0,0,0,2.008-1.562c.483-.483,1.041-1.078,1.636-1.785.036-.117.074-.191.111-.191Zm1,7.1a8.685,8.685,0,0,0,1.971,2.12,12.77,12.77,0,0,0,3.012,1.822,16.691,16.691,0,0,0,3.793,1.078,13.872,13.872,0,0,0,3.124.335.694.694,0,0,1-.186.372c-.149.372-.3.707-.446,1.078-.037.149-.112.26-.186.26a27,27,0,0,1-3.607-.6,17.073,17.073,0,0,1-3.123-1.078,16.324,16.324,0,0,1-3.161-1.822,12.516,12.516,0,0,1-1.971-2.008,15.316,15.316,0,0,1-2.045-3.9,7.427,7.427,0,0,1,1.45-.521,12.1,12.1,0,0,0,1.379,2.862Zm3.83-11.416a.3.3,0,0,1-.223.335q-.223,0-.223.446v1.785c0,.186-.112.3-.335.3h-.892c-.223,0-.335-.112-.335-.3V22.96c0-.186.112-.26.335-.26,1.119,0,1.677.074,1.677.26Zm7.623,8.515c0,.074-.037.149-.149.26-.409.669-.632.967-.707.967a34.67,34.67,0,0,1-5.8-4.239s.26-.335.781-.93c.112-.149.186-.186.223-.186a32.551,32.551,0,0,0,5.656,4.132Z" transform="translate(-289.6 -22.031)" fill="#374a87"/>
        <path id="Path_23" data-name="Path 23" d="M348.423,38.311h1.487a2.882,2.882,0,0,0,.186,1.116,1.632,1.632,0,0,0,.521.6,3.236,3.236,0,0,0,1.153.372,13.3,13.3,0,0,0,1.822.112h4.462a36.51,36.51,0,0,0,6.135-.632.5.5,0,0,1,.3-.074c.112,0,.149.037.149.149a13.709,13.709,0,0,0-.409,1.673.342.342,0,0,1-.372.335h-10.3c-.483,0-.967-.037-1.45-.074a7.45,7.45,0,0,1-1.376-.335,4.018,4.018,0,0,1-1.116-.6,3.594,3.594,0,0,1-.744-1.116l-.074-.074a.284.284,0,0,0-.186.074,7.851,7.851,0,0,0-2.194,2.194.2.2,0,0,1-.186.112c-.112,0-.372-.372-.818-1.116a.793.793,0,0,1-.112-.446,18.733,18.733,0,0,0,3.049-1.9C348.386,38.683,348.423,38.534,348.423,38.311Zm1.19-5.652c.186,0,.3.074.3.26v5.615c0,.186-.112.26-.335.26h-.855c-.186,0-.3-.074-.3-.26V33.96h-2.64a.235.235,0,0,1-.26-.26v-.781c0-.186.074-.26.26-.26Zm-1.078-3.867q.837.614,1.45,1.116c0,.037-.037.074-.112.186a6.9,6.9,0,0,1-.706.892,21.642,21.642,0,0,0-2.008-1.487,13.692,13.692,0,0,0-1.45-.744,3.484,3.484,0,0,1,.706-.892c.074-.112.149-.149.186-.149C347.382,28.122,348.014,28.457,348.535,28.792Zm.372-4.462c.558.372,1,.707,1.376,1,0,.037-.037.074-.112.186a6.9,6.9,0,0,1-.707.892,17.069,17.069,0,0,0-1.9-1.3,14.7,14.7,0,0,0-1.376-.669,3.483,3.483,0,0,1,.707-.892c.074-.112.149-.149.186-.149a10.246,10.246,0,0,1,1.826.932Zm13.052-.855-.409,1.264h-9.259c-.186,0-.26-.074-.26-.26v-.707c0-.186.074-.26.26-.26l9.668-.037ZM352.365,27.9h.818c.223,0,.3.074.3.26V39.2c0,.186-.112.26-.3.26h-.818c-.186,0-.3-.074-.3-.26V28.16C352.068,27.974,352.179,27.9,352.365,27.9Zm10.486,0a.3.3,0,0,1,.335.335v10a1.075,1.075,0,0,1-.781.967,6.526,6.526,0,0,1-1.971.335.246.246,0,0,1-.26-.223,3.955,3.955,0,0,0-.483-1.264c0-.037.037-.074.149-.074a6.4,6.4,0,0,0,1.636-.112.525.525,0,0,0,.3-.446V29.2h-8.738c-.186,0-.26-.074-.26-.26v-.78c0-.186.074-.26.26-.26Zm-.6,3.309c.149,0,.223.074.223.26v.707c0,.186-.074.26-.223.26H353c-.149,0-.223-.074-.223-.26v-.707c0-.186.074-.26.223-.26Zm0,3.384c.149,0,.223.074.223.26v.707c0,.186-.074.26-.223.26H353c-.149,0-.223-.074-.223-.26v-.707c0-.186.074-.26.223-.26Zm-4.834-8.181c.818.335,1.525.669,2.082.93,0,.037-.037.074-.112.186a6.088,6.088,0,0,1-.669.855,28.1,28.1,0,0,0-2.826-1.227,16.789,16.789,0,0,0-2.045-.632,3.311,3.311,0,0,1,.669-.855c.074-.112.112-.149.149-.149a20.046,20.046,0,0,1,2.752.892Zm4.127-2.938h.409a.8.8,0,0,1,.372.074c.26.223.409.409.409.521l-4.388,3.049a.5.5,0,0,1-.335.074c-.818-.223-1.19-.409-1.19-.6Zm-4.76,5.057h1.487V39.352c0,.186-.112.26-.335.26h-.855c-.186,0-.3-.074-.3-.26Z" transform="translate(-324.588 -22.47)" fill="#374a87"/>
        <path id="Path_24" data-name="Path 24" d="M412.732,30.364a.235.235,0,0,1,.26.26v.781c0,.186-.074.26-.26.26H402.06a.235.235,0,0,1-.26-.26v-.781c0-.186.074-.26.26-.26Zm-.483-6.024a.235.235,0,0,1,.26.26v.781c0,.186-.074.26-.26.26h-9.78a.235.235,0,0,1-.26-.26V24.6c0-.186.074-.26.26-.26Zm-8.887,8.96h.855c.223,0,.335.074.335.26v7.03c0,.186-.112.26-.335.26h-.855c-.186,0-.3-.074-.3-.26V33.562C403.064,33.413,403.139,33.3,403.362,33.3Zm2.194-5.317a11.5,11.5,0,0,1,.521,1.71,4.68,4.68,0,0,1-1.45.483,11.618,11.618,0,0,0-.372-1.413,16.649,16.649,0,0,0-.818-1.934c0-.112.409-.335,1.227-.744a20.447,20.447,0,0,1,.892,1.9Zm5.726,5.317c.186,0,.3.074.3.26v6.991c0,.186-.112.26-.335.26h-.818c-.186,0-.3-.074-.3-.26V34.6h-6.061a.235.235,0,0,1-.26-.26v-.781c0-.186.074-.26.26-.26Zm-.669,5.02a.235.235,0,0,1,.26.26v.781c0,.186-.074.26-.26.26h-6.582a.235.235,0,0,1-.26-.26V38.58c0-.186.074-.26.26-.26ZM408.679,22c0,.186-.074.3-.223.3s-.223.149-.223.409v2.008c0,.186-.112.26-.335.26h-.855c-.186,0-.3-.074-.3-.26V21.96c0-.186.112-.26.3-.26C408.121,21.737,408.679,21.812,408.679,22Zm1.413,3.9,1.264.521c.186.074.3.186.3.3a.2.2,0,0,1-.149.223.283.283,0,0,0-.3.223,13.153,13.153,0,0,1-1.227,2.752c-.074.149-.149.186-.223.186a.856.856,0,0,1-.335-.112c-.3-.149-.558-.26-.781-.372-.112-.037-.186-.074-.186-.112s.037-.074.074-.149a10.747,10.747,0,0,0,.818-1.562,10.4,10.4,0,0,0,.6-1.71c.076-.075.113-.188.15-.188Zm4.09-3.309h.855c.223,0,.335.074.335.26V40.59c0,.186-.112.26-.335.26h-.855c-.186,0-.3-.074-.3-.26V22.853c0-.186.118-.261.3-.261Zm5.8,0V23.82h-5.057c-.186,0-.3-.074-.3-.26v-.744a.265.265,0,0,1,.3-.26h5.057Zm0,0a.772.772,0,0,1,.558.149c.372.3.558.483.558.6l-2.938,5.912a.857.857,0,0,0-.112.335.766.766,0,0,0,.186.335,9.485,9.485,0,0,1,1.785,2.6,8.09,8.09,0,0,1,.669,3.2,4.2,4.2,0,0,1-.409,1.9,2.757,2.757,0,0,1-1.339,1.19,3.836,3.836,0,0,1-1.9.372c-.335,0-.521-.112-.521-.335a3.3,3.3,0,0,0-.335-1.153c0-.149.074-.26.186-.26l1,.149a1.549,1.549,0,0,0,1.376-.558,1.887,1.887,0,0,0,.409-1.3A6.784,6.784,0,0,0,418.6,33.2a12.065,12.065,0,0,0-2.12-3.086.354.354,0,0,1-.223-.26,3.1,3.1,0,0,1,.074-.372Z" transform="translate(-360.079 -21.403)" fill="#374a87"/>
        <path id="Path_25" data-name="Path 25" d="M461.735,26.244h.892c.223,0,.335.112.335.3v9.333c0,.186-.112.3-.335.3h-.892c-.223,0-.335-.112-.335-.3V26.541C461.4,26.355,461.512,26.244,461.735,26.244Zm16.25,0c.223,0,.335.112.335.3v9.445c0,.186-.112.3-.335.3h-.892c-.223,0-.335-.112-.335-.3V27.731H462.441c-.186,0-.26-.112-.26-.3v-.892c0-.186.074-.3.26-.3Zm-.744,6.73c.186,0,.26.112.26.3v.855c0,.223-.074.3-.26.3h-14.8c-.186,0-.26-.112-.26-.3v-.855c0-.223.074-.3.26-.3Zm-5.95-10.226a.3.3,0,0,1-.223.335q-.223,0-.223.446v17.7c0,.186-.112.3-.335.3h-.892c-.223,0-.335-.112-.335-.3V22.748c0-.186.112-.26.335-.26C470.733,22.451,471.291,22.562,471.291,22.748Z" transform="translate(-397.517 -21.893)" fill="#374a87"/>
        <path id="Path_26" data-name="Path 26" d="M523.442,22.4l1.525.112q.335.112.335.223a.272.272,0,0,1-.223.26.375.375,0,0,0-.26.409l.074,7.363a10.5,10.5,0,0,1-.335,3.012,5.556,5.556,0,0,1-1.264,2.714,10.641,10.641,0,0,1-2.268,2.157,16.581,16.581,0,0,1-4.2,2.157,7.871,7.871,0,0,1-2.082.483c-.112,0-.186-.074-.26-.223a7.473,7.473,0,0,0-.632-1.078c-.112-.037-.149-.074-.149-.112,0-.112.037-.149.149-.149a14.851,14.851,0,0,0,3.347-.781,12.174,12.174,0,0,0,2.789-1.413A6.479,6.479,0,0,0,522,35.675a3.822,3.822,0,0,0,.967-1.934,9.161,9.161,0,0,0,.409-3.012l-.074-6.768a11.667,11.667,0,0,0-.037-1.3C523.294,22.512,523.368,22.4,523.442,22.4Zm9.445,10.189a.235.235,0,0,1,.26.26v.781c0,.186-.074.26-.26.26h-18.22a.235.235,0,0,1-.26-.26v-.781c0-.186.074-.26.26-.26Zm-15.58-7.065h.892c.223,0,.335.074.335.26V32.96c0,.186-.112.3-.335.3h-.892c-.223,0-.335-.112-.335-.3V25.784a.326.326,0,0,1,.335-.26Zm13.5,0c.223,0,.335.112.335.3V32.96c0,.186-.112.3-.335.3h-.892c-.223,0-.335-.112-.335-.3v-6.1H518.051a.235.235,0,0,1-.26-.26v-.781c0-.186.074-.26.26-.26H530.8Zm-4.648,10.151a8.069,8.069,0,0,0,2.194,1.971,13.453,13.453,0,0,0,3.458,1.6q.948.279,1.785.446c.186.074.26.112.26.149a.362.362,0,0,1-.149.335,8.016,8.016,0,0,1-.706.818c-.074.149-.149.186-.26.186a10.962,10.962,0,0,1-1.264-.3,16.931,16.931,0,0,1-4.351-2.12,12.476,12.476,0,0,1-2.268-2.157,13.433,13.433,0,0,1-1.6-2.826q0-.223,1.45-.558a11.246,11.246,0,0,0,1.449,2.456Z" transform="translate(-430.369 -21.842)" fill="#374a87"/>
        <path id="Path_27" data-name="Path 27" d="M574.289,21.8l1.487.558c.149.112.223.186.223.3,0,.149-.074.223-.223.3a.248.248,0,0,0-.26.186,16.346,16.346,0,0,1-.781,2.008c-.26.483-.558.967-.855,1.413a9.05,9.05,0,0,1-.967,1.078,1.386,1.386,0,0,1-.446-.074,5.379,5.379,0,0,0-.818-.335c-.112-.037-.149-.074-.149-.149,0-.037.037-.074.074-.112a8.8,8.8,0,0,0,1.413-1.785,7.389,7.389,0,0,0,.632-1.339,15.349,15.349,0,0,0,.558-1.9C574.214,21.837,574.252,21.8,574.289,21.8Zm3.644,13.126,1.3.707c-.781.892-1.413,1.6-1.971,2.12A12.364,12.364,0,0,1,575.4,39.2a17.332,17.332,0,0,1-2.3,1.227.431.431,0,0,1-.372-.149c-.3-.26-.558-.521-.855-.781a1.455,1.455,0,0,1-.074-.223,10.518,10.518,0,0,0,1.785-.781A12.323,12.323,0,0,0,575.7,37.08a14,14,0,0,0,2.235-2.154ZM585,34.331c.149,0,.223.074.223.26V35.3c0,.186-.074.26-.223.26H572.653c-.149,0-.223-.074-.223-.26v-.707c0-.186.074-.26.223-.26Zm3.309-5.875-.149,1.3H573.471c-.186,0-.26-.074-.26-.26v-.781c0-.186.074-.26.26-.26Zm-12.085,4.5a11.313,11.313,0,0,1,.706,1.673c0,.074-.446.223-1.376.446a6.781,6.781,0,0,0-.521-1.413,15.056,15.056,0,0,0-1.115-1.934c0-.112.372-.335,1.153-.707.482.744.854,1.379,1.151,1.934Zm12.643-9.631c.149,0,.223.074.223.26v.707c0,.186-.074.26-.223.26H574.624c-.149,0-.223-.074-.223-.26v-.707c0-.186.074-.26.223-.26Zm-1.562,2.6c.149,0,.223.074.223.26v.707c0,.186-.074.26-.223.26H575.441c-.149,0-.223-.074-.223-.26v-.707c0-.186.074-.26.223-.26Zm-9.333,9H579.2a22.878,22.878,0,0,0,2.08,1.975,11.063,11.063,0,0,0,2.194,1.339,9.618,9.618,0,0,0,2.12.744.236.236,0,0,1-.186.223,7.057,7.057,0,0,0-.744.818c-.074.112-.149.149-.186.149a11.587,11.587,0,0,1-2.64-1.339,13.076,13.076,0,0,1-2.008-1.6,12.782,12.782,0,0,1-1.86-2.308Zm1.971-4.425a.26.26,0,0,1-.223.3c-.149,0-.223.149-.223.409V40.95c0,.186-.112.26-.3.26h-.818c-.186,0-.3-.074-.3-.26V30.538c0-.149.112-.223.3-.223,1.041-.074,1.562.037,1.562.185Zm2.9.335,1.19.483c.186.074.3.186.3.3s-.074.186-.26.26c-.223,0-.372.074-.409.26A12.713,12.713,0,0,1,581.8,35a.783.783,0,0,1-.3.223.856.856,0,0,1-.335-.112c-.26-.149-.521-.26-.744-.372-.111-.037-.149-.074-.149-.112s.037-.074.112-.149a13,13,0,0,0,1.3-1.6,6.85,6.85,0,0,0,.93-1.785c.078-.183.153-.257.227-.257Zm4.834-2.38h.632a.379.379,0,0,1,.3.186,3.873,3.873,0,0,1,.3.744,8.886,8.886,0,0,0-.893,2.714,9.446,9.446,0,0,0-.3,2.231,9.189,9.189,0,0,0,.558,3.57c.3.707.6,1.041.855,1.041.149,0,.26-.112.3-.3a6.527,6.527,0,0,0,.335-1.785c.037-.112.074-.149.186-.149s.149.037.223.149a7.632,7.632,0,0,0,.706.558c.112.037.149.149.149.3a8.879,8.879,0,0,1-1.153,2.863.822.822,0,0,1-.744.409,1.845,1.845,0,0,1-1.339-.855,5.818,5.818,0,0,1-1.115-2.417,14.3,14.3,0,0,1-.372-3.384,19.3,19.3,0,0,1,1.37-5.874Z" transform="translate(-466.677 -21.465)" fill="#374a87"/>
        <path id="Path_28" data-name="Path 28" d="M635.37,20.9c1.153.558,1.711.892,1.711,1,0,.149-.037.186-.149.186a.45.45,0,0,0-.446.223,13.8,13.8,0,0,1-3.272,3.086,32.587,32.587,0,0,1-3.124,1.822.6.6,0,0,1-.409-.186c-.186-.149-.409-.335-.632-.521a.269.269,0,0,1-.149-.223c.781-.409,1.524-.855,2.3-1.3a12.931,12.931,0,0,0,2.6-1.971,10.647,10.647,0,0,0,1.487-1.9C635.3,20.937,635.333,20.9,635.37,20.9Zm4.425,13.535,1.3.483a11.171,11.171,0,0,1-2.157,1.6,18.462,18.462,0,0,1-2.529,1.413,26.835,26.835,0,0,1-3.235,1.227,19.7,19.7,0,0,1-2.529.632c-.074,0-.186-.074-.26-.26a7.2,7.2,0,0,0-.744-.781.665.665,0,0,1-.186-.26q2.454-.446,4.128-.892A21.446,21.446,0,0,0,637,36.3c.671-.412,1.638-1.007,2.791-1.862Zm-1.227-2.045,1.3.483a9.7,9.7,0,0,1-1.748,1.3,18.7,18.7,0,0,1-2.082,1.153,26.354,26.354,0,0,1-2.64,1,16.373,16.373,0,0,1-2.082.521c-.074,0-.186-.074-.26-.26a7.21,7.21,0,0,0-.744-.781.665.665,0,0,1-.186-.26,32.974,32.974,0,0,0,3.384-.707,20.945,20.945,0,0,0,2.789-1C636.82,33.506,637.6,33.022,638.568,32.39Zm.074-3.049,1.3.483a9.433,9.433,0,0,1-1.673,1.339,13.583,13.583,0,0,1-2.008,1.19,21.554,21.554,0,0,1-2.566,1.041,10.561,10.561,0,0,1-2.008.521c-.074,0-.186-.074-.26-.26a7.2,7.2,0,0,0-.744-.781.665.665,0,0,1-.186-.26,26.737,26.737,0,0,0,3.235-.744,19.878,19.878,0,0,0,2.677-1.041,17.5,17.5,0,0,0,2.233-1.488Zm-6.879-4.09h.855c.223,0,.335.074.335.26v5.206c0,.186-.111.26-.335.26h-.855c-.186,0-.3-.074-.3-.26V25.511C631.463,25.325,631.577,25.251,631.763,25.251Zm13.944,0c.186,0,.3.074.3.26v4.946c0,.186-.112.26-.335.26h-.855c-.186,0-.3-.074-.3-.26v-3.9H632.432a.235.235,0,0,1-.26-.26v-.781c0-.186.074-.26.26-.26ZM645,28.857a.235.235,0,0,1,.26.26V29.9c0,.186-.074.26-.26.26H632.432a.235.235,0,0,1-.26-.26v-.781c0-.186.074-.26.26-.26Zm-2.38-6.544-.409,1.227h-7.1c-.186,0-.26-.074-.26-.26v-.707c0-.186.074-.26.26-.26Zm-1.934,11.416a7.538,7.538,0,0,1,.706,3.2,6.765,6.765,0,0,1-.3,2.194A2.373,2.373,0,0,1,640.2,40.2a4.335,4.335,0,0,1-2.157.446c-.892,0-1.339-.186-1.376-.521a4.605,4.605,0,0,0-.372-.967c0-.112.037-.149.074-.149a11.771,11.771,0,0,0,1.71.186,1.67,1.67,0,0,0,1.413-.558,2.808,2.808,0,0,0,.409-1.71,5.454,5.454,0,0,0-.483-2.454,13.3,13.3,0,0,0-2.231-3.235l1.078-.892a15.768,15.768,0,0,1,2.422,3.383Zm1.525-11.416h.409a.8.8,0,0,1,.372.074c.26.223.409.409.409.521l-3.942,3.124a.422.422,0,0,1-.3.112c-.818-.223-1.19-.409-1.19-.595Zm-4.276,3.607h1.487v3.347c0,.186-.112.26-.335.26h-.855c-.186,0-.3-.074-.3-.26Zm5.057,9.928a19.82,19.82,0,0,0,2.417,1.525,9.632,9.632,0,0,0,2.64.892.281.281,0,0,1-.149.26,5.657,5.657,0,0,0-.93.818c-.037.074-.149.112-.3.112a12.992,12.992,0,0,1-4.165-2.231,21.072,21.072,0,0,1-3.012-2.752l1-.855a17.2,17.2,0,0,0,2.5,2.231Zm1.748-4.127a.384.384,0,0,1,.3.149c.855.558,1.264.93,1.264,1.041q0,.335-.223.335l-.483-.112a2,2,0,0,0-.707.186c-.93.446-2.119,1.078-3.5,1.822-.744-.409-1.116-.707-1.116-.855,0-.037.074-.112.186-.149a29.3,29.3,0,0,0,3.756-2.268,1.6,1.6,0,0,1,.523-.149Z" transform="translate(-502.733 -20.9)" fill="#374a87"/>
        <path id="Path_29" data-name="Path 29" d="M687.675,24.2h.855c.223,0,.335.074.335.26v6.061a28.33,28.33,0,0,1-.483,6.024,13.333,13.333,0,0,1-1.19,3.756,8.27,8.27,0,0,1-1.376,2.12c-.111,0-.186,0-.223-.037a5.077,5.077,0,0,0-.781-.558.422.422,0,0,1-.112-.3,8.179,8.179,0,0,0,1.45-2.566,19.825,19.825,0,0,0,.967-3.607,34.92,34.92,0,0,0,.3-4.834V24.46C687.377,24.274,687.489,24.2,687.675,24.2Zm14.093,0c.186,0,.3.074.3.26v4.462c0,.186-.111.26-.335.26h-.855c-.186,0-.3-.074-.3-.26V25.5H688.344a.235.235,0,0,1-.26-.26v-.78c0-.186.074-.26.26-.26Zm-.669,3.681a.235.235,0,0,1,.26.26v.781c0,.186-.074.26-.26.26H688.381a.235.235,0,0,1-.26-.26v-.781c0-.186.074-.26.26-.26Zm1.9,3.384-.595,1.3H688.418c-.186,0-.3-.074-.3-.26v-.781c0-.186.111-.26.3-.26Zm-12.048,3.2h.855c.223,0,.335.074.335.26V40.9c0,.186-.112.26-.335.26h-.855c-.186,0-.3-.074-.3-.26V34.723c0-.186.11-.26.3-.26Zm7.363,0c.186,0,.3.074.3.26V39.26c0,.186-.112.26-.335.26h-.818c-.186,0-.3-.074-.3-.26v-3.5h-5.5a.235.235,0,0,1-.26-.26v-.781c0-.186.074-.26.26-.26Zm-.669,3.793a.235.235,0,0,1,.26.26V39.3c0,.186-.074.26-.26.26h-5.987a.235.235,0,0,1-.26-.26v-.781c0-.186.074-.26.26-.26Zm4.239-6.991H703c.186,0,.26.112.26.3a56.809,56.809,0,0,1-.335,6.47,11.769,11.769,0,0,1-.818,3.533c-.3.818-1.19,1.227-2.6,1.227-1.115,0-1.71-.149-1.748-.446a3.8,3.8,0,0,0-.707-1.19c0-.149.037-.186.074-.186a18.547,18.547,0,0,0,2.38.149,1.329,1.329,0,0,0,1.413-.818,7.644,7.644,0,0,0,.558-2.64,44.257,44.257,0,0,0,.4-6.4Z" transform="translate(-537.784 -22.973)" fill="#374a87"/>
      </g>
    </g>
    <g id="main-title" transform="translate(4604.574 3292.874)">
      <g id="Union_1" data-name="Union 1" transform="translate(282.837 254.126)">
        <path id="Path_1738" data-name="Path 1738" d="M343.789,87.77a43.856,43.856,0,0,1-29.148-11.008l-.662-.586-.663.586a44.026,44.026,0,0,1-58.294,0l-.662-.586-.663.586a44.092,44.092,0,0,1-58.736-.4l-.673-.611-.672.611a44.026,44.026,0,0,1-58.736.4l-.663-.586-.662.586a44.025,44.025,0,0,1-58.294,0l-.662-.586-.662.586a44.017,44.017,0,0,1-60.114-1.7A43.22,43.22,0,0,1,4.439,61.269a43.161,43.161,0,0,1,0-33.768,43.222,43.222,0,0,1,9.383-13.79,44.024,44.024,0,0,1,60.114-1.7l.662.586.662-.586a44.026,44.026,0,0,1,58.294,0l.662.586.663-.586a44.092,44.092,0,0,1,58.736.4l.672.611.673-.611a44.026,44.026,0,0,1,58.736-.4l.663.586.662-.586a44.025,44.025,0,0,1,58.294,0l.663.586.662-.586a44.017,44.017,0,0,1,60.114,1.7,43.238,43.238,0,0,1,9.382,13.79,43.166,43.166,0,0,1,0,33.768,43.238,43.238,0,0,1-9.382,13.791A43.852,43.852,0,0,1,343.789,87.77Z" fill="#fff"/>
        <path id="Path_1739" data-name="Path 1739" d="M343.789,86.77a42.854,42.854,0,0,0,30.262-12.421,42.24,42.24,0,0,0,9.166-13.473,42.163,42.163,0,0,0,0-32.983,42.239,42.239,0,0,0-9.166-13.473A43.024,43.024,0,0,0,315.3,12.757l-1.325,1.172-1.325-1.172a43.027,43.027,0,0,0-56.97,0l-1.324,1.172-1.325-1.172a43.093,43.093,0,0,0-57.4.387l-1.345,1.222-1.345-1.222a43.025,43.025,0,0,0-57.4-.387l-1.325,1.172-1.324-1.172a43.026,43.026,0,0,0-56.97,0L74.6,13.928l-1.325-1.172a43.017,43.017,0,0,0-58.747,1.664A42.226,42.226,0,0,0,5.359,27.893a42.161,42.161,0,0,0,0,32.983,42.226,42.226,0,0,0,9.167,13.473,43.024,43.024,0,0,0,58.747,1.664L74.6,74.841l1.325,1.172a43.026,43.026,0,0,0,56.97,0l1.324-1.172,1.325,1.172a43.091,43.091,0,0,0,57.4-.387l1.345-1.222,1.345,1.222a43.026,43.026,0,0,0,57.4.387l1.325-1.172,1.324,1.172a43.026,43.026,0,0,0,56.97,0l1.325-1.172,1.325,1.172A42.855,42.855,0,0,0,343.789,86.77m0,2a44.855,44.855,0,0,1-29.81-11.258,45.093,45.093,0,0,1-59.619,0,45.093,45.093,0,0,1-60.072-.4,45.091,45.091,0,0,1-60.071.4,45.093,45.093,0,0,1-59.619,0A44.874,44.874,0,0,1,0,44.384,44.874,44.874,0,0,1,74.6,11.258a45.093,45.093,0,0,1,59.619,0,45.092,45.092,0,0,1,60.071.4,45.093,45.093,0,0,1,60.072-.4,45.094,45.094,0,0,1,59.619,0,44.873,44.873,0,0,1,74.6,33.126A44.587,44.587,0,0,1,343.789,88.77Z" fill="#bed7ee"/>
      </g>
      <path id="Path_1736" data-name="Path 1736" d="M14.225-40.874a1.806,1.806,0,0,1,1.193,1.284,1.965,1.965,0,0,1,.138.688,2.169,2.169,0,0,1-.321,1.1,2.782,2.782,0,0,1-1.56,1.193,3.8,3.8,0,0,1-.826.092,3.19,3.19,0,0,1-1.147-.229A57.434,57.434,0,0,0,6.289-38.81a1.654,1.654,0,0,1-1.1-1.1,1.875,1.875,0,0,1-.092-.6,1.546,1.546,0,0,1,.275-.872A3.041,3.041,0,0,1,6.84-42.617a2.843,2.843,0,0,1,1.1-.229,2.6,2.6,0,0,1,.826.138Q11.61-41.883,14.225-40.874Zm-.092,27.431q-.321,0-.321.367V-11.7a.284.284,0,0,0,.08.241.284.284,0,0,0,.241.08H33.812a.284.284,0,0,0,.241-.08.284.284,0,0,0,.08-.241v-1.376q0-.367-.321-.367Zm0-5.138a.284.284,0,0,0-.241.08.284.284,0,0,0-.08.241v1.33q0,.367.321.367H33.812q.321,0,.321-.367v-1.33a.284.284,0,0,0-.08-.241.284.284,0,0,0-.241-.08Zm0-5.184q-.321,0-.321.367v1.33a.284.284,0,0,0,.08.241.284.284,0,0,0,.241.08H33.812a.284.284,0,0,0,.241-.08.284.284,0,0,0,.08-.241V-23.4q0-.367-.321-.367Zm7.661-3.44a.041.041,0,0,0-.034.012.041.041,0,0,0-.012.034.041.041,0,0,0,.012.034.041.041,0,0,0,.034.012H36.84a.073.073,0,0,0,.069-.046q.023-.046-.023-.046a14.34,14.34,0,0,1-6.651-4.679q-.229-.275-.413,0-2.478,3.029-8.028,4.684ZM39.821-10.736a2.64,2.64,0,0,1-.78,1.9,2.579,2.579,0,0,1-1.927.8H32.069q-.092,0-.092.046a.132.132,0,0,0,.046.092q5.413,1.927,10.6,4.22A1.066,1.066,0,0,1,43.288-2.6a1.059,1.059,0,0,1-.711,1.032l-1.422.55a5.754,5.754,0,0,1-2.11.413,5.886,5.886,0,0,1-2.8-.734Q32.945-2.99,28.906-4.6a1.264,1.264,0,0,1-.8-1.124,1.2,1.2,0,0,1,.619-1.216l1.606-.917a.156.156,0,0,0,.046-.115q0-.069-.092-.069H17.252q-.046,0-.069.069t.023.069l1.514.642a1.333,1.333,0,0,1,.826,1.33,1.215,1.215,0,0,1-.688,1.147,61.032,61.032,0,0,1-9.725,4A4.656,4.656,0,0,1,7.849-.6a4.524,4.524,0,0,1-1.1-.138,4.856,4.856,0,0,1-2.11-1.193,2.994,2.994,0,0,0-.275-.321,1.32,1.32,0,0,1-.413-.963A2.126,2.126,0,0,1,4-3.626,1.326,1.326,0,0,1,5.051-4.635,48.685,48.685,0,0,0,15-7.892q.046,0,.046-.069t-.092-.069H11.106a2.6,2.6,0,0,1-1.9-.8,2.6,2.6,0,0,1-.8-1.9V-24.4a2.6,2.6,0,0,1,.8-1.9,2.6,2.6,0,0,1,1.9-.8H17.9a.2.2,0,0,0,.161-.092.164.164,0,0,0,.023-.183,12.53,12.53,0,0,0-2.064-2.936.167.167,0,0,1-.012.149.167.167,0,0,1-.126.08Q9.821-28.351,6.7-27.433a4.449,4.449,0,0,1-.872.092,3.238,3.238,0,0,1-1.284-.275,3.045,3.045,0,0,1-1.468-1.56A2.018,2.018,0,0,1,2.895-30a2.091,2.091,0,0,1,.275-1.009,2.079,2.079,0,0,1,1.514-1.1q2.982-.642,8.211-1.881a2.18,2.18,0,0,1,.6-.092,2.324,2.324,0,0,1,1.376.459,2.269,2.269,0,0,1,.963,1.7l.138,1.193q.046.367.367.275a20.8,20.8,0,0,0,7.385-2.294,7.3,7.3,0,0,0,3.165-3.9.206.206,0,0,0-.023-.206.225.225,0,0,0-.206-.115H23.95a.7.7,0,0,0-.55.275q-.826.963-1.7,1.835a2.49,2.49,0,0,1-1.835.734h-.046a3.535,3.535,0,0,1-1.927-.55,1.62,1.62,0,0,1-.826-1.468,1.615,1.615,0,0,1,.55-1.239,20.751,20.751,0,0,0,3.807-4.4,3.99,3.99,0,0,1,1.56-1.468,3.05,3.05,0,0,1,1.514-.413,3.343,3.343,0,0,1,.55.046l.183.046a1.677,1.677,0,0,1,1.284.917,1.629,1.629,0,0,1,.183.734,1.614,1.614,0,0,1-.229.78.151.151,0,0,0,0,.161.154.154,0,0,0,.138.069H39.087a16.566,16.566,0,0,1,3.761.321,1.452,1.452,0,0,1,1.032.872,1.5,1.5,0,0,1-.023,1.33,36.658,36.658,0,0,1-2.2,3.578,3.073,3.073,0,0,1-1.606,1.147,3.335,3.335,0,0,1-.963.138,2.936,2.936,0,0,1-1.009-.183,1.406,1.406,0,0,1-1.009-1.009,1.731,1.731,0,0,1-.092-.55,1.618,1.618,0,0,1,.275-.917,4.175,4.175,0,0,0,.321-.459.243.243,0,0,0,0-.206q-.046-.115-.138-.115H32.9a.225.225,0,0,0-.206.115.206.206,0,0,0-.023.206,7.55,7.55,0,0,0,3.142,3.693,19.938,19.938,0,0,0,7.225,2.317,1.552,1.552,0,0,1,1.193.963,1.547,1.547,0,0,1,.183.688,1.77,1.77,0,0,1-.275.917,4.278,4.278,0,0,1-1.7,1.606,2.985,2.985,0,0,1-1.422.367,3.016,3.016,0,0,1-.734-.092.132.132,0,0,1-.092-.046q-.367-.046-.367.275ZM75.579-42.571a2.032,2.032,0,0,1,1.491.619,2.059,2.059,0,0,1,.619,1.514,2.059,2.059,0,0,1-.619,1.514,2.032,2.032,0,0,1-1.491.619H65.991a2.032,2.032,0,0,1-1.491-.619,2.059,2.059,0,0,1-.619-1.514,2.059,2.059,0,0,1,.619-1.514,2.032,2.032,0,0,1,1.491-.619Zm1.606,6.33a2.123,2.123,0,0,1,1.56.642,2.123,2.123,0,0,1,.642,1.56,2.123,2.123,0,0,1-.642,1.56,2.123,2.123,0,0,1-1.56.642H63.744a2.123,2.123,0,0,1-1.56-.642,2.123,2.123,0,0,1-.642-1.56,2.123,2.123,0,0,1,.642-1.56,2.123,2.123,0,0,1,1.56-.642Zm-1.468,6.514a2.032,2.032,0,0,1,1.491.619,2.059,2.059,0,0,1,.619,1.514,2.059,2.059,0,0,1-.619,1.514,2.032,2.032,0,0,1-1.491.619H65.9a2.087,2.087,0,0,1-1.537-.619,2.059,2.059,0,0,1-.619-1.514,2.059,2.059,0,0,1,.619-1.514,2.087,2.087,0,0,1,1.537-.619Zm-9.908,10.6a2.018,2.018,0,0,1-1.445-.6,1.958,1.958,0,0,1-.619-1.468,2.032,2.032,0,0,1,.619-1.491,1.98,1.98,0,0,1,1.445-.619h9.954a1.98,1.98,0,0,1,1.445.619,2.032,2.032,0,0,1,.619,1.491,1.958,1.958,0,0,1-.619,1.468,2.018,2.018,0,0,1-1.445.6ZM72.781-6.974a.324.324,0,0,0,.275-.092.324.324,0,0,0,.092-.275v-4.725q0-.321-.367-.321H68.652q-.367,0-.367.321v4.725a.324.324,0,0,0,.092.275.324.324,0,0,0,.275.092Zm7.752-30.688a2.563,2.563,0,0,1-.78-1.881,2.488,2.488,0,0,1,.78-1.858,2.6,2.6,0,0,1,1.881-.757h15.6a2.563,2.563,0,0,1,1.881.78,2.59,2.59,0,0,1,.734,1.835l-.138,10.551q0,6.927.275,12.615.459,9.725,1.927,10.092.138.046.3-.963t.3-2.706a.777.777,0,0,1,.642-.78.786.786,0,0,1,.917.367.132.132,0,0,0,.046.092,7.218,7.218,0,0,1,1.284,3.853,4.9,4.9,0,0,1-.092.963Q104.983-.094,102-.094a4.252,4.252,0,0,1-1.743-.413,3.4,3.4,0,0,1-1.4-.963,6.072,6.072,0,0,1-1.078-1.858Q97.32-4.5,96.93-5.736A20.437,20.437,0,0,1,96.267-8.9q-.275-1.927-.482-3.624t-.344-4.22q-.138-2.523-.206-4.473t-.115-4.931q-.046-2.982-.069-5.069t-.023-5.3a.324.324,0,0,0-.092-.275.324.324,0,0,0-.275-.092H90.028a.324.324,0,0,0-.275.092.324.324,0,0,0-.092.275v9.725a.324.324,0,0,0,.092.275.324.324,0,0,0,.275.092H91.5a2.472,2.472,0,0,1,1.812.757,2.5,2.5,0,0,1,.757,1.835A2.5,2.5,0,0,1,93.308-22a2.472,2.472,0,0,1-1.812.757H89.891a.324.324,0,0,0-.275.092.324.324,0,0,0-.092.275,46.472,46.472,0,0,1-1.95,10.206,26.02,26.02,0,0,1-4.656,8.6,2.175,2.175,0,0,1-1.7.78h-.092a2.685,2.685,0,0,1-1.835-.826Q78.56-2.8,77.964-3.3q-.092-.092-.092,0a.7.7,0,0,1-.183.482.588.588,0,0,1-.459.206H68.514q-.229,0-.229.183a1.593,1.593,0,0,1-.482,1.17,1.54,1.54,0,0,1-1.124.482h-.734a2.252,2.252,0,0,1-1.651-.688,2.252,2.252,0,0,1-.688-1.651V-14.085a2.617,2.617,0,0,1,.78-1.927,2.617,2.617,0,0,1,1.927-.78h8.853a2.617,2.617,0,0,1,1.927.78,2.617,2.617,0,0,1,.78,1.927v8.67a.147.147,0,0,0,.092.138.091.091,0,0,0,.08.011.091.091,0,0,0,.058-.057q5.138-5.826,6.055-15.551,0-.367-.321-.367H81.863A2.526,2.526,0,0,1,80-22a2.5,2.5,0,0,1-.757-1.835A2.5,2.5,0,0,1,80-25.67a2.526,2.526,0,0,1,1.858-.757h2.156q.321,0,.321-.367v-9.725q0-.367-.321-.367h-1.6a2.563,2.563,0,0,1-1.881-.777Zm48.51,16.422a.284.284,0,0,0,.08.241.284.284,0,0,0,.241.08h3.991A.284.284,0,0,0,133.6-21a.284.284,0,0,0,.08-.241v-5a.284.284,0,0,0-.08-.241.284.284,0,0,0-.241-.08H129.41a.284.284,0,0,0-.241.08.284.284,0,0,0-.08.241v.917q0,2.66-.046,4.082Zm4.633-15.6q0-.367-.321-.367H129.41q-.321,0-.321.367v4.725q0,.367.321.367h3.945q.321,0,.321-.367Zm2.477-5.5a2.64,2.64,0,0,1,1.9.78,2.579,2.579,0,0,1,.8,1.927V-6.24a10.066,10.066,0,0,1-.413,3.234,3.532,3.532,0,0,1-1.514,1.858,9.054,9.054,0,0,1-3.853.963H132.9a2.8,2.8,0,0,1-1.835-.688,3.7,3.7,0,0,1-1.2-1.927.407.407,0,0,0-.046-.183,2.18,2.18,0,0,1-.092-.6,1.832,1.832,0,0,1,.367-1.1,1.753,1.753,0,0,1,1.514-.78q.321,0,.734-.023t.55-.023a.819.819,0,0,0,.6-.183.9.9,0,0,0,.184-.642v-8.945q0-.367-.321-.367h-4.266q-.321,0-.367.367a52.591,52.591,0,0,1-2.339,12.752,1.7,1.7,0,0,1-1.239,1.239,3.016,3.016,0,0,1-.734.092,2.169,2.169,0,0,1-1.1-.321,3.11,3.11,0,0,1-1.376-1.56,3.463,3.463,0,0,1-.183-1.1,3.179,3.179,0,0,1,.138-.917,36.394,36.394,0,0,0,1.468-6.789q.5-3.9.6-6.743t.092-6.7V-39.635a2.579,2.579,0,0,1,.8-1.927,2.64,2.64,0,0,1,1.9-.78ZM147.07-20.874a.18.18,0,0,0-.183-.138q-.138,0-.138.183V-4.91a.185.185,0,0,0,.092.183.2.2,0,0,0,.183,0,21.759,21.759,0,0,0,5.229-4.358.422.422,0,0,0,.046-.55,47.464,47.464,0,0,1-5.229-11.239Zm11.284.229a.253.253,0,0,0-.046-.252.282.282,0,0,0-.229-.115h-5.963a.225.225,0,0,0-.206.115.29.29,0,0,0-.023.252,35.891,35.891,0,0,0,3.3,6.7.285.285,0,0,0,.206.092.164.164,0,0,0,.161-.092,34.632,34.632,0,0,0,2.8-6.7Zm2.064-5.413a4.234,4.234,0,0,1,.6-.046,2.738,2.738,0,0,1,.872.138l.963.321a1.953,1.953,0,0,1,1.078.872,1.9,1.9,0,0,1,.252,1.376,42.662,42.662,0,0,1-5.138,13.716.422.422,0,0,0,.046.55A26.267,26.267,0,0,0,163.4-5.69a2.08,2.08,0,0,1,1.055,1.468,2.128,2.128,0,0,1,.046.413,2.187,2.187,0,0,1-.5,1.376l-.138.138a2.915,2.915,0,0,1-1.789,1.147,2.18,2.18,0,0,1-.6.092,2.531,2.531,0,0,1-1.422-.459,29.331,29.331,0,0,1-4.128-3.44.334.334,0,0,0-.25-.113.334.334,0,0,0-.25.113,23.58,23.58,0,0,1-3.67,3.3,2.5,2.5,0,0,1-1.376.413,4.234,4.234,0,0,1-.6-.046,2.9,2.9,0,0,1-1.743-1.147,11.6,11.6,0,0,0-1.055-1.239.091.091,0,0,0-.058-.057.091.091,0,0,0-.08.011.147.147,0,0,0-.092.138v.826a2.563,2.563,0,0,1-.78,1.881,2.563,2.563,0,0,1-1.881.78,2.563,2.563,0,0,1-1.881-.78,2.563,2.563,0,0,1-.78-1.881V-39.589a2.579,2.579,0,0,1,.8-1.927,2.64,2.64,0,0,1,1.9-.78h16.193a2.617,2.617,0,0,1,1.927.78,2.617,2.617,0,0,1,.78,1.927v6.33A6.65,6.65,0,0,1,162.5-30.3a3.287,3.287,0,0,1-1.95,1.537,18.268,18.268,0,0,1-5.6.734H154.9a2.976,2.976,0,0,1-1.881-.688,4.231,4.231,0,0,1-1.239-1.743,1.875,1.875,0,0,1-.092-.6,1.546,1.546,0,0,1,.275-.872,1.459,1.459,0,0,1,1.284-.688h2.018q.917,0,1.422-.046a1.291,1.291,0,0,0,.757-.161.688.688,0,0,0,.206-.573v-3.4q0-.367-.321-.367H147.07q-.321,0-.321.367v10.413q0,.367.321.367h13.165a.407.407,0,0,0,.184-.042Zm52.73,7.89q-.046.321.321.321H220.9a2.305,2.305,0,0,1,1.789.826,2.2,2.2,0,0,1,.688,1.606.865.865,0,0,1-.046.275,73.453,73.453,0,0,1-1.216,8.647,9.159,9.159,0,0,1-1.674,4.014A5.479,5.479,0,0,1,217-.828q-1.009.092-2.569.138a2.718,2.718,0,0,1-1.927-.78,3.965,3.965,0,0,1-1.19-1.93l-.046-.046a3.341,3.341,0,0,1-.046-.55,1.722,1.722,0,0,1,.321-1,1.573,1.573,0,0,1,1.33-.688H214.3a2.262,2.262,0,0,0,1.514-.5q1.009-.963,1.743-6.651.046-.367-.321-.367h-4.771a.41.41,0,0,0-.413.367,19.419,19.419,0,0,1-3.486,6.7,19.034,19.034,0,0,1-6.33,4.908,2.825,2.825,0,0,1-1.193.275,3.179,3.179,0,0,1-.917-.138,3.79,3.79,0,0,1-1.789-1.33,2.147,2.147,0,0,1-.413-1.239,2.334,2.334,0,0,1,.046-.459A1.817,1.817,0,0,1,199.025-5.5a14.341,14.341,0,0,0,7.2-7.385.206.206,0,0,0-.023-.206A.225.225,0,0,0,206-13.2h-2.982a2.292,2.292,0,0,1-1.651-.665,2.178,2.178,0,0,1-.688-1.628,2.252,2.252,0,0,1,.688-1.651,2.252,2.252,0,0,1,1.651-.688h4.174a.4.4,0,0,0,.413-.321q.092-.6.138-1.147a3.027,3.027,0,0,1,.986-1.927,2.853,2.853,0,0,1,2-.78h.138a2.353,2.353,0,0,1,1.835.826,2.225,2.225,0,0,1,.642,1.56,1.347,1.347,0,0,1-.046.321q-.053.586-.145,1.137ZM215.03-34.36a.206.206,0,0,0-.023-.206.194.194,0,0,0-.161-.115h-6.33q-.092,0-.138.115a.243.243,0,0,0,0,.206,19.518,19.518,0,0,0,3.44,3.486.317.317,0,0,0,.261.1.317.317,0,0,0,.239-.146,15.128,15.128,0,0,0,2.712-3.44Zm8.4-4.266a2.252,2.252,0,0,1,.688,1.651,2.178,2.178,0,0,1-.688,1.628,2.292,2.292,0,0,1-1.651.665h-.092a.4.4,0,0,0-.413.321,24,24,0,0,1-4.358,6.33q-.229.229.092.367a32.878,32.878,0,0,0,5.688,2.018,1.552,1.552,0,0,1,1.147,1.1,1.733,1.733,0,0,1,.092.55,1.579,1.579,0,0,1-.367,1.009,2.133,2.133,0,0,0-.321.413,3.943,3.943,0,0,1-1.835,1.468,3.3,3.3,0,0,1-1.193.229,2.936,2.936,0,0,1-1.009-.183,33.069,33.069,0,0,1-6.7-3.073.53.53,0,0,0-.6,0,34.655,34.655,0,0,1-7.248,3.165,3.6,3.6,0,0,1-.78.092,2.57,2.57,0,0,1-.963-.183,2.961,2.961,0,0,1-1.422-1.1.137.137,0,0,0-.138-.023q-.092.023-.092.069a57.663,57.663,0,0,1-1.56,5.642,1.656,1.656,0,0,1-1.009,1.147,2.078,2.078,0,0,1-.734.138,2.018,2.018,0,0,1-.826-.183,2.508,2.508,0,0,1-1.193-1.193,2.522,2.522,0,0,1-.229-1.055,2.327,2.327,0,0,1,.092-.642q.5-2.018.917-4.128.046-.321-.321-.321H194.61a.284.284,0,0,0-.241.08.284.284,0,0,0-.08.241V-6.2a8.992,8.992,0,0,1-.436,3.142,3.212,3.212,0,0,1-1.583,1.72,9.79,9.79,0,0,1-3.945.963h-.183a2.8,2.8,0,0,1-1.835-.688,3.592,3.592,0,0,1-1.239-1.927.187.187,0,0,1-.046-.138,1.523,1.523,0,0,1-.138-.6,1.832,1.832,0,0,1,.367-1.1,1.712,1.712,0,0,1,1.468-.78h1.56a1.291,1.291,0,0,0,.573-.161q.161-.115.161-.528v-9.725q0-.046-.069-.069t-.069.069a34.347,34.347,0,0,1-3.9,6.376,1.394,1.394,0,0,1-1.147.6,1.508,1.508,0,0,1-.367-.046,1.8,1.8,0,0,1-1.33-1.055l-.275-.55a3.831,3.831,0,0,1-.367-1.651,3.34,3.34,0,0,1,.046-.55A4.178,4.178,0,0,1,182.5-15a30.947,30.947,0,0,0,4.633-7.431.164.164,0,0,0-.023-.183.2.2,0,0,0-.161-.092h-3.119a2.307,2.307,0,0,1-1.72-.734,2.42,2.42,0,0,1-.711-1.743,2.343,2.343,0,0,1,.711-1.72,2.343,2.343,0,0,1,1.72-.711h7.982q.092,0,.092-.069a.156.156,0,0,0-.046-.115q-3.028-1.789-6.468-3.4a1.665,1.665,0,0,1-1.009-1.239V-32.8a1.658,1.658,0,0,1,.459-1.147A3.763,3.763,0,0,1,186.772-35a3.6,3.6,0,0,1,.78-.092,3.8,3.8,0,0,1,1.422.275q.55.229,1.055.459a.46.46,0,0,0,.55-.092,31.547,31.547,0,0,0,2.477-2.477.15.15,0,0,0,.046-.183.147.147,0,0,0-.138-.092h-8.578a2.306,2.306,0,0,1-1.7-.688A2.252,2.252,0,0,1,182-39.543a2.252,2.252,0,0,1,.688-1.651,2.306,2.306,0,0,1,1.7-.688H197.1a.407.407,0,0,0,.183-.046,1.922,1.922,0,0,1,1.422.275l1.1.688a2.092,2.092,0,0,1,.963,1.33,2.334,2.334,0,0,1,.046.459,1.832,1.832,0,0,1-.367,1.1,38.305,38.305,0,0,1-5.459,5.78q-.229.229.092.367l.826.459a1.9,1.9,0,0,1,1.009,1.606.866.866,0,0,1,.046.275,2.071,2.071,0,0,1-.642,1.514l-.183.229a.091.091,0,0,0-.057.058.091.091,0,0,0,.011.08.147.147,0,0,0,.138.092h1.835a.187.187,0,0,0,.138-.046,2.19,2.19,0,0,1,1.33.046l1.835.6a1.22,1.22,0,0,1,.6.482.943.943,0,0,1,.138.757.2.2,0,0,0,.023.092q.023.046.069,0a25.939,25.939,0,0,0,5.321-1.972q.321-.138.046-.367a27.387,27.387,0,0,1-2.89-3.395q-.183-.275-.413-.046a2.7,2.7,0,0,1-1.927.872h-.138a3.174,3.174,0,0,1-1.927-.642.719.719,0,0,1-.183-.138,1.893,1.893,0,0,1-.872-1.651,2.006,2.006,0,0,1,.688-1.514,27.528,27.528,0,0,0,5.688-7.064,3.765,3.765,0,0,1,1.651-1.514,3.344,3.344,0,0,1,1.33-.275,3.8,3.8,0,0,1,.826.092,2.2,2.2,0,0,1,1.468,1.239,2.122,2.122,0,0,1,.183.872,2.091,2.091,0,0,1-.275,1.009,3.7,3.7,0,0,0-.321.6.127.127,0,0,0-.051.087.127.127,0,0,0,.028.1.2.2,0,0,0,.161.092h11.193a2.252,2.252,0,0,1,1.647.678Z" transform="translate(304.927 316.924)" fill="#f3704e" opacity="0.92"/>
      <path id="Path_1737" data-name="Path 1737" d="M26.782-20.7a.324.324,0,0,0,.092.275.324.324,0,0,0,.275.092h9.908a.324.324,0,0,0,.275-.092.324.324,0,0,0,.092-.275v-9.4q0-.321-.367-.321H27.149q-.367,0-.367.321Zm-16.468,0a.324.324,0,0,0,.092.275.324.324,0,0,0,.275.092h9.862q.321,0,.321-.367v-9.4a.284.284,0,0,0-.08-.241.284.284,0,0,0-.241-.08H10.681q-.367,0-.367.321ZM26.782-36.3a.324.324,0,0,0,.092.275.324.324,0,0,0,.275.092H40.59a2.64,2.64,0,0,1,1.9.78,2.579,2.579,0,0,1,.8,1.927V-15.2a2.6,2.6,0,0,1-.8,1.9,2.6,2.6,0,0,1-1.9.8h-1.1a1.958,1.958,0,0,1-1.468-.619,2.072,2.072,0,0,1-.6-1.491q0-.229-.275-.229h-10q-.367,0-.367.321V-2.9A2.617,2.617,0,0,1,26-.978a2.617,2.617,0,0,1-1.927.78h-.5a2.64,2.64,0,0,1-1.9-.78,2.579,2.579,0,0,1-.8-1.927v-11.6a.284.284,0,0,0-.08-.241.284.284,0,0,0-.241-.08H10.589a.243.243,0,0,0-.206.069.243.243,0,0,0-.069.206,2.215,2.215,0,0,1-.665,1.628,2.215,2.215,0,0,1-1.628.665H7.378a2.6,2.6,0,0,1-1.9-.8,2.6,2.6,0,0,1-.8-1.9V-33.226a2.579,2.579,0,0,1,.8-1.927,2.64,2.64,0,0,1,1.9-.78H20.544q.321,0,.321-.367v-5.046a2.579,2.579,0,0,1,.8-1.927,2.64,2.64,0,0,1,1.9-.78h.5a2.617,2.617,0,0,1,1.927.78,2.617,2.617,0,0,1,.78,1.927ZM94.237-25.428a2.427,2.427,0,0,1-.413-1.33,2.7,2.7,0,0,1,.092-.642,2.376,2.376,0,0,1,1.193-1.514l.321-.138a2.985,2.985,0,0,1,1.422-.367,3.016,3.016,0,0,1,.734.092,3.067,3.067,0,0,1,1.835,1.239,59.437,59.437,0,0,1,3.67,6.284,50.8,50.8,0,0,1,2.477,5.826,2.936,2.936,0,0,1,.183,1.009,2.825,2.825,0,0,1-.275,1.193,3.192,3.192,0,0,1-1.56,1.606l-.826.413a2.08,2.08,0,0,1-.94.229,2.08,2.08,0,0,1-.94-.229,2.077,2.077,0,0,1-1.193-1.422,53.833,53.833,0,0,0-2.248-5.78,61.3,61.3,0,0,0-3.532-6.469ZM65.475-25.7a2.408,2.408,0,0,1,1.055-1.743,2.324,2.324,0,0,1,1.376-.459,3.343,3.343,0,0,1,.55.046l.183.046a2.935,2.935,0,0,1,1.835,1.147,2.883,2.883,0,0,1,.55,1.7,2.126,2.126,0,0,1-.046.413,47.062,47.062,0,0,1-3.395,13.165A2.232,2.232,0,0,1,65.977-10.1a3.016,3.016,0,0,1-.734.092,2.647,2.647,0,0,1-1.33-.367l-.55-.321A2.4,2.4,0,0,1,62.17-12.3a2.2,2.2,0,0,1-.138-.78,2.85,2.85,0,0,1,.321-1.284A36.147,36.147,0,0,0,65.475-25.7ZM76.9-39.6a1.808,1.808,0,0,1-1.193-1.33,3.344,3.344,0,0,1-.046-.55,2.147,2.147,0,0,1,.413-1.239l.183-.138a3.5,3.5,0,0,1,1.927-1.284,3.335,3.335,0,0,1,.963-.138,3.344,3.344,0,0,1,1.33.275q2.89,1.193,5.917,2.752,2.844,1.514,5.046,2.936a2.236,2.236,0,0,1,1.1,1.7,2.334,2.334,0,0,1,.046.459,2.5,2.5,0,0,1-.5,1.514l-.459.6a2.453,2.453,0,0,1-1.743,1.009,2.126,2.126,0,0,1-.413.046,2.618,2.618,0,0,1-1.606-.55,55.216,55.216,0,0,0-4.954-3.028Q79.833-38.272,76.9-39.6ZM74.194-29a2.6,2.6,0,0,1,.8-1.9,2.6,2.6,0,0,1,1.9-.8h.413a2.6,2.6,0,0,1,1.9.8,2.6,2.6,0,0,1,.8,1.9V-9.419a3.342,3.342,0,0,0,.436,2.133,3.239,3.239,0,0,0,2.087.436H89a2.176,2.176,0,0,0,2.248-1.56,23.858,23.858,0,0,0,.6-4.541,1.455,1.455,0,0,1,.826-1.284,1.687,1.687,0,0,1,.826-.229,1.72,1.72,0,0,1,.78.183l.367.183a3.684,3.684,0,0,1,1.789,1.468,2.883,2.883,0,0,1,.55,1.7v.413q-.55,4.5-1.789,6.376Q93.635-1.71,89.461-1.71H81.806q-4.45,0-6.032-1.628T74.191-9.419Z" transform="translate(546.845 316.983)" fill="#f3704e" opacity="0.92"/>
      <path id="Subtraction_1" data-name="Subtraction 1" d="M344.372,48.465a44.86,44.86,0,0,1-17.4-3.473,44.668,44.668,0,0,1-14.218-9.474,44.667,44.667,0,0,1-14.218,9.474,44.86,44.86,0,0,1-17.4,3.473,44.946,44.946,0,0,1-16.228-3,44.718,44.718,0,0,1-13.582-8.255,44.713,44.713,0,0,1-13.581,8.255,45.35,45.35,0,0,1-32.233.086,44.7,44.7,0,0,1-13.451-8.031,44.711,44.711,0,0,1-13.451,8.031,45.356,45.356,0,0,1-32.008,0,44.7,44.7,0,0,1-13.451-8.031A44.71,44.71,0,0,1,119.7,45.548a45.358,45.358,0,0,1-32.009,0A44.7,44.7,0,0,1,74.24,37.517a44.712,44.712,0,0,1-13.451,8.031,44.962,44.962,0,0,1-16,2.917,44.859,44.859,0,0,1-17.434-3.488,44.664,44.664,0,0,1-14.237-9.512,44.215,44.215,0,0,1-9.6-14.108A43.764,43.764,0,0,1,0,4.08C0,2.721.063,1.348.187,0A44.716,44.716,0,0,0,44.611,38.7,44.832,44.832,0,0,0,75.324,26.621,44.828,44.828,0,0,0,106.038,38.7,44.89,44.89,0,0,0,136.3,27.037,44.894,44.894,0,0,0,166.56,38.7a44.894,44.894,0,0,0,30.261-11.663A44.894,44.894,0,0,0,227.083,38.7,44.831,44.831,0,0,0,257.8,26.621,44.831,44.831,0,0,0,288.508,38.7,44.894,44.894,0,0,0,318.77,27.037,44.894,44.894,0,0,0,349.032,38.7,44.7,44.7,0,0,0,386.91,18.01a44.046,44.046,0,0,1-6.345,12.221,44.764,44.764,0,0,1-9.7,9.64,44.741,44.741,0,0,1-12.311,6.323A45.107,45.107,0,0,1,344.372,48.465Z" transform="translate(283.015 294.431)" fill="#bed7ee"/>
    </g>
  </g>
</svg>
