<svg xmlns="http://www.w3.org/2000/svg" width="729.085" height="88.778" viewBox="0 0 729.085 88.778">
  <g id="backstage-title" transform="translate(-4552.907 -3546.965)">
    <g id="main-title" transform="translate(4610.574 3292.843)">
      <g id="Union_1" data-name="Union 1" transform="translate(282.837 254.126)">
        <path id="Path_1738" data-name="Path 1738" d="M343.789,87.77a43.856,43.856,0,0,1-29.148-11.008l-.662-.586-.663.586a44.026,44.026,0,0,1-58.294,0l-.662-.586-.663.586a44.092,44.092,0,0,1-58.736-.4l-.673-.611-.672.611a44.026,44.026,0,0,1-58.736.4l-.663-.586-.662.586a44.025,44.025,0,0,1-58.294,0l-.662-.586-.662.586a44.017,44.017,0,0,1-60.114-1.7,43.087,43.087,0,0,1,0-61.351,44.024,44.024,0,0,1,60.114-1.7l.662.586.662-.586a44.026,44.026,0,0,1,58.294,0l.662.586.663-.586a44.092,44.092,0,0,1,58.736.4l.672.611.673-.611a44.026,44.026,0,0,1,58.736-.4l.663.586.662-.586a44.025,44.025,0,0,1,58.294,0l.663.586.662-.586a44.017,44.017,0,0,1,60.114,1.7,43.09,43.09,0,0,1,0,61.349,43.852,43.852,0,0,1-30.965,12.71Z" fill="#fff"/>
        <path id="Path_1739" data-name="Path 1739" d="M343.789,86.77a42.854,42.854,0,0,0,30.262-12.421,42.091,42.091,0,0,0,0-59.929A43.024,43.024,0,0,0,315.3,12.757l-1.325,1.172-1.325-1.172a43.027,43.027,0,0,0-56.97,0l-1.324,1.172-1.325-1.172a43.093,43.093,0,0,0-57.4.387l-1.345,1.222-1.345-1.222a43.025,43.025,0,0,0-57.4-.387l-1.325,1.172-1.324-1.172a43.026,43.026,0,0,0-56.97,0L74.6,13.928l-1.325-1.172A43.017,43.017,0,0,0,14.528,14.42a42.086,42.086,0,0,0,0,59.929,43.024,43.024,0,0,0,58.747,1.664L74.6,74.841l1.325,1.172a43.026,43.026,0,0,0,56.97,0l1.324-1.172,1.325,1.172a43.091,43.091,0,0,0,57.4-.387l1.345-1.222,1.345,1.222a43.026,43.026,0,0,0,57.4.387l1.325-1.172,1.324,1.172a43.026,43.026,0,0,0,56.97,0l1.325-1.172,1.325,1.172A42.855,42.855,0,0,0,343.789,86.77m0,2a44.855,44.855,0,0,1-29.81-11.258,45.093,45.093,0,0,1-59.619,0,45.093,45.093,0,0,1-60.072-.4,45.091,45.091,0,0,1-60.071.4,45.093,45.093,0,0,1-59.619,0A44.874,44.874,0,0,1,0,44.384,44.874,44.874,0,0,1,74.6,11.258a45.093,45.093,0,0,1,59.619,0,45.092,45.092,0,0,1,60.071.4,45.093,45.093,0,0,1,60.072-.4,45.094,45.094,0,0,1,59.619,0,44.873,44.873,0,0,1,74.6,33.126A44.587,44.587,0,0,1,343.789,88.77Z" fill="#bed7ee"/>
      </g>
      <path id="Subtraction_1" data-name="Subtraction 1" d="M344.372,48.465a44.86,44.86,0,0,1-17.4-3.473,44.668,44.668,0,0,1-14.218-9.474,44.667,44.667,0,0,1-14.218,9.474,44.86,44.86,0,0,1-17.4,3.473,44.946,44.946,0,0,1-16.228-3,44.718,44.718,0,0,1-13.582-8.255,44.713,44.713,0,0,1-13.581,8.255,45.35,45.35,0,0,1-32.233.086,44.7,44.7,0,0,1-13.451-8.031,44.711,44.711,0,0,1-13.451,8.031,45.356,45.356,0,0,1-32.008,0,44.7,44.7,0,0,1-13.451-8.031A44.71,44.71,0,0,1,119.7,45.548a45.358,45.358,0,0,1-32.009,0A44.7,44.7,0,0,1,74.24,37.517a44.712,44.712,0,0,1-13.451,8.031,44.962,44.962,0,0,1-16,2.917,44.859,44.859,0,0,1-17.434-3.488,44.664,44.664,0,0,1-14.237-9.512,44.215,44.215,0,0,1-9.6-14.108A43.764,43.764,0,0,1,0,4.08C0,2.721.063,1.348.187,0A44.716,44.716,0,0,0,44.611,38.7,44.832,44.832,0,0,0,75.324,26.621,44.828,44.828,0,0,0,106.038,38.7,44.89,44.89,0,0,0,136.3,27.037,44.894,44.894,0,0,0,166.56,38.7a44.894,44.894,0,0,0,30.261-11.663A44.894,44.894,0,0,0,227.083,38.7,44.831,44.831,0,0,0,257.8,26.621,44.831,44.831,0,0,0,288.508,38.7,44.894,44.894,0,0,0,318.77,27.037,44.894,44.894,0,0,0,349.032,38.7,44.7,44.7,0,0,0,386.91,18.01a44.046,44.046,0,0,1-6.345,12.221,44.764,44.764,0,0,1-9.7,9.64,44.742,44.742,0,0,1-12.311,6.323,45.107,45.107,0,0,1-14.182,2.271Z" transform="translate(283.015 294.431)" fill="#bed7ee"/>
    </g>
    <g id="logo" transform="translate(4552.407 3565.965)">
      <path id="Path_1742" data-name="Path 1742" d="M43.094,0C19.562,0,.5,11.521.5,25.7s19.062,25.7,42.594,25.7S85.687,39.87,85.687,25.7,66.625,0,43.094,0ZM68.3,30.828c-1.746-.384-4.224-2.933-7.367-3.456-3.177-.524-5.516-.14-6.948,2.653s-3.317,8.9-3.84,9.88-4.5,3.456-8.973.209c-.908-.594-2.549-3.387-1.746-6.633.838-3.247,4.888-3.317,5.272-.908-.838-.14-2.723.07-1.815,2.025s4.085,1.362,4.888-.524c.838-1.885.908-3.631-.663-4.958-1.571-1.362-3.247-2.549-5.342-1.955s-4.748,2.723-6.319,3.526c-1.571.838-5.656,1.885-8.449.594s-6.18-4.888-9.042-5.865-4.434-1.955-6.773-1.362c-2.409.768-4.608,1.466-4.608.663.07-.384,4.713-4.294,10.544-3.247,5.132.908,4.678,3.317,10.09,3.526,4.4.175,5.586-4.224,6.389-7.681.908-3.84,4.294-8.589,9.95-5.935,5.411,3.771,2.409,8.379,1.955,8.973s-3.771,1.955-3.631.209c.384-.454,1.571-1.117,1.5-1.885a2.505,2.505,0,0,0-2.409-2.269,3.438,3.438,0,0,0-3.317,3.456c.07,1.955.454,4.888,5.8,5.411,3.7.07,6.11-4.224,11.137-4.678,5.062-.454,8.135,2.723,12.429,5.656s11.242,1.222,12.883.594C78.914,28.279,75.807,31.526,68.3,30.828Z" fill="#374a87"/>
      <path id="Path_1743" data-name="Path 1743" d="M279.466,106.145h-1.4a2.755,2.755,0,0,0-.419-1.047,3.081,3.081,0,0,0-.733-.768,2.95,2.95,0,0,0-.943-.454,3.683,3.683,0,0,0-1.082-.14,3.484,3.484,0,0,0-1.885.524,3.589,3.589,0,0,0-1.327,1.536,5.972,5.972,0,0,0-.489,2.514,6.087,6.087,0,0,0,.489,2.514,3.4,3.4,0,0,0,1.327,1.536,3.484,3.484,0,0,0,1.885.524,3.683,3.683,0,0,0,1.082-.14,2.95,2.95,0,0,0,.943-.454,3.082,3.082,0,0,0,.733-.768,2.755,2.755,0,0,0,.419-1.047h1.4a4.421,4.421,0,0,1-.559,1.571,5.522,5.522,0,0,1-1.012,1.187,5.138,5.138,0,0,1-1.362.733,4.785,4.785,0,0,1-5.97-2.479,7.15,7.15,0,0,1-.663-3.107,6.587,6.587,0,0,1,.663-3.107,4.82,4.82,0,0,1,1.781-2.025,5.226,5.226,0,0,1,4.19-.454,4.247,4.247,0,0,1,1.362.733,3.343,3.343,0,0,1,1.012,1.187A3,3,0,0,1,279.466,106.145Zm5.656,8.03a3.8,3.8,0,0,1-2.13-.559,3.636,3.636,0,0,1-1.362-1.536,5.676,5.676,0,0,1,0-4.608,3.73,3.73,0,0,1,1.362-1.571,3.606,3.606,0,0,1,2.025-.559,4.385,4.385,0,0,1,1.327.209,3.057,3.057,0,0,1,1.187.733,3.336,3.336,0,0,1,.838,1.327,5.738,5.738,0,0,1,.314,2.025v.559h-6.6v-1.152h5.272a3.053,3.053,0,0,0-.279-1.292,2.234,2.234,0,0,0-.8-.908,2.359,2.359,0,0,0-1.222-.314,2.491,2.491,0,0,0-1.362.384,2.466,2.466,0,0,0-.873,1.012,2.964,2.964,0,0,0-.314,1.327v.768a3.357,3.357,0,0,0,.349,1.641,2.22,2.22,0,0,0,.943,1.012,3.073,3.073,0,0,0,2.339.209,1.994,1.994,0,0,0,.733-.454,2.69,2.69,0,0,0,.489-.733l1.257.349a2.921,2.921,0,0,1-1.85,1.92A6.61,6.61,0,0,1,285.122,114.175ZM292,108.833V114h-1.327v-8.554h1.257v1.327h.1a2.61,2.61,0,0,1,.908-1.047,2.772,2.772,0,0,1,1.571-.419,3.118,3.118,0,0,1,1.536.349,2.539,2.539,0,0,1,1.012,1.082,4.011,4.011,0,0,1,.349,1.815V114h-1.292v-5.342a2.248,2.248,0,0,0-.524-1.571,1.843,1.843,0,0,0-1.431-.559,2.3,2.3,0,0,0-1.117.279,1.9,1.9,0,0,0-.768.8A2.189,2.189,0,0,0,292,108.833Zm11.591-3.387v1.117h-4.434v-1.117Zm-3.142-2.06h1.327v8.17a1.666,1.666,0,0,0,.175.838.888.888,0,0,0,.419.384,1.447,1.447,0,0,0,.559.1.973.973,0,0,0,.349-.035.614.614,0,0,1,.209-.035l.279,1.187a2.831,2.831,0,0,1-.384.1,2.769,2.769,0,0,1-.594.07,2.339,2.339,0,0,1-1.082-.244,2.238,2.238,0,0,1-.873-.733,1.949,1.949,0,0,1-.349-1.222v-8.589ZM305.581,114v-8.554h1.257v1.292h.1a2.207,2.207,0,0,1,.838-1.047,2.409,2.409,0,0,1,1.4-.384h.663v1.327a1.929,1.929,0,0,0-.314-.035,2.147,2.147,0,0,0-.489-.035,2.3,2.3,0,0,0-1.117.279,2.126,2.126,0,0,0-.768.7,2.036,2.036,0,0,0-.279,1.047V114Zm8.344.209a3.24,3.24,0,0,1-1.466-.314,2.429,2.429,0,0,1-1.047-.908,2.649,2.649,0,0,1-.384-1.431,2.386,2.386,0,0,1,.279-1.187,2.2,2.2,0,0,1,.768-.733,3.623,3.623,0,0,1,1.082-.384,7.056,7.056,0,0,1,1.187-.209c.524-.07.943-.1,1.257-.14a2.217,2.217,0,0,0,.7-.175.5.5,0,0,0,.244-.454v-.035a1.719,1.719,0,0,0-.454-1.292,1.785,1.785,0,0,0-1.362-.454,2.291,2.291,0,0,0-1.466.419,2.943,2.943,0,0,0-.768.873l-1.257-.454a2.75,2.75,0,0,1,.908-1.222,4.061,4.061,0,0,1,1.222-.628,5.767,5.767,0,0,1,1.327-.175,4.854,4.854,0,0,1,.943.1,4.234,4.234,0,0,1,1.047.384,2.122,2.122,0,0,1,.838.908,3.58,3.58,0,0,1,.349,1.641V114h-1.327v-1.152h-.07a2.988,2.988,0,0,1-.454.594,3.176,3.176,0,0,1-.838.559A3.258,3.258,0,0,1,313.925,114.21Zm.209-1.187a2.664,2.664,0,0,0,1.327-.314,1.976,1.976,0,0,0,.8-.8,2.1,2.1,0,0,0,.279-1.012v-1.222a.654.654,0,0,1-.384.175c-.175.035-.384.1-.663.14-.244.035-.489.07-.7.1s-.419.035-.559.07a3.74,3.74,0,0,0-.943.209,1.621,1.621,0,0,0-.7.454,1.178,1.178,0,0,0-.279.8,1.2,1.2,0,0,0,.524,1.047A2.166,2.166,0,0,0,314.134,113.023Zm7.436-10.439V114h-1.327V102.584ZM330.648,114l-3.107-11.416h1.4l2.374,9.322h.1l2.444-9.322h1.571l2.444,9.322h.1l2.374-9.322h1.4L338.643,114h-1.431l-2.514-9.112h-.1L332.08,114Zm15.466.175a3.8,3.8,0,0,1-2.13-.559,3.636,3.636,0,0,1-1.362-1.536,5.676,5.676,0,0,1,0-4.608,3.731,3.731,0,0,1,1.362-1.571,3.606,3.606,0,0,1,2.025-.559,4.384,4.384,0,0,1,1.327.209,3.057,3.057,0,0,1,1.187.733,3.335,3.335,0,0,1,.838,1.327,5.738,5.738,0,0,1,.314,2.025v.559h-6.6v-1.152h5.272a3.053,3.053,0,0,0-.279-1.292,2.234,2.234,0,0,0-.8-.908,2.358,2.358,0,0,0-1.222-.314,2.491,2.491,0,0,0-1.362.384,2.465,2.465,0,0,0-.873,1.012,2.963,2.963,0,0,0-.314,1.327v.768a3.357,3.357,0,0,0,.349,1.641,2.054,2.054,0,0,0,.943,1.012,2.6,2.6,0,0,0,1.4.349,2.676,2.676,0,0,0,.943-.14,1.993,1.993,0,0,0,.733-.454,2.69,2.69,0,0,0,.489-.733l1.257.349a2.921,2.921,0,0,1-1.85,1.92A6.214,6.214,0,0,1,346.115,114.175Zm8.065.035a3.24,3.24,0,0,1-1.466-.314,2.429,2.429,0,0,1-1.047-.908,2.649,2.649,0,0,1-.384-1.431,2.386,2.386,0,0,1,.279-1.187,2.2,2.2,0,0,1,.768-.733,3.306,3.306,0,0,1,1.082-.384,7.056,7.056,0,0,1,1.187-.209c.524-.07.943-.1,1.257-.14a2.217,2.217,0,0,0,.7-.175.5.5,0,0,0,.244-.454v-.035a1.719,1.719,0,0,0-.454-1.292,1.785,1.785,0,0,0-1.362-.454,2.291,2.291,0,0,0-1.466.419,2.943,2.943,0,0,0-.768.873l-1.257-.454a2.75,2.75,0,0,1,.908-1.222,4.061,4.061,0,0,1,1.222-.628,5.767,5.767,0,0,1,1.327-.175,4.855,4.855,0,0,1,.943.1,4.234,4.234,0,0,1,1.047.384,2.122,2.122,0,0,1,.838.908,3.58,3.58,0,0,1,.349,1.641V114H356.8v-1.152h-.07a2.987,2.987,0,0,1-.454.594,3.177,3.177,0,0,1-.838.559A3.139,3.139,0,0,1,354.179,114.21Zm.209-1.187a2.664,2.664,0,0,0,1.327-.314,1.976,1.976,0,0,0,.8-.8,2.1,2.1,0,0,0,.279-1.012v-1.222a.654.654,0,0,1-.384.175c-.175.035-.419.1-.663.14s-.489.07-.7.1-.419.035-.559.07a3.741,3.741,0,0,0-.943.209,1.621,1.621,0,0,0-.7.454,1.178,1.178,0,0,0-.279.8,1.2,1.2,0,0,0,.524,1.047A2.166,2.166,0,0,0,354.389,113.023Zm9.845-7.576v1.117H359.8v-1.117Zm-3.142-2.06h1.327v8.17a1.666,1.666,0,0,0,.175.838.888.888,0,0,0,.419.384,1.447,1.447,0,0,0,.559.1.973.973,0,0,0,.349-.035.614.614,0,0,1,.209-.035l.279,1.187a2.832,2.832,0,0,1-.384.1,2.769,2.769,0,0,1-.594.07,2.339,2.339,0,0,1-1.082-.244,2.238,2.238,0,0,1-.873-.733,1.949,1.949,0,0,1-.349-1.222v-8.589Zm6.633,5.446V114H366.4V102.584h1.327v4.19h.1a2.222,2.222,0,0,1,.908-1.047,2.812,2.812,0,0,1,1.606-.384,3.118,3.118,0,0,1,1.536.349,2.348,2.348,0,0,1,1.012,1.082,3.994,3.994,0,0,1,.384,1.815V114H371.95v-5.342a2.19,2.19,0,0,0-.524-1.571,1.871,1.871,0,0,0-1.466-.559,2.551,2.551,0,0,0-1.152.279,1.976,1.976,0,0,0-.8.8A2.529,2.529,0,0,0,367.726,108.833Zm11.556,5.342a3.8,3.8,0,0,1-2.13-.559,3.636,3.636,0,0,1-1.362-1.536,5.676,5.676,0,0,1,0-4.608,3.731,3.731,0,0,1,1.362-1.571,3.606,3.606,0,0,1,2.025-.559,4.384,4.384,0,0,1,1.327.209,3.057,3.057,0,0,1,1.187.733,3.336,3.336,0,0,1,.838,1.327,5.738,5.738,0,0,1,.314,2.025v.559h-6.6v-1.152h5.272a3.053,3.053,0,0,0-.279-1.292,2.235,2.235,0,0,0-.8-.908,2.358,2.358,0,0,0-1.222-.314,2.491,2.491,0,0,0-1.362.384,2.465,2.465,0,0,0-.873,1.012,2.963,2.963,0,0,0-.314,1.327v.768a3.357,3.357,0,0,0,.349,1.641,2.053,2.053,0,0,0,.943,1.012,3.073,3.073,0,0,0,2.339.209,1.994,1.994,0,0,0,.733-.454,2.691,2.691,0,0,0,.489-.733l1.257.349a2.921,2.921,0,0,1-1.85,1.92A6.213,6.213,0,0,1,379.282,114.175Zm5.551-.175v-8.554h1.257v1.292h.1a2.207,2.207,0,0,1,.838-1.047,2.409,2.409,0,0,1,1.4-.384h.663v1.327a1.931,1.931,0,0,0-.314-.035,2.147,2.147,0,0,0-.489-.035,2.3,2.3,0,0,0-1.117.279,2.126,2.126,0,0,0-.768.7,2.036,2.036,0,0,0-.279,1.047V114Zm10.928,0h-1.466l4.19-11.416h1.431L404.1,114h-1.466l-3.421-9.636h-.1Zm.524-4.469h5.83v1.222h-5.83Zm12.673,4.643a3.162,3.162,0,0,1-1.885-.559,3.52,3.52,0,0,1-1.292-1.536,5.543,5.543,0,0,1-.454-2.374,5.381,5.381,0,0,1,.454-2.339,3.353,3.353,0,0,1,3.212-2.06,2.778,2.778,0,0,1,1.327.279,1.888,1.888,0,0,1,.733.628c.175.244.314.419.419.559h.1v-4.224H412.9V114h-1.257v-1.327h-.14c-.1.14-.244.349-.419.594a2.017,2.017,0,0,1-.768.628A3.147,3.147,0,0,1,408.958,114.175Zm.175-1.187a2.079,2.079,0,0,0,1.327-.419,2.9,2.9,0,0,0,.838-1.152,5.167,5.167,0,0,0,.279-1.711,4.956,4.956,0,0,0-.279-1.676,2.281,2.281,0,0,0-2.2-1.536,2.286,2.286,0,0,0-1.4.419,2.605,2.605,0,0,0-.838,1.152,4.75,4.75,0,0,0-.279,1.641,5.272,5.272,0,0,0,.279,1.676,2.64,2.64,0,0,0,.838,1.187A2.469,2.469,0,0,0,409.132,112.988ZM415.486,114v-8.554h1.257v1.327h.1a2.205,2.205,0,0,1,.873-1.082,2.649,2.649,0,0,1,1.431-.384,2.444,2.444,0,0,1,1.4.384,2.278,2.278,0,0,1,.873,1.082h.1a2.366,2.366,0,0,1,.978-1.047,2.918,2.918,0,0,1,1.571-.384,2.552,2.552,0,0,1,1.885.733,3.022,3.022,0,0,1,.733,2.234V114h-1.327v-5.726a1.642,1.642,0,0,0-.524-1.362,1.921,1.921,0,0,0-1.222-.419,1.72,1.72,0,0,0-1.4.559,1.968,1.968,0,0,0-.489,1.362V114h-1.327v-5.865a1.6,1.6,0,0,0-.489-1.187,1.659,1.659,0,0,0-1.222-.454,1.756,1.756,0,0,0-.943.279,1.876,1.876,0,0,0-.7.768,2.3,2.3,0,0,0-.279,1.117V114Zm13.651,0v-8.554h1.327V114Zm.663-9.985a.954.954,0,0,1-.663-.279.847.847,0,0,1,0-1.257.954.954,0,0,1,.663-.279.825.825,0,0,1,.663.279.847.847,0,0,1,0,1.257A.954.954,0,0,1,429.8,104.015Zm4.364,4.818V114h-1.327v-8.554h1.257v1.327h.1a2.61,2.61,0,0,1,.908-1.047,2.773,2.773,0,0,1,1.571-.419,3.118,3.118,0,0,1,1.536.349,2.54,2.54,0,0,1,1.012,1.082,4.011,4.011,0,0,1,.349,1.815V114h-1.327v-5.342a2.248,2.248,0,0,0-.524-1.571,1.843,1.843,0,0,0-1.431-.559,2.3,2.3,0,0,0-1.117.279,1.9,1.9,0,0,0-.768.8A3.034,3.034,0,0,0,434.165,108.833Zm7.89,5.167v-8.554h1.327V114Zm.663-9.985a.954.954,0,0,1-.663-.279.847.847,0,0,1,0-1.257.954.954,0,0,1,.663-.279.825.825,0,0,1,.663.279.847.847,0,0,1,0,1.257A.954.954,0,0,1,442.718,104.015Zm9.147,3.352-1.187.349a1.771,1.771,0,0,0-.314-.559,1.582,1.582,0,0,0-.594-.454,1.9,1.9,0,0,0-.943-.175,2.28,2.28,0,0,0-1.327.349,1.1,1.1,0,0,0-.524.908.9.9,0,0,0,.349.768,3.4,3.4,0,0,0,1.117.489l1.257.314a3.423,3.423,0,0,1,1.711.838,1.973,1.973,0,0,1,.559,1.466,2.222,2.222,0,0,1-.419,1.327,2.641,2.641,0,0,1-1.187.908,4.44,4.44,0,0,1-1.746.349,3.766,3.766,0,0,1-2.165-.559,2.551,2.551,0,0,1-1.082-1.676l1.257-.314a1.824,1.824,0,0,0,.663,1.047,2.208,2.208,0,0,0,1.327.349,2.526,2.526,0,0,0,1.466-.384,1.247,1.247,0,0,0,.559-.943.9.9,0,0,0-.314-.733,1.984,1.984,0,0,0-.943-.454l-1.431-.349a3.572,3.572,0,0,1-1.746-.873,2.2,2.2,0,0,1-.14-2.758,2.78,2.78,0,0,1,1.117-.873,3.994,3.994,0,0,1,1.606-.314,3.135,3.135,0,0,1,1.99.559A2.335,2.335,0,0,1,451.865,107.367Zm5.865-1.92v1.117H453.3v-1.117Zm-3.177-2.06h1.327v8.17a1.666,1.666,0,0,0,.175.838.888.888,0,0,0,.419.384,1.447,1.447,0,0,0,.559.1.973.973,0,0,0,.349-.035.614.614,0,0,1,.209-.035L457.87,114a2.832,2.832,0,0,1-.384.1,2.769,2.769,0,0,1-.594.07,2.339,2.339,0,0,1-1.082-.244,2.238,2.238,0,0,1-.873-.733,1.949,1.949,0,0,1-.349-1.222v-8.589ZM459.686,114v-8.554h1.257v1.292h.1a2.207,2.207,0,0,1,.838-1.047,2.409,2.409,0,0,1,1.4-.384h.663v1.327a1.93,1.93,0,0,0-.314-.035,2.147,2.147,0,0,0-.489-.035,2.3,2.3,0,0,0-1.117.279,2.126,2.126,0,0,0-.768.7,2.035,2.035,0,0,0-.279,1.047V114Zm8.379.209a3.24,3.24,0,0,1-1.466-.314,2.429,2.429,0,0,1-1.047-.908,2.648,2.648,0,0,1-.384-1.431,2.386,2.386,0,0,1,.279-1.187,2.2,2.2,0,0,1,.768-.733,3.307,3.307,0,0,1,1.082-.384,7.056,7.056,0,0,1,1.187-.209c.524-.07.943-.1,1.257-.14a2.217,2.217,0,0,0,.7-.175.5.5,0,0,0,.244-.454v-.035a1.719,1.719,0,0,0-.454-1.292,1.785,1.785,0,0,0-1.362-.454,2.291,2.291,0,0,0-1.466.419,2.943,2.943,0,0,0-.768.873l-1.257-.454a2.75,2.75,0,0,1,.908-1.222,4.061,4.061,0,0,1,1.222-.628,5.767,5.767,0,0,1,1.327-.175,4.854,4.854,0,0,1,.943.1,4.234,4.234,0,0,1,1.047.384,2.122,2.122,0,0,1,.838.908,3.58,3.58,0,0,1,.349,1.641V114h-1.327v-1.152h-.07a2.988,2.988,0,0,1-.454.594,3.177,3.177,0,0,1-.838.559A3.383,3.383,0,0,1,468.065,114.21Zm.209-1.187a2.664,2.664,0,0,0,1.327-.314,1.976,1.976,0,0,0,.8-.8,2.1,2.1,0,0,0,.279-1.012v-1.222a.654.654,0,0,1-.384.175c-.175.035-.419.1-.663.14s-.489.07-.7.1-.419.035-.559.07a3.74,3.74,0,0,0-.943.209,1.621,1.621,0,0,0-.7.454,1.178,1.178,0,0,0-.279.8,1.2,1.2,0,0,0,.524,1.047A2.1,2.1,0,0,0,468.274,113.023Zm9.845-7.576v1.117h-4.434v-1.117Zm-3.142-2.06H476.3v8.17a1.666,1.666,0,0,0,.175.838.888.888,0,0,0,.419.384,1.447,1.447,0,0,0,.559.1.973.973,0,0,0,.349-.035.614.614,0,0,1,.209-.035l.279,1.187a2.833,2.833,0,0,1-.384.1,2.769,2.769,0,0,1-.594.07,2.339,2.339,0,0,1-1.082-.244,2.238,2.238,0,0,1-.873-.733,1.949,1.949,0,0,1-.349-1.222v-8.589ZM480.11,114v-8.554h1.327V114Zm.663-9.985a.954.954,0,0,1-.663-.279.847.847,0,0,1,0-1.257.954.954,0,0,1,.663-.279.825.825,0,0,1,.663.279.847.847,0,0,1,0,1.257A.954.954,0,0,1,480.773,104.015Zm6.529,10.16a3.529,3.529,0,0,1-2.025-.559,3.636,3.636,0,0,1-1.362-1.536,5.758,5.758,0,0,1,0-4.643,3.442,3.442,0,0,1,1.362-1.536,3.606,3.606,0,0,1,2.025-.559,3.529,3.529,0,0,1,2.025.559,3.636,3.636,0,0,1,1.362,1.536,5.375,5.375,0,0,1,.489,2.339,5.217,5.217,0,0,1-.489,2.3,3.442,3.442,0,0,1-1.362,1.536A3.529,3.529,0,0,1,487.3,114.175Zm0-1.187a2.231,2.231,0,0,0,1.466-.454,2.64,2.64,0,0,0,.838-1.187,4.694,4.694,0,0,0,.279-1.606,4.848,4.848,0,0,0-.279-1.606,2.464,2.464,0,0,0-.838-1.187,2.6,2.6,0,0,0-2.933,0,2.64,2.64,0,0,0-.838,1.187,4.694,4.694,0,0,0-.279,1.606,4.848,4.848,0,0,0,.279,1.606,2.639,2.639,0,0,0,.838,1.187A2.3,2.3,0,0,0,487.3,112.988Zm7.227-4.155V114H493.2v-8.554h1.257v1.327h.1a2.611,2.611,0,0,1,.908-1.047,2.773,2.773,0,0,1,1.571-.419,3.118,3.118,0,0,1,1.536.349,2.54,2.54,0,0,1,1.013,1.082,4.012,4.012,0,0,1,.349,1.815V114h-1.327v-5.342a2.248,2.248,0,0,0-.524-1.571,1.843,1.843,0,0,0-1.431-.559,2.3,2.3,0,0,0-1.117.279,1.9,1.9,0,0,0-.768.8A2.542,2.542,0,0,0,494.529,108.833Z" transform="translate(-175.345 -66.519)" fill="#374a87"/>
      <path id="Path_1744" data-name="Path 1744" d="M287.582,24.631l2.3.628c-3.142,8-9.461,11.975-18.224,14.175a10.3,10.3,0,0,0-1.362-2.025C278.923,35.593,284.963,31.858,287.582,24.631Zm-9.322-4.923,2.165.838a30.817,30.817,0,0,1-8.03,7.192,11.6,11.6,0,0,0-1.746-1.711A23.285,23.285,0,0,0,278.26,19.708Zm1.152,5.062c2.653,6.773,8.484,11.067,17.352,12.5a10.36,10.36,0,0,0-1.431,2.06c-9.147-1.746-14.873-6.319-17.945-13.93Zm-8.519-8.03h25.137v2.095H270.894Zm11.382-3.805h2.2v5.132h-2.2Zm4.539,7.96,1.781-1.327a46.254,46.254,0,0,1,7.716,6.354l-1.85,1.5A43.66,43.66,0,0,0,286.814,20.9Zm18.923,3.387V34.406h-2.025V26.272h-4.19v-1.99Zm0,9.287c1.4,2.13,3.875,3.107,7.227,3.212,3.142.14,9.776.07,13.2-.175a11.718,11.718,0,0,0-.7,2.13c-3.177.14-9.287.209-12.5.07-3.736-.14-6.354-1.152-8.135-3.421-1.466,1.222-3,2.479-4.643,3.736l-1.047-2.13a41.906,41.906,0,0,0,4.713-3.421h1.885Zm-5.726-18.574,1.5-1.362a22.651,22.651,0,0,1,4.923,4.643l-1.641,1.5A21.355,21.355,0,0,0,300.011,14.995Zm11.451,2.793,1.362-1.187a53.3,53.3,0,0,1,8.2,3.666l-1.466,1.362A52.007,52.007,0,0,0,311.462,17.788ZM308.739,20.2h14.8v1.676H310.764V35.035h-2.025Zm13.756,0h2.06V32.87c0,1.047-.209,1.536-.978,1.85a10.657,10.657,0,0,1-3.875.349,6.291,6.291,0,0,0-.594-1.781c1.362.07,2.549.035,2.933.035s.454-.1.454-.489Zm-13.756-6h14.279V15.9H308.739Zm1.117,10.195h13.476v1.606H309.856Zm0,4.19h13.476v1.676H309.856Zm5.726-7.681h1.955V34.93h-1.955Zm6.738-6.7h.489l.454-.1,1.327,1.047a27.223,27.223,0,0,1-7.4,4.678,13.305,13.305,0,0,0-1.152-1.257,19.766,19.766,0,0,0,6.284-3.91Zm22.414.489h8.589v2.025h-6.494V39.329h-2.095Zm-15.257,1.466h13.686v1.92H329.477Zm-.768,7.925h14.8v1.99h-14.8Zm6.529-11h2.095V17.3h-2.095Zm-3.98,6,1.815-.384a19.982,19.982,0,0,1,1.362,4.608l-1.92.454A21.8,21.8,0,0,0,331.258,19.08Zm8.2-.594,2.06.489c-.628,1.676-1.327,3.6-1.955,4.853l-1.711-.454A38.118,38.118,0,0,0,339.462,18.486Zm-8.03,17.282h9.426v1.92h-9.426Zm-.8-7.227h11.277V39.189h-2.06V30.461h-7.227v8.868h-1.99V28.541Zm22.1-13.86h.419l.349-.07,1.571,1.012c-1.187,2.688-2.653,6-3.98,8.658,2.9,2.653,3.561,4.923,3.6,6.983,0,1.746-.384,3.107-1.4,3.771a5.006,5.006,0,0,1-1.885.628,19.291,19.291,0,0,1-2.479.035,5.6,5.6,0,0,0-.594-2.13c.838.07,1.676.07,2.234.07a2.643,2.643,0,0,0,1.222-.349c.628-.384.838-1.187.838-2.269-.035-1.815-.873-3.945-3.736-6.459,1.466-2.933,3-6.913,3.875-9.147v-.733ZM359.5,18.1h23.077V31.578h-2.234V20.232H361.667V31.753H359.5V18.1Zm1.152,9.741h20.983v2.095H360.654Zm9.217-14.873h2.234V39.294h-2.234ZM387.4,26.446h25.7v2.13H387.4Zm3.177-9.461h19.551V27.354h-2.234V19.08H392.739v8.274h-2.165Zm11.032,9.81c1.746,5.586,5.691,9.182,12.15,10.544a8.662,8.662,0,0,0-1.4,1.955c-6.7-1.676-10.683-5.656-12.708-12.01ZM399.023,12.97h2.165v9.182c0,6.6-1.4,13.441-12.813,17.212a6.961,6.961,0,0,0-1.187-1.85c10.613-3.456,11.835-9.531,11.835-15.362Zm23.042,2.653h19.481v1.711H422.066Zm.14,3.526h17.142v1.676H422.205Zm-2.968,3.526H436.31v1.711H419.238Zm-1.815,7.4H434.7v1.711H417.422Zm5.2-17.142,2.269.559a26.01,26.01,0,0,1-6.633,9.5,14.215,14.215,0,0,0-1.99-1.362A20.52,20.52,0,0,0,422.624,12.935Zm12.953,9.741h2.13c.1,7.471.733,14.524,2.793,14.524.524,0,.7-1.641.733-4.155a5.579,5.579,0,0,0,1.466,1.292c-.175,3.561-.628,4.993-2.339,4.993C436.38,39.329,435.786,32.032,435.577,22.676Zm-16.2,3.526,1.641-.7a12.406,12.406,0,0,1,2.3,3.6l-1.746.733A13.271,13.271,0,0,0,419.378,26.2Zm6.529,7.052,1.362-1.187a49.888,49.888,0,0,1,7.157,4.678l-1.431,1.362A43.053,43.053,0,0,0,425.906,33.254Zm-.8-8.239h2.025V39.259H425.1Zm6.249.349,1.885.7c-1.047,1.362-2.2,2.863-3.107,3.84l-1.431-.594A27.873,27.873,0,0,0,431.353,25.364ZM424.51,30.74l1.606.628a23.317,23.317,0,0,1-8.065,7.4,11.558,11.558,0,0,0-1.362-1.571A20.72,20.72,0,0,0,424.51,30.74Zm29.222-3.317,1.4-1.082c6.843,3.91,7.471,10.334,4.539,12.254a4.741,4.741,0,0,1-2.863.8c-.628,0-1.5-.035-2.339-.07a4.835,4.835,0,0,0-.594-1.955,24.38,24.38,0,0,0,2.584.1,2.994,2.994,0,0,0,1.85-.454C460.225,35.768,459.6,30.915,453.732,27.424Zm2.968.943,1.5.8a31.159,31.159,0,0,1-10.613,4.853,10.215,10.215,0,0,0-1.187-1.5C449.891,31.788,454.4,30.112,456.7,28.366Zm1.92,2.618,1.536.873c-3.072,2.933-8.589,5.621-12.988,6.913a13.248,13.248,0,0,0-1.292-1.641C450.38,36.012,455.792,33.568,458.619,30.985ZM453.068,14.89h8.449V16.6h-8.449Zm5.272,9.182,1.676.8c-3.142,2.234-8.344,4.05-12.638,5.1a14.983,14.983,0,0,0-1.152-1.571C450.52,27.563,455.512,25.957,458.34,24.072Zm2.479.384c1.676,5.83,5.342,10.4,10.963,12.219a6.346,6.346,0,0,0-1.362,1.781c-5.83-2.2-9.5-7.017-11.382-13.581Zm8.309,1.222,1.746,1.292a54.609,54.609,0,0,1-7.436,4.4l-1.362-1.117A39.455,39.455,0,0,0,469.128,25.678Zm-18.19-5.272v3.282h15.676V20.406Zm-2.025-1.641h19.8v6.6h-19.8Zm4.958-5.865,2.234.454a29.452,29.452,0,0,1-8.833,8.274,6.657,6.657,0,0,0-1.466-1.5A23.41,23.41,0,0,0,453.871,12.9Zm3.666,6.668h2.13v5.1h-2.13Zm3.177-4.678h.454l.349-.07,1.466.943a19.828,19.828,0,0,1-3.7,4.539c-.384-.279-1.082-.733-1.571-1.012a14.23,14.23,0,0,0,3-3.98Zm31.456.8v2.793h4.853V15.693Zm-6.773,0v2.793h4.748V15.693Zm-6.529,0v2.793h4.574V15.693Zm-2.095-1.571h22.344v5.935H476.774Zm-1.606,11.835h25.486v1.781H475.168Zm2.863-3.91H494.51v1.711H478.031Zm4.224,11.1h14.524v1.5H482.255Zm-.07,3.6h14.559v1.641H482.186Zm15.257-15.711,1.711,1.082c-5.621,5.516-14.8,9.182-23.531,11.347a10.829,10.829,0,0,0-1.082-1.815C483.268,29.728,492.31,26.132,497.442,21.035Zm-11.486-.978h2.095V26.8h-2.095Zm-2.793,9.6h13.756v1.606H483.163v8.03h-1.99V30.915l1.222-1.222h.768Zm12.743,0h2.06v9.566h-2.06Z" transform="translate(-175.605 -8.396)" fill="#374a87"/>
    </g>
    <path id="Path_1746" data-name="Path 1746" d="M14.394-40.862a1.833,1.833,0,0,1,1.21,1.3,2,2,0,0,1,.14.7,2.2,2.2,0,0,1-.326,1.117,2.823,2.823,0,0,1-1.583,1.21,3.851,3.851,0,0,1-.838.093,3.237,3.237,0,0,1-1.164-.233A58.289,58.289,0,0,0,6.34-38.767a1.679,1.679,0,0,1-1.117-1.117,1.9,1.9,0,0,1-.093-.605,1.569,1.569,0,0,1,.279-.885A3.086,3.086,0,0,1,6.9-42.631a2.885,2.885,0,0,1,1.117-.233,2.636,2.636,0,0,1,.838.14Q11.74-41.886,14.394-40.862ZM14.3-13.022q-.326,0-.326.372v1.4a.288.288,0,0,0,.326.326H34.272a.288.288,0,0,0,.326-.326v-1.4q0-.372-.326-.372Zm0-5.214a.288.288,0,0,0-.326.326v1.35q0,.372.326.372H34.272q.326,0,.326-.372v-1.35a.288.288,0,0,0-.326-.326Zm0-5.261q-.326,0-.326.372v1.35a.288.288,0,0,0,.326.326H34.272a.288.288,0,0,0,.326-.326v-1.35q0-.372-.326-.372Zm7.775-3.492a.041.041,0,0,0-.047.047.041.041,0,0,0,.047.047h15.27a.075.075,0,0,0,.07-.047q.023-.047-.023-.047a14.553,14.553,0,0,1-6.75-4.749q-.233-.279-.419,0Q27.708-28.664,22.075-26.988Zm18.3,16.713a2.679,2.679,0,0,1-.791,1.932,2.618,2.618,0,0,1-1.955.815H32.5q-.093,0-.093.047a.134.134,0,0,0,.047.093Q37.95-5.434,43.211-3.106a1.082,1.082,0,0,1,.675,1.094,1.075,1.075,0,0,1-.722,1.047l-1.443.559A5.839,5.839,0,0,1,39.58.013a5.973,5.973,0,0,1-2.84-.745q-3.352-1.676-7.449-3.305a1.283,1.283,0,0,1-.815-1.141A1.217,1.217,0,0,1,29.1-6.411l1.629-.931a.158.158,0,0,0,.047-.116q0-.07-.093-.07H17.466q-.047,0-.07.07t.023.07l1.536.652a1.353,1.353,0,0,1,.838,1.35,1.233,1.233,0,0,1-.7,1.164,61.94,61.94,0,0,1-9.87,4.05,4.725,4.725,0,0,1-1.3.186,4.591,4.591,0,0,1-1.117-.14,4.928,4.928,0,0,1-2.142-1.21,3.039,3.039,0,0,0-.279-.326,1.34,1.34,0,0,1-.419-.978,2.158,2.158,0,0,1,.047-.419A1.346,1.346,0,0,1,5.083-4.084a49.409,49.409,0,0,0,10.1-3.305q.047,0,.047-.07t-.093-.07H11.228A2.64,2.64,0,0,1,9.3-8.343a2.64,2.64,0,0,1-.815-1.932V-24.149A2.64,2.64,0,0,1,9.3-26.081a2.64,2.64,0,0,1,1.932-.815h6.89a.2.2,0,0,0,.163-.093.167.167,0,0,0,.023-.186,12.716,12.716,0,0,0-2.095-2.979.17.17,0,0,1-.14.233q-6.145,1.769-9.311,2.7a4.515,4.515,0,0,1-.885.093,3.286,3.286,0,0,1-1.3-.279,3.09,3.09,0,0,1-1.49-1.583,2.048,2.048,0,0,1-.186-.838,2.122,2.122,0,0,1,.279-1.024A2.11,2.11,0,0,1,4.71-31.97q3.026-.652,8.333-1.909a2.212,2.212,0,0,1,.605-.093,2.358,2.358,0,0,1,1.4.466,2.3,2.3,0,0,1,.978,1.723l.14,1.21q.047.372.372.279a21.106,21.106,0,0,0,7.5-2.328,7.4,7.4,0,0,0,3.212-3.957.209.209,0,0,0-.023-.209.229.229,0,0,0-.209-.116H24.263a.7.7,0,0,0-.559.279q-.838.978-1.723,1.862a2.527,2.527,0,0,1-1.862.745h-.047a3.588,3.588,0,0,1-1.955-.559,1.644,1.644,0,0,1-.838-1.49,1.639,1.639,0,0,1,.559-1.257A21.06,21.06,0,0,0,21.7-41.793a4.049,4.049,0,0,1,1.583-1.49,3.1,3.1,0,0,1,1.536-.419,3.393,3.393,0,0,1,.559.047l.186.047a1.7,1.7,0,0,1,1.3.931,1.653,1.653,0,0,1,.186.745,1.638,1.638,0,0,1-.233.791.154.154,0,0,0,0,.163.157.157,0,0,0,.14.07H39.626a16.813,16.813,0,0,1,3.817.326,1.474,1.474,0,0,1,1.047.885,1.527,1.527,0,0,1-.023,1.35,37.2,37.2,0,0,1-2.235,3.631A3.119,3.119,0,0,1,40.6-33.553a3.385,3.385,0,0,1-.978.14A2.979,2.979,0,0,1,38.6-33.6a1.426,1.426,0,0,1-1.024-1.024,1.757,1.757,0,0,1-.093-.559,1.642,1.642,0,0,1,.279-.931,4.238,4.238,0,0,0,.326-.466.247.247,0,0,0,0-.209q-.047-.116-.14-.116H33.341a.229.229,0,0,0-.209.116.209.209,0,0,0-.023.209A7.663,7.663,0,0,0,36.3-32.831,20.235,20.235,0,0,0,43.63-30.48a1.575,1.575,0,0,1,1.21.978,1.57,1.57,0,0,1,.186.7,1.8,1.8,0,0,1-.279.931,4.342,4.342,0,0,1-1.723,1.629,3.03,3.03,0,0,1-1.443.372,3.061,3.061,0,0,1-.745-.093.134.134,0,0,1-.093-.047q-.372-.047-.372.279ZM78.013-42.584a2.063,2.063,0,0,1,1.513.628,2.09,2.09,0,0,1,.628,1.536,2.09,2.09,0,0,1-.628,1.536,2.063,2.063,0,0,1-1.513.628h-9.73a2.063,2.063,0,0,1-1.513-.628,2.09,2.09,0,0,1-.628-1.536,2.09,2.09,0,0,1,.628-1.536,2.063,2.063,0,0,1,1.513-.628Zm1.629,6.425a2.155,2.155,0,0,1,1.583.652,2.155,2.155,0,0,1,.652,1.583,2.155,2.155,0,0,1-.652,1.583,2.155,2.155,0,0,1-1.583.652H66a2.155,2.155,0,0,1-1.583-.652,2.155,2.155,0,0,1-.652-1.583,2.155,2.155,0,0,1,.652-1.583A2.155,2.155,0,0,1,66-36.16Zm-1.49,6.611a2.063,2.063,0,0,1,1.513.628,2.09,2.09,0,0,1,.628,1.536,2.09,2.09,0,0,1-.628,1.536,2.063,2.063,0,0,1-1.513.628H68.19a2.118,2.118,0,0,1-1.56-.628A2.09,2.09,0,0,1,66-27.384a2.09,2.09,0,0,1,.628-1.536,2.118,2.118,0,0,1,1.56-.628ZM68.1-18.795a2.048,2.048,0,0,1-1.466-.605A1.987,1.987,0,0,1,66-20.89a2.063,2.063,0,0,1,.628-1.513,2.01,2.01,0,0,1,1.466-.628H78.2a2.01,2.01,0,0,1,1.466.628,2.063,2.063,0,0,1,.628,1.513,1.987,1.987,0,0,1-.628,1.49,2.048,2.048,0,0,1-1.466.605ZM75.173-6.458a.329.329,0,0,0,.372-.372v-4.8q0-.326-.372-.326h-4.19q-.372,0-.372.326v4.8a.329.329,0,0,0,.372.372ZM83.041-37.6a2.6,2.6,0,0,1-.791-1.909,2.525,2.525,0,0,1,.791-1.885,2.641,2.641,0,0,1,1.909-.768h15.829a2.6,2.6,0,0,1,1.909.791,2.628,2.628,0,0,1,.745,1.862l-.14,10.708q0,7.03.279,12.8.466,9.87,1.955,10.242.14.047.3-.978t.3-2.747a.789.789,0,0,1,.652-.791.8.8,0,0,1,.931.372.134.134,0,0,0,.047.093,7.326,7.326,0,0,1,1.3,3.911,4.976,4.976,0,0,1-.093.978Q107.855.525,104.829.525A4.316,4.316,0,0,1,103.06.106a3.448,3.448,0,0,1-1.42-.978,6.162,6.162,0,0,1-1.094-1.885q-.466-1.187-.861-2.444a20.743,20.743,0,0,1-.675-3.212q-.279-1.955-.489-3.678t-.349-4.283q-.14-2.561-.209-4.539t-.116-5q-.047-3.026-.07-5.144t-.023-5.377a.329.329,0,0,0-.372-.372h-4.7a.329.329,0,0,0-.372.372v9.87a.329.329,0,0,0,.372.372h1.49a2.509,2.509,0,0,1,1.839.768,2.536,2.536,0,0,1,.768,1.862,2.536,2.536,0,0,1-.768,1.862,2.509,2.509,0,0,1-1.839.768H92.538a.329.329,0,0,0-.372.372,47.164,47.164,0,0,1-1.979,10.358,26.407,26.407,0,0,1-4.725,8.729,2.208,2.208,0,0,1-1.723.791h-.093a2.725,2.725,0,0,1-1.862-.838q-.745-.7-1.35-1.21-.093-.093-.093,0a.713.713,0,0,1-.186.489.6.6,0,0,1-.466.209H70.844q-.233,0-.233.186a1.616,1.616,0,0,1-.489,1.187,1.563,1.563,0,0,1-1.141.489h-.745a2.286,2.286,0,0,1-1.676-.7,2.286,2.286,0,0,1-.7-1.676V-13.674a2.656,2.656,0,0,1,.791-1.955,2.656,2.656,0,0,1,1.955-.791h8.985a2.656,2.656,0,0,1,1.955.791,2.656,2.656,0,0,1,.791,1.955v8.8a.149.149,0,0,0,.093.14.092.092,0,0,0,.14-.047q5.214-5.912,6.145-15.782,0-.372-.326-.372h-2a2.563,2.563,0,0,1-1.885-.768,2.536,2.536,0,0,1-.768-1.862,2.536,2.536,0,0,1,.768-1.862,2.563,2.563,0,0,1,1.885-.768h2.188q.326,0,.326-.372v-9.87q0-.372-.326-.372H84.95A2.6,2.6,0,0,1,83.041-37.6Zm51.05-3.678a2.862,2.862,0,0,1,1.49-1.583,2.618,2.618,0,0,1,1.257-.326,2.636,2.636,0,0,1,.838.14l.279.093a2.387,2.387,0,0,1,1.583,1.35,2.559,2.559,0,0,1,.233,1.071,2.86,2.86,0,0,1-.186.978,76.733,76.733,0,0,1-3.4,7.03,1.643,1.643,0,0,0-.14.652V-2.314a2.618,2.618,0,0,1-.815,1.955A2.679,2.679,0,0,1,133.3.432h-.233a2.656,2.656,0,0,1-1.955-.791,2.656,2.656,0,0,1-.791-1.955V-23.031a.149.149,0,0,0-.093-.14.092.092,0,0,0-.14.047q-.559.652-.931,1.071a1.586,1.586,0,0,1-1.257.605h-.326a1.7,1.7,0,0,1-1.35-1.024q-.326-.605-.605-1.164a3.944,3.944,0,0,1-.466-1.862v-.419a3.934,3.934,0,0,1,.931-2.142A49.1,49.1,0,0,0,134.091-41.281Zm34.357,5.8a2.525,2.525,0,0,1,.791,1.885,2.6,2.6,0,0,1-.791,1.909,2.6,2.6,0,0,1-1.909.791H156.065a.329.329,0,0,0-.372.372v4.283a.329.329,0,0,0,.372.372h9.4a2.549,2.549,0,0,1,1.839.745,2.433,2.433,0,0,1,.768,1.816,2.433,2.433,0,0,1-.768,1.816,2.549,2.549,0,0,1-1.839.745h-9.4a.329.329,0,0,0-.372.372v4.7q0,.326.372.326h10.009a2.509,2.509,0,0,1,1.839.768,2.536,2.536,0,0,1,.768,1.862,2.536,2.536,0,0,1-.768,1.862,2.509,2.509,0,0,1-1.839.768H156.065q-.372,0-.372.326v7.5A2.656,2.656,0,0,1,154.9-.313a2.656,2.656,0,0,1-1.955.791h-.279a2.656,2.656,0,0,1-1.955-.791,2.656,2.656,0,0,1-.791-1.955V-30.527a.329.329,0,0,0-.372-.372H148.43a.569.569,0,0,0-.512.326,55.638,55.638,0,0,1-4.376,6.8,2.164,2.164,0,0,1-1.723.931h-.14a2.417,2.417,0,0,1-1.769-.745q-.14-.093-.326-.233a2.766,2.766,0,0,1-.885-2.095,2.652,2.652,0,0,1,.605-1.723,46.478,46.478,0,0,0,7.4-13.315,3.074,3.074,0,0,1,1.443-1.676,2.769,2.769,0,0,1,1.4-.372,3.061,3.061,0,0,1,.745.093l.14.047a2.4,2.4,0,0,1,1.583,1.257,2.2,2.2,0,0,1,.326,1.117,2.154,2.154,0,0,1-.186.885q-.605,1.536-1.257,3.026a.209.209,0,0,0,.023.21.2.2,0,0,0,.163.116H166.54A2.641,2.641,0,0,1,168.449-35.485Zm45.045,4.167a.241.241,0,0,0-.023-.233.245.245,0,0,0-.21-.093H202.6a.188.188,0,0,0-.186.093.3.3,0,0,0,0,.233,21.671,21.671,0,0,1,1.21,2.654.589.589,0,0,1-.047.512.575.575,0,0,1-.419.279v.047h8.473a.478.478,0,0,0,.466-.326Q212.655-29.27,213.493-31.318Zm14.851,16.946a2.259,2.259,0,0,1,.7,1.653,2.259,2.259,0,0,1-.7,1.653,2.233,2.233,0,0,1-1.629.7H215.542q-.047,0-.07.07t.023.07a35.107,35.107,0,0,0,5.633,2.654A48.715,48.715,0,0,0,227.6-5.666a1.463,1.463,0,0,1,1.164,1.024,1.24,1.24,0,0,1,.14.559,1.544,1.544,0,0,1-.372.978l-.559.745a4,4,0,0,1-1.862,1.49,3.351,3.351,0,0,1-1.21.233,3.878,3.878,0,0,1-1.024-.14,39.868,39.868,0,0,1-13.128-7.076.152.152,0,0,0-.186-.047.149.149,0,0,0-.093.14v5.493a2.656,2.656,0,0,1-.791,1.955,2.656,2.656,0,0,1-1.955.791h-.047a2.656,2.656,0,0,1-1.955-.791,2.656,2.656,0,0,1-.791-1.955V-7.482q0-.093-.116-.14t-.163,0a42.425,42.425,0,0,1-13.082,6.75,2.979,2.979,0,0,1-1.024.186,3.472,3.472,0,0,1-1.257-.233,4.807,4.807,0,0,1-1.909-1.443l-.279-.372a1.6,1.6,0,0,1-.372-1.024,1.757,1.757,0,0,1,.093-.559,1.575,1.575,0,0,1,1.164-1.117,47.339,47.339,0,0,0,12.1-4.749.105.105,0,0,0,.023-.116q-.023-.07-.07-.07H189.052a2.286,2.286,0,0,1-1.676-.7,2.259,2.259,0,0,1-.7-1.653,2.259,2.259,0,0,1,.7-1.653,2.286,2.286,0,0,1,1.676-.7h15.5q.372,0,.372-.326v-1.4a.329.329,0,0,0-.372-.372H193.242a1.949,1.949,0,0,1-1.466-.605,2.01,2.01,0,0,1-.582-1.443,2.01,2.01,0,0,1,.582-1.443,1.949,1.949,0,0,1,1.466-.605h11.313q.372,0,.372-.326v-1.443a.329.329,0,0,0-.372-.372H191.007a2.155,2.155,0,0,1-1.583-.652,2.128,2.128,0,0,1-.652-1.56,2.128,2.128,0,0,1,.652-1.56,2.155,2.155,0,0,1,1.583-.652h6.518a.252.252,0,0,0,.186-.116.19.19,0,0,0,.047-.209,22.728,22.728,0,0,0-1.3-2.933.535.535,0,0,1,.023-.349.354.354,0,0,1,.256-.209h-7.588a2.271,2.271,0,0,1-1.629-.675,2.184,2.184,0,0,1-.7-1.629,2.184,2.184,0,0,1,.7-1.629,2.271,2.271,0,0,1,1.629-.675h3.724a.229.229,0,0,0,.21-.116.209.209,0,0,0,.023-.21q-.559-1.4-1.583-3.352a2.122,2.122,0,0,1-.279-1.024,1.746,1.746,0,0,1,.186-.791A1.953,1.953,0,0,1,192.683-43a3.448,3.448,0,0,1,1.094-.186,3.448,3.448,0,0,1,1.094.186,2.923,2.923,0,0,1,1.629,1.35,25.276,25.276,0,0,1,1.35,2.514,1.712,1.712,0,0,1,.233.838,1.746,1.746,0,0,1-.186.791,2.124,2.124,0,0,1-1.21,1.164q-.047,0-.023.047l.023.047h3.724q.326,0,.326-.372v-4.749a2.525,2.525,0,0,1,.791-1.885,2.614,2.614,0,0,1,1.885-.768,2.536,2.536,0,0,1,1.862.768,2.563,2.563,0,0,1,.768,1.885v4.749a.329.329,0,0,0,.372.372h2.793a.329.329,0,0,0,.372-.372v-4.749a2.525,2.525,0,0,1,.791-1.885,2.614,2.614,0,0,1,1.885-.768,2.614,2.614,0,0,1,1.885.768,2.525,2.525,0,0,1,.791,1.885v4.749q0,.372.326.372h3.678a.041.041,0,0,0,.047-.047v-.047a1.261,1.261,0,0,1-.838-.745,1.286,1.286,0,0,1,.047-1.117,28.678,28.678,0,0,0,1.3-2.933,3.31,3.31,0,0,1,1.49-1.629,2.945,2.945,0,0,1,1.4-.372,3.061,3.061,0,0,1,.745.093l.605.14a1.96,1.96,0,0,1,1.4,1.164,2.506,2.506,0,0,1,.14.791,2.122,2.122,0,0,1-.279,1.024q-1.35,2.142-2.095,3.352a.156.156,0,0,0-.023.21.2.2,0,0,0,.163.116h3.538a2.248,2.248,0,0,1,1.653.675,2.22,2.22,0,0,1,.675,1.629,2.22,2.22,0,0,1-.675,1.629,2.248,2.248,0,0,1-1.653.675H220.29a.627.627,0,0,0-.559.279q-.885,1.676-1.862,3.259a.2.2,0,0,0,0,.186.149.149,0,0,0,.14.093h6.8a2.155,2.155,0,0,1,1.583.652,2.128,2.128,0,0,1,.652,1.56,2.128,2.128,0,0,1-.652,1.56,2.155,2.155,0,0,1-1.583.652H210.84a.329.329,0,0,0-.372.372v1.443q0,.326.372.326h11.918a1.97,1.97,0,0,1,1.443.605,1.97,1.97,0,0,1,.605,1.443,1.97,1.97,0,0,1-.605,1.443,1.97,1.97,0,0,1-1.443.605H210.84a.329.329,0,0,0-.372.372v1.4q0,.326.372.326h15.875A2.233,2.233,0,0,1,228.344-14.372Zm59.244-6.657a2.64,2.64,0,0,1,1.932.815,2.64,2.64,0,0,1,.815,1.932V-18a2.618,2.618,0,0,1-.815,1.955,2.679,2.679,0,0,1-1.932.791H271.946a.329.329,0,0,0-.372.372V-2.268a2.656,2.656,0,0,1-.791,1.955,2.656,2.656,0,0,1-1.955.791h-.372A2.656,2.656,0,0,1,266.5-.313a2.656,2.656,0,0,1-.791-1.955V-14.884a.329.329,0,0,0-.372-.372H249.879a2.679,2.679,0,0,1-1.932-.791A2.618,2.618,0,0,1,247.132-18v-.279a2.64,2.64,0,0,1,.815-1.932,2.64,2.64,0,0,1,1.932-.815h15.456q.372,0,.372-.326v-13.78q0-.326-.372-.326H252.346a2.64,2.64,0,0,1-1.932-.815,2.64,2.64,0,0,1-.815-1.932v-.14a2.64,2.64,0,0,1,.815-1.932,2.64,2.64,0,0,1,1.932-.815h32.5a2.64,2.64,0,0,1,1.932.815,2.64,2.64,0,0,1,.815,1.932v.14a2.64,2.64,0,0,1-.815,1.932,2.64,2.64,0,0,1-1.932.815h-12.9q-.372,0-.372.326v13.78q0,.326.372.326ZM253.6-29.921a2.608,2.608,0,0,1-.186-.978,2.457,2.457,0,0,1,.233-1.024,2.411,2.411,0,0,1,1.49-1.257,3.226,3.226,0,0,1,.931-.14,2.967,2.967,0,0,1,1.257.279A3.057,3.057,0,0,1,258.91-31.5q1.164,2.514,1.909,4.655a2.636,2.636,0,0,1,.14.838,2.366,2.366,0,0,1-.372,1.257,2.7,2.7,0,0,1-1.676,1.35l-.279.093a2.235,2.235,0,0,1-.791.14,2.293,2.293,0,0,1-1.21-.372,2.73,2.73,0,0,1-1.3-1.629Q254.627-27.454,253.6-29.921ZM281.676-24.8a3.135,3.135,0,0,1-1.629,1.4,3.351,3.351,0,0,1-1.21.233,3.226,3.226,0,0,1-.931-.14,1.96,1.96,0,0,1-1.35-1.21,2.049,2.049,0,0,1-.186-.838,2.609,2.609,0,0,1,.186-.978q1.164-2.467,2.142-5.121a3.122,3.122,0,0,1,1.4-1.676,2.945,2.945,0,0,1,1.4-.372,3.061,3.061,0,0,1,.745.093l.7.186a2.123,2.123,0,0,1,1.49,1.21,2.363,2.363,0,0,1,.233.978,2.363,2.363,0,0,1-.233.978Q282.933-26.988,281.676-24.8Zm55.473,10.009a.329.329,0,0,0-.372-.372H317.643q-.326,0-.326.372v7.542a.288.288,0,0,0,.326.326h19.134q.372,0,.372-.326ZM314.244.432a2.679,2.679,0,0,1-1.932-.791,2.618,2.618,0,0,1-.815-1.955V-17.771a2.618,2.618,0,0,1,.815-1.955,2.679,2.679,0,0,1,1.932-.791H340.5a2.679,2.679,0,0,1,1.932.791,2.618,2.618,0,0,1,.815,1.955v15.41a2.64,2.64,0,0,1-.815,1.932A2.64,2.64,0,0,1,340.5.386h-1.723A1.563,1.563,0,0,1,337.638-.1a1.563,1.563,0,0,1-.489-1.141.206.206,0,0,0-.233-.233H317.549a.206.206,0,0,0-.233.233,1.616,1.616,0,0,1-.489,1.187,1.616,1.616,0,0,1-1.187.489Zm20.018-34.544a2.217,2.217,0,0,1-.745-1.676,2.169,2.169,0,0,1,.931-1.816h.047a3.211,3.211,0,0,1,2.048-.7h.093a3.211,3.211,0,0,1,2.142.791,68.717,68.717,0,0,1,9.171,9.4,2.593,2.593,0,0,1,.559,1.583,3.138,3.138,0,0,1-.047.512,3.152,3.152,0,0,1-1.164,1.862l-.559.419a2.281,2.281,0,0,1-1.443.512,2.368,2.368,0,0,1-.466-.047,2.817,2.817,0,0,1-1.723-1.117q-.605-.838-1.35-1.769a.762.762,0,0,0-.559-.233q-13.222.7-31.657,1.4h-.14a2.628,2.628,0,0,1-1.862-.745,2.749,2.749,0,0,1-.931-1.909v-.233a2.408,2.408,0,0,1,.675-1.932,2.652,2.652,0,0,1,1.885-.861l4.283-.14a.584.584,0,0,0,.512-.279,79.659,79.659,0,0,0,5.773-10.754,2.864,2.864,0,0,1,1.536-1.536,2.533,2.533,0,0,1,1.21-.326,2.491,2.491,0,0,1,.931.186l1.3.419a2.1,2.1,0,0,1,1.4,1.3,2.048,2.048,0,0,1,.186.838,2.206,2.206,0,0,1-.279,1.071q-2.467,4.423-5.168,8.566a.129.129,0,0,0-.023.186.2.2,0,0,0,.163.093q5.354-.186,15.456-.652a.149.149,0,0,0,.14-.093.092.092,0,0,0-.047-.14Q335.52-32.994,334.263-34.111Z" transform="translate(4913.484 3609.992)" fill="#f3704e" opacity="0.92"/>
  </g>
</svg>
