<svg xmlns="http://www.w3.org/2000/svg" width="2290.086" height="1080" viewBox="0 0 2290.086 1080">
  <g id="bg" transform="translate(-43.396 -84.938)" opacity="0.7">
    <path id="Path_1342" data-name="Path 1342" d="M80.223,134.677c.488,0,.961.057,1.445.073a85.778,85.778,0,0,1,165.483-30.3,66.919,66.919,0,0,1,107.669,30.4c1.03-.073,2.056-.155,3.1-.155a43.631,43.631,0,1,1,0,87.262l-277.7,0a43.631,43.631,0,1,1,0-87.262Z" transform="translate(184.138 693.474)" fill="#d9e9f8"/>
    <path id="Path_497" data-name="Path 497" d="M80.223,134.677c.488,0,.961.057,1.445.073a85.778,85.778,0,0,1,165.483-30.3,66.919,66.919,0,0,1,107.669,30.4c1.03-.073,2.056-.155,3.1-.155a43.631,43.631,0,1,1,0,87.262l-277.7,0a43.631,43.631,0,1,1,0-87.262Z" transform="translate(990.063 158.607)" fill="#e8f2fa"/>
    <path id="Path_1347" data-name="Path 1347" d="M80.223,134.677c.488,0,.961.057,1.445.073a85.778,85.778,0,0,1,165.483-30.3,66.919,66.919,0,0,1,107.669,30.4c1.03-.073,2.056-.155,3.1-.155a43.631,43.631,0,1,1,0,87.262l-277.7,0a43.631,43.631,0,1,1,0-87.262Z" transform="translate(1332.063 942.979)" fill="#e8f2fa"/>
    <path id="Path_1345" data-name="Path 1345" d="M80.223,134.677c.488,0,.961.057,1.445.073a85.778,85.778,0,0,1,165.483-30.3,66.919,66.919,0,0,1,107.669,30.4c1.03-.073,2.056-.155,3.1-.155a43.631,43.631,0,1,1,0,87.262l-277.7,0a43.631,43.631,0,1,1,0-87.262Z" transform="translate(845.838 566.041)" fill="#e8f2fa"/>
    <path id="Path_1341" data-name="Path 1341" d="M71.341,117.507c.389,0,.765.045,1.151.058A68.316,68.316,0,0,1,204.286,93.433a53.3,53.3,0,0,1,85.75,24.213c.82-.058,1.637-.123,2.47-.123a34.749,34.749,0,1,1,0,69.5l-221.166,0a34.749,34.749,0,1,1,0-69.5Z" transform="translate(6.805 690.259)" fill="#e8f2fa"/>
    <path id="Path_499" data-name="Path 499" d="M80.223,134.677c.488,0,.961.057,1.445.073a85.778,85.778,0,0,1,165.483-30.3,66.919,66.919,0,0,1,107.669,30.4c1.03-.073,2.056-.155,3.1-.155a43.631,43.631,0,1,1,0,87.262l-277.7,0a43.631,43.631,0,1,1,0-87.262Z" transform="translate(259.953 34.601)" fill="#d9e9f8"/>
    <path id="Path_1344" data-name="Path 1344" d="M69,112.974c.363,0,.713.042,1.073.054a63.7,63.7,0,0,1,122.9-22.5A49.7,49.7,0,0,1,272.93,113.1c.765-.054,1.527-.115,2.3-.115a32.4,32.4,0,1,1,0,64.807L69,177.794a32.4,32.4,0,1,1,0-64.807Z" transform="translate(1889.64 737.663)" fill="#d9e9f8"/>
    <path id="Path_1349" data-name="Path 1349" d="M69,112.974c.363,0,.713.042,1.073.054a63.7,63.7,0,0,1,122.9-22.5A49.7,49.7,0,0,1,272.93,113.1c.765-.054,1.527-.115,2.3-.115a32.4,32.4,0,1,1,0,64.807L69,177.794a32.4,32.4,0,1,1,0-64.807Z" transform="translate(459.486 951.143)" fill="#d9e9f8"/>
    <path id="Path_506" data-name="Path 506" d="M70.112,115.132c.375,0,.738.044,1.11.056A65.9,65.9,0,0,1,198.357,91.91a51.412,51.412,0,0,1,82.719,23.357c.791-.056,1.579-.119,2.383-.119a33.52,33.52,0,1,1,0,67.04l-213.346,0a33.52,33.52,0,1,1,0-67.04Z" transform="translate(1659.251 85.372)" fill="#d9e9f8"/>
    <path id="Path_504" data-name="Path 504" d="M80.223,134.677c.488,0,.961.057,1.445.073a85.778,85.778,0,0,1,165.483-30.3,66.919,66.919,0,0,1,107.669,30.4c1.03-.073,2.056-.155,3.1-.155a43.631,43.631,0,1,1,0,87.262l-277.7,0a43.631,43.631,0,1,1,0-87.262Z" transform="translate(1749.446 402.979)" fill="#d9e9f8"/>
    <path id="Path_498" data-name="Path 498" d="M41.32,112.012c.948,0,1.877.077,2.809.142a60.683,60.683,0,0,1,97.648-27.574A77.776,77.776,0,0,1,290.2,97.4,85.554,85.554,0,0,0,188.648,180.3c-.484,0-.957-.073-1.445-.073a43.4,43.4,0,0,0-28.791,10.9H41.32a39.569,39.569,0,1,1,0-79.137Z" transform="translate(883.083 113.062)" fill="#d9e9f8"/>
    <path id="Path_1348" data-name="Path 1348" d="M41.32,112.012c.948,0,1.877.077,2.809.142a60.683,60.683,0,0,1,97.648-27.574A77.776,77.776,0,0,1,290.2,97.4,85.554,85.554,0,0,0,188.648,180.3c-.484,0-.957-.073-1.445-.073a43.4,43.4,0,0,0-28.791,10.9H41.32a39.569,39.569,0,1,1,0-79.137Z" transform="translate(1225.083 897.434)" fill="#d9e9f8"/>
    <path id="Path_1346" data-name="Path 1346" d="M41.32,112.012c.948,0,1.877.077,2.809.142a60.683,60.683,0,0,1,97.648-27.574A77.776,77.776,0,0,1,290.2,97.4,85.554,85.554,0,0,0,188.648,180.3c-.484,0-.957-.073-1.445-.073a43.4,43.4,0,0,0-28.791,10.9H41.32a39.569,39.569,0,1,1,0-79.137Z" transform="translate(738.858 520.495)" fill="#d9e9f8"/>
    <path id="Path_500" data-name="Path 500" d="M80.223,134.677c.488,0,.961.057,1.445.073a85.778,85.778,0,0,1,165.483-30.3,66.919,66.919,0,0,1,107.669,30.4c1.03-.073,2.056-.155,3.1-.155a43.631,43.631,0,1,1,0,87.262l-277.7,0a43.631,43.631,0,1,1,0-87.262Z" transform="translate(119.155 102.979)" fill="#e8f2fa"/>
    <path id="Path_503" data-name="Path 503" d="M80.223,134.677c.488,0,.961.057,1.445.073a85.778,85.778,0,0,1,165.483-30.3,66.919,66.919,0,0,1,107.669,30.4c1.03-.073,2.056-.155,3.1-.155a43.631,43.631,0,1,1,0,87.262l-277.7,0a43.631,43.631,0,1,1,0-87.262Z" transform="translate(1931.927 340.789)" fill="#e8f2fa"/>
  </g>
</svg>
