<svg xmlns="http://www.w3.org/2000/svg" xmlns:xlink="http://www.w3.org/1999/xlink" width="272.547" height="446.588" viewBox="0 0 272.547 446.588">
  <defs>
    <clipPath id="clip-path">
      <rect id="Rectangle_220" data-name="Rectangle 220" width="4.638" height="6.586" fill="#59acc9"/>
    </clipPath>
    <clipPath id="clip-path-2">
      <rect id="Rectangle_230" data-name="Rectangle 230" width="5.275" height="7.49" fill="#59acc9"/>
    </clipPath>
    <clipPath id="clip-path-3">
      <rect id="Rectangle_237" data-name="Rectangle 237" width="18.408" height="26.14" fill="#59acc9"/>
    </clipPath>
    <clipPath id="clip-path-4">
      <rect id="Rectangle_246" data-name="Rectangle 246" width="18.124" height="25.737" fill="#59acc9"/>
    </clipPath>
    <clipPath id="clip-path-5">
      <rect id="Rectangle_250" data-name="Rectangle 250" width="20.475" height="29.076" fill="#59acc9"/>
    </clipPath>
    <clipPath id="clip-path-6">
      <rect id="Rectangle_253" data-name="Rectangle 253" width="13.851" height="19.669" fill="#59acc9"/>
    </clipPath>
    <clipPath id="clip-path-7">
      <rect id="Rectangle_258" data-name="Rectangle 258" width="11.675" height="16.578" fill="#59acc9"/>
    </clipPath>
    <clipPath id="clip-path-8">
      <rect id="Rectangle_273" data-name="Rectangle 273" width="9.633" height="13.679" fill="#59acc9"/>
    </clipPath>
    <clipPath id="clip-path-9">
      <rect id="Rectangle_275" data-name="Rectangle 275" width="19.092" height="27.112" fill="#59acc9"/>
    </clipPath>
    <clipPath id="clip-path-10">
      <rect id="Rectangle_282" data-name="Rectangle 282" width="10.759" height="15.278" fill="#59acc9"/>
    </clipPath>
    <clipPath id="clip-path-11">
      <rect id="Rectangle_293" data-name="Rectangle 293" width="3.537" height="5.021" fill="#59acc9"/>
    </clipPath>
    <clipPath id="clip-path-12">
      <path id="Path_1129" data-name="Path 1129" d="M26.1,0A26.1,26.1,0,0,0,0,26.1V167.715a26.1,26.1,0,1,0,52.2,0V26.1A26.1,26.1,0,0,0,26.1,0Z" transform="translate(0 0)" fill="none"/>
    </clipPath>
    <clipPath id="clip-path-13">
      <rect id="Rectangle_138" data-name="Rectangle 138" width="8.901" height="2.684" fill="none"/>
    </clipPath>
    <linearGradient id="linear-gradient" x1="-4.005" y1="61.762" x2="-3.99" y2="61.762" gradientUnits="objectBoundingBox">
      <stop offset="0" stop-color="#555ea3"/>
      <stop offset="1" stop-color="#51537a"/>
    </linearGradient>
    <clipPath id="clip-path-14">
      <rect id="Rectangle_140" data-name="Rectangle 140" width="6.142" height="1.466" fill="none"/>
    </clipPath>
    <linearGradient id="linear-gradient-2" x1="-5.804" y1="108.683" x2="-5.783" y2="108.683" xlink:href="#linear-gradient"/>
    <linearGradient id="linear-gradient-3" x1="-5.804" y1="105.027" x2="-5.783" y2="105.027" xlink:href="#linear-gradient"/>
    <linearGradient id="linear-gradient-4" x1="-5.804" y1="101.372" x2="-5.783" y2="101.372" xlink:href="#linear-gradient"/>
    <linearGradient id="linear-gradient-5" x1="-5.804" y1="93.48" x2="-5.783" y2="93.48" xlink:href="#linear-gradient"/>
    <linearGradient id="linear-gradient-6" x1="-5.804" y1="89.825" x2="-5.783" y2="89.825" xlink:href="#linear-gradient"/>
    <linearGradient id="linear-gradient-7" x1="-5.803" y1="86.171" x2="-5.782" y2="86.171" xlink:href="#linear-gradient"/>
    <linearGradient id="linear-gradient-8" x1="-5.803" y1="78.149" x2="-5.782" y2="78.149" xlink:href="#linear-gradient"/>
    <linearGradient id="linear-gradient-9" x1="-5.803" y1="74.495" x2="-5.782" y2="74.495" xlink:href="#linear-gradient"/>
    <linearGradient id="linear-gradient-10" x1="-5.803" y1="70.84" x2="-5.782" y2="70.84" xlink:href="#linear-gradient"/>
    <linearGradient id="linear-gradient-11" x1="-5.802" y1="62.819" x2="-5.781" y2="62.819" xlink:href="#linear-gradient"/>
    <linearGradient id="linear-gradient-12" x1="-5.803" y1="59.165" x2="-5.781" y2="59.165" xlink:href="#linear-gradient"/>
    <linearGradient id="linear-gradient-13" x1="-5.802" y1="55.51" x2="-5.781" y2="55.51" xlink:href="#linear-gradient"/>
    <linearGradient id="linear-gradient-14" x1="-5.802" y1="47.489" x2="-5.781" y2="47.489" xlink:href="#linear-gradient"/>
    <linearGradient id="linear-gradient-15" x1="-5.802" y1="43.834" x2="-5.781" y2="43.834" xlink:href="#linear-gradient"/>
    <linearGradient id="linear-gradient-16" x1="-5.802" y1="40.179" x2="-5.781" y2="40.179" xlink:href="#linear-gradient"/>
    <linearGradient id="linear-gradient-17" x1="-4.005" y1="53.459" x2="-3.99" y2="53.459" xlink:href="#linear-gradient"/>
    <linearGradient id="linear-gradient-18" x1="-4.004" y1="45.153" x2="-3.99" y2="45.153" xlink:href="#linear-gradient"/>
    <linearGradient id="linear-gradient-19" x1="-4.004" y1="36.845" x2="-3.99" y2="36.845" xlink:href="#linear-gradient"/>
    <linearGradient id="linear-gradient-20" x1="-4.004" y1="28.54" x2="-3.989" y2="28.54" xlink:href="#linear-gradient"/>
    <linearGradient id="linear-gradient-21" x1="-4.003" y1="20.234" x2="-3.989" y2="20.234" xlink:href="#linear-gradient"/>
    <clipPath id="clip-path-34">
      <rect id="Rectangle_179" data-name="Rectangle 179" width="52.195" height="193.812" fill="none"/>
    </clipPath>
    <clipPath id="clip-path-35">
      <path id="Path_1131" data-name="Path 1131" d="M175.671,138.42V282.77h6.778V138.42a3.389,3.389,0,1,0-6.778,0" transform="translate(-175.671 -135.031)" fill="#dcdcdc"/>
    </clipPath>
    <clipPath id="clip-path-36">
      <path id="Path_1132" data-name="Path 1132" d="M134.239,618.236v73.247a9.54,9.54,0,1,0,6.778,0V618.236a3.389,3.389,0,0,0-6.778,0" transform="translate(-128.088 -614.847)" fill="#f7b369"/>
    </clipPath>
  </defs>
  <g id="login-p3" transform="translate(-435.762 -477.711)">
    <g id="Group_1038" data-name="Group 1038" transform="translate(7.766 70.221)">
      <g id="satellite" transform="matrix(0.998, -0.07, 0.07, 0.998, 521.827, 411.976)">
        <g id="Group_506" data-name="Group 506" transform="translate(0 0)">
          <g id="Group_504" data-name="Group 504">
            <g id="Group_503" data-name="Group 503">
              <g id="Group_502" data-name="Group 502">
                <g id="Group_501" data-name="Group 501">
                  <path id="Path_1146" data-name="Path 1146" d="M0,0H70.91V10.265H0Z" transform="translate(93.217 100.49) rotate(-135)" fill="#f1f1f1"/>
                  <g id="Group_497" data-name="Group 497">
                    <g id="Group_496" data-name="Group 496">
                      <g id="Group_495" data-name="Group 495">
                        <path id="Path_1147" data-name="Path 1147" d="M14.85,0l-.013.619L12.463,2.993,10.827,2.1,1.213,11.718a4.14,4.14,0,0,0,0,5.855l8.848,8.848,1.768-.548,1.94,1.94-.645,1.671L23.035,39.4l1.521-.795,2.285,2.285L26.1,42.459l8.848,8.848a4.14,4.14,0,0,0,5.855,0l9.614-9.614-.457-1.306,2.568-2.568a4.125,4.125,0,0,0-1.21-2.882L17.582,1.2A4.12,4.12,0,0,0,14.85,0Z" transform="translate(0 11.786)" fill="#f1f1f1"/>
                        <g id="Group_494" data-name="Group 494" transform="translate(13.831 0)">
                          <path id="Path_1148" data-name="Path 1148" d="M24.377,10.061,15.529,1.213a4.14,4.14,0,0,0-5.855,0L.059,10.827l.96.96-.013.619L0,13.412a4.119,4.119,0,0,1,2.185,1.144L35.92,48.29a4.124,4.124,0,0,1,1.21,2.882L38.3,50l1.346.417L49.263,40.8a4.14,4.14,0,0,0,0-5.855L40.415,26.1l-1.542.659-2.026-2.026.5-1.7L27.44,13.125l-1.69.511L23.725,11.61Z" transform="translate(0)" fill="#f1f1f1"/>
                        </g>
                      </g>
                    </g>
                    <path id="Path_1149" data-name="Path 1149" d="M41.121,12.974,28.579,25.516l-9.911-9.911L31.21,3.064,28.147,0,15.605,12.542,3.829.766.766,3.83,12.542,15.605,0,28.147,3.064,31.21,15.605,18.669l9.911,9.911L12.974,41.121l3.064,3.064L28.579,31.643,40.355,43.419l3.064-3.064L31.643,28.579,44.185,16.038Z" transform="translate(10.061 10.061)" fill="#f1f1f1"/>
                  </g>
                  <g id="Group_500" data-name="Group 500" transform="translate(30.597 35.643)">
                    <g id="Group_499" data-name="Group 499" transform="translate(0 0)">
                      <g id="Group_498" data-name="Group 498">
                        <path id="Path_1150" data-name="Path 1150" d="M15.491,0,27.06,11.569l-5.572,14.6a1.78,1.78,0,0,1-2.921.624L.522,8.749a1.78,1.78,0,0,1,.589-2.908Z" transform="translate(0 49.962)" fill="#f1f1f1"/>
                        <path id="Path_1151" data-name="Path 1151" d="M31.139,1.3A1.859,1.859,0,0,0,28.051.547L1.732,26.866a5.912,5.912,0,0,0,0,8.361L17.752,51.248a5.912,5.912,0,0,0,8.361,0L52.433,24.929a1.859,1.859,0,0,0-.749-3.088A31.283,31.283,0,0,1,38.9,14.082,31.281,31.281,0,0,1,31.139,1.3Z" transform="translate(9.19 15.149)" fill="#f1f1f1"/>
                        <path id="Path_1152" data-name="Path 1152" d="M39.039,20.407,19.67,1.038a3.545,3.545,0,0,0-5.013,0L0,15.7A31.433,31.433,0,0,0,24.382,40.077L39.039,25.42A3.544,3.544,0,0,0,39.039,20.407Z" transform="translate(37.241 0)" fill="#f1f1f1"/>
                      </g>
                    </g>
                  </g>
                </g>
              </g>
            </g>
            <path id="Path_1153" data-name="Path 1153" d="M19.906,1.818a6.207,6.207,0,0,1,0,8.779l-9.31,9.31a6.207,6.207,0,0,1-8.779-8.779l9.31-9.31A6.207,6.207,0,0,1,19.906,1.818Z" transform="translate(56.586 65.192)" fill="#f1f1f1"/>
          </g>
          <g id="Group_505" data-name="Group 505" transform="translate(91.378 27.064)">
            <path id="Path_1154" data-name="Path 1154" d="M5.154.024A2.166,2.166,0,0,0,2.693,1.849L.024,19.822a2.166,2.166,0,0,0,4.286.636L6.979,2.485A2.166,2.166,0,0,0,5.154.024Z" transform="translate(18.197 3.372)" fill="#f1f1f1"/>
            <path id="Path_1155" data-name="Path 1155" d="M2.485,6.811l16.847-2.5A2.166,2.166,0,0,0,18.7.024L1.848,2.526a2.166,2.166,0,1,0,.636,4.286Z" transform="translate(0 0)" fill="#f1f1f1"/>
          </g>
        </g>
        <circle id="Ellipse_41" data-name="Ellipse 41" cx="6.449" cy="6.449" r="6.449" transform="translate(108.564 22.096)" fill="#f1f1f1"/>
        <path id="Path_1156" data-name="Path 1156" d="M4.458.483a1.65,1.65,0,0,0-2.725.633A31.452,31.452,0,0,0,41.754,41.137a1.65,1.65,0,0,0,.633-2.725Z" transform="translate(80.271 20.417)" fill="#f1f1f1"/>
        <g id="Group_510" data-name="Group 510" transform="translate(79.251 79.251)">
          <g id="Group_509" data-name="Group 509" transform="translate(0 0)">
            <g id="Group_508" data-name="Group 508" transform="translate(0)">
              <path id="Path_1157" data-name="Path 1157" d="M14.85,0l-.013.619L12.463,2.993,10.827,2.1,1.213,11.718a4.14,4.14,0,0,0,0,5.855l8.848,8.848,1.768-.548,1.94,1.94-.645,1.671,9.911,9.91,1.521-.795,2.285,2.285L26.1,42.459l8.848,8.848a4.14,4.14,0,0,0,5.855,0l9.614-9.614-.457-1.306,2.568-2.568a4.125,4.125,0,0,0-1.21-2.882L17.582,1.2A4.12,4.12,0,0,0,14.85,0Z" transform="translate(0 11.786)" fill="#f1f1f1"/>
              <g id="Group_507" data-name="Group 507" transform="translate(13.831 0)">
                <path id="Path_1158" data-name="Path 1158" d="M24.377,10.061,15.529,1.213a4.14,4.14,0,0,0-5.855,0L.059,10.827l.96.96-.013.619L0,13.412a4.118,4.118,0,0,1,2.185,1.144L35.92,48.29a4.124,4.124,0,0,1,1.21,2.882L38.3,50l1.346.417L49.263,40.8a4.14,4.14,0,0,0,0-5.855L40.415,26.1l-1.542.659-2.025-2.026.5-1.7L27.44,13.125l-1.69.511L23.725,11.61Z" fill="#f1f1f1"/>
              </g>
            </g>
          </g>
          <path id="Path_1159" data-name="Path 1159" d="M41.121,12.974,28.579,25.516l-9.911-9.911L31.21,3.064,28.147,0,15.605,12.541,3.829.765.765,3.829,12.541,15.605,0,28.147,3.064,31.21,15.605,18.669l9.911,9.911L12.974,41.121l3.063,3.064L28.579,31.643,40.355,43.419l3.064-3.064L31.643,28.579,44.185,16.038Z" transform="translate(10.061 10.061)" fill="#f1f1f1"/>
        </g>
      </g>
      <g id="satellite-2" data-name="satellite" transform="matrix(0.998, -0.07, 0.07, 0.998, 521.827, 411.976)" style="mix-blend-mode: luminosity;isolation: isolate">
        <g id="Group_506-2" data-name="Group 506" transform="translate(0 0)">
          <g id="Group_504-2" data-name="Group 504">
            <g id="Group_503-2" data-name="Group 503">
              <g id="Group_502-2" data-name="Group 502">
                <g id="Group_501-2" data-name="Group 501">
                  <path id="Path_1146-2" data-name="Path 1146" d="M0,0H70.91V10.265H0Z" transform="translate(93.217 100.49) rotate(-135)" fill="#c9e0fd"/>
                  <g id="Group_497-2" data-name="Group 497">
                    <g id="Group_496-2" data-name="Group 496">
                      <g id="Group_495-2" data-name="Group 495">
                        <path id="Path_1147-2" data-name="Path 1147" d="M14.85,0l-.013.619L12.463,2.993,10.827,2.1,1.213,11.718a4.14,4.14,0,0,0,0,5.855l8.848,8.848,1.768-.548,1.94,1.94-.645,1.671L23.035,39.4l1.521-.795,2.285,2.285L26.1,42.459l8.848,8.848a4.14,4.14,0,0,0,5.855,0l9.614-9.614-.457-1.306,2.568-2.568a4.125,4.125,0,0,0-1.21-2.882L17.582,1.2A4.12,4.12,0,0,0,14.85,0Z" transform="translate(0 11.786)" fill="#9bc4f9"/>
                        <g id="Group_494-2" data-name="Group 494" transform="translate(13.831 0)">
                          <path id="Path_1148-2" data-name="Path 1148" d="M24.377,10.061,15.529,1.213a4.14,4.14,0,0,0-5.855,0L.059,10.827l.96.96-.013.619L0,13.412a4.119,4.119,0,0,1,2.185,1.144L35.92,48.29a4.124,4.124,0,0,1,1.21,2.882L38.3,50l1.346.417L49.263,40.8a4.14,4.14,0,0,0,0-5.855L40.415,26.1l-1.542.659-2.026-2.026.5-1.7L27.44,13.125l-1.69.511L23.725,11.61Z" transform="translate(0)" fill="#7fb2f9"/>
                        </g>
                      </g>
                    </g>
                    <path id="Path_1149-2" data-name="Path 1149" d="M41.121,12.974,28.579,25.516l-9.911-9.911L31.21,3.064,28.147,0,15.605,12.542,3.829.766.766,3.83,12.542,15.605,0,28.147,3.064,31.21,15.605,18.669l9.911,9.911L12.974,41.121l3.064,3.064L28.579,31.643,40.355,43.419l3.064-3.064L31.643,28.579,44.185,16.038Z" transform="translate(10.061 10.061)" fill="#eaf2ff"/>
                  </g>
                  <g id="Group_500-2" data-name="Group 500" transform="translate(30.597 35.643)">
                    <g id="Group_499-2" data-name="Group 499" transform="translate(0 0)">
                      <g id="Group_498-2" data-name="Group 498">
                        <path id="Path_1150-2" data-name="Path 1150" d="M15.491,0,27.06,11.569l-5.572,14.6a1.78,1.78,0,0,1-2.921.624L.522,8.749a1.78,1.78,0,0,1,.589-2.908Z" transform="translate(0 49.962)" fill="#c9e0fd"/>
                        <path id="Path_1151-2" data-name="Path 1151" d="M31.139,1.3A1.859,1.859,0,0,0,28.051.547L1.732,26.866a5.912,5.912,0,0,0,0,8.361L17.752,51.248a5.912,5.912,0,0,0,8.361,0L52.433,24.929a1.859,1.859,0,0,0-.749-3.088A31.283,31.283,0,0,1,38.9,14.082,31.281,31.281,0,0,1,31.139,1.3Z" transform="translate(9.19 15.149)" fill="#eaf2ff"/>
                        <path id="Path_1152-2" data-name="Path 1152" d="M39.039,20.407,19.67,1.038a3.545,3.545,0,0,0-5.013,0L0,15.7A31.433,31.433,0,0,0,24.382,40.077L39.039,25.42A3.544,3.544,0,0,0,39.039,20.407Z" transform="translate(37.241 0)" fill="#c9e0fd"/>
                      </g>
                    </g>
                  </g>
                </g>
              </g>
            </g>
            <path id="Path_1153-2" data-name="Path 1153" d="M19.906,1.818a6.207,6.207,0,0,1,0,8.779l-9.31,9.31a6.207,6.207,0,0,1-8.779-8.779l9.31-9.31A6.207,6.207,0,0,1,19.906,1.818Z" transform="translate(56.586 65.192)" fill="#e2916b"/>
          </g>
          <g id="Group_505-2" data-name="Group 505" transform="translate(91.378 27.064)">
            <path id="Path_1154-2" data-name="Path 1154" d="M5.154.024A2.166,2.166,0,0,0,2.693,1.849L.024,19.822a2.166,2.166,0,0,0,4.286.636L6.979,2.485A2.166,2.166,0,0,0,5.154.024Z" transform="translate(18.197 3.372)" fill="#c9e0fd"/>
            <path id="Path_1155-2" data-name="Path 1155" d="M2.485,6.811l16.847-2.5A2.166,2.166,0,0,0,18.7.024L1.848,2.526a2.166,2.166,0,1,0,.636,4.286Z" transform="translate(0 0)" fill="#c9e0fd"/>
          </g>
        </g>
        <circle id="Ellipse_41-2" data-name="Ellipse 41" cx="6.449" cy="6.449" r="6.449" transform="translate(108.564 22.096)" fill="#bcd6f9"/>
        <path id="Path_1156-2" data-name="Path 1156" d="M4.458.483a1.65,1.65,0,0,0-2.725.633A31.452,31.452,0,0,0,41.754,41.137a1.65,1.65,0,0,0,.633-2.725Z" transform="translate(80.271 20.417)" fill="#9bc4f9"/>
        <g id="Group_510-2" data-name="Group 510" transform="translate(79.251 79.251)">
          <g id="Group_509-2" data-name="Group 509" transform="translate(0 0)">
            <g id="Group_508-2" data-name="Group 508" transform="translate(0)">
              <path id="Path_1157-2" data-name="Path 1157" d="M14.85,0l-.013.619L12.463,2.993,10.827,2.1,1.213,11.718a4.14,4.14,0,0,0,0,5.855l8.848,8.848,1.768-.548,1.94,1.94-.645,1.671,9.911,9.91,1.521-.795,2.285,2.285L26.1,42.459l8.848,8.848a4.14,4.14,0,0,0,5.855,0l9.614-9.614-.457-1.306,2.568-2.568a4.125,4.125,0,0,0-1.21-2.882L17.582,1.2A4.12,4.12,0,0,0,14.85,0Z" transform="translate(0 11.786)" fill="#9bc4f9"/>
              <g id="Group_507-2" data-name="Group 507" transform="translate(13.831 0)">
                <path id="Path_1158-2" data-name="Path 1158" d="M24.377,10.061,15.529,1.213a4.14,4.14,0,0,0-5.855,0L.059,10.827l.96.96-.013.619L0,13.412a4.118,4.118,0,0,1,2.185,1.144L35.92,48.29a4.124,4.124,0,0,1,1.21,2.882L38.3,50l1.346.417L49.263,40.8a4.14,4.14,0,0,0,0-5.855L40.415,26.1l-1.542.659-2.025-2.026.5-1.7L27.44,13.125l-1.69.511L23.725,11.61Z" fill="#7fb2f9"/>
              </g>
            </g>
          </g>
          <path id="Path_1159-2" data-name="Path 1159" d="M41.121,12.974,28.579,25.516l-9.911-9.911L31.21,3.064,28.147,0,15.605,12.541,3.829.765.765,3.829,12.541,15.605,0,28.147,3.064,31.21,15.605,18.669l9.911,9.911L12.974,41.121l3.063,3.064L28.579,31.643,40.355,43.419l3.064-3.064L31.643,28.579,44.185,16.038Z" transform="translate(10.061 10.061)" fill="#eaf2ff"/>
        </g>
      </g>
    </g>
    <g id="Group_815" data-name="Group 815" transform="translate(588.217 575.177)">
      <g id="Group_812" data-name="Group 812" transform="translate(0 0)">
        <g id="Group_816" data-name="Group 816">
          <g id="Group_585" data-name="Group 585" transform="translate(38.773 11.771)" opacity="0.782">
            <g id="Group_584" data-name="Group 584">
              <g id="Group_583" data-name="Group 583" clip-path="url(#clip-path)">
                <path id="Path_1186" data-name="Path 1186" d="M387.571,201.454a2.2,2.2,0,1,1-3.856-2.137c.59-1.065,4.357-3.314,4.357-3.314s.089,4.386-.5,5.45" transform="translate(-383.438 -196.005)" fill="#59acc9"/>
              </g>
            </g>
          </g>
          <g id="Group_615" data-name="Group 615" transform="translate(63.516 11.617)" opacity="0.542">
            <g id="Group_614" data-name="Group 614">
              <g id="Group_613" data-name="Group 613" clip-path="url(#clip-path-2)">
                <path id="Path_1196" data-name="Path 1196" d="M423.265,202.071a2.507,2.507,0,0,1-4.385-2.431c.672-1.211,4.954-3.768,4.954-3.768s.1,4.988-.569,6.2" transform="translate(-418.565 -195.872)" fill="#59acc9"/>
              </g>
            </g>
          </g>
          <g id="Group_636" data-name="Group 636" transform="translate(19.8 72.16)" opacity="0.613">
            <g id="Group_635" data-name="Group 635" transform="translate(0)">
              <g id="Group_634" data-name="Group 634" clip-path="url(#clip-path-3)">
                <path id="Path_1203" data-name="Path 1203" d="M384.187,277.918a8.748,8.748,0,0,1-15.3-8.482c2.342-4.226,17.29-13.149,17.29-13.149s.356,17.405-1.987,21.631" transform="translate(-367.786 -256.287)" fill="#59acc9"/>
              </g>
            </g>
          </g>
          <g id="Group_663" data-name="Group 663" transform="translate(0 22.897)" opacity="0.791">
            <g id="Group_662" data-name="Group 662" transform="translate(0)">
              <g id="Group_661" data-name="Group 661" clip-path="url(#clip-path-4)">
                <path id="Path_1212" data-name="Path 1212" d="M364.872,243.578a8.614,8.614,0,0,1-15.067-8.352c2.306-4.161,17.024-12.946,17.024-12.946s.35,17.137-1.957,21.3" transform="translate(-348.723 -222.281)" fill="#59acc9"/>
              </g>
            </g>
          </g>
          <g id="Group_675" data-name="Group 675" transform="translate(74.616)" opacity="0.803">
            <g id="Group_674" data-name="Group 674" transform="translate(0)">
              <g id="Group_673" data-name="Group 673" clip-path="url(#clip-path-5)">
                <path id="Path_1216" data-name="Path 1216" d="M465.825,217.8a9.731,9.731,0,0,1-17.022-9.435c2.6-4.7,19.232-14.626,19.232-14.626s.4,19.359-2.21,24.06" transform="translate(-447.581 -193.741)" fill="#59acc9"/>
              </g>
            </g>
          </g>
          <g id="Group_684" data-name="Group 684" transform="translate(3.058 106.474)" opacity="0.893">
            <g id="Group_683" data-name="Group 683">
              <g id="Group_682" data-name="Group 682" clip-path="url(#clip-path-6)">
                <path id="Path_1219" data-name="Path 1219" d="M345.552,274.381A6.582,6.582,0,1,1,334.037,268c1.761-3.18,13.01-9.893,13.01-9.893s.267,13.1-1.5,16.276" transform="translate(-333.211 -258.104)" fill="#59acc9"/>
              </g>
            </g>
          </g>
          <g id="Group_699" data-name="Group 699" transform="translate(83.416 63.871)" opacity="0.796">
            <g id="Group_698" data-name="Group 698">
              <g id="Group_697" data-name="Group 697" clip-path="url(#clip-path-7)">
                <path id="Path_1224" data-name="Path 1224" d="M442.99,242.324a5.548,5.548,0,1,1-9.705-5.38c1.485-2.68,10.966-8.339,10.966-8.339s.225,11.038-1.261,13.718" transform="translate(-432.588 -228.605)" fill="#59acc9"/>
              </g>
            </g>
          </g>
          <g id="Group_744" data-name="Group 744" transform="translate(44.77 48.635)" opacity="0.716">
            <g id="Group_743" data-name="Group 743" transform="translate(0)">
              <g id="Group_742" data-name="Group 742" clip-path="url(#clip-path-8)">
                <path id="Path_1239" data-name="Path 1239" d="M401.72,239.052a4.578,4.578,0,0,1-8.009-4.438c1.226-2.212,9.049-6.882,9.049-6.882s.186,9.109-1.04,11.32" transform="translate(-393.137 -227.732)" fill="#59acc9"/>
              </g>
            </g>
          </g>
          <g id="Group_750" data-name="Group 750" transform="translate(87.6 85.23)" opacity="0.713">
            <g id="Group_749" data-name="Group 749">
              <g id="Group_748" data-name="Group 748" clip-path="url(#clip-path-9)">
                <path id="Path_1241" data-name="Path 1241" d="M492.4,278.368a9.074,9.074,0,1,1-15.873-8.8c2.43-4.383,17.934-13.638,17.934-13.638s.368,18.054-2.061,22.436" transform="translate(-475.384 -255.933)" fill="#59acc9"/>
              </g>
            </g>
          </g>
          <g id="Group_771" data-name="Group 771" transform="translate(99.481 33.357)" opacity="0.954">
            <g id="Group_770" data-name="Group 770">
              <g id="Group_769" data-name="Group 769" clip-path="url(#clip-path-10)">
                <path id="Path_1248" data-name="Path 1248" d="M483.265,241.165a5.113,5.113,0,1,1-8.944-4.958c1.369-2.469,10.106-7.685,10.106-7.685s.207,10.172-1.162,12.643" transform="translate(-473.678 -228.522)" fill="#59acc9"/>
              </g>
            </g>
          </g>
          <g id="Group_804" data-name="Group 804" transform="translate(58.043 92.866)" opacity="0.72">
            <g id="Group_803" data-name="Group 803" transform="translate(0)">
              <g id="Group_802" data-name="Group 802" clip-path="url(#clip-path-11)">
                <path id="Path_1259" data-name="Path 1259" d="M413.459,269.956a1.68,1.68,0,1,1-2.94-1.629c.45-.812,3.322-2.526,3.322-2.526s.067,3.343-.382,4.155" transform="translate(-410.308 -265.801)" fill="#59acc9"/>
              </g>
            </g>
          </g>
        </g>
      </g>
    </g>
    <g id="Group_418" data-name="Group 418" transform="translate(615.211 575.466)">
      <g id="Group_417" data-name="Group 417" clip-path="url(#clip-path-12)">
        <path id="Path_1340" data-name="Path 1340" d="M0,0H52.2V193.812H0Z" transform="translate(0 0)" fill="#bed7ee"/>
      </g>
    </g>
    <g id="Group_420" data-name="Group 420" transform="translate(650.863 603.37)">
      <g id="Group_419" data-name="Group 419" clip-path="url(#clip-path-13)">
        <rect id="Rectangle_137" data-name="Rectangle 137" width="8.902" height="2.686" transform="translate(0 -0.001)" fill="url(#linear-gradient)"/>
      </g>
    </g>
    <g id="Group_422" data-name="Group 422" transform="translate(650.863 609.771)">
      <g id="Group_421" data-name="Group 421" clip-path="url(#clip-path-14)">
        <rect id="Rectangle_139" data-name="Rectangle 139" width="6.142" height="1.468" transform="translate(0 -0.001)" fill="url(#linear-gradient-2)"/>
      </g>
    </g>
    <g id="Group_424" data-name="Group 424" transform="translate(650.862 615.134)">
      <g id="Group_423" data-name="Group 423" clip-path="url(#clip-path-14)">
        <rect id="Rectangle_141" data-name="Rectangle 141" width="6.143" height="1.468" transform="translate(0 -0.001)" fill="url(#linear-gradient-3)"/>
      </g>
    </g>
    <g id="Group_426" data-name="Group 426" transform="translate(650.861 620.498)">
      <g id="Group_425" data-name="Group 425" clip-path="url(#clip-path-14)">
        <rect id="Rectangle_143" data-name="Rectangle 143" width="6.142" height="1.468" transform="translate(0 -0.001)" fill="url(#linear-gradient-4)"/>
      </g>
    </g>
    <g id="Group_428" data-name="Group 428" transform="translate(650.86 632.082)">
      <g id="Group_427" data-name="Group 427" clip-path="url(#clip-path-14)">
        <rect id="Rectangle_145" data-name="Rectangle 145" width="6.143" height="1.468" transform="translate(0 -0.001)" fill="url(#linear-gradient-5)"/>
      </g>
    </g>
    <g id="Group_430" data-name="Group 430" transform="translate(650.859 637.446)">
      <g id="Group_429" data-name="Group 429" clip-path="url(#clip-path-14)">
        <rect id="Rectangle_147" data-name="Rectangle 147" width="6.142" height="1.468" transform="translate(0 -0.001)" fill="url(#linear-gradient-6)"/>
      </g>
    </g>
    <g id="Group_432" data-name="Group 432" transform="translate(650.858 642.81)">
      <g id="Group_431" data-name="Group 431" clip-path="url(#clip-path-14)">
        <rect id="Rectangle_149" data-name="Rectangle 149" width="6.143" height="1.468" transform="translate(0 -0.001)" fill="url(#linear-gradient-7)"/>
      </g>
    </g>
    <g id="Group_434" data-name="Group 434" transform="translate(650.857 654.582)">
      <g id="Group_433" data-name="Group 433" clip-path="url(#clip-path-14)">
        <rect id="Rectangle_151" data-name="Rectangle 151" width="6.142" height="1.468" transform="translate(0 -0.001)" fill="url(#linear-gradient-8)"/>
      </g>
    </g>
    <g id="Group_436" data-name="Group 436" transform="translate(650.856 659.946)">
      <g id="Group_435" data-name="Group 435" clip-path="url(#clip-path-14)">
        <rect id="Rectangle_153" data-name="Rectangle 153" width="6.143" height="1.468" transform="translate(0 -0.001)" fill="url(#linear-gradient-9)"/>
      </g>
    </g>
    <g id="Group_438" data-name="Group 438" transform="translate(650.855 665.31)">
      <g id="Group_437" data-name="Group 437" clip-path="url(#clip-path-14)">
        <rect id="Rectangle_155" data-name="Rectangle 155" width="6.142" height="1.468" transform="translate(0 -0.001)" fill="url(#linear-gradient-10)"/>
      </g>
    </g>
    <g id="Group_440" data-name="Group 440" transform="translate(650.854 677.082)">
      <g id="Group_439" data-name="Group 439" clip-path="url(#clip-path-14)">
        <rect id="Rectangle_157" data-name="Rectangle 157" width="6.143" height="1.468" transform="translate(0 -0.001)" fill="url(#linear-gradient-11)"/>
      </g>
    </g>
    <g id="Group_442" data-name="Group 442" transform="translate(650.853 682.446)">
      <g id="Group_441" data-name="Group 441" clip-path="url(#clip-path-14)">
        <rect id="Rectangle_159" data-name="Rectangle 159" width="6.143" height="1.468" transform="translate(0 -0.001)" fill="url(#linear-gradient-12)"/>
      </g>
    </g>
    <g id="Group_444" data-name="Group 444" transform="translate(650.852 687.81)">
      <g id="Group_443" data-name="Group 443" clip-path="url(#clip-path-14)">
        <rect id="Rectangle_161" data-name="Rectangle 161" width="6.143" height="1.468" transform="translate(0 -0.001)" fill="url(#linear-gradient-13)"/>
      </g>
    </g>
    <g id="Group_446" data-name="Group 446" transform="translate(650.851 699.582)">
      <g id="Group_445" data-name="Group 445" clip-path="url(#clip-path-14)">
        <rect id="Rectangle_163" data-name="Rectangle 163" width="6.143" height="1.468" transform="translate(0 -0.001)" fill="url(#linear-gradient-14)"/>
      </g>
    </g>
    <g id="Group_448" data-name="Group 448" transform="translate(650.85 704.945)">
      <g id="Group_447" data-name="Group 447" clip-path="url(#clip-path-14)">
        <rect id="Rectangle_165" data-name="Rectangle 165" width="6.143" height="1.468" transform="translate(0 -0.001)" fill="url(#linear-gradient-15)"/>
      </g>
    </g>
    <g id="Group_450" data-name="Group 450" transform="translate(650.85 710.31)">
      <g id="Group_449" data-name="Group 449" clip-path="url(#clip-path-14)">
        <rect id="Rectangle_167" data-name="Rectangle 167" width="6.143" height="1.468" transform="translate(0 -0.001)" fill="url(#linear-gradient-16)"/>
      </g>
    </g>
    <g id="Group_452" data-name="Group 452" transform="translate(650.86 625.681)">
      <g id="Group_451" data-name="Group 451" clip-path="url(#clip-path-13)">
        <rect id="Rectangle_169" data-name="Rectangle 169" width="8.902" height="2.686" transform="translate(0 -0.001)" fill="url(#linear-gradient-17)"/>
      </g>
    </g>
    <g id="Group_454" data-name="Group 454" transform="translate(650.858 647.993)">
      <g id="Group_453" data-name="Group 453" clip-path="url(#clip-path-13)">
        <rect id="Rectangle_171" data-name="Rectangle 171" width="8.902" height="2.686" transform="translate(0 -0.001)" fill="url(#linear-gradient-18)"/>
      </g>
    </g>
    <g id="Group_456" data-name="Group 456" transform="translate(650.855 670.305)">
      <g id="Group_455" data-name="Group 455" clip-path="url(#clip-path-13)">
        <rect id="Rectangle_173" data-name="Rectangle 173" width="8.902" height="2.686" transform="translate(0 -0.001)" fill="url(#linear-gradient-19)"/>
      </g>
    </g>
    <g id="Group_458" data-name="Group 458" transform="translate(650.852 692.617)">
      <g id="Group_457" data-name="Group 457" clip-path="url(#clip-path-13)">
        <rect id="Rectangle_175" data-name="Rectangle 175" width="8.902" height="2.686" transform="translate(0 -0.001)" fill="url(#linear-gradient-20)"/>
      </g>
    </g>
    <g id="Group_460" data-name="Group 460" transform="translate(650.849 714.928)">
      <g id="Group_459" data-name="Group 459" clip-path="url(#clip-path-13)">
        <rect id="Rectangle_177" data-name="Rectangle 177" width="8.902" height="2.686" transform="translate(0 -0.001)" fill="url(#linear-gradient-21)"/>
      </g>
    </g>
    <g id="Group_462" data-name="Group 462" transform="translate(615.211 575.466)">
      <g id="Group_461" data-name="Group 461" clip-path="url(#clip-path-34)">
        <path id="Path_1130" data-name="Path 1130" d="M91.571,225.347V96.064a9.54,9.54,0,1,0-19.08,0V225.347a17.794,17.794,0,1,0,19.08,0" transform="translate(-55.933 -75.339)" fill="#fff"/>
      </g>
    </g>
    <g id="Group_464" data-name="Group 464" transform="translate(637.919 592.921)">
      <g id="Group_463" data-name="Group 463" clip-path="url(#clip-path-35)">
        <rect id="Rectangle_180" data-name="Rectangle 180" width="6.778" height="147.739" transform="translate(0 0)" fill="#dcdcdc"/>
      </g>
    </g>
    <g id="Group_466" data-name="Group 466" transform="translate(631.769 654.946)">
      <g id="Group_465" data-name="Group 465" clip-path="url(#clip-path-36)">
        <rect id="Rectangle_181" data-name="Rectangle 181" width="19.08" height="95.085" fill="#f7b369"/>
      </g>
    </g>
    <g id="Group_1036" data-name="Group 1036" transform="translate(-8.796 48.508)">
      <path id="Path_951" data-name="Path 951" d="M328.89,293.265a1.778,1.778,0,0,1-1.46-.76l-68.353-97.815-69.667,97.829a1.78,1.78,0,0,1-2.9-2.065l71.131-99.882a1.779,1.779,0,0,1,2.908.013l69.8,99.883a1.779,1.779,0,0,1-1.457,2.8" transform="translate(258.378 580.363)" fill="#40507f"/>
      <path id="Path_974" data-name="Path 974" d="M312.9,212.131H217.343c-3.377,0-6.047-3.32-5.81-7.227L220,64.21c.214-3.541,2.752-6.287,5.812-6.287h95.557c3.376,0,6.046,3.32,5.81,7.227l-8.473,140.694c-.212,3.541-2.751,6.287-5.81,6.287" transform="translate(261.97 561.665)" fill="#828282"/>
      <path id="Path_975" data-name="Path 975" d="M307.233,208.522H211.676c-3.377,0-6.047-3.243-5.812-7.058l8.473-137.4c.214-3.458,2.752-6.139,5.812-6.139h95.557c3.376,0,6.046,3.243,5.81,7.058l-8.473,137.4c-.212,3.458-2.75,6.139-5.811,6.139" transform="translate(262.152 561.665)" fill="#fff" stroke="#68b6d8" stroke-width="1"/>
      <path id="Path_976" data-name="Path 976" d="M282.734,96.583a24.961,24.961,0,0,1-24.621,23.324,21.828,21.828,0,0,1-22.027-23.324,24.96,24.96,0,0,1,24.62-23.324,21.828,21.828,0,0,1,22.028,23.324" transform="translate(265.448 563.838)" fill="#f7b369"/>
      <path id="Path_977" data-name="Path 977" d="M270.428,73.259,256.509,96.583,281.732,89.8Z" transform="translate(268.349 563.838)" fill="#68b6d8"/>
      <path id="Path_978" data-name="Path 978" d="M239.591,171.994H228.354l2.676-34.238h11.236Z" transform="translate(264.357 572.982)" fill="#68b6d8"/>
      <path id="Path_979" data-name="Path 979" d="M258.805,171.221H247.569l2.151-28.016h11.237Z" transform="translate(267.081 573.755)" fill="#68b6d8"/>
      <path id="Path_980" data-name="Path 980" d="M278.488,170.141H267.252l1.72-19.319h11.236Z" transform="translate(269.872 574.834)" fill="#68b6d8"/>
      <path id="Path_981" data-name="Path 981" d="M296.418,172.991H218.563a.4.4,0,0,1-.4-.432l2.943-38.637a.4.4,0,1,1,.8.061L219,172.189h77.422a.4.4,0,1,1,0,.8" transform="translate(262.912 572.386)" fill="#40507f"/>
    </g>
    <path id="Path_995" data-name="Path 995" d="M382.959,118.367s17.309,27.813-6.058,30.841,6.058-30.841,6.058-30.841" transform="translate(252.088 602.462)"/>
    <path id="Path_996" data-name="Path 996" d="M427.275,185.624c1.714-1.368,37.67-6.537,36.292,43.773s-57.66,79.145-119.437,68.294-3.3-83-3.3-83Z" transform="translate(244.703 611.879)" fill="#6876aa"/>
    <path id="Path_997" data-name="Path 997" d="M318.055,253.875l1.062,11.818h22.7V252.31Z" transform="translate(245.024 621.451)" fill="#ff9c85"/>
    <path id="Path_998" data-name="Path 998" d="M353.521,259.336l2.293,11.852,24.987-5.926-4.365-12.952Z" transform="translate(250.052 621.451)" fill="#ff9c85"/>
    <path id="Path_999" data-name="Path 999" d="M341.2,201.853s4.076-42.276,19.23-49.545,39.672.207,39.672.207L399,209.059Z" transform="translate(248.305 606.823)" fill="#40507f"/>
    <path id="Path_1000" data-name="Path 1000" d="M355.2,193.513s-32.831-7.989-41.834,5.882,3.586,66.813,3.586,66.813h30.232Z" transform="translate(243.9 612.791)" fill="#59acc9"/>
    <path id="Path_1001" data-name="Path 1001" d="M422.6,205.585s8.264,25.372-5.435,30.486-42.114,5.27-42.114,5.27l12.812,22.609-41.208,12.208s-34.219-61.788-13.391-78.256,64.667,7.511,64.667,7.511Z" transform="translate(246.228 612.918)" fill="#68b6d8"/>
    <path id="Path_1002" data-name="Path 1002" d="M322.119,258.463s-7.858,9.271-9.683,10.151-20.876,7.3-24.53,10.872-3.914,10.608-2.87,11.268,63.706,0,63.706,0l.658-30.217Z" transform="translate(240.267 622.323)" fill="#efa459"/>
    <path id="Path_1003" data-name="Path 1003" d="M355.686,265.511s-3.2,12.422-5.776,13.729-13.664,8.264-19.688,14.582c-5.052,5.3,0,8.338,0,8.338h34.91l30.011-22.048-10.721-22.932Z" transform="translate(246.431 622.141)" fill="#f7b369"/>
    <path id="Path_1004" data-name="Path 1004" d="M313.346,264.034s8.739,10.018,6.74,10.832-18.875-1.771-18.438-3.576,9.675-7.4,11.7-7.256" transform="translate(242.697 623.112)" fill="#fff"/>
    <path id="Path_1005" data-name="Path 1005" d="M350.53,271.062s11.2,7.159,9.512,8.5-18.612,3.6-18.7,1.749,7.206-9.824,9.189-10.251" transform="translate(248.325 624.109)" fill="#fff"/>
    <path id="Path_1006" data-name="Path 1006" d="M377.111,140.716l1.391,8.9s-1.416,2.889-7.238,4.384c-4.336,1.113-6.014.517-6.014.517l-.094-4.62-.083-4.507,10.309-4Z" transform="translate(251.69 605.63)" fill="#ff9c85"/>
    <path id="Path_1007" data-name="Path 1007" d="M375.383,141.329a3.364,3.364,0,0,1-.128,1.024c-1.4,5.427-7.394,7.564-9.9,8.223l-.243-5.089Z" transform="translate(251.696 605.717)"/>
    <path id="Path_1008" data-name="Path 1008" d="M359.889,125.748s-3.148,13.559.136,20.237,9.5,4.376,13.084,2.3a12.93,12.93,0,0,0,4.932-4.762,5.507,5.507,0,0,0,5.592-3.233c1.78-3.782-.41-7.338-2.622-7.835s-4.373,1.434-4.373,1.434l1.232-4s-11.475-17.027-17.982-4.142" transform="translate(250.762 602.825)" fill="#ff9c85"/>
    <path id="Path_1009" data-name="Path 1009" d="M362.87,139.767a.387.387,0,0,1-.344-.207c-1.342-2.511.017-5.59.077-5.719a.389.389,0,0,1,.709.319c-.013.027-1.258,2.865-.1,5.035a.389.389,0,0,1-.342.572" transform="translate(251.245 604.623)"/>
    <path id="Path_1010" data-name="Path 1010" d="M375.829,137.953a.4.4,0,0,1-.208-.061.388.388,0,0,1-.12-.537l2.706-4.262a.389.389,0,0,1,.658.417l-2.707,4.262a.389.389,0,0,1-.329.18" transform="translate(253.16 604.524)"/>
    <path id="Path_1011" data-name="Path 1011" d="M376.7,136.067a.39.39,0,0,1-.016-.779l2.422-.1a.407.407,0,0,1,.4.374.388.388,0,0,1-.372.4l-2.422.1Z" transform="translate(253.283 604.847)"/>
    <path id="Path_1012" data-name="Path 1012" d="M361.065,192.947a.387.387,0,0,1-.311-.155,46.626,46.626,0,0,1-5.242-9.643c-3.562-8.836-.161-21.563-.015-22.1a.389.389,0,1,1,.75.2c-.035.13-3.477,13.014-.014,21.606a45.853,45.853,0,0,0,5.141,9.465.389.389,0,0,1-.311.623" transform="translate(250.105 608.472)" fill="#fff"/>
    <path id="Path_1013" data-name="Path 1013" d="M366.793,142.233a4.09,4.09,0,0,1-2.083-.679.39.39,0,0,1-.167-.339.384.384,0,0,1,.2-.32l4.582-2.571a.389.389,0,0,1,.578.376,4.709,4.709,0,0,1-1.644,3.044,2.357,2.357,0,0,1-1.465.49m-1.045-1.012a2.039,2.039,0,0,0,2.036-.1,3.553,3.553,0,0,0,1.15-1.691Z" transform="translate(251.615 605.284)"/>
    <path id="Path_1014" data-name="Path 1014" d="M368.477,129.855a.387.387,0,0,1-.306-.15c-.789-1.006-2.262-.4-2.323-.375a.389.389,0,0,1-.3-.716c.084-.035,2.08-.867,3.239.611a.39.39,0,0,1-.066.547.384.384,0,0,1-.24.082" transform="translate(251.723 603.877)"/>
    <path id="Path_1015" data-name="Path 1015" d="M359.439,130.261a.389.389,0,0,1-.308-.627,3.2,3.2,0,0,1,1.981-1.2,1.858,1.858,0,0,1,1.484.605.389.389,0,0,1-.548.553,1.127,1.127,0,0,0-.882-.381,2.44,2.44,0,0,0-1.419.9.39.39,0,0,1-.308.152" transform="translate(250.836 603.888)"/>
    <path id="Path_1016" data-name="Path 1016" d="M360.971,135.144a.389.389,0,0,1-.388-.371l-.1-2.224-.968-.818a.389.389,0,0,1,.5-.6l1.1.928a.386.386,0,0,1,.138.28l.106,2.394a.39.39,0,0,1-.371.406Z" transform="translate(250.882 604.259)"/>
    <path id="Path_1017" data-name="Path 1017" d="M367.195,134.474a.39.39,0,0,1-.388-.364l-.139-2.2-1.388-.925a.386.386,0,0,1-.11-.538.391.391,0,0,1,.54-.108l1.549,1.03a.393.393,0,0,1,.171.3l.153,2.392a.389.389,0,0,1-.364.412h-.024" transform="translate(251.694 604.15)"/>
    <path id="Path_1018" data-name="Path 1018" d="M376.176,134.6s-6.32-.844-9.015-5.059-2.551-6.227-2.551-6.227-3.118,1.811-4.222,4.17a14.947,14.947,0,0,0-1.294,3.613s-1.046-5.067-.509-6.62,3.482-10.249,15.61-9.187c18.392,1.611,10.911,16.541,1.981,19.311" transform="translate(250.748 602.013)"/>
    <path id="Path_1019" data-name="Path 1019" d="M380.131,182.532s-.559-.245-2.935-1.095c-2.249-.8-10.363-.188-10.363-.188A68.2,68.2,0,0,0,353.9,184.61c-5.879,2.321-5.08,4.97-5.08,4.97s-3.786,1.989-2.385,3.659,7.423.653,7.423.653-7.67,2.163-4.745,4.1,12.7-1.214,12.7-1.214,14.5,6.7,19.809,2-1.489-16.249-1.489-16.249" transform="translate(249.003 611.344)" fill="#ff9c85"/>
    <path id="Path_1020" data-name="Path 1020" d="M374.022,184.6l-5.916,23.66s38.516,30.283,54.6,6.539-13.842-59.33-26.426-62.673-6.227,34.9-6.227,34.9Z" transform="translate(252.12 607.218)" fill="#40507f"/>
    <path id="Path_1021" data-name="Path 1021" d="M370.225,237.02a.385.385,0,0,1-.2-.055c-.967-.578-9.452-5.753-9.406-9.249a2.207,2.207,0,0,1,1.29-1.933,2.881,2.881,0,0,1,2.68-.172c3.682,1.594,5.92,10.548,6.014,10.928a.388.388,0,0,1-.378.482m-6.8-10.882a2.293,2.293,0,0,0-1.134.323,1.464,1.464,0,0,0-.893,1.265c-.032,2.333,5.3,6.213,8.191,8.054-.676-2.339-2.633-8.3-5.309-9.456a2.145,2.145,0,0,0-.855-.186" transform="translate(251.058 617.63)" fill="#40507f"/>
    <path id="Path_1022" data-name="Path 1022" d="M401.669,184.2a.4.4,0,0,1-.142-.026c-8.182-3.164-24.651-2.649-24.815-2.638a.39.39,0,0,1-.026-.779c.68-.023,16.794-.531,25.122,2.691a.389.389,0,0,1-.139.751" transform="translate(253.283 611.301)" fill="#fff"/>
    <path id="Path_1023" data-name="Path 1023" d="M387.633,182.331a.389.389,0,0,1-.213-.715c.9-.59,8.91-5.709,11.765-3.673a.935.935,0,0,1,.49,1.018c-.454,1.8-9.3,3.031-11.993,3.366a.349.349,0,0,1-.048,0m9.786-4.094c-2.166,0-5.667,1.721-8,3.072,5.186-.759,9.449-1.874,9.506-2.54,0,0-.017-.071-.187-.192a2.251,2.251,0,0,0-1.314-.34" transform="translate(254.833 610.84)" fill="#fff"/>
    <path id="Path_1024" data-name="Path 1024" d="M365.581,153.856c-.172,0-.281,0-.316,0a.389.389,0,0,1-.378-.4.4.4,0,0,1,.4-.378c.1,0,9.214.207,12.929-4.746a.389.389,0,0,1,.622.466c-3.6,4.8-11.543,5.063-13.257,5.063" transform="translate(251.663 606.687)" fill="#fff"/>
    <path id="Path_1025" data-name="Path 1025" d="M356.544,199.442H307.393l-14.038-31.753h47.213a2.975,2.975,0,0,1,2.721,1.772Z" transform="translate(241.522 609.454)" fill="#fff"/>
    <path id="Path_1026" data-name="Path 1026" d="M352.643,199.442H303.492L290.963,171.1a2.432,2.432,0,0,1,2.224-3.415H338.6Z" transform="translate(241.154 609.454)" fill="#7c576c"/>
    <path id="Path_1027" data-name="Path 1027" d="M371.994,199.51H302.6a2.006,2.006,0,0,1,0-4.011h69.4a2.006,2.006,0,0,1,0,4.011" transform="translate(242.549 613.396)"/>
    <path id="Path_1028" data-name="Path 1028" d="M348.531,189.543a.39.39,0,0,1-.2-.726,57.551,57.551,0,0,1,11.559-4.768.389.389,0,0,1,.214.749,56.681,56.681,0,0,0-11.383,4.693.388.388,0,0,1-.194.053" transform="translate(249.29 611.771)"/>
    <path id="Path_1029" data-name="Path 1029" d="M352.309,192.958a.389.389,0,0,1-.217-.712c.177-.119,4.379-2.894,8.324-3.235a.386.386,0,0,1,.421.355.391.391,0,0,1-.354.421c-3.75.322-7.917,3.077-7.959,3.1a.383.383,0,0,1-.215.066" transform="translate(249.825 612.477)"/>
    <path id="Path_1030" data-name="Path 1030" d="M409.988,267.533a.389.389,0,0,1-.2-.723,60,60,0,0,0,22.8-24.5.389.389,0,1,1,.714.309,60.816,60.816,0,0,1-23.114,24.853.38.38,0,0,1-.2.056" transform="translate(258.002 620)" fill="#d2f2fa"/>
    <path id="Path_1031" data-name="Path 1031" d="M376.834,122.458s6.556-17.7,14.165-10.669-7.082,18.441-7.082,18.441Z" transform="translate(253.357 601.295)"/>
  </g>
</svg>
