<svg xmlns="http://www.w3.org/2000/svg" width="327.871" height="312.814" viewBox="0 0 327.871 312.814">
  <g id="login-p1" transform="translate(-121.934 -615.345)">
    <path id="Path_947" data-name="Path 947" d="M188.932,92.764s21.468-27.114,22.8-25.306S192.354,94.5,192.354,94.5Z" transform="translate(148.719 595.232)" fill="#5c69a5"/>
    <path id="Path_948" data-name="Path 948" d="M174.46,104.765s7.825.127,11.269-2.935-3.778-10.137-3.778-10.137l-7.491,5.085Z" transform="translate(146.667 598.68)" fill="#ff9c85"/>
    <path id="Path_949" data-name="Path 949" d="M184.482,88.639a7.146,7.146,0,0,1,3.188-1.16c3.847-.5,14.874-.008,16.227,3.866,1.3,3.711-4.838,3.625-4.838,3.625s4.929,1.057,3.059,4.17c-1.561,2.6-4.774,2.067-4.774,2.067s5.021,1.59,1.36,4.58-14.974,1.5-18.433-.419,1.4-5.242,1.4-5.242-3.456-2.559-2.378-4.65c1.141-2.213,4.541-1.525,4.541-1.525s-2.738-2.946.644-5.31" transform="translate(147.315 598.06)" fill="#ff9c85"/>
    <path id="Path_950" data-name="Path 950" d="M171.958,88.009s14.051-6.867,16.671-6.474,12.4,8.681,10.008,10.958-10.008-3.6-10.008-3.6-7.813,13.114-12.942,11.633-3.729-12.522-3.729-12.522" transform="translate(146.287 597.238)" fill="#ff9c85"/>
    <path id="Path_952" data-name="Path 952" d="M198.357,94.56l-14-.72a.4.4,0,0,1-.38-.421.391.391,0,0,1,.421-.38l13.978.719a.4.4,0,0,1-.021.8" transform="translate(148.016 598.871)"/>
    <path id="Path_953" data-name="Path 953" d="M196.86,100.044l-14.04-.9a.4.4,0,0,1-.374-.426.392.392,0,0,1,.426-.375l14.014.894a.4.4,0,0,1-.025.8" transform="translate(147.799 599.624)"/>
    <path id="Path_954" data-name="Path 954" d="M95.874,40.626c-.4-.393-12.861,5.033-15.373,21.611S91.352,81.829,91.352,81.829L109.734,71.48,102.652,39.9Z" transform="translate(133.302 591.337)"/>
    <path id="Path_955" data-name="Path 955" d="M129.943,63.212s7.207,10.745,23.71,20.361c11.849,6.9,30.185,4.387,30.185,4.387l1.564,24.885s-39.871,13.722-55.273-3.618c-19.859-22.358-.186-46.014-.186-46.014" transform="translate(139.124 594.643)" fill="#a37b90"/>
    <path id="Path_956" data-name="Path 956" d="M129.254,235.47s7.892,11.072,8.2,13.232-5.727,6.07-5.727,6.07l14.542,18.1H114.036l-1.582-34.926Z" transform="translate(137.876 619.063)" fill="#35456d"/>
    <path id="Path_957" data-name="Path 957" d="M111.1,27.578s-12.3-5.691-17.8,4.4c-5.347,9.8,2.569,18.907,2.569,18.907l13.584-14.134Z" transform="translate(134.898 589.364)"/>
    <rect id="Rectangle_133" data-name="Rectangle 133" width="27.95" height="24.304" transform="matrix(0.023, -1, 1, 0.023, 232.054, 887.322)" fill="#ff9c85"/>
    <path id="Path_958" data-name="Path 958" d="M95.826,126.747s-4.463,15.88-4.72,47.071c-.221,26.93-5.19,86.685-3.165,89.521s43.343,1.215,44.963.405,2.026-19.444,2.026-19.444,27.545-46.178,31.191-53.874-20.254-74.787-20.254-74.787Z" transform="translate(134.333 602.075)" fill="#68b6d8"/>
    <path id="Path_959" data-name="Path 959" d="M105.882,59.013S86.439,66.121,84.008,76.969s14.583,54.239,19.039,55.735,40.1-6.36,43.343-8.978-.405-29.551-1.216-33.292-4.05-18.7-8.506-25.062-8.1-6.78-12.557-6.78-18.228.42-18.228.42" transform="translate(133.81 593.988)" fill="#a37b90"/>
    <path id="Path_960" data-name="Path 960" d="M100.807,57.522s-3.672,1.2-4.785,2.913c-1.248,1.916,1.086,6.96,7.729,10.883A37.159,37.159,0,0,0,112.7,75.2s4.226-5.845,5.036-9.4-2.165-8.213-2.165-8.213Z" transform="translate(135.501 593.836)" fill="#f7b369"/>
    <path id="Path_961" data-name="Path 961" d="M99.863,52.082,100.9,62.666s2.206,2.856,8.447,2.753c4.649-.077,6.168-1.278,6.168-1.278l-1.168-5.3L113.2,53.679l-11.421-1.366Z" transform="translate(136.091 593.064)" fill="#ff9c85"/>
    <path id="Path_962" data-name="Path 962" d="M101.541,52.284a3.5,3.5,0,0,0,.408.991c2.885,5.056,9.471,5.562,12.159,5.54l-1.145-5.165Z" transform="translate(136.329 593.093)"/>
    <path id="Path_963" data-name="Path 963" d="M114.21,32.565s6.853,12.726,5.385,20.313-8.321,6.975-12.482,5.874a13.43,13.43,0,0,1-6.241-3.426,5.72,5.72,0,0,1-6.486-1.714c-2.814-3.3-1.59-7.464.49-8.566s4.773.244,4.773.244L97.323,41.62s6.852-20.191,16.887-9.055" transform="translate(135.082 589.823)" fill="#ff9c85"/>
    <path id="Path_964" data-name="Path 964" d="M98.252,283.033a3.516,3.516,0,0,1-3.263-3.583c-.023-7.6.078-25.2,1.483-25.2,1.791,0,18.706,5.353,18.706,5.353s.484-10.533,7.915-8.663c5.7,1.435,12.322,8.116,15.093,11.147a6.452,6.452,0,0,0,3.23,1.932c5.312,1.294,19.924,5.555,20.155,13.286.281,9.45-3.563,8.381-5.356,8.385-1.538,0-45.533-2.07-57.962-2.657" transform="translate(135.4 621.225)" fill="#40507f"/>
    <path id="Path_965" data-name="Path 965" d="M99.237,45.562s5.764.734,9.252-5.874,2.937-9.178,2.937-9.178l4.4,6.241s.551-4.589-1.468-7.342-3.855-2.02-3.855-2.02l-12.3,4.038-2.57,10.279Z" transform="translate(135.492 589.551)"/>
    <path id="Path_966" data-name="Path 966" d="M133.668,102.942s5.139-6.486,8.9-8.049c1.855-.772,8.875-2.071,9.522-.37s-6.03,5.414-6.03,5.414,16.219-6.126,18.937-4.811c3.272,1.584-1.449,3.68-1.449,3.68s5.225.255,4.384,2.041-4,3.635-4,3.635,5.809-.97,2.744,3.086-27.68,16.789-35.511,9.891c-3.867-3.406,2.508-14.518,2.508-14.518" transform="translate(140.352 598.963)" fill="#ff9c85"/>
    <path id="Path_967" data-name="Path 967" d="M148.715,103.41a.4.4,0,0,1-.147-.775l12.224-4.789a.4.4,0,0,1,.293.747l-12.225,4.79a.4.4,0,0,1-.145.027" transform="translate(142.96 599.548)"/>
    <path id="Path_968" data-name="Path 968" d="M150.93,107.634a.4.4,0,0,1-.15-.774l10.075-4.041a.4.4,0,0,1,.3.744l-10.075,4.042a.4.4,0,0,1-.15.029" transform="translate(143.274 600.253)"/>
    <path id="Path_969" data-name="Path 969" d="M140.78,100.143a.4.4,0,0,1-.055-.8l3.792-.531a.4.4,0,0,1,.112.8l-3.793.53a.31.31,0,0,1-.056,0" transform="translate(141.835 599.689)"/>
    <path id="Path_970" data-name="Path 970" d="M87.019,70.946s-19.17,23.778-7.192,52.682c9.72,23.457,34.87,20.474,47.832,16.424s24.3-14.583,24.3-14.583l-11.951-21s-20.317,3.565-33.279,2.349S87.019,70.946,87.019,70.946" transform="translate(132.693 595.739)" fill="#a37b90"/>
    <path id="Path_971" data-name="Path 971" d="M129.8,237.748a.4.4,0,0,1-.4-.4l.3-94.119a.4.4,0,0,1,.116-.282l9.244-9.273a.4.4,0,1,1,.569.566l-9.127,9.156-.3,93.955a.4.4,0,0,1-.4.4" transform="translate(140.279 604.614)" fill="#fff"/>
    <path id="Path_972" data-name="Path 972" d="M96.557,150.612a.4.4,0,0,1-.055-.8c3.913-.548,6.855-2.112,8.746-4.649,3.1-4.167,2.312-9.613,2.3-9.667a.4.4,0,0,1,.336-.459.409.409,0,0,1,.458.336c.037.235.854,5.822-2.448,10.263-2.023,2.72-5.147,4.392-9.284,4.97a.308.308,0,0,1-.056,0" transform="translate(135.566 604.825)" fill="#fff"/>
    <path id="Path_973" data-name="Path 973" d="M105.622,103.325c-2.893-.116-12.323-.65-12.822-2.649-.2-.782.717-1.316,1.016-1.491,4.87-2.853,11.78,3.18,12.072,3.438a.4.4,0,0,1-.266.7m-8.876-4.094a4.907,4.907,0,0,0-2.523.646c-.569.333-.658.549-.643.605.217.87,5.554,1.685,10.821,1.981-1.548-1.159-4.73-3.232-7.654-3.232" transform="translate(135.086 599.634)" fill="#f7b369"/>
    <path id="Path_984" data-name="Path 984" d="M107.654,42.84a.4.4,0,0,1-.4-.333l-.372-2.148a.4.4,0,0,1,.166-.4l1.5-1.053a.4.4,0,1,1,.461.657l-1.29.907.328,1.9a.4.4,0,0,1-.327.465.488.488,0,0,1-.069.006" transform="translate(137.086 591.187)"/>
    <path id="Path_985" data-name="Path 985" d="M113.991,41.438a.4.4,0,0,1-.4-.333l-.371-2.149a.4.4,0,0,1,.164-.4l1.5-1.054a.4.4,0,0,1,.461.657l-1.292.908.329,1.9a.4.4,0,0,1-.327.465.491.491,0,0,1-.07.006" transform="translate(137.985 590.988)"/>
    <path id="Path_986" data-name="Path 986" d="M112.707,46.935a.4.4,0,0,1-.124-.021.4.4,0,0,1-.257-.506c.812-2.474-.84-5.546-.857-5.576a.4.4,0,0,1,.7-.386c.075.138,1.837,3.4.916,6.212a.4.4,0,0,1-.381.276" transform="translate(137.729 591.385)"/>
    <path id="Path_987" data-name="Path 987" d="M110.881,51.132c-1.869,0-2.632-2.128-2.664-2.218a.4.4,0,0,1,.379-.533h4.568a.4.4,0,0,1,.379.533c-.031.09-.794,2.218-2.663,2.218m-1.645-1.949a1.754,1.754,0,0,0,3.289,0Z" transform="translate(137.272 592.54)"/>
    <path id="Path_988" data-name="Path 988" d="M99.847,49.153a.393.393,0,0,1-.237-.079l-4.774-3.536a.4.4,0,1,1,.477-.644l4.774,3.535a.4.4,0,0,1-.24.724" transform="translate(135.356 592.034)"/>
    <path id="Path_989" data-name="Path 989" d="M95.076,49.4a.4.4,0,0,1-.2-.752L98.018,46.9a.4.4,0,1,1,.39.7L95.27,49.349a.4.4,0,0,1-.194.05" transform="translate(135.356 592.323)"/>
    <path id="Path_990" data-name="Path 990" d="M100.938,57.7s5.8,5.267,9.988,5.306a3.727,3.727,0,0,0,4.064-3.85l1.673,5.88-5.178,5.245-9.245-3.727L97.05,60.749Z" transform="translate(135.692 593.861)" fill="#f7b369"/>
    <path id="Path_991" data-name="Path 991" d="M107.555,69.728a23.959,23.959,0,0,0-3.772,11.018c-.637,6.728,3.269,14.29,3.269,14.29s6.264-7.1,7.093-12.465S112.105,69.6,112.105,69.6s2.84,6.459,3.541,10.411,1.67,9.031,1.67,9.031,3.8-5.039,3.573-11.02-6.651-9.909-6.651-9.909Z" transform="translate(136.637 595.337)" fill="#f7b369"/>
    <path id="Path_992" data-name="Path 992" d="M108.157,72.155a4.185,4.185,0,0,1-1.128-.128c-1.919-.554-2.232-5.037-1.857-6.861a.4.4,0,1,1,.786.162c-.386,1.879.118,5.588,1.294,5.927,1.037.3,3.3-.146,4.5-.443-.481-1.257-1.645-4.687-.7-6.237a1.643,1.643,0,0,1,1.33-.791,1.377,1.377,0,0,1,1.326.547c1.154,1.6-.815,6.372-1.044,6.911a.4.4,0,0,1-.185.2.378.378,0,0,1-.078.031,19.237,19.237,0,0,1-4.242.683m4.392-7.577c-.033,0-.067,0-.1,0a.847.847,0,0,0-.711.409c-.6.993.026,3.418.564,4.977.69-1.887,1.323-4.383.756-5.168a.556.556,0,0,0-.5-.223" transform="translate(136.824 594.723)" fill="#40507f"/>
    <path id="Path_993" data-name="Path 993" d="M108.133,80.305a1.231,1.231,0,0,1-1.047-.538c-1.251-1.795,1.016-8.176,1.279-8.9a.406.406,0,0,1,.4-.264.4.4,0,0,1,.367.313c.161.716,1.535,7.053.088,8.854a1.356,1.356,0,0,1-1.088.532m.506-7.74c-.8,2.556-1.531,5.83-.894,6.743a.384.384,0,0,0,.388.194.551.551,0,0,0,.462-.233c.814-1.013.44-4.424.043-6.7" transform="translate(137.062 595.69)" fill="#40507f"/>
    <path id="Path_994" data-name="Path 994" d="M177.487,100.183a.4.4,0,0,1-.113-.787,15.742,15.742,0,0,0,10.109-11.449.4.4,0,0,1,.786.169,16.568,16.568,0,0,1-10.669,12.05.386.386,0,0,1-.113.016" transform="translate(147.039 598.104)"/>
    <path id="Path_1032" data-name="Path 1032" d="M113.054,183.417c-1.688-1.347-37.087-6.435-35.731,43.095s56.768,77.919,117.586,67.235,3.247-81.715,3.247-81.715Z" transform="translate(132.891 611.568)" fill="#6876aa"/>
    <path id="Path_1033" data-name="Path 1033" d="M114.9,264.057a.384.384,0,0,1-.2-.055,59.888,59.888,0,0,1-22.755-24.467.383.383,0,1,1,.7-.306A59.093,59.093,0,0,0,115.1,263.345a.383.383,0,0,1-.2.712" transform="translate(134.965 619.563)" fill="#d2f2fa"/>
    <path id="Path_1034" data-name="Path 1034" d="M189.965,157.635s5.544.406,3.779,8.245-6.816-1.907-6.816-1.907Z" transform="translate(148.434 608.029)" fill="#f48462"/>
    <path id="Path_1035" data-name="Path 1035" d="M245.619,294.965c-1.077.617-63.563-2.622-64.968-3.911-.5-.461-.473-3.431-.071-7.661.725-7.7,5.077-20.849,7.485-28.958,0,0,21.868,1.469,23.818,2.713s23.027,19.033,23.027,19.033,8.038,3.059,10.92,7.813a10.384,10.384,0,0,1,1.418,4.266c.363,3.355-.877,6.287-1.63,6.7" transform="translate(147.491 621.752)" fill="#40507f"/>
    <path id="Path_1036" data-name="Path 1036" d="M245.619,291.37c-1.077.617-63.563-2.622-64.968-3.911-.5-.461-.473-3.431-.071-7.661l66.669,4.867c.363,3.354-.877,6.286-1.63,6.7" transform="translate(147.491 625.348)" fill="#fff"/>
    <path id="Path_1037" data-name="Path 1037" d="M224.122,269.611c-.032,0-18.283-1.461-18.283-1.461a.389.389,0,0,1-.182-.714l8.962-5.857a.389.389,0,1,1,.426.651l-8.009,5.235,17.117,1.369a.389.389,0,0,1-.031.778" transform="translate(151.064 622.755)" fill="#fff"/>
    <path id="Path_1038" data-name="Path 1038" d="M175.588,206.107s34.69-24.532,64.631-17-13.783,80.342-13.783,80.342l-43.523.1,4.242-20.86-52.248-.1,23.055-32.645Z" transform="translate(141.059 612.287)" fill="#8e657d"/>
    <path id="Path_1039" data-name="Path 1039" d="M205.734,208.991a.389.389,0,0,1-.329-.6,54.274,54.274,0,0,1,9.176-10.655.389.389,0,1,1,.506.59,53.421,53.421,0,0,0-9.025,10.48.389.389,0,0,1-.329.182" transform="translate(151.045 613.701)" fill="#fff"/>
    <path id="Path_1040" data-name="Path 1040" d="M167.432,173.494l29.785,8.987s.3,20.136-18.615,25.636-21.109-17.432-21.109-17.432Z" transform="translate(144.261 610.277)" fill="#f7b369"/>
    <path id="Path_1041" data-name="Path 1041" d="M180.291,177.295s-.925,11.312,8.088,10.237,8.459-14.019,8.459-14.019Z" transform="translate(147.49 610.28)" fill="#f48462"/>
    <path id="Path_1042" data-name="Path 1042" d="M119.757,238.244s-17.361-62.673-2.743-79.92,48.551-2.877,48.551-2.877L181.8,212.962Z" transform="translate(137.693 606.923)" fill="#f7b369"/>
    <path id="Path_1043" data-name="Path 1043" d="M140.135,189.932s8.775-13.9,13.033-15.482,14.555.5,14.559,1.736-9.534,2.733-9.534,2.733,5.359,9.368,5.446,11.472-4.75,8.237-5.812,8.85-3.727-2.806-3.727-2.806A15.705,15.705,0,0,1,147,201.1c-4.15,1.1-8.914-5.2-8.914-5.2Z" transform="translate(141.511 610.332)" fill="#f48462"/>
    <path id="Path_1044" data-name="Path 1044" d="M151.384,181.8a.454.454,0,0,1-.074-.9l5.721-.963a.454.454,0,0,1,.151.9l-5.723.963a.421.421,0,0,1-.075.006" transform="translate(143.331 611.188)"/>
    <path id="Path_1045" data-name="Path 1045" d="M127.345,141.822l.274,11.18s2.094,3.165,8.648,3.536c4.882.277,6.164-1.419,6.164-1.419l-.416-5.092-.8-5.506-11.874-2.31Z" transform="translate(139.987 605.787)" fill="#f48462"/>
    <path id="Path_1046" data-name="Path 1046" d="M129.253,143a3.484,3.484,0,0,0,.351,1.028c2.624,5.3,9.425,6.311,12.217,6.493l-.808-5.281Z" transform="translate(140.258 605.954)"/>
    <path id="Path_1047" data-name="Path 1047" d="M143.625,123.967s5.953,13.3,3.919,20.817-8.878,6.4-12.98,4.986a13.528,13.528,0,0,1-6.022-3.9,5.765,5.765,0,0,1-6.394-2.2c-2.587-3.528-1.05-7.621,1.122-8.575s4.779.6,4.779.6l-2.068-3.861s8.375-19.794,17.643-7.861" transform="translate(139.059 602.713)" fill="#f48462"/>
    <path id="Path_1048" data-name="Path 1048" d="M140.576,139.1a.4.4,0,0,1-.114-.017.389.389,0,0,1-.258-.485c.76-2.479-1.095-5.143-1.114-5.169a.389.389,0,0,1,.636-.45c.086.121,2.094,3.006,1.223,5.846a.389.389,0,0,1-.372.275" transform="translate(141.642 604.51)"/>
    <path id="Path_1049" data-name="Path 1049" d="M127.163,139.785a.39.39,0,0,1-.282-.121l-3.635-3.835a.389.389,0,0,1,.564-.535l3.635,3.835a.389.389,0,0,1-.282.657" transform="translate(139.391 604.844)"/>
    <path id="Path_1050" data-name="Path 1050" d="M123.347,138.463a.389.389,0,0,1-.058-.774l2.507-.386a.389.389,0,1,1,.118.77l-2.507.386a.347.347,0,0,1-.059,0" transform="translate(139.365 605.146)"/>
    <path id="Path_1051" data-name="Path 1051" d="M128.454,136.7a1.664,1.664,0,0,0,2.377-.668c1-1.569-1.2-6.194-1.2-6.194s4.136.929,6.687-.444,3.8-5.137,3.8-5.137,1.89,3.914,7.529,2.177,6.7-9.42.669-10.972S139,116.581,139,116.581s-.776-5.572-8.217-2.8C124,116.3,122.874,124.8,122.874,124.8a5.367,5.367,0,0,0-4.849,4.632c-.773,4.435,4.419,7.629,4.419,7.629a7.092,7.092,0,0,1,6.01-.364" transform="translate(138.655 601.702)"/>
    <path id="Path_1052" data-name="Path 1052" d="M135.162,134.378a.389.389,0,0,1-.385-.339l-.323-2.487a.389.389,0,1,1,.772-.1l.322,2.487a.388.388,0,0,1-.335.436.4.4,0,0,1-.051,0" transform="translate(140.995 604.269)"/>
    <path id="Path_1053" data-name="Path 1053" d="M172.066,205.964a.391.391,0,0,1-.387-.352c-.806-8.18-4.746-19.515-4.785-19.629a.389.389,0,1,1,.734-.257c.04.114,4.009,11.538,4.825,19.811a.387.387,0,0,1-.348.425l-.039,0" transform="translate(145.591 611.974)" fill="#40507f"/>
    <path id="Path_1054" data-name="Path 1054" d="M141.635,133.843a.388.388,0,0,1-.384-.331l-.371-2.48a.389.389,0,0,1,.328-.443.383.383,0,0,1,.442.328l.37,2.479a.388.388,0,0,1-.327.443.336.336,0,0,1-.058,0" transform="translate(141.906 604.193)"/>
    <path id="Path_1055" data-name="Path 1055" d="M133.083,130.036a.4.4,0,0,1-.177-.042.39.39,0,0,1-.169-.524c.888-1.738,3.092-1.286,3.186-1.266a.389.389,0,0,1-.161.76c-.072-.014-1.717-.344-2.331.86a.387.387,0,0,1-.347.212" transform="translate(140.746 603.847)"/>
    <path id="Path_1056" data-name="Path 1056" d="M148.4,195l33.9,6.551a3.036,3.036,0,0,0,3.558-2.4l9.348-48.365a3.037,3.037,0,0,0-2.406-3.558l-33.9-6.553a3.037,3.037,0,0,0-3.558,2.406L146,191.445A3.038,3.038,0,0,0,148.4,195" transform="translate(142.624 605.616)"/>
    <path id="Path_1057" data-name="Path 1057" d="M150.47,195.4l33.9,6.551a3.036,3.036,0,0,0,3.558-2.4l9.348-48.365a3.037,3.037,0,0,0-2.406-3.558l-33.9-6.553a3.038,3.038,0,0,0-3.558,2.406l-9.348,48.365a3.038,3.038,0,0,0,2.406,3.558" transform="translate(142.917 605.673)" fill="#40507f"/>
    <path id="Path_1058" data-name="Path 1058" d="M180.176,153.21a8.72,8.72,0,0,1-1.668-.163l-8.486-1.652a7.7,7.7,0,0,1-4.016-2.045,3.86,3.86,0,0,1-1.235-3.447l.69-3.544a.389.389,0,0,1,.764.15l-.69,3.543a3.111,3.111,0,0,0,1.026,2.754,6.914,6.914,0,0,0,3.609,1.825l8.486,1.653a6.909,6.909,0,0,0,4.03-.337,3.116,3.116,0,0,0,1.986-2.168l.69-3.544a.4.4,0,0,1,.457-.308.39.39,0,0,1,.307.458l-.69,3.544A3.867,3.867,0,0,1,183,152.66a7.118,7.118,0,0,1-2.821.55" transform="translate(145.285 605.818)" fill="#fff"/>
    <path id="Path_1059" data-name="Path 1059" d="M139.4,128.63a.39.39,0,0,1-.321-.607,1.947,1.947,0,0,1,1.391-.911,3.344,3.344,0,0,1,2.261.83.389.389,0,0,1-.514.585,2.559,2.559,0,0,0-1.652-.642,1.194,1.194,0,0,0-.843.575.388.388,0,0,1-.322.17" transform="translate(141.641 603.699)"/>
    <path id="Path_1060" data-name="Path 1060" d="M194.031,171.554s7.912-.908,5.479-4.548-16.749-5.38-18.275-1.108,12.8,5.655,12.8,5.655" transform="translate(147.611 608.845)" fill="#f48462"/>
    <path id="Path_1061" data-name="Path 1061" d="M193.28,177.276s7.912-.908,5.479-4.548-16.749-5.38-18.275-1.108,12.8,5.655,12.8,5.655" transform="translate(147.505 609.656)" fill="#f48462"/>
    <path id="Path_1062" data-name="Path 1062" d="M188.733,182a9.982,9.982,0,0,0,5.27.359c1.562-.343,2.929-1.127,2.142-2.9-1.574-3.541-13.794-7.217-15.769-3.721-1.473,2.607,4.978,5.14,8.357,6.26" transform="translate(147.475 610.396)" fill="#f48462"/>
    <path id="Path_1063" data-name="Path 1063" d="M194.433,169.9c-.03,0-9.22-.687-9.22-.687a.39.39,0,0,1-.359-.418.383.383,0,0,1,.417-.358l9.19.686a.389.389,0,0,1-.029.778" transform="translate(148.14 609.56)"/>
    <path id="Path_1064" data-name="Path 1064" d="M193.131,176.238c-.03,0-9.22-.688-9.22-.688a.389.389,0,1,1,.058-.775l9.19.686a.389.389,0,0,1-.029.778" transform="translate(147.956 610.458)"/>
    <path id="Path_1065" data-name="Path 1065" d="M130.953,229.209a.482.482,0,0,1-.465-.356l-1.545-5.822a.481.481,0,0,1,.931-.248l1.545,5.822a.481.481,0,0,1-.343.588.457.457,0,0,1-.123.016" transform="translate(140.212 617.214)" fill="#534579"/>
    <path id="Path_1066" data-name="Path 1066" d="M170.76,216.456a.481.481,0,0,1-.481-.468l-.162-6.2a.48.48,0,1,1,.96-.024l.163,6.2a.48.48,0,0,1-.468.493Z" transform="translate(146.051 615.353)" fill="#534579"/>
    <path id="Path_1067" data-name="Path 1067" d="M166.26,219.881a.48.48,0,0,1-.481-.48l-.015-6.573a.481.481,0,0,1,.962,0l.014,6.573a.48.48,0,0,1-.48.482Z" transform="translate(145.434 615.785)" fill="#534579"/>
    <path id="Path_1068" data-name="Path 1068" d="M138.008,141.935a3.954,3.954,0,0,1-3.206-1.917.389.389,0,0,1,.669-.4,3.05,3.05,0,0,0,3.219,1.445.389.389,0,0,1,.2.752,3.419,3.419,0,0,1-.879.116" transform="translate(141.037 605.448)"/>
    <path id="Path_1069" data-name="Path 1069" d="M295.823,270.314c-.5,1.134-52.767,35.536-54.662,35.329-.676-.073-2.413-2.483-4.594-6.13-3.977-6.633-8.257-19.805-11.121-27.766,0,0,18.49-11.768,20.8-11.921,2.327-.154,29.829,1.7,29.829,1.7s8.287-2.3,13.425-.172a10.371,10.371,0,0,1,3.67,2.6c2.279,2.488,3.017,5.586,2.657,6.368" transform="translate(153.895 622.515)" fill="#40507f"/>
    <path id="Path_1070" data-name="Path 1070" d="M294.443,269.8c-.5,1.134-52.767,35.536-54.662,35.329-.676-.073-2.413-2.483-4.594-6.13l56.6-35.566c2.279,2.488,3.017,5.586,2.657,6.368" transform="translate(155.276 623.028)" fill="#fff"/>
    <path id="Path_1071" data-name="Path 1071" d="M249.523,271.059a.387.387,0,0,1-.364-.525l3.751-10.027a.389.389,0,0,1,.73.272l-3.353,8.962,14.6-9.034a.389.389,0,1,1,.408.662L249.727,271a.387.387,0,0,1-.2.058" transform="translate(157.253 622.577)" fill="#fff"/>
    <path id="Path_1072" data-name="Path 1072" d="M118.689,231.382s74.8-38.041,91.289-32.619c21.647,7.118,60.876,65.823,60.876,65.823l-34.384,33.279s-35.61-48.059-41.31-47.424c-6.593.735-43.685,16.336-56.884,12.095s-19.586-31.153-19.586-31.153" transform="translate(138.76 613.784)" fill="#a37b90"/>
    <path id="Path_1073" data-name="Path 1073" d="M186.774,245.786a.416.416,0,0,1-.134-.023.391.391,0,0,1-.255-.34c-.021-.315-.473-7.767,2.36-10.567a3.536,3.536,0,0,1,2.894-1.05,1.958,1.958,0,0,1,1.89,1.142c1.069,2.818-5.7,9.921-6.476,10.721a.392.392,0,0,1-.28.118m4.534-11.216a2.752,2.752,0,0,0-2.015.838c-2.032,2.01-2.189,6.982-2.16,9.044,2.748-2.966,6.293-7.585,5.67-9.229-.053-.14-.214-.565-1.222-.642-.092-.007-.183-.011-.273-.011" transform="translate(148.352 618.825)" fill="#fff"/>
    <path id="Path_1074" data-name="Path 1074" d="M128.281,152.293S76.632,174.64,85.6,213.206c8.548,36.749,67.5,4.65,67.5,4.65l-2.915-28.844L122.68,191.95Z" transform="translate(133.921 607.271)" fill="#f7b369"/>
    <path id="Path_1075" data-name="Path 1075" d="M109.9,186.57a.389.389,0,0,1-.078-.771c15.2-3.139,32.394-2.1,32.567-2.086a.388.388,0,0,1,.363.412.383.383,0,0,1-.412.364c-.171-.011-17.268-1.046-32.361,2.072a.369.369,0,0,1-.079.008" transform="translate(137.459 611.701)" fill="#40507f"/>
    <path id="Path_1076" data-name="Path 1076" d="M123.544,184.832c-1.821,0-10.322-.119-11.426-2.3a1.418,1.418,0,0,1,.248-1.564,2.712,2.712,0,0,1,1.878-1.061c3.558-.5,9.525,4.033,9.777,4.227a.388.388,0,0,1-.233.7h-.244m-8.713-4.188a3.651,3.651,0,0,0-.481.032,1.94,1.94,0,0,0-1.361.757c-.33.442-.218.663-.176.748.644,1.274,5.889,1.794,9.747,1.865-1.715-1.175-5.289-3.4-7.73-3.4" transform="translate(137.81 611.181)" fill="#40507f"/>
    <path id="Path_1077" data-name="Path 1077" d="M120.842,220.561a.389.389,0,0,1-.139-.752c.182-.07,18.212-7.009,27.1-12.845a.389.389,0,1,1,.427.651c-8.957,5.88-27.066,12.851-27.247,12.92a.373.373,0,0,1-.139.026" transform="translate(139.01 615.013)" fill="#40507f"/>
    <path id="Path_1078" data-name="Path 1078" d="M130.851,162.138a1.709,1.709,0,0,1-.555-.086c-2.664-.907-3.03-9.67-3.063-10.665a.389.389,0,0,1,.675-.277,15.155,15.155,0,0,0,8.431,3.916,12.374,12.374,0,0,0,3.14.07.388.388,0,0,1,.216-.025c.362-.047.718-.112,1.069-.193a2,2,0,0,0,1.531-2.119l-.234-2.55a.39.39,0,0,1,.215-.385.4.4,0,0,1,.436.063c.876.807,5.235,4.918,5.006,6.59a.883.883,0,0,1-.485.684c-1.629.835-6.274-.8-7.5-1.253-1.161,1.2-6.186,6.229-8.882,6.229m-2.8-9.836c.214,3.56,1,8.507,2.491,9.014s5.457-2.775,8.069-5.381a13.266,13.266,0,0,1-2.389-.14,16.518,16.518,0,0,1-8.172-3.493m13.09,3.277c2.14.7,4.832,1.345,5.732.888a.1.1,0,0,0,.069-.1c.113-.824-2.086-3.328-4.017-5.205l.14,1.522a2.776,2.776,0,0,1-1.924,2.891" transform="translate(139.971 606.916)" fill="#40507f"/>
    <path id="Path_1081" data-name="Path 1081" d="M29.021,191.695c12.614,5.926,20.369,15.988,17.322,22.477s-15.745,6.944-28.359,1.02S-2.385,199.2.663,192.714s15.744-6.945,28.358-1.02" transform="translate(121.934 612.267)" fill="#7b9b75"/>
    <path id="Path_1082" data-name="Path 1082" d="M31.83,236.894c-10.217-1.541-17.856-7.052-17.064-12.306s9.718-8.266,19.935-6.725,17.856,7.052,17.063,12.307-9.718,8.265-19.934,6.724" transform="translate(124.019 616.51)" fill="#7b9b75"/>
    <path id="Path_1083" data-name="Path 1083" d="M63.32,248.6a.567.567,0,0,1-.563-.5c-3.622-29.2-41.937-45.882-42.325-46.046a.568.568,0,0,1,.446-1.044c.393.167,39.3,17.1,43,46.951a.567.567,0,0,1-.492.633.505.505,0,0,1-.071,0" transform="translate(124.782 614.172)" fill="#fff"/>
    <path id="Path_1084" data-name="Path 1084" d="M68.793,203.629c9.457-10.237,21.392-14.593,26.657-9.728s1.868,17.106-7.589,27.343S66.47,235.836,61.2,230.972s-1.868-17.106,7.589-27.343" transform="translate(130.259 612.888)" fill="#7b9b75"/>
    <path id="Path_1085" data-name="Path 1085" d="M58.077,243.657a.567.567,0,0,1-.4-.614C59.337,229.8,34.263,225.8,34.008,225.764a.567.567,0,1,1,.174-1.12c1.081.164,26.418,4.217,24.62,18.539a.569.569,0,0,1-.635.492.538.538,0,0,1-.089-.018" transform="translate(126.687 617.527)" fill="#fff"/>
    <path id="Path_1086" data-name="Path 1086" d="M54.615,249.614a.586.586,0,0,1-.556-.678c5.844-29.359,29.129-47.287,29.362-47.464a.568.568,0,0,1,.686.9c-.232.175-23.177,17.856-28.936,46.782a.566.566,0,0,1-.556.457" transform="translate(129.596 614.227)" fill="#fff"/>
    <path id="Path_1087" data-name="Path 1087" d="M79.2,285.213H50.472a2.964,2.964,0,0,1-3.014-2.566l-4.4-41.855a2.919,2.919,0,0,1,3.014-3.124H83.6a2.919,2.919,0,0,1,3.014,3.124l-4.395,41.855a2.965,2.965,0,0,1-3.015,2.566" transform="translate(128.037 619.375)" fill="#a88"/>
    <path id="Path_1088" data-name="Path 1088" d="M73.633,285.213H44.9a2.964,2.964,0,0,1-3.014-2.566l-4.4-41.855a2.919,2.919,0,0,1,3.014-3.124H78.029a2.919,2.919,0,0,1,3.014,3.124l-4.4,41.855a2.964,2.964,0,0,1-3.014,2.566" transform="translate(127.247 619.375)" fill="#b79a9a"/>
  </g>
</svg>
