<svg xmlns="http://www.w3.org/2000/svg" xmlns:xlink="http://www.w3.org/1999/xlink" width="514.234" height="185.905" viewBox="0 0 514.234 185.905">
  <defs>
    <clipPath id="clip-path">
      <rect id="Rectangle_220" data-name="Rectangle 220" width="2.375" height="3.372" fill="#59acc9"/>
    </clipPath>
    <clipPath id="clip-path-2">
      <rect id="Rectangle_230" data-name="Rectangle 230" width="2.701" height="3.835" fill="#59acc9"/>
    </clipPath>
    <clipPath id="clip-path-3">
      <rect id="Rectangle_237" data-name="Rectangle 237" width="9.424" height="13.383" fill="#59acc9"/>
    </clipPath>
    <clipPath id="clip-path-4">
      <rect id="Rectangle_246" data-name="Rectangle 246" width="9.279" height="13.177" fill="#59acc9"/>
    </clipPath>
    <clipPath id="clip-path-5">
      <rect id="Rectangle_250" data-name="Rectangle 250" width="10.482" height="14.886" fill="#59acc9"/>
    </clipPath>
    <clipPath id="clip-path-6">
      <rect id="Rectangle_253" data-name="Rectangle 253" width="7.091" height="10.07" fill="#59acc9"/>
    </clipPath>
    <clipPath id="clip-path-7">
      <rect id="Rectangle_258" data-name="Rectangle 258" width="5.977" height="8.487" fill="#59acc9"/>
    </clipPath>
    <clipPath id="clip-path-8">
      <rect id="Rectangle_273" data-name="Rectangle 273" width="4.932" height="7.003" fill="#59acc9"/>
    </clipPath>
    <clipPath id="clip-path-9">
      <rect id="Rectangle_275" data-name="Rectangle 275" width="9.775" height="13.881" fill="#59acc9"/>
    </clipPath>
    <clipPath id="clip-path-10">
      <rect id="Rectangle_282" data-name="Rectangle 282" width="5.508" height="7.822" fill="#59acc9"/>
    </clipPath>
    <clipPath id="clip-path-11">
      <rect id="Rectangle_293" data-name="Rectangle 293" width="1.811" height="2.571" fill="#59acc9"/>
    </clipPath>
    <clipPath id="clip-path-12">
      <path id="Path_1129" data-name="Path 1129" d="M13.361,0A13.361,13.361,0,0,0,0,13.361v72.5a13.361,13.361,0,0,0,26.722,0v-72.5A13.361,13.361,0,0,0,13.361,0Z" transform="translate(0 0)" fill="none"/>
    </clipPath>
    <clipPath id="clip-path-13">
      <rect id="Rectangle_138" data-name="Rectangle 138" width="4.557" height="1.374" fill="none"/>
    </clipPath>
    <linearGradient id="linear-gradient" x1="-4.005" y1="61.762" x2="-3.99" y2="61.762" gradientUnits="objectBoundingBox">
      <stop offset="0" stop-color="#555ea3"/>
      <stop offset="1" stop-color="#51537a"/>
    </linearGradient>
    <clipPath id="clip-path-14">
      <rect id="Rectangle_140" data-name="Rectangle 140" width="3.144" height="0.751" fill="none"/>
    </clipPath>
    <linearGradient id="linear-gradient-2" x1="-5.804" y1="108.683" x2="-5.783" y2="108.683" xlink:href="#linear-gradient"/>
    <clipPath id="clip-path-15">
      <rect id="Rectangle_142" data-name="Rectangle 142" width="3.145" height="0.751" fill="none"/>
    </clipPath>
    <linearGradient id="linear-gradient-3" x1="-5.804" y1="105.027" x2="-5.783" y2="105.027" xlink:href="#linear-gradient"/>
    <linearGradient id="linear-gradient-4" x1="-5.804" y1="101.372" x2="-5.783" y2="101.372" xlink:href="#linear-gradient"/>
    <linearGradient id="linear-gradient-5" x1="-5.804" y1="93.48" x2="-5.783" y2="93.48" xlink:href="#linear-gradient"/>
    <linearGradient id="linear-gradient-6" x1="-5.804" y1="89.825" x2="-5.783" y2="89.825" xlink:href="#linear-gradient"/>
    <linearGradient id="linear-gradient-7" x1="-5.803" y1="86.171" x2="-5.782" y2="86.171" xlink:href="#linear-gradient"/>
    <linearGradient id="linear-gradient-8" x1="-5.803" y1="78.149" x2="-5.782" y2="78.149" xlink:href="#linear-gradient"/>
    <linearGradient id="linear-gradient-9" x1="-5.803" y1="74.495" x2="-5.782" y2="74.495" xlink:href="#linear-gradient"/>
    <linearGradient id="linear-gradient-10" x1="-5.803" y1="70.84" x2="-5.782" y2="70.84" xlink:href="#linear-gradient"/>
    <linearGradient id="linear-gradient-11" x1="-5.802" y1="62.819" x2="-5.781" y2="62.819" xlink:href="#linear-gradient"/>
    <linearGradient id="linear-gradient-12" x1="-5.803" y1="59.165" x2="-5.781" y2="59.165" xlink:href="#linear-gradient"/>
    <linearGradient id="linear-gradient-13" x1="-5.802" y1="55.51" x2="-5.781" y2="55.51" xlink:href="#linear-gradient"/>
    <linearGradient id="linear-gradient-14" x1="-5.802" y1="47.489" x2="-5.781" y2="47.489" xlink:href="#linear-gradient"/>
    <linearGradient id="linear-gradient-15" x1="-5.802" y1="43.834" x2="-5.781" y2="43.834" xlink:href="#linear-gradient"/>
    <linearGradient id="linear-gradient-16" x1="-5.802" y1="40.179" x2="-5.781" y2="40.179" xlink:href="#linear-gradient"/>
    <linearGradient id="linear-gradient-17" x1="-4.005" y1="53.459" x2="-3.99" y2="53.459" xlink:href="#linear-gradient"/>
    <linearGradient id="linear-gradient-18" x1="-4.004" y1="45.153" x2="-3.99" y2="45.153" xlink:href="#linear-gradient"/>
    <linearGradient id="linear-gradient-19" x1="-4.004" y1="36.845" x2="-3.99" y2="36.845" xlink:href="#linear-gradient"/>
    <linearGradient id="linear-gradient-20" x1="-4.004" y1="28.54" x2="-3.989" y2="28.54" xlink:href="#linear-gradient"/>
    <linearGradient id="linear-gradient-21" x1="-4.003" y1="20.234" x2="-3.989" y2="20.234" xlink:href="#linear-gradient"/>
    <clipPath id="clip-path-34">
      <rect id="Rectangle_179" data-name="Rectangle 179" width="26.722" height="99.225" fill="none"/>
    </clipPath>
    <clipPath id="clip-path-35">
      <path id="Path_1131" data-name="Path 1131" d="M175.671,136.766v73.9h3.47v-73.9a1.735,1.735,0,1,0-3.47,0" transform="translate(-175.671 -135.031)" fill="#dcdcdc"/>
    </clipPath>
    <clipPath id="clip-path-36">
      <path id="Path_1132" data-name="Path 1132" d="M131.237,616.582v37.5a4.884,4.884,0,1,0,3.47,0v-37.5a1.735,1.735,0,0,0-3.47,0" transform="translate(-128.088 -614.847)" fill="#f7b369"/>
    </clipPath>
  </defs>
  <g id="login-vision" transform="translate(26.563 -89.868)">
    <g id="sun" transform="translate(-26.563 146.426)" opacity="0.85">
      <circle id="Ellipse_42" data-name="Ellipse 42" cx="14.75" cy="14.75" r="14.75" transform="translate(13.741 13.741)" fill="#f7b369"/>
      <circle id="Ellipse_43" data-name="Ellipse 43" cx="14.75" cy="14.75" r="14.75" transform="translate(13.741 13.741)" fill="#f7b369"/>
      <g id="Group_818" data-name="Group 818" transform="translate(27.657)">
        <path id="Path_1266" data-name="Path 1266" d="M249.335,10.889a.835.835,0,0,1-.835-.835V.835a.835.835,0,1,1,1.669,0v9.219A.835.835,0,0,1,249.335,10.889Z" transform="translate(-248.5 0)" fill="#f7b369"/>
      </g>
      <g id="Group_819" data-name="Group 819" transform="translate(8.101 8.101)">
        <path id="Path_1267" data-name="Path 1267" d="M80.138,80.972a.832.832,0,0,1-.59-.245l-6.519-6.519a.835.835,0,0,1,1.18-1.18l6.519,6.519a.835.835,0,0,1-.59,1.425Z" transform="translate(-72.784 -72.784)" fill="#f7b369"/>
      </g>
      <g id="Group_820" data-name="Group 820" transform="translate(0 27.657)">
        <path id="Path_1268" data-name="Path 1268" d="M10.054,250.169H.835a.835.835,0,1,1,0-1.669h9.219a.835.835,0,1,1,0,1.669Z" transform="translate(0 -248.5)" fill="#f7b369"/>
      </g>
      <g id="Group_821" data-name="Group 821" transform="translate(8.101 40.695)">
        <path id="Path_1269" data-name="Path 1269" d="M73.619,373.833a.835.835,0,0,1-.59-1.425l6.519-6.519a.835.835,0,0,1,1.18,1.181l-6.519,6.519A.832.832,0,0,1,73.619,373.833Z" transform="translate(-72.784 -365.644)" fill="#f7b369"/>
      </g>
      <g id="Group_822" data-name="Group 822" transform="translate(27.657 46.095)">
        <path id="Path_1270" data-name="Path 1270" d="M249.335,425.055a.835.835,0,0,1-.835-.835V415a.835.835,0,0,1,1.669,0v9.219A.835.835,0,0,1,249.335,425.055Z" transform="translate(-248.5 -414.167)" fill="#f7b369"/>
      </g>
      <g id="Group_823" data-name="Group 823" transform="translate(40.695 40.695)">
        <path id="Path_1271" data-name="Path 1271" d="M373,373.832a.831.831,0,0,1-.59-.245l-6.519-6.519a.835.835,0,0,1,1.18-1.18l6.519,6.519a.835.835,0,0,1-.59,1.425Z" transform="translate(-365.644 -365.643)" fill="#f7b369"/>
      </g>
      <g id="Group_824" data-name="Group 824" transform="translate(46.095 27.657)">
        <path id="Path_1272" data-name="Path 1272" d="M424.221,250.169H415a.835.835,0,0,1,0-1.669h9.219a.835.835,0,0,1,0,1.669Z" transform="translate(-414.167 -248.5)" fill="#f7b369"/>
      </g>
      <g id="Group_825" data-name="Group 825" transform="translate(40.695 8.101)">
        <path id="Path_1273" data-name="Path 1273" d="M366.479,80.972a.835.835,0,0,1-.59-1.425l6.519-6.519a.835.835,0,0,1,1.18,1.18l-6.519,6.519A.832.832,0,0,1,366.479,80.972Z" transform="translate(-365.644 -72.784)" fill="#f7b369"/>
      </g>
      <g id="Group_826" data-name="Group 826" transform="translate(18.837 6.364)">
        <path id="Path_1274" data-name="Path 1274" d="M171.849,63.107a.835.835,0,0,1-.771-.516l-1.764-4.259a.835.835,0,1,1,1.542-.639l1.764,4.259a.835.835,0,0,1-.771,1.154Z" transform="translate(-169.25 -57.178)" fill="#f7b369"/>
      </g>
      <g id="Group_827" data-name="Group 827" transform="translate(6.364 18.837)">
        <path id="Path_1275" data-name="Path 1275" d="M62.271,172.684a.831.831,0,0,1-.319-.064l-4.259-1.764a.835.835,0,1,1,.639-1.542l4.259,1.764a.835.835,0,0,1-.32,1.606Z" transform="translate(-57.178 -169.251)" fill="#f7b369"/>
      </g>
      <g id="Group_828" data-name="Group 828" transform="translate(6.364 34.713)">
        <path id="Path_1276" data-name="Path 1276" d="M58.013,315.33a.835.835,0,0,1-.32-1.606l4.259-1.764a.835.835,0,1,1,.639,1.542l-4.259,1.764A.833.833,0,0,1,58.013,315.33Z" transform="translate(-57.178 -311.896)" fill="#f7b369"/>
      </g>
      <g id="Group_829" data-name="Group 829" transform="translate(18.837 44.691)">
        <path id="Path_1277" data-name="Path 1277" d="M170.085,407.483a.835.835,0,0,1-.771-1.154l1.764-4.259a.835.835,0,0,1,1.542.639l-1.764,4.259A.835.835,0,0,1,170.085,407.483Z" transform="translate(-169.25 -401.554)" fill="#f7b369"/>
      </g>
      <g id="Group_830" data-name="Group 830" transform="translate(34.713 44.691)">
        <path id="Path_1278" data-name="Path 1278" d="M314.495,407.483a.835.835,0,0,1-.771-.516l-1.764-4.259a.835.835,0,0,1,1.542-.639l1.764,4.259a.835.835,0,0,1-.771,1.154Z" transform="translate(-311.895 -401.554)" fill="#f7b369"/>
      </g>
      <g id="Group_831" data-name="Group 831" transform="translate(44.691 34.713)">
        <path id="Path_1279" data-name="Path 1279" d="M406.647,315.33a.829.829,0,0,1-.319-.064L402.07,313.5a.835.835,0,0,1,.639-1.542l4.259,1.764a.835.835,0,0,1-.32,1.606Z" transform="translate(-401.554 -311.896)" fill="#f7b369"/>
      </g>
      <g id="Group_832" data-name="Group 832" transform="translate(44.691 18.837)">
        <path id="Path_1280" data-name="Path 1280" d="M402.389,172.685a.835.835,0,0,1-.32-1.606l4.259-1.764a.835.835,0,0,1,.639,1.542l-4.259,1.764A.832.832,0,0,1,402.389,172.685Z" transform="translate(-401.554 -169.251)" fill="#f7b369"/>
      </g>
      <g id="Group_833" data-name="Group 833" transform="translate(34.713 6.364)">
        <path id="Path_1281" data-name="Path 1281" d="M312.731,63.106a.835.835,0,0,1-.771-1.154l1.764-4.259a.835.835,0,0,1,1.542.639L313.5,62.591A.835.835,0,0,1,312.731,63.106Z" transform="translate(-311.896 -57.178)" fill="#f7b369"/>
      </g>
    </g>
    <g id="Group_814" data-name="Group 814" transform="translate(431.232 141.35)">
      <g id="Group_815" data-name="Group 815" transform="translate(0 0)">
        <g id="Group_812" data-name="Group 812" transform="translate(0 0)">
          <g id="Group_816" data-name="Group 816">
            <g id="Group_585" data-name="Group 585" transform="translate(19.85 6.026)" opacity="0.782">
              <g id="Group_584" data-name="Group 584">
                <g id="Group_583" data-name="Group 583" clip-path="url(#clip-path)">
                  <path id="Path_1186" data-name="Path 1186" d="M385.554,198.794a1.129,1.129,0,1,1-1.974-1.094,10.229,10.229,0,0,1,2.231-1.7,10.23,10.23,0,0,1-.256,2.79" transform="translate(-383.438 -196.004)" fill="#59acc9"/>
                </g>
              </g>
            </g>
            <g id="Group_615" data-name="Group 615" transform="translate(32.518 5.947)" opacity="0.542">
              <g id="Group_614" data-name="Group 614">
                <g id="Group_613" data-name="Group 613" clip-path="url(#clip-path-2)">
                  <path id="Path_1196" data-name="Path 1196" d="M420.971,199.046a1.283,1.283,0,0,1-2.245-1.244,11.649,11.649,0,0,1,2.537-1.929,11.628,11.628,0,0,1-.292,3.174" transform="translate(-418.565 -195.872)" fill="#59acc9"/>
                </g>
              </g>
            </g>
            <g id="Group_636" data-name="Group 636" transform="translate(10.137 36.943)" opacity="0.613">
              <g id="Group_635" data-name="Group 635" transform="translate(0)">
                <g id="Group_634" data-name="Group 634" clip-path="url(#clip-path-3)">
                  <path id="Path_1203" data-name="Path 1203" d="M376.183,267.361a4.479,4.479,0,0,1-7.835-4.342c1.2-2.163,8.852-6.732,8.852-6.732s.182,8.911-1.017,11.074" transform="translate(-367.786 -256.287)" fill="#59acc9"/>
                </g>
              </g>
            </g>
            <g id="Group_663" data-name="Group 663" transform="translate(0 11.722)" opacity="0.791">
              <g id="Group_662" data-name="Group 662">
                <g id="Group_661" data-name="Group 661" clip-path="url(#clip-path-4)">
                  <path id="Path_1212" data-name="Path 1212" d="M356.991,233.185a4.41,4.41,0,1,1-7.714-4.276c1.181-2.13,8.716-6.628,8.716-6.628s.179,8.773-1,10.9" transform="translate(-348.723 -222.281)" fill="#59acc9"/>
                </g>
              </g>
            </g>
            <g id="Group_675" data-name="Group 675" transform="translate(38.201)" opacity="0.803">
              <g id="Group_674" data-name="Group 674" transform="translate(0)">
                <g id="Group_673" data-name="Group 673" clip-path="url(#clip-path-5)">
                  <path id="Path_1216" data-name="Path 1216" d="M456.921,206.059a4.982,4.982,0,1,1-8.715-4.83c1.334-2.407,9.846-7.488,9.846-7.488s.2,9.911-1.131,12.318" transform="translate(-447.581 -193.741)" fill="#59acc9"/>
                </g>
              </g>
            </g>
            <g id="Group_684" data-name="Group 684" transform="translate(1.566 54.511)" opacity="0.893">
              <g id="Group_683" data-name="Group 683">
                <g id="Group_682" data-name="Group 682" clip-path="url(#clip-path-6)">
                  <path id="Path_1219" data-name="Path 1219" d="M339.529,266.438a3.37,3.37,0,1,1-5.895-3.267c.9-1.628,6.66-5.065,6.66-5.065s.137,6.7-.766,8.333" transform="translate(-333.211 -258.105)" fill="#59acc9"/>
                </g>
              </g>
            </g>
            <g id="Group_699" data-name="Group 699" transform="translate(42.706 32.699)" opacity="0.796">
              <g id="Group_698" data-name="Group 698">
                <g id="Group_697" data-name="Group 697" clip-path="url(#clip-path-7)">
                  <path id="Path_1224" data-name="Path 1224" d="M437.914,235.629a2.841,2.841,0,1,1-4.969-2.754c.76-1.372,5.614-4.269,5.614-4.269s.115,5.651-.645,7.023" transform="translate(-432.588 -228.606)" fill="#59acc9"/>
                </g>
              </g>
            </g>
            <g id="Group_744" data-name="Group 744" transform="translate(22.92 24.899)" opacity="0.716">
              <g id="Group_743" data-name="Group 743" transform="translate(0)">
                <g id="Group_742" data-name="Group 742" clip-path="url(#clip-path-8)">
                  <path id="Path_1239" data-name="Path 1239" d="M397.531,233.528a2.344,2.344,0,0,1-4.1-2.272c.628-1.133,4.633-3.523,4.633-3.523s.1,4.664-.532,5.8" transform="translate(-393.137 -227.732)" fill="#59acc9"/>
                </g>
              </g>
            </g>
            <g id="Group_750" data-name="Group 750" transform="translate(44.848 43.634)" opacity="0.713">
              <g id="Group_749" data-name="Group 749">
                <g id="Group_748" data-name="Group 748" clip-path="url(#clip-path-9)">
                  <path id="Path_1241" data-name="Path 1241" d="M484.093,267.418a4.645,4.645,0,1,1-8.126-4.5c1.244-2.244,9.182-6.982,9.182-6.982s.188,9.243-1.055,11.487" transform="translate(-475.384 -255.932)" fill="#59acc9"/>
                </g>
              </g>
            </g>
            <g id="Group_771" data-name="Group 771" transform="translate(50.931 17.077)" opacity="0.954">
              <g id="Group_770" data-name="Group 770">
                <g id="Group_769" data-name="Group 769" clip-path="url(#clip-path-10)">
                  <path id="Path_1248" data-name="Path 1248" d="M478.586,234.994a2.618,2.618,0,1,1-4.579-2.538c.7-1.264,5.174-3.934,5.174-3.934s.106,5.208-.595,6.473" transform="translate(-473.678 -228.522)" fill="#59acc9"/>
                </g>
              </g>
            </g>
            <g id="Group_804" data-name="Group 804" transform="translate(29.716 47.544)" opacity="0.72">
              <g id="Group_803" data-name="Group 803" transform="translate(0)">
                <g id="Group_802" data-name="Group 802" clip-path="url(#clip-path-11)">
                  <path id="Path_1259" data-name="Path 1259" d="M411.921,267.928a.86.86,0,0,1-1.5-.834,7.79,7.79,0,0,1,1.7-1.293,7.807,7.807,0,0,1-.2,2.127" transform="translate(-410.308 -265.801)" fill="#59acc9"/>
                </g>
              </g>
            </g>
          </g>
        </g>
      </g>
    </g>
    <g id="Group_467" data-name="Group 467" transform="translate(445.052 141.499)">
      <g id="Group_418" data-name="Group 418" transform="translate(0 0)">
        <g id="Group_417" data-name="Group 417" clip-path="url(#clip-path-12)">
          <path id="Path_1340" data-name="Path 1340" d="M0,0H26.722V99.225H0Z" transform="translate(0 0)" fill="#bed7ee"/>
        </g>
      </g>
      <g id="Group_420" data-name="Group 420" transform="translate(18.253 14.285)">
        <g id="Group_419" data-name="Group 419" clip-path="url(#clip-path-13)">
          <rect id="Rectangle_137" data-name="Rectangle 137" width="4.557" height="1.375" transform="translate(0 -0.001)" fill="url(#linear-gradient)"/>
        </g>
      </g>
      <g id="Group_422" data-name="Group 422" transform="translate(18.252 17.562)">
        <g id="Group_421" data-name="Group 421" clip-path="url(#clip-path-14)">
          <rect id="Rectangle_139" data-name="Rectangle 139" width="3.145" height="0.751" transform="translate(0 0)" fill="url(#linear-gradient-2)"/>
        </g>
      </g>
      <g id="Group_424" data-name="Group 424" transform="translate(18.252 20.309)">
        <g id="Group_423" data-name="Group 423" clip-path="url(#clip-path-15)">
          <rect id="Rectangle_141" data-name="Rectangle 141" width="3.145" height="0.751" transform="translate(0 0)" fill="url(#linear-gradient-3)"/>
        </g>
      </g>
      <g id="Group_426" data-name="Group 426" transform="translate(18.252 23.055)">
        <g id="Group_425" data-name="Group 425" clip-path="url(#clip-path-14)">
          <rect id="Rectangle_143" data-name="Rectangle 143" width="3.145" height="0.751" transform="translate(0 0)" fill="url(#linear-gradient-4)"/>
        </g>
      </g>
      <g id="Group_428" data-name="Group 428" transform="translate(18.251 28.985)">
        <g id="Group_427" data-name="Group 427" clip-path="url(#clip-path-15)">
          <rect id="Rectangle_145" data-name="Rectangle 145" width="3.145" height="0.751" transform="translate(0 0)" fill="url(#linear-gradient-5)"/>
        </g>
      </g>
      <g id="Group_430" data-name="Group 430" transform="translate(18.25 31.731)">
        <g id="Group_429" data-name="Group 429" clip-path="url(#clip-path-15)">
          <rect id="Rectangle_147" data-name="Rectangle 147" width="3.145" height="0.751" transform="translate(0 0)" fill="url(#linear-gradient-6)"/>
        </g>
      </g>
      <g id="Group_432" data-name="Group 432" transform="translate(18.25 34.477)">
        <g id="Group_431" data-name="Group 431" clip-path="url(#clip-path-15)">
          <rect id="Rectangle_149" data-name="Rectangle 149" width="3.145" height="0.751" transform="translate(0 0)" fill="url(#linear-gradient-7)"/>
        </g>
      </g>
      <g id="Group_434" data-name="Group 434" transform="translate(18.249 40.504)">
        <g id="Group_433" data-name="Group 433" clip-path="url(#clip-path-14)">
          <rect id="Rectangle_151" data-name="Rectangle 151" width="3.145" height="0.751" transform="translate(0 0)" fill="url(#linear-gradient-8)"/>
        </g>
      </g>
      <g id="Group_436" data-name="Group 436" transform="translate(18.249 43.25)">
        <g id="Group_435" data-name="Group 435" clip-path="url(#clip-path-15)">
          <rect id="Rectangle_153" data-name="Rectangle 153" width="3.145" height="0.751" transform="translate(0 0)" fill="url(#linear-gradient-9)"/>
        </g>
      </g>
      <g id="Group_438" data-name="Group 438" transform="translate(18.249 45.996)">
        <g id="Group_437" data-name="Group 437" clip-path="url(#clip-path-15)">
          <rect id="Rectangle_155" data-name="Rectangle 155" width="3.145" height="0.751" transform="translate(0 0)" fill="url(#linear-gradient-10)"/>
        </g>
      </g>
      <g id="Group_440" data-name="Group 440" transform="translate(18.248 52.023)">
        <g id="Group_439" data-name="Group 439" clip-path="url(#clip-path-15)">
          <rect id="Rectangle_157" data-name="Rectangle 157" width="3.145" height="0.751" transform="translate(0 0)" fill="url(#linear-gradient-11)"/>
        </g>
      </g>
      <g id="Group_442" data-name="Group 442" transform="translate(18.247 54.769)">
        <g id="Group_441" data-name="Group 441" clip-path="url(#clip-path-15)">
          <rect id="Rectangle_159" data-name="Rectangle 159" width="3.145" height="0.751" transform="translate(0 0)" fill="url(#linear-gradient-12)"/>
        </g>
      </g>
      <g id="Group_444" data-name="Group 444" transform="translate(18.247 57.515)">
        <g id="Group_443" data-name="Group 443" clip-path="url(#clip-path-15)">
          <rect id="Rectangle_161" data-name="Rectangle 161" width="3.145" height="0.751" transform="translate(0 0)" fill="url(#linear-gradient-13)"/>
        </g>
      </g>
      <g id="Group_446" data-name="Group 446" transform="translate(18.246 63.542)">
        <g id="Group_445" data-name="Group 445" clip-path="url(#clip-path-15)">
          <rect id="Rectangle_163" data-name="Rectangle 163" width="3.145" height="0.751" transform="translate(0 0)" fill="url(#linear-gradient-14)"/>
        </g>
      </g>
      <g id="Group_448" data-name="Group 448" transform="translate(18.246 66.288)">
        <g id="Group_447" data-name="Group 447" clip-path="url(#clip-path-15)">
          <rect id="Rectangle_165" data-name="Rectangle 165" width="3.145" height="0.751" transform="translate(0 0)" fill="url(#linear-gradient-15)"/>
        </g>
      </g>
      <g id="Group_450" data-name="Group 450" transform="translate(18.246 69.035)">
        <g id="Group_449" data-name="Group 449" clip-path="url(#clip-path-15)">
          <rect id="Rectangle_167" data-name="Rectangle 167" width="3.145" height="0.751" transform="translate(0 0)" fill="url(#linear-gradient-16)"/>
        </g>
      </g>
      <g id="Group_452" data-name="Group 452" transform="translate(18.251 25.708)">
        <g id="Group_451" data-name="Group 451" clip-path="url(#clip-path-13)">
          <rect id="Rectangle_169" data-name="Rectangle 169" width="4.557" height="1.375" transform="translate(0 -0.001)" fill="url(#linear-gradient-17)"/>
        </g>
      </g>
      <g id="Group_454" data-name="Group 454" transform="translate(18.25 37.131)">
        <g id="Group_453" data-name="Group 453" clip-path="url(#clip-path-13)">
          <rect id="Rectangle_171" data-name="Rectangle 171" width="4.557" height="1.375" transform="translate(0 -0.001)" fill="url(#linear-gradient-18)"/>
        </g>
      </g>
      <g id="Group_456" data-name="Group 456" transform="translate(18.248 48.554)">
        <g id="Group_455" data-name="Group 455" clip-path="url(#clip-path-13)">
          <rect id="Rectangle_173" data-name="Rectangle 173" width="4.557" height="1.375" transform="translate(0 -0.001)" fill="url(#linear-gradient-19)"/>
        </g>
      </g>
      <g id="Group_458" data-name="Group 458" transform="translate(18.247 59.977)">
        <g id="Group_457" data-name="Group 457" clip-path="url(#clip-path-13)">
          <rect id="Rectangle_175" data-name="Rectangle 175" width="4.557" height="1.375" transform="translate(0 -0.001)" fill="url(#linear-gradient-20)"/>
        </g>
      </g>
      <g id="Group_460" data-name="Group 460" transform="translate(18.245 71.399)">
        <g id="Group_459" data-name="Group 459" clip-path="url(#clip-path-13)">
          <rect id="Rectangle_177" data-name="Rectangle 177" width="4.557" height="1.375" transform="translate(0 -0.001)" fill="url(#linear-gradient-21)"/>
        </g>
      </g>
      <g id="Group_462" data-name="Group 462" transform="translate(0 0)">
        <g id="Group_461" data-name="Group 461" clip-path="url(#clip-path-34)">
          <path id="Path_1130" data-name="Path 1130" d="M78.231,157.6V91.408a4.884,4.884,0,1,0-9.768,0V157.6a9.11,9.11,0,1,0,9.768,0" transform="translate(-59.986 -80.798)" fill="#fff"/>
        </g>
      </g>
      <g id="Group_464" data-name="Group 464" transform="translate(11.626 8.936)">
        <g id="Group_463" data-name="Group 463" clip-path="url(#clip-path-35)">
          <rect id="Rectangle_180" data-name="Rectangle 180" width="3.47" height="75.637" transform="translate(0 0)" fill="#dcdcdc"/>
        </g>
      </g>
      <g id="Group_466" data-name="Group 466" transform="translate(8.477 40.69)">
        <g id="Group_465" data-name="Group 465" clip-path="url(#clip-path-36)">
          <rect id="Rectangle_181" data-name="Rectangle 181" width="9.768" height="48.68" fill="#f7b369"/>
        </g>
      </g>
    </g>
    <g id="Group_416" data-name="Group 416" transform="translate(1.718 100.04)">
      <path id="Path_1102" data-name="Path 1102" d="M43.016,220.677a.312.312,0,0,1,0-.624l49.6-.292a.319.319,0,0,1,.314.311.312.312,0,0,1-.31.314l-49.6.292Z" transform="translate(-16.808 -86.495)" fill="#ff9e80"/>
      <rect id="Rectangle_135" data-name="Rectangle 135" width="17.498" height="34.367" transform="translate(83.888 94.385)" fill="#3e659f"/>
      <path id="Path_1103" data-name="Path 1103" d="M158.952,222.77h-53.64a3.426,3.426,0,0,1-3.426-3.426v-7.359a3.426,3.426,0,0,1,3.426-3.426h53.64a3.426,3.426,0,0,1,3.426,3.426v7.359a3.426,3.426,0,0,1-3.426,3.426" transform="translate(-40.101 -82.086)" fill="#3e659f"/>
      <path id="Path_1104" data-name="Path 1104" d="M176.3,108.025H20.63A5.827,5.827,0,0,1,14.8,102.2V5.827A5.827,5.827,0,0,1,20.63,0H176.3a5.827,5.827,0,0,1,5.827,5.827V102.2a5.827,5.827,0,0,1-5.827,5.827" transform="translate(-5.826 0)" fill="#3e659f"/>
      <path id="Path_1105" data-name="Path 1105" d="M174.2,97.742H33.958a4.886,4.886,0,0,1-4.885-4.886V17.927a4.886,4.886,0,0,1,4.885-4.886H174.2a4.886,4.886,0,0,1,4.886,4.886v74.93a4.886,4.886,0,0,1-4.886,4.886" transform="translate(-11.443 -5.133)" fill="#eef7ff"/>
      <path id="Path_1106" data-name="Path 1106" d="M146.431,40.123H58.005c-1.7,0-3.077-1.728-3.077-3.86S56.306,32.4,58.005,32.4h88.426c1.7,0,3.077,1.728,3.077,3.861s-1.378,3.86-3.077,3.86" transform="translate(-21.619 -12.753)" fill="#518bc5" opacity="0.3"/>
      <path id="Path_1107" data-name="Path 1107" d="M146.431,61.565H58.005c-1.7,0-3.077-1.728-3.077-3.861s1.378-3.86,3.077-3.86h88.426c1.7,0,3.077,1.728,3.077,3.86s-1.378,3.861-3.077,3.861" transform="translate(-21.619 -21.192)" fill="#518bc5" opacity="0.3"/>
      <path id="Path_1108" data-name="Path 1108" d="M146.431,83.007H58.005c-1.7,0-3.077-1.728-3.077-3.86s1.378-3.861,3.077-3.861h88.426c1.7,0,3.077,1.729,3.077,3.861s-1.378,3.86-3.077,3.86" transform="translate(-21.619 -29.632)" fill="#518bc5" opacity="0.3"/>
      <path id="Path_1109" data-name="Path 1109" d="M153.906,161.928a3.257,3.257,0,1,1-3.257-3.257,3.257,3.257,0,0,1,3.257,3.257" transform="translate(-58.012 -62.451)" fill="#a37b90"/>
      <path id="Path_1113" data-name="Path 1113" d="M35.61,218.231H3.478A3.478,3.478,0,0,1,0,214.754v-.34a17.258,17.258,0,0,1,17.258-17.258H21.83a17.257,17.257,0,0,1,17.257,17.258v.34a3.477,3.477,0,0,1-3.477,3.477" transform="translate(0 -77.598)" fill="#3e659f"/>
      <path id="Path_1114" data-name="Path 1114" d="M32.026,208.922a.312.312,0,0,1-.312-.312V197.331a.312.312,0,0,1,.625,0v11.278a.312.312,0,0,1-.312.312" transform="translate(-12.482 -77.544)" fill="#92b9df"/>
      <path id="Path_1115" data-name="Path 1115" d="M32.565,197.952H26.22a1.2,1.2,0,1,1,0-2.393h6.345a1.2,1.2,0,0,1,0,2.393" transform="translate(-9.849 -76.969)" fill="#92b9df"/>
      <path id="Path_1116" data-name="Path 1116" d="M38.538,216.242H1.416a.312.312,0,1,1,0-.624H38.538a.312.312,0,1,1,0,.624" transform="translate(-0.435 -84.864)" fill="#92b9df"/>
      <path id="Path_1117" data-name="Path 1117" d="M164.688,226.042h-28.3a.312.312,0,1,1,0-.624h28.3a.312.312,0,1,1,0,.624" transform="translate(-53.557 -88.722)" fill="#92b9df"/>
      <path id="Path_1118" data-name="Path 1118" d="M19.359,49.017a.312.312,0,0,1-.312-.312V12.839a.312.312,0,1,1,.625,0V48.7a.312.312,0,0,1-.312.312" transform="translate(-7.497 -4.93)" fill="#92b9df"/>
      <path id="Path_1125" data-name="Path 1125" d="M103.161,122.809H58.087a3.158,3.158,0,0,1-3.159-3.158V106.66a3.159,3.159,0,0,1,3.159-3.159h45.075a3.159,3.159,0,0,1,3.159,3.159V119.65a3.158,3.158,0,0,1-3.159,3.158" transform="translate(-21.619 -40.737)" fill="#bed7ee"/>
      <path id="Path_1353" data-name="Path 1353" d="M103.161,122.809H58.087a3.158,3.158,0,0,1-3.159-3.158V106.66a3.159,3.159,0,0,1,3.159-3.159h45.075a3.159,3.159,0,0,1,3.159,3.159V119.65a3.158,3.158,0,0,1-3.159,3.158" transform="translate(21.569 -40.737)" fill="#bed7ee"/>
    </g>
    <g id="Group_412" data-name="Group 412" transform="translate(109.936 119.419)">
      <g id="Group_869" data-name="Group 869" transform="translate(0 0)">
        <path id="Path_947" data-name="Path 947" d="M188.932,80.371s10.991-13.881,11.675-12.956-9.923,13.844-9.923,13.844Z" transform="translate(-26.537 -43.176)" fill="#5c69a5"/>
        <path id="Path_948" data-name="Path 948" d="M174.46,98.385s4.006.065,5.769-1.5-1.934-5.19-1.934-5.19l-3.835,2.6Z" transform="translate(-20.525 -53.281)" fill="#ff9c85"/>
        <path id="Path_949" data-name="Path 949" d="M181.821,87.993a3.658,3.658,0,0,1,1.632-.594c1.969-.258,7.615,0,8.307,1.979.663,1.9-2.477,1.856-2.477,1.856s2.524.541,1.566,2.135a2.5,2.5,0,0,1-2.444,1.058s2.571.814.7,2.345-7.666.767-9.437-.215.719-2.684.719-2.684-1.769-1.31-1.218-2.381c.584-1.133,2.325-.781,2.325-.781a1.73,1.73,0,0,1,.33-2.719" transform="translate(-22.423 -51.463)" fill="#ff9c85"/>
        <path id="Path_950" data-name="Path 950" d="M171.873,84.841s7.193-3.515,8.535-3.314,6.348,4.444,5.124,5.61-5.124-1.841-5.124-1.841-4,6.714-6.626,5.956-1.909-6.411-1.909-6.411" transform="translate(-19.413 -49.054)" fill="#ff9c85"/>
        <path id="Path_952" data-name="Path 952" d="M191.34,93.816l-7.166-.369a.205.205,0,0,1-.195-.216.2.2,0,0,1,.216-.195l7.156.368a.206.206,0,0,1-.011.411" transform="translate(-24.479 -53.839)"/>
        <path id="Path_953" data-name="Path 953" d="M189.825,99.215l-7.188-.458a.2.2,0,0,1-.192-.218.2.2,0,0,1,.218-.192l7.175.458a.205.205,0,0,1-.013.41" transform="translate(-23.842 -56.045)"/>
        <path id="Path_954" data-name="Path 954" d="M88.218,40.27c-.206-.2-6.584,2.577-7.87,11.064S85.9,61.364,85.9,61.364l9.411-5.3L91.688,39.9Z" transform="translate(18.642 -31.762)"/>
        <path id="Path_955" data-name="Path 955" d="M125.7,63.212s3.69,5.5,12.139,10.424c6.066,3.535,15.454,2.246,15.454,2.246l.8,12.74s-20.412,7.025-28.3-1.852c-10.167-11.447-.1-23.558-.1-23.558" transform="translate(1.58 -41.449)" fill="#a37b90"/>
        <path id="Path_957" data-name="Path 957" d="M101.509,26.8s-6.3-2.913-9.115,2.255c-2.737,5.018,1.315,9.679,1.315,9.679l6.954-7.236Z" transform="translate(13.965 -25.98)"/>
        <path id="Path_958" data-name="Path 958" d="M91.742,121.326s-2.285,8.13-2.417,24.1c-.113,13.787-2.657,44.38-1.62,45.832s22.19.622,23.019.207,1.037-9.955,1.037-9.955,14.1-23.641,15.969-27.582-10.369-38.288-10.369-38.288Z" transform="translate(15.621 -63.23)" fill="#68b6d8"/>
        <path id="Path_959" data-name="Path 959" d="M95.092,58.808S85.137,62.447,83.893,68s7.466,27.768,9.747,28.534,20.53-3.256,22.19-4.6-.207-15.129-.622-17.044-2.073-9.575-4.355-12.831-4.147-3.471-6.429-3.471-9.332.215-9.332.215" transform="translate(17.152 -39.53)" fill="#a37b90"/>
        <path id="Path_960" data-name="Path 960" d="M98.314,57.522a5.8,5.8,0,0,0-2.45,1.491c-.639.981.556,3.563,3.957,5.572a19.024,19.024,0,0,0,4.582,1.986,19.007,19.007,0,0,0,2.578-4.811c.415-1.819-1.108-4.2-1.108-4.2Z" transform="translate(12.197 -39.085)" fill="#f7b369"/>
        <path id="Path_961" data-name="Path 961" d="M99.863,52.082l.53,5.419s1.129,1.462,4.324,1.409c2.38-.039,3.158-.654,3.158-.654l-.6-2.712-.586-2.644-5.847-.7Z" transform="translate(10.467 -36.824)" fill="#ff9c85"/>
        <path id="Path_962" data-name="Path 962" d="M101.541,52.284a1.79,1.79,0,0,0,.209.507c1.477,2.588,4.849,2.847,6.225,2.836l-.586-2.644Z" transform="translate(9.77 -36.908)"/>
        <path id="Path_963" data-name="Path 963" d="M103.732,30.93s3.508,6.515,2.757,10.4-4.26,3.571-6.39,3.007a6.876,6.876,0,0,1-3.2-1.754,2.929,2.929,0,0,1-3.321-.877c-1.441-1.691-.814-3.821.251-4.385a3.045,3.045,0,0,1,2.443.125l-1.19-1.879s3.508-10.337,8.645-4.636" transform="translate(13.426 -27.324)" fill="#ff9c85"/>
        <path id="Path_965" data-name="Path 965" d="M97.481,36.65s2.951.376,4.737-3.007,1.5-4.7,1.5-4.7l2.255,3.2a6.168,6.168,0,0,0-.752-3.759c-1.033-1.41-1.973-1.034-1.973-1.034l-6.3,2.068-1.316,5.263Z" transform="translate(12.222 -26.529)"/>
        <path id="Path_966" data-name="Path 966" d="M131.836,98.425s2.631-3.321,4.555-4.121c.95-.4,4.544-1.06,4.875-.189s-3.087,2.772-3.087,2.772,8.3-3.136,9.7-2.463c1.675.811-.742,1.884-.742,1.884s2.675.13,2.245,1.045a6.248,6.248,0,0,1-2.049,1.861s2.974-.5,1.4,1.58-14.171,8.6-18.18,5.064c-1.98-1.744,1.284-7.432,1.284-7.432" transform="translate(-2.018 -54.11)" fill="#ff9c85"/>
        <path id="Path_967" data-name="Path 967" d="M148.519,100.681a.206.206,0,0,1-.075-.4l6.258-2.452a.205.205,0,0,1,.15.382l-6.259,2.452a.2.2,0,0,1-.074.014" transform="translate(-9.661 -55.826)"/>
        <path id="Path_968" data-name="Path 968" d="M150.734,105.27a.206.206,0,0,1-.077-.4l5.158-2.069a.205.205,0,0,1,.153.381l-5.158,2.069a.207.207,0,0,1-.077.015" transform="translate(-10.582 -57.892)"/>
        <path id="Path_969" data-name="Path 969" d="M140.584,99.492a.206.206,0,0,1-.028-.409l1.941-.272a.206.206,0,0,1,.057.407l-1.942.271-.029,0" transform="translate(-6.365 -56.238)"/>
        <path id="Path_970" data-name="Path 970" d="M81.587,70.946S71.773,83.12,77.905,97.917c4.976,12.009,17.852,10.482,24.488,8.409s12.443-7.466,12.443-7.466l-6.118-10.751s-10.4,1.825-17.038,1.2S81.587,70.946,81.587,70.946" transform="translate(20.427 -44.662)" fill="#a37b90"/>
        <path id="Path_972" data-name="Path 972" d="M96.361,143.01a.205.205,0,0,1-.028-.409,6.425,6.425,0,0,0,4.478-2.38,7.351,7.351,0,0,0,1.179-4.949.206.206,0,0,1,.172-.235.21.21,0,0,1,.234.172,7.638,7.638,0,0,1-1.253,5.254,6.812,6.812,0,0,1-4.753,2.545.155.155,0,0,1-.029,0" transform="translate(12.007 -71.288)" fill="#fff"/>
        <path id="Path_973" data-name="Path 973" d="M99.352,100.931c-1.481-.06-6.309-.333-6.564-1.356-.1-.4.367-.674.52-.763,2.493-1.461,6.031,1.628,6.18,1.76a.206.206,0,0,1-.136.359m-4.544-2.1a2.512,2.512,0,0,0-1.292.331c-.291.171-.337.281-.329.31.111.445,2.843.863,5.54,1.014a7.466,7.466,0,0,0-3.919-1.655" transform="translate(13.413 -56.076)" fill="#f7b369"/>
        <g id="Group_863" data-name="Group 863" transform="translate(161.714 2.172)">
          <path id="Path_951" data-name="Path 951" d="M259.242,242.781a.91.91,0,0,1-.748-.389L223.5,192.314,187.833,242.4a.911.911,0,0,1-1.484-1.057l36.416-51.136a.911.911,0,0,1,1.489.006l35.734,51.136a.911.911,0,0,1-.746,1.433" transform="translate(-186.18 -112.722)" fill="#40507f"/>
          <path id="Path_974" data-name="Path 974" d="M263.422,136.872H214.5a3.285,3.285,0,0,1-2.975-3.7l4.337-72.03a3.208,3.208,0,0,1,2.975-3.218H267.76a3.286,3.286,0,0,1,2.975,3.7l-4.338,72.03a3.207,3.207,0,0,1-2.975,3.218" transform="translate(-196.707 -57.923)" fill="#828282"/>
          <path id="Path_975" data-name="Path 975" d="M257.755,135.024H208.833a3.231,3.231,0,0,1-2.975-3.614L210.2,61.066a3.166,3.166,0,0,1,2.975-3.143h48.922a3.231,3.231,0,0,1,2.975,3.614l-4.338,70.344a3.165,3.165,0,0,1-2.975,3.143" transform="translate(-193.848 -57.923)" fill="#fff" stroke="#68b6d8" stroke-width="1"/>
          <path id="Path_976" data-name="Path 976" d="M259.95,85.2a12.779,12.779,0,0,1-12.605,11.941A11.175,11.175,0,0,1,236.068,85.2a12.779,12.779,0,0,1,12.6-11.941A11.175,11.175,0,0,1,259.95,85.2" transform="translate(-206.898 -64.295)" fill="#f7b369"/>
          <path id="Path_977" data-name="Path 977" d="M263.635,73.259,256.509,85.2l12.913-3.47Z" transform="translate(-215.399 -64.295)" fill="#68b6d8"/>
          <path id="Path_978" data-name="Path 978" d="M234.107,155.284h-5.753l1.37-17.529h5.752Z" transform="translate(-203.702 -91.09)" fill="#68b6d8"/>
          <path id="Path_979" data-name="Path 979" d="M253.322,157.549h-5.753l1.1-14.343h5.753Z" transform="translate(-211.685 -93.354)" fill="#68b6d8"/>
          <path id="Path_980" data-name="Path 980" d="M273,160.713h-5.753l.88-9.89h5.752Z" transform="translate(-219.862 -96.519)" fill="#68b6d8"/>
          <path id="Path_981" data-name="Path 981" d="M258.226,153.743H218.367a.205.205,0,0,1-.205-.221l1.507-19.781a.205.205,0,1,1,.41.031l-1.49,19.56h39.637a.205.205,0,1,1,0,.411" transform="translate(-199.467 -89.343)" fill="#40507f"/>
        </g>
        <path id="Path_982" data-name="Path 982" d="M112.533,35.526l-.036,0-.907-.158a.205.205,0,0,1,.07-.4l.908.157a.206.206,0,0,1-.035.408" transform="translate(5.666 -29.71)"/>
        <path id="Path_983" data-name="Path 983" d="M106.429,35.877a.205.205,0,0,1-.049-.405l1.536-.373a.205.205,0,1,1,.1.4l-1.536.374a.193.193,0,0,1-.049.006" transform="translate(7.825 -29.766)"/>
        <path id="Path_984" data-name="Path 984" d="M107.277,40.886a.205.205,0,0,1-.2-.171l-.191-1.1a.2.2,0,0,1,.085-.2l.767-.539a.205.205,0,1,1,.236.336l-.661.464.168.972a.205.205,0,0,1-.167.238l-.035,0" transform="translate(7.552 -31.321)"/>
        <path id="Path_985" data-name="Path 985" d="M113.614,39.484a.206.206,0,0,1-.2-.171l-.19-1.1a.2.2,0,0,1,.084-.2l.768-.54a.205.205,0,0,1,.236.336l-.662.465.168.971a.206.206,0,0,1-.167.238l-.036,0" transform="translate(4.919 -30.739)"/>
        <path id="Path_986" data-name="Path 986" d="M112.078,43.666a.2.2,0,0,1-.064-.011.2.2,0,0,1-.132-.259,4.277,4.277,0,0,0-.439-2.855.206.206,0,0,1,.361-.2,4.615,4.615,0,0,1,.469,3.181.206.206,0,0,1-.2.141" transform="translate(5.666 -31.904)"/>
        <path id="Path_987" data-name="Path 987" d="M109.57,49.789c-.957,0-1.347-1.09-1.364-1.136a.205.205,0,0,1,.194-.273h2.339a.205.205,0,0,1,.194.273c-.016.046-.406,1.136-1.363,1.136m-.842-1a.9.9,0,0,0,1.684,0Z" transform="translate(7.006 -35.286)"/>
        <path id="Path_988" data-name="Path 988" d="M97.322,47.035a.2.2,0,0,1-.122-.04l-2.444-1.81a.205.205,0,1,1,.244-.33l2.444,1.81a.206.206,0,0,1-.123.371" transform="translate(12.623 -33.805)"/>
        <path id="Path_989" data-name="Path 989" d="M94.88,48.156a.205.205,0,0,1-.1-.385l1.606-.894a.205.205,0,0,1,.2.359l-1.607.894a.2.2,0,0,1-.1.026" transform="translate(12.623 -34.651)"/>
        <path id="Path_990" data-name="Path 990" d="M99.04,57.7s2.97,2.7,5.114,2.716a1.908,1.908,0,0,0,2.08-1.971l.856,3.01-2.651,2.685-4.733-1.908L97.05,59.262Z" transform="translate(11.636 -39.159)" fill="#f7b369"/>
        <path id="Path_991" data-name="Path 991" d="M105.68,68.938a12.266,12.266,0,0,0-1.931,5.641c-.326,3.445,1.674,7.316,1.674,7.316s3.207-3.636,3.631-6.381-1.044-6.642-1.044-6.642a31.488,31.488,0,0,1,1.813,5.33c.359,2.023.855,4.624.855,4.624a9.9,9.9,0,0,0,1.829-5.642c-.116-3.062-3.4-5.073-3.4-5.073Z" transform="translate(8.868 -43.483)" fill="#f7b369"/>
        <path id="Path_992" data-name="Path 992" d="M106.632,68.066a2.143,2.143,0,0,1-.578-.065c-.983-.284-1.143-2.579-.95-3.513a.205.205,0,1,1,.4.083c-.2.962.06,2.861.662,3.034a6.073,6.073,0,0,0,2.3-.227c-.246-.644-.842-2.4-.359-3.193a.841.841,0,0,1,.681-.405.7.7,0,0,1,.679.28c.591.817-.417,3.262-.534,3.538a.205.205,0,0,1-.095.1.192.192,0,0,1-.04.016,9.847,9.847,0,0,1-2.172.35m2.249-3.879-.053,0a.434.434,0,0,0-.364.209c-.309.509.013,1.75.289,2.548.353-.966.677-2.244.387-2.646a.285.285,0,0,0-.258-.114" transform="translate(8.319 -41.683)" fill="#40507f"/>
        <path id="Path_993" data-name="Path 993" d="M107.44,75.572a.63.63,0,0,1-.536-.275c-.641-.919.52-4.186.655-4.555a.208.208,0,0,1,.206-.135.206.206,0,0,1,.188.16c.082.367.786,3.611.045,4.533a.694.694,0,0,1-.557.272m.259-3.963c-.411,1.309-.784,2.985-.458,3.452a.2.2,0,0,0,.2.1.282.282,0,0,0,.237-.119c.417-.518.225-2.265.022-3.432" transform="translate(7.622 -44.52)" fill="#40507f"/>
        <path id="Path_994" data-name="Path 994" d="M177.291,94.056a.206.206,0,0,1-.058-.4,8.059,8.059,0,0,0,5.176-5.861.206.206,0,0,1,.4.087,8.482,8.482,0,0,1-5.462,6.169.2.2,0,0,1-.058.008" transform="translate(-21.615 -51.593)"/>
        <path id="Path_995" data-name="Path 995" d="M375.6,118.367s8.862,14.239-3.1,15.79,3.1-15.79,3.1-15.79" transform="translate(-103.73 -71.953)"/>
        <path id="Path_996" data-name="Path 996" d="M372.868,185.221c.877-.7,19.286-3.347,18.58,22.41s-29.52,40.519-61.147,34.964-1.688-42.494-1.688-42.494Z" transform="translate(-82.089 -99.552)" fill="#6876aa"/>
        <path id="Path_997" data-name="Path 997" d="M318.055,253.111l.544,6.051h11.622V252.31Z" transform="translate(-83.029 -127.601)" fill="#ff9c85"/>
        <path id="Path_998" data-name="Path 998" d="M353.521,255.907l1.174,6.068,12.792-3.034-2.235-6.631Z" transform="translate(-97.763 -127.601)" fill="#ff9c85"/>
        <path id="Path_999" data-name="Path 999" d="M341.2,176.123s2.087-21.644,9.845-25.365,20.311.106,20.311.106l-.564,28.948Z" transform="translate(-92.643 -84.734)" fill="#40507f"/>
        <path id="Path_1000" data-name="Path 1000" d="M333.2,192.4s-16.809-4.09-21.418,3.012,1.836,34.206,1.836,34.206H329.1Z" transform="translate(-79.734 -102.222)" fill="#59acc9"/>
        <path id="Path_1001" data-name="Path 1001" d="M375.724,199.017s4.231,12.99-2.782,15.608-21.561,2.7-21.561,2.7L357.94,228.9l-21.1,6.25s-17.519-31.633-6.856-40.064,33.107,3.845,33.107,3.845Z" transform="translate(-86.556 -102.597)" fill="#68b6d8"/>
        <path id="Path_1002" data-name="Path 1002" d="M303.761,258.463s-4.023,4.747-4.957,5.2-10.688,3.735-12.558,5.566-2,5.431-1.47,5.769,32.615,0,32.615,0l.337-15.47Z" transform="translate(-69.089 -130.157)" fill="#efa459"/>
        <path id="Path_1003" data-name="Path 1003" d="M342.162,261.444s-1.638,6.36-2.957,7.028a50.493,50.493,0,0,0-10.079,7.465c-2.587,2.712,0,4.269,0,4.269H347l15.365-11.288-5.489-11.741Z" transform="translate(-87.15 -129.624)" fill="#f7b369"/>
        <path id="Path_1004" data-name="Path 1004" d="M307.632,264.033s4.474,5.129,3.451,5.546-9.663-.907-9.44-1.831,4.953-3.79,5.989-3.715" transform="translate(-76.208 -132.471)" fill="#fff"/>
        <path id="Path_1005" data-name="Path 1005" d="M346.045,271.062s5.734,3.665,4.87,4.352-9.529,1.845-9.574.9,3.689-5.029,4.7-5.248" transform="translate(-92.702 -135.391)" fill="#fff"/>
        <path id="Path_1006" data-name="Path 1006" d="M371.236,140.716l.712,4.558s-.725,1.479-3.705,2.245a6.022,6.022,0,0,1-3.079.265l-.048-2.365-.043-2.307,5.278-2.05Z" transform="translate(-102.562 -81.238)" fill="#ff9c85"/>
        <path id="Path_1007" data-name="Path 1007" d="M370.372,141.329a1.725,1.725,0,0,1-.065.524c-.718,2.778-3.785,3.873-5.066,4.21l-.125-2.605Z" transform="translate(-102.58 -81.493)"/>
        <path id="Path_1008" data-name="Path 1008" d="M359.225,123.4s-1.612,6.941.07,10.36,4.862,2.241,6.7,1.178a6.619,6.619,0,0,0,2.525-2.438,2.819,2.819,0,0,0,2.863-1.655c.911-1.936-.21-3.757-1.342-4.011a2.932,2.932,0,0,0-2.239.734l.631-2.047s-5.875-8.717-9.206-2.121" transform="translate(-99.844 -73.017)" fill="#ff9c85"/>
        <path id="Path_1009" data-name="Path 1009" d="M362.414,136.764a.2.2,0,0,1-.176-.106,3.689,3.689,0,0,1,.039-2.928.2.2,0,0,1,.363.163,3.353,3.353,0,0,0-.051,2.578.2.2,0,0,1-.175.293" transform="translate(-101.259 -78.287)"/>
        <path id="Path_1010" data-name="Path 1010" d="M375.64,135.493a.2.2,0,0,1-.106-.031.2.2,0,0,1-.061-.275l1.385-2.182a.2.2,0,0,1,.337.213l-1.386,2.182a.2.2,0,0,1-.168.092" transform="translate(-106.87 -77.997)"/>
        <path id="Path_1011" data-name="Path 1011" d="M376.51,135.639a.2.2,0,0,1-.008-.4l1.24-.05a.208.208,0,0,1,.207.192.2.2,0,0,1-.191.207l-1.24.05Z" transform="translate(-107.231 -78.943)"/>
        <path id="Path_1012" data-name="Path 1012" d="M357.564,177.239a.2.2,0,0,1-.159-.08,23.876,23.876,0,0,1-2.684-4.937c-1.824-4.524-.082-11.04-.008-11.314a.2.2,0,1,1,.384.1c-.018.067-1.78,6.663-.007,11.061a23.486,23.486,0,0,0,2.632,4.846.2.2,0,0,1-.159.319" transform="translate(-97.917 -89.566)" fill="#fff"/>
        <path id="Path_1013" data-name="Path 1013" d="M365.7,140.3a2.1,2.1,0,0,1-1.066-.348.2.2,0,0,1-.085-.174.2.2,0,0,1,.1-.164l2.346-1.316a.2.2,0,0,1,.3.192,2.411,2.411,0,0,1-.842,1.558,1.207,1.207,0,0,1-.75.251m-.535-.518a1.044,1.044,0,0,0,1.042-.049,1.819,1.819,0,0,0,.589-.866Z" transform="translate(-102.342 -80.223)"/>
        <path id="Path_1014" data-name="Path 1014" d="M366.93,129.12a.2.2,0,0,1-.157-.077c-.4-.515-1.158-.205-1.19-.192a.2.2,0,0,1-.156-.366,1.454,1.454,0,0,1,1.658.313.2.2,0,0,1-.034.28.2.2,0,0,1-.123.042" transform="translate(-102.66 -76.101)"/>
        <path id="Path_1015" data-name="Path 1015" d="M359.249,129.368a.2.2,0,0,1-.158-.321,1.636,1.636,0,0,1,1.014-.614.951.951,0,0,1,.76.31.2.2,0,0,1-.281.283.577.577,0,0,0-.451-.2,1.25,1.25,0,0,0-.727.459.2.2,0,0,1-.158.078" transform="translate(-100.06 -76.134)"/>
        <path id="Path_1016" data-name="Path 1016" d="M360.193,133.143a.2.2,0,0,1-.2-.19l-.051-1.139-.5-.419a.2.2,0,0,1,.257-.305l.563.475a.2.2,0,0,1,.071.143l.054,1.226a.2.2,0,0,1-.19.208Z" transform="translate(-100.196 -77.22)"/>
        <path id="Path_1017" data-name="Path 1017" d="M366.174,132.425a.2.2,0,0,1-.2-.187l-.071-1.126-.711-.473a.2.2,0,0,1-.056-.275.2.2,0,0,1,.277-.056l.793.527a.2.2,0,0,1,.088.153l.078,1.225a.2.2,0,0,1-.186.211h-.012" transform="translate(-102.575 -76.901)"/>
        <path id="Path_1018" data-name="Path 1018" d="M367.516,125.135s-3.236-.432-4.616-2.59-1.306-3.188-1.306-3.188a6.128,6.128,0,0,0-2.162,2.135,7.65,7.65,0,0,0-.662,1.85,11.234,11.234,0,0,1-.261-3.389c.275-.794,1.783-5.247,7.992-4.7,9.416.825,5.586,8.468,1.014,9.886" transform="translate(-99.803 -70.639)"/>
        <path id="Path_1019" data-name="Path 1019" d="M363.533,181.8s-.286-.126-1.5-.561c-1.152-.412-5.305-.1-5.305-.1a34.917,34.917,0,0,0-6.623,1.721c-3.01,1.188-2.6,2.545-2.6,2.545s-1.938,1.018-1.221,1.873,3.8.334,3.8.334-3.927,1.107-2.429,2.1,6.5-.621,6.5-.621,7.421,3.428,10.141,1.026-.762-8.319-.762-8.319" transform="translate(-94.689 -97.984)" fill="#ff9c85"/>
        <path id="Path_1020" data-name="Path 1020" d="M371.135,168.646l-3.029,12.113s19.719,15.5,27.955,3.348-7.086-30.375-13.529-32.086-3.188,17.867-3.188,17.867Z" transform="translate(-103.823 -85.891)" fill="#40507f"/>
        <path id="Path_1021" data-name="Path 1021" d="M365.537,231.329a.2.2,0,0,1-.1-.028c-.495-.3-4.839-2.945-4.815-4.735a1.13,1.13,0,0,1,.661-.99,1.475,1.475,0,0,1,1.372-.088c1.885.816,3.031,5.4,3.079,5.595a.2.2,0,0,1-.194.247m-3.482-5.571a1.174,1.174,0,0,0-.58.165.749.749,0,0,0-.457.648c-.016,1.194,2.714,3.181,4.193,4.123-.346-1.2-1.348-4.248-2.718-4.841a1.1,1.1,0,0,0-.438-.1" transform="translate(-100.712 -116.403)" fill="#40507f"/>
        <path id="Path_1022" data-name="Path 1022" d="M389.292,182.5a.206.206,0,0,1-.072-.013c-4.189-1.62-12.62-1.356-12.7-1.35a.2.2,0,0,1-.013-.4c.348-.012,8.6-.272,12.862,1.378a.2.2,0,0,1-.071.385" transform="translate(-107.231 -97.858)" fill="#fff"/>
        <path id="Path_1023" data-name="Path 1023" d="M387.443,179.957a.2.2,0,0,1-.109-.366c.462-.3,4.562-2.923,6.023-1.88a.479.479,0,0,1,.251.521c-.233.921-4.759,1.552-6.14,1.723l-.025,0m5.01-2.1a10.535,10.535,0,0,0-4.1,1.573c2.655-.389,4.838-.959,4.867-1.3,0,0-.009-.036-.1-.1a1.153,1.153,0,0,0-.673-.174" transform="translate(-111.773 -96.507)" fill="#fff"/>
        <path id="Path_1024" data-name="Path 1024" d="M365.242,151.082l-.162,0a.2.2,0,0,1-.193-.205.2.2,0,0,1,.2-.193c.05,0,4.717.106,6.619-2.43a.2.2,0,0,1,.319.238c-1.842,2.456-5.91,2.592-6.787,2.592" transform="translate(-102.485 -84.336)" fill="#fff"/>
        <path id="Path_1025" data-name="Path 1025" d="M325.705,183.945H300.542l-7.187-16.256h24.171a1.523,1.523,0,0,1,1.393.907Z" transform="translate(-72.767 -92.444)" fill="#fff"/>
        <path id="Path_1026" data-name="Path 1026" d="M322.438,183.945H297.275l-6.414-14.508A1.245,1.245,0,0,1,292,167.689h23.252Z" transform="translate(-71.686 -92.444)" fill="#7c576c"/>
        <path id="Path_1027" data-name="Path 1027" d="M337.147,197.552H301.619a1.027,1.027,0,0,1,0-2.054h35.528a1.027,1.027,0,0,1,0,2.054" transform="translate(-75.774 -103.998)"/>
        <path id="Path_1028" data-name="Path 1028" d="M348.341,186.855a.2.2,0,0,1-.1-.372,29.472,29.472,0,0,1,5.918-2.441.2.2,0,0,1,.109.383,29.021,29.021,0,0,0-5.828,2.4.2.2,0,0,1-.1.027" transform="translate(-95.528 -99.235)"/>
        <path id="Path_1029" data-name="Path 1029" d="M352.119,191.031a.2.2,0,0,1-.111-.365,10.811,10.811,0,0,1,4.261-1.656.2.2,0,0,1,.216.182.2.2,0,0,1-.181.216A10.6,10.6,0,0,0,352.229,191a.2.2,0,0,1-.11.034" transform="translate(-97.098 -101.302)"/>
        <path id="Path_1030" data-name="Path 1030" d="M409.8,255.112a.2.2,0,0,1-.1-.37A30.719,30.719,0,0,0,421.368,242.2a.2.2,0,0,1,.365.158A31.137,31.137,0,0,1,409.9,255.083a.2.2,0,0,1-.1.029" transform="translate(-121.061 -123.351)" fill="#d2f2fa"/>
        <path id="Path_1031" data-name="Path 1031" d="M376.834,116.446s3.356-9.06,7.252-5.462-3.626,9.441-3.626,9.441Z" transform="translate(-107.449 -68.535)"/>
        <path id="Path_1055" data-name="Path 1055" d="M132.894,129.109a.2.2,0,0,1-.091-.022.2.2,0,0,1-.087-.268,1.511,1.511,0,0,1,1.631-.648.2.2,0,0,1-.082.389c-.037-.007-.879-.176-1.194.44a.2.2,0,0,1-.178.109" transform="translate(-3.173 -68.422)"/>
        <path id="Path_1059" data-name="Path 1059" d="M139.207,127.882a.2.2,0,0,1-.164-.311,1,1,0,0,1,.712-.466,1.712,1.712,0,0,1,1.157.425.2.2,0,0,1-.263.3,1.31,1.31,0,0,0-.846-.328.611.611,0,0,0-.431.295.2.2,0,0,1-.165.087" transform="translate(-5.796 -67.99)"/>
        <path id="Path_1071" data-name="Path 1071" d="M249.333,265.785a.2.2,0,0,1-.186-.269l1.92-5.133a.2.2,0,0,1,.374.139l-1.717,4.588,7.477-4.625a.2.2,0,1,1,.209.339l-7.972,4.931a.2.2,0,0,1-.1.03" transform="translate(-51.548 -123.311)" fill="#fff"/>
        <g id="Group_870" data-name="Group 870" transform="translate(62.6 47.076)">
          <path id="Path_956" data-name="Path 956" d="M121.055,235.47s4.04,5.668,4.2,6.774-2.932,3.107-2.932,3.107l7.445,9.266h-16.5l-.81-17.881Z" transform="translate(-91.896 -163.886)" fill="#35456d"/>
          <rect id="Rectangle_133" data-name="Rectangle 133" width="14.309" height="12.443" transform="matrix(0.023, -1, 1, 0.023, 11.2, 88.372)" fill="#ff9c85"/>
          <path id="Path_964" data-name="Path 964" d="M96.658,267.262a1.8,1.8,0,0,1-1.671-1.834c-.012-3.891.04-12.9.759-12.9.917,0,9.577,2.74,9.577,2.74s.248-5.393,4.052-4.435c2.919.735,6.308,4.155,7.727,5.707a3.3,3.3,0,0,0,1.654.989c2.719.662,10.2,2.844,10.318,6.8.144,4.838-1.824,4.291-2.742,4.293-.787,0-23.311-1.06-29.674-1.36" transform="translate(-84.639 -170.22)" fill="#40507f"/>
          <path id="Path_971" data-name="Path 971" d="M129.6,186.9a.206.206,0,0,1-.206-.206l.156-48.186a.2.2,0,0,1,.06-.144l4.732-4.748a.205.205,0,1,1,.291.29l-4.673,4.687-.154,48.1a.206.206,0,0,1-.206.205" transform="translate(-98.937 -121.542)" fill="#fff"/>
          <path id="Path_1032" data-name="Path 1032" d="M95.6,183.02c-.864-.69-18.987-3.294-18.293,22.063s29.063,39.891,60.2,34.422,1.662-41.835,1.662-41.835Z" transform="translate(-77.286 -141.921)" fill="#6876aa"/>
          <path id="Path_1033" data-name="Path 1033" d="M103.688,251.828a.2.2,0,0,1-.1-.028,30.66,30.66,0,0,1-11.65-12.526.2.2,0,1,1,.359-.157,30.253,30.253,0,0,0,11.492,12.346.2.2,0,0,1-.1.365" transform="translate(-83.366 -165.352)" fill="#d2f2fa"/>
          <path id="Path_1034" data-name="Path 1034" d="M188.483,157.635s2.839.208,1.935,4.221-3.49-.976-3.49-.976Z" transform="translate(-122.838 -131.548)" fill="#f48462"/>
          <path id="Path_1035" data-name="Path 1035" d="M213.73,275.186c-.551.316-32.542-1.342-33.261-2-.257-.236-.242-1.757-.036-3.922.371-3.942,2.6-10.674,3.832-14.825,0,0,11.2.752,12.194,1.389s11.789,9.744,11.789,9.744,4.115,1.566,5.591,4a5.314,5.314,0,0,1,.726,2.184c.186,1.717-.449,3.218-.835,3.432" transform="translate(-120.074 -171.765)" fill="#40507f"/>
          <path id="Path_1036" data-name="Path 1036" d="M213.73,285.722c-.551.316-32.542-1.342-33.261-2-.257-.236-.242-1.756-.036-3.922l34.132,2.492c.186,1.717-.449,3.218-.835,3.432" transform="translate(-120.074 -182.302)" fill="#fff"/>
          <path id="Path_1037" data-name="Path 1037" d="M215.024,265.66l-9.36-.748a.2.2,0,0,1-.093-.365l4.588-3a.2.2,0,1,1,.218.333l-4.1,2.68,8.763.7a.2.2,0,0,1-.016.4" transform="translate(-130.545 -174.706)" fill="#fff"/>
          <path id="Path_1038" data-name="Path 1038" d="M155.734,197.109s17.76-12.56,33.089-8.7-7.057,41.132-7.057,41.132l-22.282.05,2.172-10.68-26.749-.051,11.8-16.713Z" transform="translate(-101.225 -144.027)" fill="#8e657d"/>
          <path id="Path_1039" data-name="Path 1039" d="M205.545,203.453a.2.2,0,0,1-.168-.306,27.787,27.787,0,0,1,4.7-5.455.2.2,0,1,1,.259.3,27.346,27.346,0,0,0-4.62,5.366.2.2,0,0,1-.168.093" transform="translate(-130.489 -148.169)" fill="#fff"/>
          <path id="Path_1040" data-name="Path 1040" d="M162.581,173.494l15.249,4.6s.153,10.309-9.53,13.125-10.807-8.925-10.807-8.925Z" transform="translate(-110.608 -138.137)" fill="#f7b369"/>
          <path id="Path_1041" data-name="Path 1041" d="M180.278,175.449s-.473,5.791,4.141,5.241,4.331-7.177,4.331-7.177Z" transform="translate(-120.069 -138.145)" fill="#f48462"/>
          <path id="Path_1042" data-name="Path 1042" d="M115.561,195.1s-8.888-32.086-1.4-40.916,24.856-1.473,24.856-1.473l8.313,29.446Z" transform="translate(-91.359 -128.307)" fill="#f7b369"/>
          <path id="Path_1043" data-name="Path 1043" d="M139.137,182.1s4.492-7.116,6.673-7.926,7.452.257,7.454.889-4.881,1.4-4.881,1.4,2.744,4.8,2.788,5.874-2.432,4.217-2.975,4.531-1.908-1.437-1.908-1.437a8.04,8.04,0,0,1-3.633,2.386c-2.125.562-4.564-2.661-4.564-2.661Z" transform="translate(-102.548 -138.297)" fill="#f48462"/>
          <path id="Path_1044" data-name="Path 1044" d="M151.163,180.883a.232.232,0,0,1-.038-.462l2.929-.493a.233.233,0,0,1,.077.459l-2.93.493a.216.216,0,0,1-.039,0" transform="translate(-107.882 -140.809)"/>
          <path id="Path_1045" data-name="Path 1045" d="M127.345,141.822l.14,5.724s1.072,1.62,4.427,1.81c2.5.142,3.156-.727,3.156-.727l-.213-2.607-.412-2.819-6.079-1.183Z" transform="translate(-98.083 -124.978)" fill="#f48462"/>
          <path id="Path_1046" data-name="Path 1046" d="M129.253,143a1.785,1.785,0,0,0,.179.526c1.343,2.714,4.825,3.231,6.255,3.324l-.414-2.7Z" transform="translate(-98.876 -125.466)"/>
          <path id="Path_1047" data-name="Path 1047" d="M132.482,122.1s3.048,6.808,2.006,10.657-4.545,3.276-6.645,2.553a6.926,6.926,0,0,1-3.083-2,2.951,2.951,0,0,1-3.273-1.126c-1.325-1.806-.538-3.9.575-4.39a3.069,3.069,0,0,1,2.447.306l-1.059-1.977s4.288-10.134,9.032-4.025" transform="translate(-95.361 -115.971)" fill="#f48462"/>
          <path id="Path_1048" data-name="Path 1048" d="M139.816,136.035a.2.2,0,0,1-.058-.009.2.2,0,0,1-.132-.248,3.505,3.505,0,0,0-.571-2.646.2.2,0,0,1,.326-.23,3.858,3.858,0,0,1,.626,2.993.2.2,0,0,1-.191.141" transform="translate(-102.933 -121.237)"/>
          <path id="Path_1049" data-name="Path 1049" d="M125.2,137.534a.2.2,0,0,1-.144-.062l-1.861-1.964a.2.2,0,0,1,.289-.274l1.861,1.963a.2.2,0,0,1-.144.336" transform="translate(-96.336 -122.216)"/>
          <path id="Path_1050" data-name="Path 1050" d="M123.157,137.894a.2.2,0,0,1-.03-.4l1.284-.2a.2.2,0,1,1,.06.394l-1.284.2-.03,0" transform="translate(-96.261 -123.099)"/>
          <path id="Path_1051" data-name="Path 1051" d="M123.326,125.137a.852.852,0,0,0,1.217-.342c.511-.8-.616-3.171-.616-3.171a5.962,5.962,0,0,0,3.424-.227,5.239,5.239,0,0,0,1.944-2.63s.967,2,3.855,1.115,3.428-4.822.343-5.617a5.542,5.542,0,0,0-4.768.572s-.4-2.853-4.207-1.435c-3.471,1.292-4.048,5.645-4.048,5.645a2.748,2.748,0,0,0-2.483,2.372c-.4,2.27,2.262,3.906,2.262,3.906a3.631,3.631,0,0,1,3.077-.186" transform="translate(-94.178 -113.006)"/>
          <path id="Path_1052" data-name="Path 1052" d="M134.815,132.784a.2.2,0,0,1-.2-.174l-.165-1.273a.2.2,0,1,1,.4-.051l.165,1.273a.2.2,0,0,1-.171.223l-.026,0" transform="translate(-101.035 -120.529)"/>
          <path id="Path_1053" data-name="Path 1053" d="M169.531,195.96a.2.2,0,0,1-.2-.18,54.65,54.65,0,0,0-2.45-10.049.2.2,0,0,1,.376-.132,55.082,55.082,0,0,1,2.47,10.142.2.2,0,0,1-.178.217h-.02" transform="translate(-114.505 -143.109)" fill="#40507f"/>
          <path id="Path_1054" data-name="Path 1054" d="M141.265,132.252a.2.2,0,0,1-.2-.17l-.19-1.27a.2.2,0,0,1,.168-.227.2.2,0,0,1,.226.168l.189,1.269a.2.2,0,0,1-.167.227l-.03,0" transform="translate(-103.705 -120.309)"/>
          <path id="Path_1056" data-name="Path 1056" d="M147.2,168.461l17.356,3.354a1.555,1.555,0,0,0,1.821-1.231l4.786-24.761A1.555,1.555,0,0,0,169.935,144l-17.356-3.355a1.555,1.555,0,0,0-1.821,1.232l-4.786,24.761a1.555,1.555,0,0,0,1.232,1.821" transform="translate(-105.81 -124.478)"/>
          <path id="Path_1057" data-name="Path 1057" d="M149.268,168.86l17.356,3.354a1.554,1.554,0,0,0,1.821-1.231l4.786-24.761A1.555,1.555,0,0,0,172,144.4l-17.356-3.355a1.555,1.555,0,0,0-1.821,1.232l-4.786,24.761a1.555,1.555,0,0,0,1.232,1.821" transform="translate(-106.668 -124.644)" fill="#40507f"/>
          <path id="Path_1058" data-name="Path 1058" d="M172.629,147.761a4.466,4.466,0,0,1-.854-.084l-4.344-.846a3.942,3.942,0,0,1-2.056-1.047,1.976,1.976,0,0,1-.633-1.765l.353-1.814a.2.2,0,0,1,.391.077l-.353,1.814a1.593,1.593,0,0,0,.525,1.41,3.54,3.54,0,0,0,1.848.934l4.344.846a3.537,3.537,0,0,0,2.063-.172,1.6,1.6,0,0,0,1.017-1.11l.353-1.814a.2.2,0,0,1,.234-.158.2.2,0,0,1,.157.234l-.353,1.814a1.98,1.98,0,0,1-1.249,1.4,3.644,3.644,0,0,1-1.444.282" transform="translate(-113.608 -125.071)" fill="#fff"/>
          <path id="Path_1060" data-name="Path 1060" d="M187.731,167.571s4.051-.465,2.805-2.328-8.575-2.754-9.356-.567,6.551,2.9,6.551,2.9" transform="translate(-120.425 -133.939)" fill="#f48462"/>
          <path id="Path_1061" data-name="Path 1061" d="M186.979,173.293s4.051-.465,2.805-2.328-8.575-2.754-9.356-.567,6.551,2.9,6.551,2.9" transform="translate(-120.113 -136.317)" fill="#f48462"/>
          <path id="Path_1062" data-name="Path 1062" d="M184.55,178.26a5.11,5.11,0,0,0,2.7.184c.8-.175,1.5-.577,1.1-1.484-.806-1.813-7.062-3.695-8.073-1.905-.754,1.334,2.549,2.632,4.278,3.205" transform="translate(-120.026 -138.485)" fill="#f48462"/>
          <path id="Path_1063" data-name="Path 1063" d="M189.758,169.187l-4.72-.352a.2.2,0,0,1-.183-.214.2.2,0,0,1,.213-.184l4.7.351a.2.2,0,0,1-.015.4" transform="translate(-121.976 -136.036)"/>
          <path id="Path_1064" data-name="Path 1064" d="M188.456,175.523l-4.72-.353a.2.2,0,1,1,.03-.4l4.7.351a.2.2,0,0,1-.015.4" transform="translate(-121.435 -138.668)"/>
          <path id="Path_1065" data-name="Path 1065" d="M129.965,225.9a.247.247,0,0,1-.238-.182l-.791-2.981a.247.247,0,0,1,.476-.127l.791,2.981a.246.246,0,0,1-.175.3.235.235,0,0,1-.063.008" transform="translate(-98.741 -158.466)" fill="#534579"/>
          <path id="Path_1066" data-name="Path 1066" d="M170.446,212.962a.246.246,0,0,1-.246-.24l-.083-3.174a.246.246,0,1,1,.492-.012l.084,3.173a.246.246,0,0,1-.24.252Z" transform="translate(-115.853 -153.011)" fill="#534579"/>
          <path id="Path_1067" data-name="Path 1067" d="M166.018,216.2a.246.246,0,0,1-.246-.246l-.008-3.365a.246.246,0,0,1,.493,0l.007,3.365a.246.246,0,0,1-.246.247Z" transform="translate(-114.045 -154.278)" fill="#534579"/>
          <path id="Path_1068" data-name="Path 1068" d="M136.417,140.713a2.024,2.024,0,0,1-1.641-.981.2.2,0,0,1,.343-.2,1.561,1.561,0,0,0,1.648.74.2.2,0,1,1,.1.385,1.751,1.751,0,0,1-.45.06" transform="translate(-101.159 -123.984)"/>
          <path id="Path_1069" data-name="Path 1069" d="M261.477,265.191c-.257.58-27.015,18.193-27.985,18.087-.346-.037-1.235-1.271-2.352-3.138-2.036-3.4-4.227-10.14-5.693-14.215,0,0,9.466-6.025,10.647-6.1s15.271.869,15.271.869,4.243-1.176,6.873-.088a5.309,5.309,0,0,1,1.879,1.329c1.167,1.274,1.544,2.86,1.36,3.26" transform="translate(-138.84 -174.001)" fill="#40507f"/>
          <path id="Path_1070" data-name="Path 1070" d="M265.523,266.694c-.257.58-27.015,18.193-27.985,18.087-.346-.037-1.235-1.271-2.352-3.138l28.977-18.209c1.167,1.274,1.544,2.86,1.36,3.26" transform="translate(-142.887 -175.503)" fill="#fff"/>
          <path id="Path_1072" data-name="Path 1072" d="M118.689,215.2s38.294-19.476,46.737-16.7c11.082,3.644,31.166,33.7,31.166,33.7l-17.6,17.038s-18.231-24.6-21.149-24.279c-3.375.376-22.365,8.364-29.122,6.192S118.689,215.2,118.689,215.2" transform="translate(-94.487 -148.415)" fill="#a37b90"/>
          <path id="Path_1073" data-name="Path 1073" d="M186.566,239.932a.213.213,0,0,1-.068-.012.2.2,0,0,1-.13-.174c-.01-.161-.242-3.977,1.208-5.41a1.81,1.81,0,0,1,1.482-.538,1,1,0,0,1,.967.585c.547,1.443-2.919,5.079-3.315,5.489a.2.2,0,0,1-.143.06m2.321-5.742a1.409,1.409,0,0,0-1.032.429c-1.04,1.029-1.121,3.574-1.106,4.63,1.407-1.519,3.222-3.883,2.9-4.725-.027-.072-.109-.289-.625-.329-.047,0-.094-.006-.14-.006" transform="translate(-122.596 -163.187)" fill="#fff"/>
          <path id="Path_1074" data-name="Path 1074" d="M106.942,152.293S80.5,163.734,85.092,183.478c4.376,18.814,34.558,2.381,34.558,2.381l-1.492-14.767-14.083,1.5Z" transform="translate(-80.306 -129.329)" fill="#f7b369"/>
          <path id="Path_1075" data-name="Path 1075" d="M109.713,185.091a.2.2,0,0,1-.04-.395,73.363,73.363,0,0,1,16.673-1.068.2.2,0,0,1,.186.211.2.2,0,0,1-.211.187,72.9,72.9,0,0,0-16.568,1.061.189.189,0,0,1-.04,0" transform="translate(-90.675 -142.31)" fill="#40507f"/>
          <path id="Path_1076" data-name="Path 1076" d="M117.9,182.41c-.932,0-5.284-.061-5.85-1.178a.726.726,0,0,1,.127-.8,1.389,1.389,0,0,1,.962-.543c1.821-.254,4.876,2.065,5.005,2.164a.2.2,0,0,1-.119.357H117.9m-4.461-2.144a1.854,1.854,0,0,0-.246.016.993.993,0,0,0-.7.387c-.169.226-.112.34-.09.383.33.652,3.015.918,4.99.955-.878-.6-2.708-1.741-3.957-1.741" transform="translate(-91.702 -140.785)" fill="#40507f"/>
          <path id="Path_1077" data-name="Path 1077" d="M120.652,213.894a.2.2,0,0,1-.071-.385c.093-.036,9.324-3.589,13.874-6.576a.2.2,0,1,1,.219.333c-4.586,3.01-13.857,6.579-13.95,6.615a.191.191,0,0,1-.071.013" transform="translate(-95.22 -152.015)" fill="#40507f"/>
          <path id="Path_1078" data-name="Path 1078" d="M129.085,156.109a.874.874,0,0,1-.284-.044c-1.364-.464-1.551-4.95-1.568-5.46a.2.2,0,0,1,.345-.142,7.759,7.759,0,0,0,4.316,2,6.335,6.335,0,0,0,1.607.036.2.2,0,0,1,.111-.013c.185-.024.368-.057.547-.1a1.021,1.021,0,0,0,.784-1.085l-.12-1.305a.2.2,0,0,1,.11-.2.2.2,0,0,1,.223.032c.448.413,2.68,2.518,2.563,3.374a.452.452,0,0,1-.248.35c-.834.427-3.212-.409-3.839-.641-.594.615-3.167,3.189-4.547,3.189m-1.432-5.036c.109,1.823.514,4.355,1.275,4.615s2.794-1.42,4.131-2.755a6.794,6.794,0,0,1-1.223-.072,8.457,8.457,0,0,1-4.184-1.788m6.7,1.678c1.1.361,2.474.689,2.934.455a.053.053,0,0,0,.035-.049c.058-.422-1.068-1.7-2.056-2.665l.072.779a1.421,1.421,0,0,1-.985,1.48" transform="translate(-98.037 -128.286)" fill="#40507f"/>
        </g>
        <path id="Path_1081" data-name="Path 1081" d="M14.858,189.664c6.458,3.034,10.428,8.185,8.868,11.507s-8.061,3.555-14.519.522S-1.221,193.508.34,190.186s8.06-3.556,14.518-.522" transform="translate(0 -93.098)" fill="#7b9b75"/>
        <path id="Path_1082" data-name="Path 1082" d="M23.474,227.409c-5.23-.789-9.142-3.61-8.736-6.3s4.975-4.232,10.206-3.443,9.142,3.61,8.735,6.3S28.7,228.2,23.474,227.409" transform="translate(-6.111 -105.532)" fill="#7b9b75"/>
        <path id="Path_1083" data-name="Path 1083" d="M42.221,225.357a.29.29,0,0,1-.288-.255c-1.854-14.947-21.47-23.49-21.669-23.574a.291.291,0,0,1,.229-.534c.2.085,20.121,8.757,22.017,24.037a.29.29,0,0,1-.252.324l-.036,0" transform="translate(-8.346 -98.681)" fill="#fff"/>
        <path id="Path_1084" data-name="Path 1084" d="M63.879,197.91c4.842-5.241,10.952-7.471,13.647-4.98s.956,8.758-3.885,14-10.951,7.471-13.647,4.98-.956-8.758,3.885-14" transform="translate(-24.398 -94.917)" fill="#7b9b75"/>
        <path id="Path_1085" data-name="Path 1085" d="M46.1,234.374a.29.29,0,0,1-.206-.314c.851-6.777-11.985-8.825-12.116-8.846a.29.29,0,1,1,.089-.573c.554.084,13.525,2.159,12.6,9.491a.291.291,0,0,1-.325.252.276.276,0,0,1-.046-.009" transform="translate(-13.929 -108.514)" fill="#fff"/>
        <path id="Path_1086" data-name="Path 1086" d="M54.339,226.062a.3.3,0,0,1-.285-.347c2.992-15.031,14.913-24.209,15.032-24.3a.291.291,0,0,1,.351.463c-.119.089-11.866,9.142-14.814,23.95a.29.29,0,0,1-.285.234" transform="translate(-22.455 -98.842)" fill="#fff"/>
        <path id="Path_1087" data-name="Path 1087" d="M61.558,262.01H46.848a1.518,1.518,0,0,1-1.543-1.314l-2.25-21.428a1.5,1.5,0,0,1,1.543-1.6h19.21a1.5,1.5,0,0,1,1.543,1.6L63.1,260.7a1.518,1.518,0,0,1-1.544,1.314" transform="translate(-17.884 -113.928)" fill="#a88"/>
        <path id="Path_1088" data-name="Path 1088" d="M55.988,262.01H41.278a1.517,1.517,0,0,1-1.543-1.314l-2.25-21.428a1.5,1.5,0,0,1,1.543-1.6h19.21a1.5,1.5,0,0,1,1.543,1.6L57.531,260.7a1.517,1.517,0,0,1-1.543,1.314" transform="translate(-15.57 -113.928)" fill="#b79a9a"/>
      </g>
    </g>
    <g id="Group_866" data-name="Group 866" transform="matrix(0.998, -0.07, 0.07, 0.998, 339.84, 92.379)">
      <g id="satellite" transform="translate(0 0)">
        <g id="Group_506" data-name="Group 506" transform="translate(0 0)">
          <g id="Group_504" data-name="Group 504">
            <g id="Group_503" data-name="Group 503">
              <g id="Group_502" data-name="Group 502">
                <g id="Group_501" data-name="Group 501">
                  <path id="Path_1146" data-name="Path 1146" d="M0,0H39.7V5.746H0Z" transform="translate(52.184 56.256) rotate(-135)" fill="#f1f1f1"/>
                  <g id="Group_497" data-name="Group 497">
                    <g id="Group_496" data-name="Group 496">
                      <g id="Group_495" data-name="Group 495">
                        <path id="Path_1147" data-name="Path 1147" d="M8.313,0,8.306.347,6.977,1.676l-.916-.5L.679,6.56a2.318,2.318,0,0,0,0,3.278l4.953,4.953.99-.307,1.086,1.086-.361.936L12.9,22.054l.851-.445,1.279,1.279-.415.881,4.953,4.953a2.318,2.318,0,0,0,3.278,0l5.382-5.382-.256-.731,1.437-1.437a2.309,2.309,0,0,0-.678-1.613L9.843.674A2.307,2.307,0,0,0,8.313,0Z" transform="translate(0 6.598)" fill="#f1f1f1"/>
                        <g id="Group_494" data-name="Group 494" transform="translate(7.743 0)">
                          <path id="Path_1148" data-name="Path 1148" d="M13.647,5.632,8.693.679a2.318,2.318,0,0,0-3.278,0L.033,6.061.571,6.6l-.007.347L0,7.508a2.306,2.306,0,0,1,1.223.64L20.108,27.034a2.308,2.308,0,0,1,.678,1.613l.656-.656.754.233,5.382-5.382a2.318,2.318,0,0,0,0-3.278l-4.953-4.953-.863.369-1.134-1.134.282-.95L15.361,7.347l-.946.286L13.281,6.5Z" transform="translate(0 0)" fill="#f1f1f1"/>
                        </g>
                      </g>
                    </g>
                    <path id="Path_1149" data-name="Path 1149" d="M23.02,7.263,16,14.284,10.451,8.736l7.021-7.021L15.757,0,8.736,7.021,2.144.429.429,2.144,7.021,8.736,0,15.757l1.715,1.715,7.021-7.021L14.284,16,7.263,23.02l1.715,1.715L16,17.714l6.592,6.592,1.715-1.715L17.714,16l7.021-7.021Z" transform="translate(5.632 5.632)" fill="#f1f1f1"/>
                  </g>
                  <g id="Group_500" data-name="Group 500" transform="translate(17.128 19.953)">
                    <g id="Group_499" data-name="Group 499" transform="translate(0 0)">
                      <g id="Group_498" data-name="Group 498" transform="translate(0 0)">
                        <path id="Path_1150" data-name="Path 1150" d="M8.672,0l6.476,6.476L12.029,14.65A1,1,0,0,1,10.394,15L.292,4.9A1,1,0,0,1,.622,3.27Z" transform="translate(0 27.969)" fill="#f1f1f1"/>
                        <path id="Path_1151" data-name="Path 1151" d="M17.432.725A1.041,1.041,0,0,0,15.7.306L.969,15.04a3.31,3.31,0,0,0,0,4.681l8.969,8.969a3.31,3.31,0,0,0,4.681,0L29.353,13.955a1.041,1.041,0,0,0-.419-1.729,17.513,17.513,0,0,1-7.158-4.343A17.511,17.511,0,0,1,17.432.725Z" transform="translate(5.145 8.481)" fill="#f1f1f1"/>
                        <path id="Path_1152" data-name="Path 1152" d="M21.855,11.424,11.012.581a1.984,1.984,0,0,0-2.806,0L0,8.787A17.6,17.6,0,0,0,13.649,22.436l8.206-8.205A1.984,1.984,0,0,0,21.855,11.424Z" transform="translate(20.848 0)" fill="#f1f1f1"/>
                      </g>
                    </g>
                  </g>
                </g>
              </g>
            </g>
            <path id="Path_1153" data-name="Path 1153" d="M11.144,1.018a3.475,3.475,0,0,1,0,4.914L5.932,11.144A3.475,3.475,0,0,1,1.018,6.23L6.23,1.018A3.475,3.475,0,0,1,11.144,1.018Z" transform="translate(31.678 36.496)" fill="#f1f1f1"/>
          </g>
          <g id="Group_505" data-name="Group 505" transform="translate(51.155 15.151)">
            <path id="Path_1154" data-name="Path 1154" d="M2.885.013A1.213,1.213,0,0,0,1.508,1.035L.013,11.1a1.213,1.213,0,0,0,2.4.356L3.907,1.391A1.213,1.213,0,0,0,2.885.013Z" transform="translate(10.187 1.888)" fill="#f1f1f1"/>
            <path id="Path_1155" data-name="Path 1155" d="M1.391,3.813l9.431-1.4a1.213,1.213,0,0,0-.356-2.4l-9.431,1.4a1.213,1.213,0,1,0,.356,2.4Z" transform="translate(0 0)" fill="#f1f1f1"/>
          </g>
        </g>
        <circle id="Ellipse_41" data-name="Ellipse 41" cx="3.61" cy="3.61" r="3.61" transform="translate(60.776 12.369)" fill="#f1f1f1"/>
        <path id="Path_1156" data-name="Path 1156" d="M2.5.27A.924.924,0,0,0,.97.624a17.608,17.608,0,0,0,22.4,22.4.924.924,0,0,0,.354-1.526Z" transform="translate(44.937 11.43)" fill="#f1f1f1"/>
        <g id="Group_510" data-name="Group 510" transform="translate(44.366 44.366)">
          <g id="Group_509" data-name="Group 509" transform="translate(0 0)">
            <g id="Group_508" data-name="Group 508" transform="translate(0)">
              <path id="Path_1157" data-name="Path 1157" d="M8.313,0,8.306.347,6.977,1.676l-.916-.5L.679,6.56a2.318,2.318,0,0,0,0,3.278l4.953,4.953.99-.307,1.086,1.086-.361.936L12.9,22.054l.851-.445,1.279,1.279-.415.881,4.953,4.953a2.318,2.318,0,0,0,3.278,0l5.382-5.382-.256-.731,1.438-1.437a2.309,2.309,0,0,0-.678-1.613L9.843.674A2.307,2.307,0,0,0,8.313,0Z" transform="translate(0 6.598)" fill="#f1f1f1"/>
              <g id="Group_507" data-name="Group 507" transform="translate(7.743 0)">
                <path id="Path_1158" data-name="Path 1158" d="M13.647,5.632,8.693.679a2.318,2.318,0,0,0-3.278,0L.033,6.061.571,6.6l-.007.347L0,7.508a2.306,2.306,0,0,1,1.223.64L20.108,27.034a2.309,2.309,0,0,1,.678,1.613l.656-.656.754.233,5.382-5.382a2.318,2.318,0,0,0,0-3.278l-4.953-4.953-.863.369-1.134-1.134.282-.95L15.362,7.347l-.946.286L13.281,6.5Z" transform="translate(0 0)" fill="#f1f1f1"/>
              </g>
            </g>
          </g>
          <path id="Path_1159" data-name="Path 1159" d="M23.02,7.263,16,14.284,10.451,8.736l7.021-7.021L15.757,0,8.736,7.021,2.144.429.429,2.144,7.021,8.736,0,15.757l1.715,1.715,7.021-7.021L14.284,16,7.263,23.02l1.715,1.715L16,17.714l6.592,6.592,1.715-1.715L17.714,16l7.021-7.021Z" transform="translate(5.632 5.632)" fill="#f1f1f1"/>
        </g>
      </g>
      <g id="satellite-2" data-name="satellite" transform="translate(0 0)" style="mix-blend-mode: luminosity;isolation: isolate">
        <g id="Group_506-2" data-name="Group 506" transform="translate(0 0)">
          <g id="Group_504-2" data-name="Group 504">
            <g id="Group_503-2" data-name="Group 503">
              <g id="Group_502-2" data-name="Group 502">
                <g id="Group_501-2" data-name="Group 501">
                  <path id="Path_1146-2" data-name="Path 1146" d="M0,0H39.7V5.746H0Z" transform="translate(52.184 56.256) rotate(-135)" fill="#c9e0fd"/>
                  <g id="Group_497-2" data-name="Group 497">
                    <g id="Group_496-2" data-name="Group 496">
                      <g id="Group_495-2" data-name="Group 495">
                        <path id="Path_1147-2" data-name="Path 1147" d="M8.313,0,8.306.347,6.977,1.676l-.916-.5L.679,6.56a2.318,2.318,0,0,0,0,3.278l4.953,4.953.99-.307,1.086,1.086-.361.936L12.9,22.054l.851-.445,1.279,1.279-.415.881,4.953,4.953a2.318,2.318,0,0,0,3.278,0l5.382-5.382-.256-.731,1.437-1.437a2.309,2.309,0,0,0-.678-1.613L9.843.674A2.307,2.307,0,0,0,8.313,0Z" transform="translate(0 6.598)" fill="#9bc4f9"/>
                        <g id="Group_494-2" data-name="Group 494" transform="translate(7.743 0)">
                          <path id="Path_1148-2" data-name="Path 1148" d="M13.647,5.632,8.693.679a2.318,2.318,0,0,0-3.278,0L.033,6.061.571,6.6l-.007.347L0,7.508a2.306,2.306,0,0,1,1.223.64L20.108,27.034a2.308,2.308,0,0,1,.678,1.613l.656-.656.754.233,5.382-5.382a2.318,2.318,0,0,0,0-3.278l-4.953-4.953-.863.369-1.134-1.134.282-.95L15.361,7.347l-.946.286L13.281,6.5Z" transform="translate(0 0)" fill="#7fb2f9"/>
                        </g>
                      </g>
                    </g>
                    <path id="Path_1149-2" data-name="Path 1149" d="M23.02,7.263,16,14.284,10.451,8.736l7.021-7.021L15.757,0,8.736,7.021,2.144.429.429,2.144,7.021,8.736,0,15.757l1.715,1.715,7.021-7.021L14.284,16,7.263,23.02l1.715,1.715L16,17.714l6.592,6.592,1.715-1.715L17.714,16l7.021-7.021Z" transform="translate(5.632 5.632)" fill="#eaf2ff"/>
                  </g>
                  <g id="Group_500-2" data-name="Group 500" transform="translate(17.128 19.953)">
                    <g id="Group_499-2" data-name="Group 499" transform="translate(0 0)">
                      <g id="Group_498-2" data-name="Group 498" transform="translate(0 0)">
                        <path id="Path_1150-2" data-name="Path 1150" d="M8.672,0l6.476,6.476L12.029,14.65A1,1,0,0,1,10.394,15L.292,4.9A1,1,0,0,1,.622,3.27Z" transform="translate(0 27.969)" fill="#c9e0fd"/>
                        <path id="Path_1151-2" data-name="Path 1151" d="M17.432.725A1.041,1.041,0,0,0,15.7.306L.969,15.04a3.31,3.31,0,0,0,0,4.681l8.969,8.969a3.31,3.31,0,0,0,4.681,0L29.353,13.955a1.041,1.041,0,0,0-.419-1.729,17.513,17.513,0,0,1-7.158-4.343A17.511,17.511,0,0,1,17.432.725Z" transform="translate(5.145 8.481)" fill="#eaf2ff"/>
                        <path id="Path_1152-2" data-name="Path 1152" d="M21.855,11.424,11.012.581a1.984,1.984,0,0,0-2.806,0L0,8.787A17.6,17.6,0,0,0,13.649,22.436l8.206-8.205A1.984,1.984,0,0,0,21.855,11.424Z" transform="translate(20.848 0)" fill="#c9e0fd"/>
                      </g>
                    </g>
                  </g>
                </g>
              </g>
            </g>
            <path id="Path_1153-2" data-name="Path 1153" d="M11.144,1.018a3.475,3.475,0,0,1,0,4.914L5.932,11.144A3.475,3.475,0,0,1,1.018,6.23L6.23,1.018A3.475,3.475,0,0,1,11.144,1.018Z" transform="translate(31.678 36.496)" fill="#e2916b"/>
          </g>
          <g id="Group_505-2" data-name="Group 505" transform="translate(51.155 15.151)">
            <path id="Path_1154-2" data-name="Path 1154" d="M2.885.013A1.213,1.213,0,0,0,1.508,1.035L.013,11.1a1.213,1.213,0,0,0,2.4.356L3.907,1.391A1.213,1.213,0,0,0,2.885.013Z" transform="translate(10.187 1.888)" fill="#c9e0fd"/>
            <path id="Path_1155-2" data-name="Path 1155" d="M1.391,3.813l9.431-1.4a1.213,1.213,0,0,0-.356-2.4l-9.431,1.4a1.213,1.213,0,1,0,.356,2.4Z" transform="translate(0 0)" fill="#c9e0fd"/>
          </g>
        </g>
        <circle id="Ellipse_41-2" data-name="Ellipse 41" cx="3.61" cy="3.61" r="3.61" transform="translate(60.776 12.369)" fill="#bcd6f9"/>
        <path id="Path_1156-2" data-name="Path 1156" d="M2.5.27A.924.924,0,0,0,.97.624a17.608,17.608,0,0,0,22.4,22.4.924.924,0,0,0,.354-1.526Z" transform="translate(44.937 11.43)" fill="#9bc4f9"/>
        <g id="Group_510-2" data-name="Group 510" transform="translate(44.366 44.366)">
          <g id="Group_509-2" data-name="Group 509" transform="translate(0 0)">
            <g id="Group_508-2" data-name="Group 508" transform="translate(0)">
              <path id="Path_1157-2" data-name="Path 1157" d="M8.313,0,8.306.347,6.977,1.676l-.916-.5L.679,6.56a2.318,2.318,0,0,0,0,3.278l4.953,4.953.99-.307,1.086,1.086-.361.936L12.9,22.054l.851-.445,1.279,1.279-.415.881,4.953,4.953a2.318,2.318,0,0,0,3.278,0l5.382-5.382-.256-.731,1.438-1.437a2.309,2.309,0,0,0-.678-1.613L9.843.674A2.307,2.307,0,0,0,8.313,0Z" transform="translate(0 6.598)" fill="#9bc4f9"/>
              <g id="Group_507-2" data-name="Group 507" transform="translate(7.743 0)">
                <path id="Path_1158-2" data-name="Path 1158" d="M13.647,5.632,8.693.679a2.318,2.318,0,0,0-3.278,0L.033,6.061.571,6.6l-.007.347L0,7.508a2.306,2.306,0,0,1,1.223.64L20.108,27.034a2.309,2.309,0,0,1,.678,1.613l.656-.656.754.233,5.382-5.382a2.318,2.318,0,0,0,0-3.278l-4.953-4.953-.863.369-1.134-1.134.282-.95L15.362,7.347l-.946.286L13.281,6.5Z" transform="translate(0 0)" fill="#7fb2f9"/>
              </g>
            </g>
          </g>
          <path id="Path_1159-2" data-name="Path 1159" d="M23.02,7.263,16,14.284,10.451,8.736l7.021-7.021L15.757,0,8.736,7.021,2.144.429.429,2.144,7.021,8.736,0,15.757l1.715,1.715,7.021-7.021L14.284,16,7.263,23.02l1.715,1.715L16,17.714l6.592,6.592,1.715-1.715L17.714,16l7.021-7.021Z" transform="translate(5.632 5.632)" fill="#eaf2ff"/>
        </g>
      </g>
    </g>
    <g id="Group_864" data-name="Group 864" transform="translate(89.867 126.868)">
      <ellipse id="Ellipse_45" data-name="Ellipse 45" cx="16.187" cy="16.444" rx="16.187" ry="16.444" transform="translate(3.554 5.067)" fill="#fff"/>
      <g id="earthquake" transform="translate(0)">
        <path id="Path_1160" data-name="Path 1160" d="M84.787,115.552a.888.888,0,0,1-.864-.681l-2.013-8.388-.739,1.849a.889.889,0,0,1-.825.558H75.9a.888.888,0,1,1,0-1.776h3.84L81.3,103.23a.888.888,0,0,1,1.688.123l1.792,7.468,2.7-11.458a.888.888,0,0,1,.842-.688.879.879,0,0,1,.877.636l2.914,9.833.769-1.539a.888.888,0,0,1,.795-.491H99a.888.888,0,0,1,0,1.776h-4.78l-1.526,3.062a.9.9,0,0,1-.873.487.887.887,0,0,1-.773-.632l-2.607-8.779-2.787,11.839a.889.889,0,0,1-.865.685Zm0,0" transform="translate(-66.725 -87.719)" fill="#f7b369" opacity="0.63"/>
        <path id="Path_1161" data-name="Path 1161" d="M35.722,6.071A20.726,20.726,0,0,0,6.41,35.383L21.066,50.038,35.722,35.383a20.726,20.726,0,0,0,0-29.312ZM21.066,31.386A11.991,11.991,0,1,1,33.057,19.394,11.991,11.991,0,0,1,21.066,31.386Zm0,0" transform="translate(-0.339 0)" fill="#59acc9"/>
      </g>
    </g>
    <path id="Path_1350" data-name="Path 1350" d="M137.6,346.131a4.8,4.8,0,1,1-4.8-4.8A4.8,4.8,0,0,1,137.6,346.131Zm0,0" transform="translate(14.005 -204.47)" fill="#bebebe"/>
    <path id="Path_1351" data-name="Path 1351" d="M20.4,54.569a8.378,8.378,0,0,1-6.5-11.673A8.369,8.369,0,0,0,3.6,51.065V54.41A8.043,8.043,0,0,1,.734,60.567,2.1,2.1,0,0,0,2.1,64.261H21.892a2.1,2.1,0,0,0,1.353-3.7A8.032,8.032,0,0,1,20.4,54.569Zm0,0" transform="translate(134.808 77.399)" fill="#dcdcdc"/>
    <path id="Path_1354" data-name="Path 1354" d="M3.589,54.569a8.4,8.4,0,0,0,7.207-8.3,8.343,8.343,0,0,0-.711-3.371,8.369,8.369,0,0,1,10.308,8.169v3.344a8.043,8.043,0,0,0,2.865,6.157,2.1,2.1,0,0,1-1.365,3.694H2.1a2.1,2.1,0,0,1-1.353-3.7,8.032,8.032,0,0,0,2.843-5.987Zm0,0" transform="translate(134.808 77.399)" fill="#dcdcdc"/>
    <path id="Path_1352" data-name="Path 1352" d="M286.929,4.8a4.8,4.8,0,1,1-4.8-4.8A4.8,4.8,0,0,1,286.929,4.8Zm0,0" transform="translate(-127.675 119.419)" fill="#f7b369"/>
  </g>
</svg>
