<svg xmlns="http://www.w3.org/2000/svg" width="364.825" height="250.881" viewBox="0 0 364.825 250.881">
  <g id="login-p2" transform="translate(-92 -447.755)">
    <g id="Group_1034" data-name="Group 1034" transform="translate(164.571 603.046)">
      <path id="Path_1271" data-name="Path 1271" d="M378.758,380.246a1.483,1.483,0,0,1-1.052-.436L366.08,368.184a1.489,1.489,0,1,1,2.105-2.105L379.81,377.7a1.489,1.489,0,0,1-1.053,2.541Z" transform="translate(-365.644 -365.643)" fill="#f7b369"/>
    </g>
    <circle id="Ellipse_42" data-name="Ellipse 42" cx="26.304" cy="26.304" r="26.304" transform="translate(116.505 554.98)" fill="#f7b369"/>
    <circle id="Ellipse_43" data-name="Ellipse 43" cx="26.304" cy="26.304" r="26.304" transform="translate(116.505 554.98)" fill="#f7b369"/>
    <g id="Group_818" data-name="Group 818" transform="translate(141.321 530.475)">
      <path id="Path_1266" data-name="Path 1266" d="M249.989,19.418a1.489,1.489,0,0,1-1.489-1.489V1.489a1.489,1.489,0,0,1,2.977,0v16.44A1.489,1.489,0,0,1,249.989,19.418Z" transform="translate(-248.5 0)" fill="#f7b369"/>
    </g>
    <g id="Group_819" data-name="Group 819" transform="translate(106.446 544.921)">
      <path id="Path_1267" data-name="Path 1267" d="M85.9,87.386a1.483,1.483,0,0,1-1.052-.436L73.22,75.325a1.488,1.488,0,0,1,2.105-2.105L86.95,84.845A1.489,1.489,0,0,1,85.9,87.386Z" transform="translate(-72.784 -72.784)" fill="#f7b369"/>
    </g>
    <g id="Group_820" data-name="Group 820" transform="translate(92 579.796)">
      <path id="Path_1268" data-name="Path 1268" d="M17.929,251.477H1.489a1.489,1.489,0,0,1,0-2.977h16.44a1.489,1.489,0,0,1,0,2.977Z" transform="translate(0 -248.5)" fill="#f7b369"/>
    </g>
    <g id="Group_821" data-name="Group 821" transform="translate(106.446 603.046)">
      <path id="Path_1269" data-name="Path 1269" d="M74.273,380.246a1.489,1.489,0,0,1-1.053-2.541L84.845,366.08a1.489,1.489,0,0,1,2.105,2.105L75.325,379.811A1.485,1.485,0,0,1,74.273,380.246Z" transform="translate(-72.784 -365.644)" fill="#f7b369"/>
    </g>
    <g id="Group_822" data-name="Group 822" transform="translate(141.321 612.677)">
      <path id="Path_1270" data-name="Path 1270" d="M249.989,433.584A1.489,1.489,0,0,1,248.5,432.1v-16.44a1.489,1.489,0,0,1,2.977,0V432.1A1.489,1.489,0,0,1,249.989,433.584Z" transform="translate(-248.5 -414.167)" fill="#f7b369"/>
    </g>
    <g id="Group_824" data-name="Group 824" transform="translate(174.202 579.796)">
      <path id="Path_1272" data-name="Path 1272" d="M432.1,251.477h-16.44a1.489,1.489,0,0,1,0-2.977H432.1a1.489,1.489,0,0,1,0,2.977Z" transform="translate(-414.167 -248.5)" fill="#f7b369"/>
    </g>
    <g id="Group_825" data-name="Group 825" transform="translate(164.571 544.921)">
      <path id="Path_1273" data-name="Path 1273" d="M367.133,87.386a1.489,1.489,0,0,1-1.052-2.541L377.705,73.22a1.488,1.488,0,1,1,2.105,2.105L368.185,86.95A1.483,1.483,0,0,1,367.133,87.386Z" transform="translate(-365.644 -72.784)" fill="#f7b369"/>
    </g>
    <g id="Group_826" data-name="Group 826" transform="translate(125.592 541.824)">
      <path id="Path_1274" data-name="Path 1274" d="M173.885,67.75a1.489,1.489,0,0,1-1.376-.919l-3.146-7.594a1.489,1.489,0,1,1,2.75-1.139l3.146,7.594a1.489,1.489,0,0,1-1.375,2.059Z" transform="translate(-169.25 -57.178)" fill="#f7b369"/>
    </g>
    <g id="Group_827" data-name="Group 827" transform="translate(103.348 564.067)">
      <path id="Path_1275" data-name="Path 1275" d="M66.261,175.374a1.482,1.482,0,0,1-.569-.114L58.1,172.115a1.489,1.489,0,1,1,1.139-2.75l7.594,3.146a1.489,1.489,0,0,1-.57,2.864Z" transform="translate(-57.178 -169.251)" fill="#f7b369"/>
    </g>
    <g id="Group_828" data-name="Group 828" transform="translate(103.348 592.379)">
      <path id="Path_1276" data-name="Path 1276" d="M58.668,318.02a1.489,1.489,0,0,1-.57-2.864l7.594-3.146a1.489,1.489,0,1,1,1.139,2.75l-7.594,3.146A1.487,1.487,0,0,1,58.668,318.02Z" transform="translate(-57.178 -311.896)" fill="#f7b369"/>
    </g>
    <g id="Group_829" data-name="Group 829" transform="translate(125.592 610.174)">
      <path id="Path_1277" data-name="Path 1277" d="M170.738,412.126a1.489,1.489,0,0,1-1.375-2.059l3.146-7.594a1.489,1.489,0,0,1,2.75,1.139l-3.146,7.594A1.489,1.489,0,0,1,170.738,412.126Z" transform="translate(-169.25 -401.554)" fill="#f7b369"/>
    </g>
    <g id="Group_830" data-name="Group 830" transform="translate(153.903 610.174)">
      <path id="Path_1278" data-name="Path 1278" d="M316.531,412.126a1.489,1.489,0,0,1-1.376-.919l-3.146-7.594a1.489,1.489,0,0,1,2.75-1.139l3.146,7.594a1.489,1.489,0,0,1-1.375,2.059Z" transform="translate(-311.895 -401.554)" fill="#f7b369"/>
    </g>
    <g id="Group_831" data-name="Group 831" transform="translate(171.698 592.379)">
      <path id="Path_1279" data-name="Path 1279" d="M410.637,318.02a1.482,1.482,0,0,1-.569-.114l-7.594-3.146a1.489,1.489,0,0,1,1.139-2.75l7.594,3.146a1.489,1.489,0,0,1-.57,2.864Z" transform="translate(-401.554 -311.896)" fill="#f7b369"/>
    </g>
    <g id="Group_832" data-name="Group 832" transform="translate(171.698 564.068)">
      <path id="Path_1280" data-name="Path 1280" d="M403.044,175.375a1.489,1.489,0,0,1-.57-2.864l7.594-3.146a1.489,1.489,0,1,1,1.139,2.75l-7.594,3.146A1.482,1.482,0,0,1,403.044,175.375Z" transform="translate(-401.554 -169.251)" fill="#f7b369"/>
    </g>
    <g id="Group_833" data-name="Group 833" transform="translate(153.903 541.823)">
      <path id="Path_1281" data-name="Path 1281" d="M313.384,67.75a1.489,1.489,0,0,1-1.375-2.059l3.146-7.594a1.489,1.489,0,0,1,2.751,1.139l-3.146,7.594A1.489,1.489,0,0,1,313.384,67.75Z" transform="translate(-311.896 -57.178)" fill="#f7b369"/>
    </g>
    <rect id="Rectangle_135" data-name="Rectangle 135" width="31.204" height="61.287" transform="translate(292.03 616.071)" fill="#3e659f"/>
    <path id="Path_1103" data-name="Path 1103" d="M203.652,233.9H107.995a6.109,6.109,0,0,1-6.109-6.109V214.668a6.109,6.109,0,0,1,6.109-6.109h95.657a6.109,6.109,0,0,1,6.109,6.109v13.124a6.109,6.109,0,0,1-6.109,6.109" transform="translate(150.728 464.735)" fill="#3e659f"/>
    <path id="Path_1104" data-name="Path 1104" d="M302.8,192.64H25.194A10.391,10.391,0,0,1,14.8,182.249V10.391A10.391,10.391,0,0,1,25.194,0H302.8a10.391,10.391,0,0,1,10.391,10.391V182.249A10.391,10.391,0,0,1,302.8,192.64" transform="translate(143.638 447.755)" fill="#3e659f"/>
    <path id="Path_1105" data-name="Path 1105" d="M287.882,164.089H37.785a8.712,8.712,0,0,1-8.712-8.713V21.754a8.712,8.712,0,0,1,8.712-8.713h250.1a8.713,8.713,0,0,1,8.713,8.713V155.376a8.713,8.713,0,0,1-8.713,8.713" transform="translate(144.799 448.817)" fill="#eef7ff"/>
    <path id="Path_1106" data-name="Path 1106" d="M218.106,46.172H60.415c-3.031,0-5.487-3.082-5.487-6.884S57.385,32.4,60.415,32.4H218.106c3.031,0,5.487,3.082,5.487,6.885s-2.457,6.884-5.487,6.884" transform="translate(146.905 450.393)" fill="#518bc5" opacity="0.3"/>
    <path id="Path_1107" data-name="Path 1107" d="M218.106,67.614H60.415c-3.031,0-5.487-3.082-5.487-6.885s2.457-6.884,5.487-6.884H218.106c3.031,0,5.487,3.082,5.487,6.884s-2.457,6.885-5.487,6.885" transform="translate(146.905 452.139)" fill="#518bc5" opacity="0.3"/>
    <path id="Path_1108" data-name="Path 1108" d="M218.106,89.056H60.415c-3.031,0-5.487-3.082-5.487-6.884s2.457-6.885,5.487-6.885H218.106c3.031,0,5.487,3.083,5.487,6.885s-2.457,6.884-5.487,6.884" transform="translate(146.905 453.884)" fill="#518bc5" opacity="0.3"/>
    <path id="Path_1109" data-name="Path 1109" d="M159.009,164.479a5.808,5.808,0,1,1-5.808-5.808,5.809,5.809,0,0,1,5.808,5.808" transform="translate(154.433 460.674)" fill="#a37b90"/>
    <path id="Path_1113" data-name="Path 1113" d="M63.5,234.74H6.2a6.2,6.2,0,0,1-6.2-6.2v-.607a30.776,30.776,0,0,1,30.776-30.776H38.93A30.775,30.775,0,0,1,69.7,227.932v.607a6.2,6.2,0,0,1-6.2,6.2" transform="translate(142.433 463.807)" fill="#3e659f"/>
    <path id="Path_1114" data-name="Path 1114" d="M32.271,218.245a.557.557,0,0,1-.557-.557V197.576a.557.557,0,1,1,1.114,0v20.112a.557.557,0,0,1-.557.557" transform="translate(145.015 463.796)" fill="#92b9df"/>
    <path id="Path_1115" data-name="Path 1115" d="M38.473,199.827H27.158a2.134,2.134,0,1,1,0-4.268H38.473a2.134,2.134,0,0,1,0,4.268" transform="translate(144.47 463.677)" fill="#92b9df"/>
    <path id="Path_1116" data-name="Path 1116" d="M67.86,216.731H1.661a.556.556,0,1,1,0-1.113h66.2a.556.556,0,1,1,0,1.113" transform="translate(142.522 465.31)" fill="#92b9df"/>
    <path id="Path_1118" data-name="Path 1118" d="M19.6,77.6a.557.557,0,0,1-.557-.557V13.084a.557.557,0,0,1,1.114,0V77.042a.557.557,0,0,1-.557.557" transform="translate(143.983 448.775)" fill="#92b9df"/>
    <path id="Path_1125" data-name="Path 1125" d="M140.943,137.932H60.561a5.632,5.632,0,0,1-5.633-5.632V109.134a5.633,5.633,0,0,1,5.633-5.633h80.382a5.633,5.633,0,0,1,5.633,5.633V132.3a5.632,5.632,0,0,1-5.633,5.632" transform="translate(146.905 456.182)" fill="#bed7ee"/>
    <path id="Path_1353" data-name="Path 1353" d="M140.943,137.932H60.561a5.632,5.632,0,0,1-5.633-5.632V109.134a5.633,5.633,0,0,1,5.633-5.633h80.382a5.633,5.633,0,0,1,5.633,5.633V132.3a5.632,5.632,0,0,1-5.633,5.632" transform="translate(223.922 456.182)" fill="#bed7ee"/>
    <g id="notification" transform="translate(379.773 482.314)">
      <path id="Path_1350" data-name="Path 1350" d="M145.114,349.889a8.557,8.557,0,1,1-8.557-8.557A8.557,8.557,0,0,1,145.114,349.889Zm0,0" transform="translate(-115.165 -310.226)" fill="#bebebe"/>
      <path id="Path_1351" data-name="Path 1351" d="M36.384,63.891A14.94,14.94,0,0,1,24.8,43.074,14.924,14.924,0,0,0,6.418,57.643v5.964A14.344,14.344,0,0,1,1.309,74.587a3.743,3.743,0,0,0,2.434,6.587h35.3a3.744,3.744,0,0,0,2.413-6.606,14.324,14.324,0,0,1-5.07-10.677Zm0,0" transform="translate(0 -41.511)" fill="#dcdcdc"/>
      <path id="Path_1354" data-name="Path 1354" d="M6.4,63.891A14.985,14.985,0,0,0,19.253,49.086a14.877,14.877,0,0,0-1.268-6.011A14.924,14.924,0,0,1,36.367,57.642v5.964a14.344,14.344,0,0,0,5.109,10.981,3.743,3.743,0,0,1-2.434,6.587H3.744a3.744,3.744,0,0,1-2.413-6.606A14.324,14.324,0,0,0,6.4,63.891Zm0,0" transform="translate(0 -41.512)" fill="#dcdcdc"/>
      <path id="Path_1352" data-name="Path 1352" d="M294.447,8.557A8.557,8.557,0,1,1,285.889,0,8.557,8.557,0,0,1,294.447,8.557Zm0,0" transform="translate(-250.851 0)" fill="#f7b369"/>
    </g>
  </g>
</svg>
