<svg xmlns="http://www.w3.org/2000/svg" width="430.163" height="98.271" viewBox="0 0 430.163 98.271">
  <g id="logo-2" transform="translate(-282.837 -254.126)">
    <g id="Union_1" data-name="Union 1" transform="translate(283.033 254.126)" fill="#fff">
      <path d="M 380.3859252929688 97.27011108398438 C 374.3128662109375 97.27011108398438 368.3894653320312 96.17394256591797 362.7803039550781 94.01205444335938 C 357.3623657226562 91.92388153076172 352.4057006835938 88.91121673583984 348.0480346679688 85.05766296386719 L 347.3855895996094 84.47183227539062 L 346.72314453125 85.05766296386719 C 342.365478515625 88.91121673583984 337.4088134765625 91.92388153076172 331.9908752441406 94.01205444335938 C 326.3816833496094 96.17394256591797 320.4583740234375 97.27011108398438 314.3853149414062 97.27011108398438 C 308.3124694824219 97.27011108398438 302.3893127441406 96.17394256591797 296.7802429199219 94.01210784912109 C 291.3624267578125 91.92394256591797 286.4059143066406 88.91127014160156 282.0483093261719 85.05771636962891 L 281.3858642578125 84.47188568115234 L 280.7234191894531 85.05771636962891 C 276.3657531738281 88.91127014160156 271.4090881347656 91.92394256591797 265.9911499023438 94.01210784912109 C 260.3819580078125 96.17394256591797 254.4586334228516 97.27011108398438 248.3855895996094 97.27011108398438 C 236.1949768066406 97.27011108398438 224.5365295410156 92.77699279785156 215.5579223632812 84.61849975585938 L 214.8854217529297 84.00743865966797 L 214.2129211425781 84.61849975585938 C 205.2344665527344 92.77699279785156 193.5763092041016 97.27011108398438 181.3860321044922 97.27011108398438 C 175.3129730224609 97.27011108398438 169.3895874023438 96.17394256591797 163.7804107666016 94.01205444335938 C 158.3624725341797 91.92388153076172 153.4058074951172 88.91121673583984 149.0481414794922 85.05766296386719 L 148.3856964111328 84.47183227539062 L 147.7232513427734 85.05766296386719 C 143.3655853271484 88.91121673583984 138.4089202880859 91.92388153076172 132.990966796875 94.01205444335938 C 127.3818054199219 96.17394256591797 121.4584732055664 97.27011108398438 115.3854141235352 97.27011108398438 C 109.3125839233398 97.27011108398438 103.3893585205078 96.17394256591797 97.78035736083984 94.01210784912109 C 92.36252593994141 91.92394256591797 87.40597534179688 88.91127014160156 83.04836273193359 85.05771636962891 L 82.38591766357422 84.47188568115234 L 81.72347259521484 85.05771636962891 C 77.36580657958984 88.91127014160156 72.40919494628906 91.92394256591797 66.99124908447266 94.01210784912109 C 61.38208389282227 96.17394256591797 55.45874786376953 97.27011108398438 49.38569259643555 97.27011108398438 C 42.82558441162109 97.27011108398438 36.46236038208008 95.99710845947266 30.47274971008301 93.48654937744141 C 24.68752670288086 91.06160736083984 19.49180603027344 87.59011077880859 15.029860496521 83.16832733154297 C 10.56863880157471 78.74721527099609 7.0661940574646 73.59938812255859 4.619916439056396 67.86782836914062 C 2.087749719619751 61.93494033813477 0.8038051724433899 55.63216400146484 0.8038051724433899 49.13460540771484 C 0.8038051724433899 42.63727569580078 2.087749719619751 36.33466339111328 4.619916439056396 30.40194129943848 C 7.0661940574646 24.67044067382812 10.56863880157471 19.52271842956543 15.029860496521 15.10166263580322 C 19.49180603027344 10.67994022369385 24.68752670288086 7.208440780639648 30.47274971008301 4.783551692962646 C 36.46236038208008 2.272996187210083 42.82563781738281 0.9999961853027344 49.38569259643555 0.9999961853027344 C 55.45874786376953 0.9999961853027344 61.38213729858398 2.096162796020508 66.99124908447266 4.257940769195557 C 72.40919494628906 6.346107482910156 77.36580657958984 9.358774185180664 81.72347259521484 13.21227359771729 L 82.38591766357422 13.7981071472168 L 83.04836273193359 13.21227359771729 C 87.40597534179688 9.358774185180664 92.36252593994141 6.346107482910156 97.78035736083984 4.257940769195557 C 103.3893585205078 2.096162796020508 109.3125839233398 0.9999961853027344 115.3854141235352 0.9999961853027344 C 121.4584732055664 0.9999961853027344 127.3818054199219 2.096162796020508 132.990966796875 4.257996082305908 C 138.4089202880859 6.346162796020508 143.3655853271484 9.358829498291016 147.7232513427734 13.21232986450195 L 148.3856964111328 13.7981071472168 L 149.0481414794922 13.21232986450195 C 153.4058074951172 9.358829498291016 158.3624725341797 6.346162796020508 163.7804107666016 4.257996082305908 C 169.3895874023438 2.096162796020508 175.3129730224609 0.9999961853027344 181.3860321044922 0.9999961853027344 C 193.5763092041016 0.9999961853027344 205.2344207763672 5.493051528930664 214.2129211425781 13.65155220031738 L 214.8854217529297 14.26260757446289 L 215.5579223632812 13.65155220031738 C 224.5365753173828 5.493051528930664 236.1949768066406 0.9999961853027344 248.3855895996094 0.9999961853027344 C 254.4586334228516 0.9999961853027344 260.3820190429688 2.096162796020508 265.9911499023438 4.257940769195557 C 271.4090881347656 6.346107482910156 276.3657531738281 9.358774185180664 280.7234191894531 13.21227359771729 L 281.3858642578125 13.7981071472168 L 282.0483093261719 13.21227359771729 C 286.4059143066406 9.358774185180664 291.3624267578125 6.346107482910156 296.7802429199219 4.257940769195557 C 302.3892517089844 2.096162796020508 308.3124694824219 0.9999961853027344 314.3853149414062 0.9999961853027344 C 320.4583740234375 0.9999961853027344 326.3816833496094 2.096162796020508 331.9908752441406 4.257996082305908 C 337.4088134765625 6.346162796020508 342.365478515625 9.358829498291016 346.72314453125 13.21232986450195 L 347.3855895996094 13.7981071472168 L 348.0480346679688 13.21232986450195 C 352.4057006835938 9.358829498291016 357.3623657226562 6.346162796020508 362.7803039550781 4.257996082305908 C 368.3894653320312 2.096162796020508 374.3128662109375 0.9999961853027344 380.3859252929688 0.9999961853027344 C 386.9459838867188 0.9999961853027344 393.3092041015625 2.272996187210083 399.2987365722656 4.783551692962646 C 405.0838623046875 7.208440780639648 410.2794799804688 10.67994022369385 414.7413024902344 15.10166263580322 C 419.2024230957031 19.52266311645508 422.7047424316406 24.67044067382812 425.1509094238281 30.40194129943848 C 427.6830139160156 36.33466339111328 428.9669189453125 42.6372184753418 428.9669189453125 49.13460540771484 C 428.9669189453125 55.63221740722656 427.6830139160156 61.93494033813477 425.1509094238281 67.86782836914062 C 422.7047424316406 73.59944152832031 419.2024230957031 78.74727630615234 414.7412414550781 83.16838836669922 C 410.2794799804688 87.59011077880859 405.0838623046875 91.06160736083984 399.2987365722656 93.48654937744141 C 393.3092041015625 95.99710845947266 386.9459838867188 97.27011108398438 380.3859252929688 97.27011108398438 Z" stroke="none"/>
      <path d="M 380.3859252929688 96.27011108398438 C 386.8125305175781 96.27011108398438 393.0456848144531 95.02327728271484 398.9121398925781 92.56427764892578 C 404.578369140625 90.18921661376953 409.6672058105469 86.78899383544922 414.037353515625 82.45805358886719 C 418.40625 78.12838745117188 421.8359680175781 73.08744049072266 424.231201171875 67.47527313232422 C 426.7100219726562 61.66721725463867 427.9669189453125 55.49649429321289 427.9669189453125 49.13460540771484 C 427.9669189453125 42.77294158935547 426.7100219726562 36.60238647460938 424.231201171875 30.79444122314453 C 421.8359680175781 25.1823844909668 418.4063110351562 20.14155197143555 414.037353515625 15.81194019317627 C 409.6672058105469 11.48105144500732 404.578369140625 8.080829620361328 398.9122009277344 5.705829620361328 C 393.0456848144531 3.246829509735107 386.8125305175781 1.999996185302734 380.3859252929688 1.999996185302734 C 374.4363098144531 1.999996185302734 368.6339111328125 3.073662757873535 363.1399230957031 5.191107273101807 C 357.8334045410156 7.236273765563965 352.9786987304688 10.18705177307129 348.7104797363281 13.96144104003906 L 347.3855895996094 15.13305187225342 L 346.0606994628906 13.96144104003906 C 341.79248046875 10.18705177307129 336.937744140625 7.236273765563965 331.6312561035156 5.191107273101807 C 326.1372375488281 3.073662757873535 320.3349304199219 1.999996185302734 314.3853149414062 1.999996185302734 C 308.4359130859375 1.999996185302734 302.6336975097656 3.073607206344604 297.1399230957031 5.191051959991455 C 291.8335266113281 7.236218452453613 286.9788513183594 10.18699645996094 282.7107543945312 13.96138477325439 L 281.3858642578125 15.13299655914307 L 280.0609741210938 13.96138477325439 C 275.7928161621094 10.18699645996094 270.9380187988281 7.236218452453613 265.6315307617188 5.191051959991455 C 260.1375732421875 3.073607206344604 254.3351898193359 1.999996185302734 248.3855895996094 1.999996185302734 C 236.4441986083984 1.999996185302734 225.0246429443359 6.400774002075195 216.2304229736328 14.39166259765625 L 214.8854217529297 15.61377429962158 L 213.5404205322266 14.3916072845459 C 204.7463531494141 6.400774002075195 193.3270874023438 1.999996185302734 181.3860321044922 1.999996185302734 C 175.4364166259766 1.999996185302734 169.634033203125 3.073662757873535 164.1400299072266 5.191107273101807 C 158.8335266113281 7.236273765563965 153.9788055419922 10.18705177307129 149.7105865478516 13.96144104003906 L 148.3856964111328 15.13305187225342 L 147.0608062744141 13.96144104003906 C 142.7925872802734 10.18705177307129 137.9378662109375 7.236273765563965 132.6313629150391 5.191107273101807 C 127.1373596191406 3.073662757873535 121.3350296020508 1.999996185302734 115.3854141235352 1.999996185302734 C 109.4360275268555 1.999996185302734 103.6338043212891 3.073607206344604 98.13996887207031 5.191051959991455 C 92.83364105224609 7.236218452453613 87.97897338867188 10.18699645996094 83.71080780029297 13.96138477325439 L 82.38591766357422 15.13299655914307 L 81.06102752685547 13.96138477325439 C 76.79286193847656 10.18699645996094 71.93814086914062 7.236218452453613 66.63163757324219 5.191051959991455 C 61.1376953125 3.073607206344604 55.33530426025391 1.999996185302734 49.38569259643555 1.999996185302734 C 42.95908355712891 1.999996185302734 36.72586059570312 3.246829509735107 30.85930442810059 5.705829620361328 C 25.19302749633789 8.080829620361328 20.10408210754395 11.48105144500732 15.73374938964844 15.81194019317627 C 11.36474990844727 20.1416072845459 7.934971809387207 25.18243980407715 5.539638519287109 30.79449653625488 C 3.060749530792236 36.60243988037109 1.803805112838745 42.77294158935547 1.803805112838745 49.13460540771484 C 1.803805112838745 55.49649429321289 3.060749530792236 61.66716384887695 5.539638519287109 67.47527313232422 C 7.934971809387207 73.08744049072266 11.36474990844727 78.12832641601562 15.73380470275879 82.45805358886719 C 20.10408210754395 86.78899383544922 25.19302749633789 90.18921661376953 30.85930442810059 92.56427764892578 C 36.72586059570312 95.02327728271484 42.95902633666992 96.27011108398438 49.38569259643555 96.27011108398438 C 55.33530426025391 96.27011108398438 61.1376953125 95.19644165039062 66.63163757324219 93.07899475097656 C 71.93807983398438 91.03382873535156 76.79286193847656 88.08299255371094 81.06102752685547 84.30860900878906 L 82.38591766357422 83.13699340820312 L 83.71080780029297 84.30860900878906 C 87.97897338867188 88.08305358886719 92.83364105224609 91.03382873535156 98.13996887207031 93.07899475097656 C 103.6338043212891 95.19644165039062 109.4360275268555 96.27011108398438 115.3854141235352 96.27011108398438 C 121.3350296020508 96.27011108398438 127.1373596191406 95.19644165039062 132.6313629150391 93.07899475097656 C 137.9378051757812 91.03377532958984 142.7925872802734 88.08299255371094 147.0608062744141 84.30854797363281 L 148.3856964111328 83.13694000244141 L 149.7105865478516 84.30854797363281 C 153.9788055419922 88.08299255371094 158.8335876464844 91.03377532958984 164.1400299072266 93.07899475097656 C 169.634033203125 95.19644165039062 175.4364166259766 96.27011108398438 181.3860321044922 96.27011108398438 C 193.3270874023438 96.27011108398438 204.7464141845703 91.86933135986328 213.5404205322266 83.87844085693359 L 214.8854217529297 82.65627288818359 L 216.2304229736328 83.87838745117188 C 225.0245819091797 91.86933135986328 236.4441986083984 96.27011108398438 248.3855895996094 96.27011108398438 C 254.3351898193359 96.27011108398438 260.1375732421875 95.19644165039062 265.6315307617188 93.07899475097656 C 270.9380187988281 91.03382873535156 275.7927551269531 88.08299255371094 280.0609741210938 84.30860900878906 L 281.3858642578125 83.13699340820312 L 282.7107543945312 84.30860900878906 C 286.9788513183594 88.08305358886719 291.8335266113281 91.03382873535156 297.1399230957031 93.07899475097656 C 302.6337585449219 95.19644165039062 308.4359130859375 96.27011108398438 314.3853149414062 96.27011108398438 C 320.3349304199219 96.27011108398438 326.1372375488281 95.19644165039062 331.6312561035156 93.07899475097656 C 336.9376831054688 91.03377532958984 341.79248046875 88.08299255371094 346.0606994628906 84.30854797363281 L 347.3855895996094 83.13694000244141 L 348.7104797363281 84.30854797363281 C 352.9786987304688 88.08299255371094 357.8334655761719 91.03377532958984 363.1399841308594 93.07899475097656 C 368.6339111328125 95.19644165039062 374.4363098144531 96.27011108398438 380.3859252929688 96.27011108398438 M 380.3859252929688 98.27011108398438 C 367.7137451171875 98.27011108398438 356.1509094238281 93.55805206298828 347.3855895996094 85.80677032470703 C 338.6202392578125 93.55805206298828 327.0574645996094 98.27011108398438 314.3853149414062 98.27011108398438 C 301.7135925292969 98.27011108398438 290.1510314941406 93.55810546875 281.3858642578125 85.80683135986328 C 272.6205139160156 93.55810546875 261.0577392578125 98.27011108398438 248.3855895996094 98.27011108398438 C 235.4710845947266 98.27011108398438 223.7087554931641 93.37599945068359 214.8854217529297 85.35860443115234 C 206.062255859375 93.37599945068359 194.3001403808594 98.27011108398438 181.3860321044922 98.27011108398438 C 168.7138061523438 98.27011108398438 157.1510314941406 93.55805206298828 148.3856964111328 85.80677032470703 C 139.620361328125 93.55805206298828 128.0575866699219 98.27011108398438 115.3854141235352 98.27011108398438 C 102.7136383056641 98.27011108398438 91.15113830566406 93.55810546875 82.38591766357422 85.80683135986328 C 73.62063598632812 93.55810546875 62.057861328125 98.27011108398438 49.38569259643555 98.27011108398438 C 22.00230598449707 98.27011108398438 -0.1961948424577713 76.27138519287109 -0.1961948424577713 49.13460540771484 C -0.1961948424577713 21.99871826171875 22.00230598449707 -3.82826056011254e-06 49.38569259643555 -3.82826056011254e-06 C 62.057861328125 -3.82826056011254e-06 73.62063598632812 4.711940765380859 82.38591766357422 12.46316242218018 C 91.15113830566406 4.711940765380859 102.7136383056641 -3.82826056011254e-06 115.3854141235352 -3.82826056011254e-06 C 128.0575866699219 -3.82826056011254e-06 139.620361328125 4.711996078491211 148.3856964111328 12.46321868896484 C 157.1510314941406 4.711996078491211 168.7138061523438 -3.82826056011254e-06 181.3860321044922 -3.82826056011254e-06 C 194.3001403808594 -3.82826056011254e-06 206.062255859375 4.894107341766357 214.8854217529297 12.9114408493042 C 223.7087554931641 4.894107341766357 235.4710845947266 -3.82826056011254e-06 248.3855895996094 -3.82826056011254e-06 C 261.0577392578125 -3.82826056011254e-06 272.6205139160156 4.711940765380859 281.3858642578125 12.46316242218018 C 290.1510314941406 4.711940765380859 301.7135925292969 -3.82826056011254e-06 314.3853149414062 -3.82826056011254e-06 C 327.0574645996094 -3.82826056011254e-06 338.6202392578125 4.711996078491211 347.3855895996094 12.46321868896484 C 356.1509094238281 4.711996078491211 367.7137451171875 -3.82826056011254e-06 380.3859252929688 -3.82826056011254e-06 C 407.7693176269531 -3.82826056011254e-06 429.9669189453125 21.99871826171875 429.9669189453125 49.13460540771484 C 429.9669189453125 76.27138519287109 407.7693176269531 98.27011108398438 380.3859252929688 98.27011108398438 Z" stroke="none" fill="#bed7ee"/>
    </g>
    <text id="資訊服務中心" transform="translate(307.601 318.971)" fill="#f3704e" font-size="52" font-family="GenJyuuGothic-Bold, Gen Jyuu Gothic" font-weight="700" letter-spacing="0.271em" opacity="0.92"><tspan x="0" y="0">資訊服務</tspan><tspan y="0" fill="#3e659f">中心</tspan></text>
    <path id="Subtraction_1" data-name="Subtraction 1" d="M381.228,54.54a49.661,49.661,0,0,1-19.26-3.845,49.448,49.448,0,0,1-15.74-10.488A49.447,49.447,0,0,1,330.488,50.7a49.661,49.661,0,0,1-19.26,3.845,49.756,49.756,0,0,1-17.965-3.325,49.5,49.5,0,0,1-15.035-9.138,49.5,49.5,0,0,1-15.035,9.138,50.2,50.2,0,0,1-35.682.1A49.484,49.484,0,0,1,212.62,42.42a49.5,49.5,0,0,1-14.891,8.891,50.21,50.21,0,0,1-35.433,0,49.486,49.486,0,0,1-14.89-8.891,49.5,49.5,0,0,1-14.891,8.891,50.213,50.213,0,0,1-35.434,0A49.486,49.486,0,0,1,82.19,42.42,49.5,49.5,0,0,1,67.3,51.311a49.774,49.774,0,0,1-17.716,3.23,49.66,49.66,0,0,1-19.3-3.861,49.444,49.444,0,0,1-15.76-10.53A48.947,48.947,0,0,1,3.9,24.53,48.447,48.447,0,0,1,0,5.4C0,3.9.07,2.38.208.888,3.358,25.312,24.5,43.73,49.387,43.73a49.63,49.63,0,0,0,34-13.372,49.626,49.626,0,0,0,34,13.372,49.694,49.694,0,0,0,33.5-12.911,49.7,49.7,0,0,0,33.5,12.911,49.7,49.7,0,0,0,33.5-12.911,49.7,49.7,0,0,0,33.5,12.911,49.629,49.629,0,0,0,34-13.372,49.629,49.629,0,0,0,34,13.372,49.7,49.7,0,0,0,33.5-12.911,49.7,49.7,0,0,0,33.5,12.911,49.483,49.483,0,0,0,41.932-22.9,48.76,48.76,0,0,1-7.025,13.529,49.664,49.664,0,0,1-24.366,17.67A49.935,49.935,0,0,1,381.228,54.54Z" transform="translate(283.033 297.857)" fill="#bed7ee"/>
  </g>
</svg>
