<svg xmlns="http://www.w3.org/2000/svg" width="514.444" height="98.27" viewBox="0 0 514.444 98.27">
  <g id="logo-2" transform="translate(-698.043 -234.159)">
    <g id="Union_1" data-name="Union 1" transform="translate(698.044 234.159)" fill="#fff">
      <path d="M 245.2276000976562 97.26982879638672 C 239.2436370849609 97.26982879638672 233.402099609375 96.20513153076172 227.8652496337891 94.10536193847656 C 222.5165100097656 92.076904296875 217.6074371337891 89.14601898193359 213.2743682861328 85.39405822753906 L 212.6197814941406 84.82728576660156 L 211.9652099609375 85.39405822753906 C 207.6320953369141 89.14601898193359 202.7230529785156 92.076904296875 197.3743591308594 94.10536193847656 C 191.8375549316406 96.20513153076172 185.9961395263672 97.26982879638672 180.0123291015625 97.26982879638672 C 174.0283660888672 97.26982879638672 168.1867828369141 96.20513153076172 162.6498565673828 94.10528564453125 C 157.3010864257812 92.07678985595703 152.3920135498047 89.14586639404297 148.0588989257812 85.39390563964844 L 147.4043273925781 84.82713317871094 L 146.7497100830078 85.39394378662109 C 142.4167022705078 89.14586639404297 137.5077056884766 92.07678985595703 132.1590576171875 94.10528564453125 C 126.6222457885742 96.20513153076172 120.7808227539062 97.26982879638672 114.7970581054688 97.26982879638672 C 108.8130950927734 97.26982879638672 102.9715576171875 96.20513153076172 97.43459320068359 94.10528564453125 C 92.08582305908203 92.07678985595703 87.17675018310547 89.14586639404297 82.84367370605469 85.39394378662109 L 82.18909454345703 84.82709503173828 L 81.53447723388672 85.39394378662109 C 77.20147705078125 89.14586639404297 72.29248046875 92.07678985595703 66.94382476806641 94.10528564453125 C 61.40697860717773 96.20513153076172 55.56559371948242 97.26982879638672 49.58182525634766 97.26982879638672 C 43.02170944213867 97.26982879638672 36.65847778320312 95.99686431884766 30.66882514953613 93.486328125 C 24.88359260559082 91.06143951416016 19.68790054321289 87.58994293212891 15.22601699829102 83.16828918457031 C 10.76474761962891 78.74728393554688 7.262362480163574 73.59951782226562 4.816093444824219 67.86805725097656 C 2.283939599990845 61.93532562255859 1.000016570091248 55.63270950317383 1.000016570091248 49.13528823852539 C 1.000016570091248 42.63771057128906 2.283939599990845 36.33494186401367 4.816093444824219 30.40205764770508 C 7.262362480163574 24.67051887512207 10.76474761962891 19.52267265319824 15.22601699829102 15.10163402557373 C 19.68790054321289 10.67994117736816 24.88359260559082 7.208441257476807 30.66882514953613 4.783556938171387 C 36.65843963623047 2.272979974746704 43.02170944213867 1.000018358230591 49.58182525634766 1.000018358230591 C 55.56559371948242 1.000018358230591 61.40701675415039 2.06471061706543 66.94382476806641 4.164556980133057 C 72.29248046875 6.193056583404541 77.20151519775391 9.123979568481445 81.53447723388672 12.87594127655029 L 82.18909454345703 13.44278717041016 L 82.84371185302734 12.87594127655029 C 87.17671203613281 9.123979568481445 92.08582305908203 6.193056583404541 97.43459320068359 4.164556980133057 C 102.9715194702148 2.06471061706543 108.8130950927734 1.000018358230591 114.7970581054688 1.000018358230591 C 120.7808227539062 1.000018358230591 126.6222457885742 2.06471061706543 132.1590576171875 4.164556980133057 C 137.5077056884766 6.193056583404541 142.416748046875 9.123979568481445 146.7497100830078 12.87594127655029 L 147.4043273925781 13.44278717041016 L 148.0589447021484 12.87594127655029 C 152.3919830322266 9.123979568481445 157.3010864257812 6.193056583404541 162.6498565673828 4.164556980133057 C 168.1867828369141 2.06471061706543 174.0283660888672 1.000018358230591 180.0123291015625 1.000018358230591 C 185.9961395263672 1.000018358230591 191.8375549316406 2.06471061706543 197.3743591308594 4.164479732513428 C 202.7230529785156 6.192941188812256 207.6321258544922 9.12386417388916 211.9652099609375 12.87578773498535 L 212.6197814941406 13.44259548187256 L 213.2743988037109 12.87578773498535 C 217.6074371337891 9.123826026916504 222.5165100097656 6.192941188812256 227.8652496337891 4.164479732513428 C 233.4020538330078 2.06471061706543 239.2435913085938 1.000018358230591 245.2276000976562 1.000018358230591 C 251.7877044677734 1.000018358230591 258.1509704589844 2.272979974746704 264.140625 4.783556938171387 C 269.9258728027344 7.208441257476807 275.1215515136719 10.67994117736816 279.5834350585938 15.10163402557373 C 284.0447082519531 19.52267265319824 287.5470886230469 24.67051887512207 289.9933776855469 30.40205764770508 C 292.5255126953125 36.33494186401367 293.8094482421875 42.63767242431641 293.8094482421875 49.13528823852539 C 293.8094482421875 55.63270950317383 292.5255126953125 61.93532562255859 289.9933776855469 67.86805725097656 C 287.5470886230469 73.59951782226562 284.0447082519531 78.74728393554688 279.5834350585938 83.16828918457031 C 275.1215515136719 87.58994293212891 269.9258117675781 91.06143951416016 264.140625 93.486328125 C 258.1509704589844 95.99686431884766 251.7877044677734 97.26982879638672 245.2276000976562 97.26982879638672 Z" stroke="none"/>
      <path d="M 245.2276000976562 96.26982879638672 C 251.6542816162109 96.26982879638672 257.8874816894531 95.02301788330078 263.7540588378906 92.56405639648438 C 269.4203186035156 90.18901824951172 274.50927734375 86.78886413574219 278.8795471191406 82.45797729492188 C 283.2485656738281 78.12836456298828 286.6783142089844 73.08755493164062 289.0736389160156 67.47551727294922 C 291.5525207519531 61.66755676269531 292.8094482421875 55.49701690673828 292.8094482421875 49.13528823852539 C 292.8094482421875 42.77336502075195 291.5525207519531 36.6026725769043 289.0736389160156 30.79463386535645 C 286.6783142089844 25.18247985839844 283.2485656738281 20.1415958404541 278.8795471191406 15.81190299987793 C 274.50927734375 11.48101806640625 269.4203186035156 8.080825805664062 263.7540588378906 5.705787658691406 C 257.8874816894531 3.246825933456421 251.6542816162109 2.000018358230591 245.2276000976562 2.000018358230591 C 239.3652038574219 2.000018358230591 233.6429748535156 3.042825937271118 228.2198181152344 5.099518299102783 C 222.9811706542969 7.08621072769165 218.1730499267578 9.956864356994629 213.9289855957031 13.63178730010986 L 212.6197814941406 14.76540279388428 L 211.3105926513672 13.63178730010986 C 207.0665130615234 9.956902503967285 202.2584075927734 7.08621072769165 197.0197448730469 5.099518299102783 C 191.5966644287109 3.042825937271118 185.8745574951172 2.000018358230591 180.0123291015625 2.000018358230591 C 174.1499328613281 2.000018358230591 168.4276733398438 3.042864561080933 163.0044708251953 5.099595069885254 C 157.7657928466797 7.086326122283936 152.9575958251953 9.95701789855957 148.7135162353516 13.63194179534912 L 147.4043273925781 14.76555633544922 L 146.0951385498047 13.63194179534912 C 141.8511352539062 9.95701789855957 137.0430603027344 7.086326122283936 131.804443359375 5.099556922912598 C 126.3813629150391 3.042864561080933 120.6592483520508 2.000018358230591 114.7970581054688 2.000018358230591 C 108.9347076416016 2.000018358230591 103.2124404907227 3.042864561080933 97.78920745849609 5.099595069885254 C 92.55047607421875 7.086326122283936 87.74232482910156 9.95701789855957 83.49828338623047 13.63194179534912 L 82.18909454345703 14.76555633544922 L 80.87989807128906 13.63194179534912 C 76.63590240478516 9.95701789855957 71.82782745361328 7.086326122283936 66.58921051025391 5.099556922912598 C 61.16609191894531 3.042864561080933 55.44397735595703 2.000018358230591 49.58182525634766 2.000018358230591 C 43.15513229370117 2.000018358230591 36.92193984985352 3.246825933456421 31.05540084838867 5.705787658691406 C 25.38913154602051 8.080825805664062 20.3001708984375 11.48101806640625 15.92990112304688 15.81190299987793 C 11.5609016418457 20.1415958404541 8.131132125854492 25.18247985839844 5.735824108123779 30.79463386535645 C 3.256939649581909 36.6026725769043 2.000016450881958 42.77336502075195 2.000016450881958 49.13528823852539 C 2.000016450881958 55.49701690673828 3.256939649581909 61.66755676269531 5.735824108123779 67.47551727294922 C 8.131132125854492 73.08755493164062 11.5609016418457 78.12836456298828 15.92990112304688 82.45797729492188 C 20.3001708984375 86.78886413574219 25.38913154602051 90.18901824951172 31.05540084838867 92.56405639648438 C 36.92197799682617 95.02301788330078 43.15517044067383 96.26982879638672 49.58182525634766 96.26982879638672 C 55.44397735595703 96.26982879638672 61.16609191894531 95.22698211669922 66.58921051025391 93.17024993896484 C 71.82778930664062 91.18351745605469 76.63590240478516 88.31282806396484 80.87989807128906 84.637939453125 L 82.18909454345703 83.50432586669922 L 83.49828338623047 84.637939453125 C 87.74232482910156 88.31282806396484 92.55047607421875 91.18351745605469 97.78920745849609 93.17024993896484 C 103.2124404907227 95.22698211669922 108.9347076416016 96.26982879638672 114.7970581054688 96.26982879638672 C 120.6592102050781 96.26982879638672 126.3813247680664 95.22698211669922 131.804443359375 93.17024993896484 C 137.0430145263672 91.18351745605469 141.8510894775391 88.31282806396484 146.0951385498047 84.637939453125 L 147.4043273925781 83.50432586669922 L 148.7135162353516 84.637939453125 C 152.9575958251953 88.31282806396484 157.7657928466797 91.18351745605469 163.0044708251953 93.17024993896484 C 168.4277038574219 95.22698211669922 174.1499786376953 96.26982879638672 180.0123291015625 96.26982879638672 C 185.87451171875 96.26982879638672 191.5966339111328 95.22702026367188 197.0197448730469 93.17032623291016 C 202.2583618164062 91.18363189697266 207.0665130615234 88.31298065185547 211.3105926513672 84.63809204101562 L 212.6197814941406 83.50447845458984 L 213.9289855957031 84.63809204101562 C 218.1730499267578 88.31298065185547 222.9812164306641 91.18363189697266 228.2198181152344 93.17032623291016 C 233.6429748535156 95.22702026367188 239.3652038574219 96.26982879638672 245.2276000976562 96.26982879638672 M 245.2276000976562 98.26982879638672 C 232.7425537109375 98.26982879638672 221.336669921875 93.69786071777344 212.6197814941406 86.15005493164062 C 203.9028625488281 93.69786071777344 192.4969787597656 98.26982879638672 180.0123291015625 98.26982879638672 C 167.5272827148438 98.26982879638672 156.1212158203125 93.69770812988281 147.4043273925781 86.14990234375 C 138.6875915527344 93.69770812988281 127.2817077636719 98.26982879638672 114.7970581054688 98.26982879638672 C 102.3120574951172 98.26982879638672 90.90589904785156 93.69770812988281 82.18909454345703 86.14990234375 C 73.47236633300781 93.69770812988281 62.06644058227539 98.26982879638672 49.58182525634766 98.26982879638672 C 22.19832420349121 98.26982879638672 1.655461164773442e-05 76.27140045166016 1.655461164773442e-05 49.13528823852539 C 1.655461164773442e-05 21.99840354919434 22.19832420349121 1.833871647249907e-05 49.58182525634766 1.833871647249907e-05 C 62.06644058227539 1.833871647249907e-05 73.47236633300781 4.572095394134521 82.18909454345703 12.11997985839844 C 90.90589904785156 4.572095394134521 102.3120574951172 1.833871647249907e-05 114.7970581054688 1.833871647249907e-05 C 127.2817077636719 1.833871647249907e-05 138.6875915527344 4.572095394134521 147.4043273925781 12.11997985839844 C 156.1212158203125 4.572095394134521 167.5272827148438 1.833871647249907e-05 180.0123291015625 1.833871647249907e-05 C 192.4969787597656 1.833871647249907e-05 203.9028625488281 4.571941375732422 212.6197814941406 12.1198263168335 C 221.336669921875 4.571941375732422 232.7425537109375 1.833871647249907e-05 245.2276000976562 1.833871647249907e-05 C 272.6111450195312 1.833871647249907e-05 294.8094482421875 21.99840354919434 294.8094482421875 49.13528823852539 C 294.8094482421875 76.27140045166016 272.6111450195312 98.26982879638672 245.2276000976562 98.26982879638672 Z" stroke="none" fill="#bed7ee"/>
    </g>
    <path id="Path_1738" data-name="Path 1738" d="M24.68-19.449h-.254a2.758,2.758,0,0,1-1.777-.66,2.731,2.731,0,0,1-1.016-1.93q0-.152,0-.3a2.565,2.565,0,0,1,.66-1.727,2.574,2.574,0,0,1,1.879-.914,7.423,7.423,0,0,0,.914-.051.667.667,0,0,0,.559-.355,70.719,70.719,0,0,0,2.336-6.754.207.207,0,0,0-.051-.229.313.313,0,0,0-.254-.127H23.816a2.636,2.636,0,0,1-1.93-.812,2.665,2.665,0,0,1-.812-1.955,2.665,2.665,0,0,1,.813-1.955,2.636,2.636,0,0,1,1.93-.812h7.465q.406,0,.406-.355v-2.641a2.9,2.9,0,0,1,.863-2.133,2.9,2.9,0,0,1,2.133-.863h.3a2.922,2.922,0,0,1,2.107.863,2.855,2.855,0,0,1,.889,2.133v2.641a.314.314,0,0,0,.355.355h8.48a2.636,2.636,0,0,1,1.93.813,2.665,2.665,0,0,1,.813,1.955,2.665,2.665,0,0,1-.812,1.955,2.636,2.636,0,0,1-1.93.813H35.395a.557.557,0,0,0-.559.355q-1.473,3.352-2.895,6.3a.263.263,0,0,0,.025.254.22.22,0,0,0,.178.1q2.742-.2,7.871-.609a.2.2,0,0,0,.2-.1.166.166,0,0,0-.051-.2l-.508-.812a2.156,2.156,0,0,1-.457-1.32,2.853,2.853,0,0,1,.051-.559,2.334,2.334,0,0,1,1.168-1.574,3.36,3.36,0,0,1,1.523-.355,4.688,4.688,0,0,1,.66.051,2.939,2.939,0,0,1,1.828,1.168,64.525,64.525,0,0,1,4.875,7.16,2.763,2.763,0,0,1,.355,1.32,2.876,2.876,0,0,1-.152.914,2.945,2.945,0,0,1-1.473,1.727,2.8,2.8,0,0,1-1.27.3,2.734,2.734,0,0,1-.863-.152,2.819,2.819,0,0,1-1.676-1.371q-.2-.406-.406-.762a.524.524,0,0,0-.559-.3q-3.5.254-9.826.787T24.68-19.449ZM3.4-11.07a2.588,2.588,0,0,1,.965-1.676A2.45,2.45,0,0,1,5.789-13.2h.457a2.753,2.753,0,0,1,1.727,1.066,2.647,2.647,0,0,1,.508,1.574v.406A50.809,50.809,0,0,1,6.6-1.777a1.983,1.983,0,0,1-1.32,1.32A2.438,2.438,0,0,1,4.418-.3,2.354,2.354,0,0,1,3.352-.559,2.68,2.68,0,0,1,1.98-1.98a3.25,3.25,0,0,1-.2-1.117,4.2,4.2,0,0,1,.1-.914A39.043,39.043,0,0,0,3.4-11.07Zm14.219-5.535a.332.332,0,0,0-.406-.254l-1.98.152q-.355,0-.355.406V1.879a2.594,2.594,0,0,1-.787,1.9,2.7,2.7,0,0,1-3.809,0,2.594,2.594,0,0,1-.787-1.9V-15.945q0-.406-.355-.355l-4.469.254a.451.451,0,0,1-.2.051,2.523,2.523,0,0,1-1.777-.711,2.583,2.583,0,0,1-.965-1.828v-.254a2.493,2.493,0,0,1,.609-1.676,2.478,2.478,0,0,1,1.828-.863l.66-.051a.769.769,0,0,0,.609-.3q.914-1.168,1.98-2.691a.492.492,0,0,0,0-.66A44.437,44.437,0,0,0,3.3-29.961a3.116,3.116,0,0,1-.863-1.879v-.3A3,3,0,0,1,3-33.871l.66-.965a1.352,1.352,0,0,1,.914-.533,1.091,1.091,0,0,1,.965.33q.152.1.2-.051,1.523-3.047,2.742-6.2A2.988,2.988,0,0,1,10-42.91a2.791,2.791,0,0,1,1.168-.254,3.031,3.031,0,0,1,.965.152,2.44,2.44,0,0,1,1.473,1.473,2.234,2.234,0,0,1,.2.914,2.315,2.315,0,0,1-.3,1.117q-2.793,5.23-4.316,7.617a.467.467,0,0,0,.051.609q1.066,1.219,1.27,1.473.1.152.229.127a.443.443,0,0,0,.229-.127q1.828-3.047,3.2-5.637a2.63,2.63,0,0,1,1.625-1.371,2.349,2.349,0,0,1,.965-.2,2.612,2.612,0,0,1,1.168.3,2.287,2.287,0,0,1,1.32,1.523,2.413,2.413,0,0,1,.1.66,2.334,2.334,0,0,1-.406,1.32q-4.215,6.4-7.973,11.324a.166.166,0,0,0-.051.2.163.163,0,0,0,.152.1l4.266-.2a.22.22,0,0,0,.178-.1.263.263,0,0,0,.025-.254q-.3-.711-.66-1.422a2.234,2.234,0,0,1-.2-.914,1.792,1.792,0,0,1,.152-.711,1.994,1.994,0,0,1,1.117-1.219,2.349,2.349,0,0,1,.965-.2,2.3,2.3,0,0,1,.813.152,2.373,2.373,0,0,1,1.32,1.168,45.835,45.835,0,0,1,2.895,6.754,2.3,2.3,0,0,1,.152.813,2.315,2.315,0,0,1-.3,1.117,2.947,2.947,0,0,1-1.422,1.371,1.51,1.51,0,0,1-.762.2,1.6,1.6,0,0,1-.863-.254,1.977,1.977,0,0,1-1.117-1.27Zm4.316,9.6a2.577,2.577,0,0,1,.1.711,2.406,2.406,0,0,1-.3,1.168,2.5,2.5,0,0,1-1.473,1.27,1.792,1.792,0,0,1-.711.152,2.254,2.254,0,0,1-1.016-.254,2.33,2.33,0,0,1-1.117-1.422q-.609-2.285-1.625-5.18a1.913,1.913,0,0,1-.152-.762,1.868,1.868,0,0,1,.254-.914,1.833,1.833,0,0,1,1.27-1.117,2.176,2.176,0,0,1,.762-.152,2.354,2.354,0,0,1,1.066.254,2.339,2.339,0,0,1,1.219,1.32Q21.227-9.344,21.938-7.008Zm4.773-7.922a2.892,2.892,0,0,1,.939-2.057,2.968,2.968,0,0,1,2.107-.838,2.674,2.674,0,0,1,2.031.863,2.665,2.665,0,0,1,.762,1.879A29.131,29.131,0,0,1,30.316-3.707,14.631,14.631,0,0,1,24.07,3.3a3.155,3.155,0,0,1-1.422.355,3.339,3.339,0,0,1-.812-.1,3.733,3.733,0,0,1-1.879-1.371A2.287,2.287,0,0,1,19.449.762,2.354,2.354,0,0,1,19.5.3,2.352,2.352,0,0,1,20.566-1.27a10.794,10.794,0,0,0,4.57-5.205A27.552,27.552,0,0,0,26.711-14.93Zm16.3,13.66h1.727q.508,0,.711-.686a15.383,15.383,0,0,0,.3-2.92,1.374,1.374,0,0,1,.813-1.32,1.868,1.868,0,0,1,.914-.254,2.3,2.3,0,0,1,.813.152,4.373,4.373,0,0,1,1.879,1.523,3.31,3.31,0,0,1,.559,1.828q0,.2,0,.406-.508,3.859-1.7,5.281a4.538,4.538,0,0,1-3.682,1.422H41.895q-3.3,0-4.418-1.5t-1.117-5.51V-14.98a2.8,2.8,0,0,1,.838-2.057,2.8,2.8,0,0,1,2.057-.838,2.8,2.8,0,0,1,2.057.838,2.8,2.8,0,0,1,.838,2.057V-2.895A3.535,3.535,0,0,0,42.3-1.523Q42.453-1.27,43.012-1.27ZM79.034-3.809q0-.406-.355-.406H72.433q-.355,0-.355.406v1.625a.314.314,0,0,0,.355.355h6.246a.314.314,0,0,0,.355-.355ZM69.589,2.844a2.351,2.351,0,0,1-1.727-.711A2.351,2.351,0,0,1,67.152.406V-4.469A2.9,2.9,0,0,1,68.015-6.6a2.9,2.9,0,0,1,2.133-.863H81.269a2.922,2.922,0,0,1,2.107.863,2.855,2.855,0,0,1,.889,2.133V-.1A2.493,2.493,0,0,1,83.5,1.727a2.553,2.553,0,0,1-1.879.762H79.9a.831.831,0,0,1-.609-.254.831.831,0,0,1-.254-.609.09.09,0,0,0-.1-.1h-6.7a.135.135,0,0,0-.152.152,1.118,1.118,0,0,1-.355.813,1.175,1.175,0,0,1-.863.355ZM99.245-.508V-2.945q0-.406-.355-.406H91.882a.12.12,0,0,0-.127.1.123.123,0,0,0,.076.152,27.27,27.27,0,0,1,2.945,3,.769.769,0,0,0,.609.3q1.066.051,1.777.051A11.331,11.331,0,0,0,98.433.2a1,1,0,0,0,.635-.152A.712.712,0,0,0,99.245-.508ZM65.425-8.734a1.52,1.52,0,0,1-1.117-.457,1.52,1.52,0,0,1-.457-1.117,1.52,1.52,0,0,1,.457-1.117,1.52,1.52,0,0,1,1.117-.457h44.129a1.52,1.52,0,0,1,1.117.457,1.52,1.52,0,0,1,.457,1.117,1.52,1.52,0,0,1-.457,1.117,1.52,1.52,0,0,1-1.117.457h-3.91q-.406,0-.406.355v1.27a.359.359,0,0,0,.406.406h3a1.707,1.707,0,0,1,1.219.482,1.58,1.58,0,0,1,.508,1.193,1.58,1.58,0,0,1-.508,1.193,1.707,1.707,0,0,1-1.219.482h-3a.359.359,0,0,0-.406.406V-.3a6.012,6.012,0,0,1-.457,2.691A3.185,3.185,0,0,1,103,3.758a12.069,12.069,0,0,1-3.809.66h-.2a4.182,4.182,0,0,1-2.234-.66A5.453,5.453,0,0,1,94.98,1.727a2.668,2.668,0,0,1-.254-.406q-.2-.355-.508-.152l-.66.406a3.045,3.045,0,0,1-1.625.508,2.076,2.076,0,0,1-.66-.1A3.9,3.9,0,0,1,89.191.813a.591.591,0,0,1-.1-.152,2.321,2.321,0,0,1-.66-1.625v-.3A2.21,2.21,0,0,1,89.5-2.945l.3-.2q.051,0,.025-.1t-.076-.1H87.109a1.647,1.647,0,0,1-1.168-.482,1.58,1.58,0,0,1-.508-1.193,1.58,1.58,0,0,1,.508-1.193A1.647,1.647,0,0,1,87.109-6.7H98.89q.355,0,.355-.406v-1.27a.314.314,0,0,0-.355-.355Zm3.834-4.9a1.247,1.247,0,0,1-.381-.914,1.247,1.247,0,0,1,.381-.914,1.276,1.276,0,0,1,.939-.381h13.66a.359.359,0,0,0,.406-.406v-.66a.359.359,0,0,0-.406-.406H73.3a1.175,1.175,0,0,1-.863-.355,1.175,1.175,0,0,1-.355-.863,1.175,1.175,0,0,1,.355-.863,1.175,1.175,0,0,1,.863-.355h27.777a1.175,1.175,0,0,1,.863.355,1.175,1.175,0,0,1,.355.863,1.175,1.175,0,0,1-.355.863,1.175,1.175,0,0,1-.863.355H90.409A.359.359,0,0,0,90-16.91v.66a.359.359,0,0,0,.406.406h13.457a1.218,1.218,0,0,1,.889.381,1.247,1.247,0,0,1,.381.914,1.247,1.247,0,0,1-.381.914,1.218,1.218,0,0,1-.889.381H70.2A1.276,1.276,0,0,1,69.259-13.635Zm35.268-10.486a27.643,27.643,0,0,1,4.418.254,2.042,2.042,0,0,1,1.371.965,2.067,2.067,0,0,1,.355,1.117,3.421,3.421,0,0,1-.051.559q-.3,1.117-.609,2.209a2.625,2.625,0,0,1-1.32,1.65,2.953,2.953,0,0,1-1.422.355,4.688,4.688,0,0,1-.66-.051,2.649,2.649,0,0,1-1.676-1.219,2.687,2.687,0,0,1-.457-1.473,3.419,3.419,0,0,1,.051-.559q.051-.254.1-.457.051-.406-.355-.406H65.831a1.48,1.48,0,0,1-1.092-.432,1.419,1.419,0,0,1-.432-1.041,1.419,1.419,0,0,1,.432-1.041,1.48,1.48,0,0,1,1.092-.432ZM96.5-41.082q-.051.051,0,.127t.1.076h12.9a1.805,1.805,0,0,1,1.32.559,1.834,1.834,0,0,1,.559,1.346,1.834,1.834,0,0,1-.559,1.346,1.805,1.805,0,0,1-1.32.559H102.5a.12.12,0,0,0-.127.1.151.151,0,0,0,.025.152,1.831,1.831,0,0,1,.355,1.066,1.792,1.792,0,0,1-.152.711,1.977,1.977,0,0,1-1.371,1.219h-.051a2.876,2.876,0,0,1-.914.152,3.127,3.127,0,0,1-1.32-.3,3.781,3.781,0,0,1-1.777-1.473,15.448,15.448,0,0,0-.914-1.32.684.684,0,0,0-.609-.3H93.862a.831.831,0,0,0-.609.254,27.623,27.623,0,0,1-2.488,2.387.819.819,0,0,0-.3.66v.762a.359.359,0,0,0,.406.406h16.656a1.48,1.48,0,0,1,1.092.432,1.449,1.449,0,0,1,.432,1.066,1.449,1.449,0,0,1-.432,1.066,1.48,1.48,0,0,1-1.092.432H90.866a.359.359,0,0,0-.406.406v.559a.359.359,0,0,0,.406.406h13.152a1.277,1.277,0,0,1,.939.381,1.277,1.277,0,0,1,.381.939,1.277,1.277,0,0,1-.381.939,1.276,1.276,0,0,1-.939.381H71.163a1.276,1.276,0,0,1-.939-.381,1.276,1.276,0,0,1-.381-.939,1.276,1.276,0,0,1,.381-.939,1.276,1.276,0,0,1,.939-.381h13a.359.359,0,0,0,.406-.406V-29.2a.359.359,0,0,0-.406-.406h-16.5a1.5,1.5,0,0,1-1.066-.432,1.408,1.408,0,0,1-.457-1.066,1.408,1.408,0,0,1,.457-1.066,1.5,1.5,0,0,1,1.066-.432H84.316a.224.224,0,0,0,.254-.254,1.848,1.848,0,0,1,.533-1.32,1.781,1.781,0,0,1,1.346-.559h.609a.081.081,0,0,0,.076-.051.083.083,0,0,0-.025-.1q-.863-.457-1.98-1.016a.575.575,0,0,1-.33-.508.582.582,0,0,1,.279-.559q0-.051,0-.076t-.051-.025H79.644a.2.2,0,0,0-.2.1q-.051.1,0,.152a2.162,2.162,0,0,1,.254.965,1.9,1.9,0,0,1-.2.863,2.148,2.148,0,0,1-1.422,1.219l-.152.051a3.794,3.794,0,0,1-.812.1,2.911,2.911,0,0,1-1.32-.3A3.486,3.486,0,0,1,74.159-35.5q-.3-.609-.66-1.27a.567.567,0,0,0-.559-.3h-.457a.831.831,0,0,0-.609.254q-.863.914-1.676,1.727a3.282,3.282,0,0,1-2.285.965h-.152a4.016,4.016,0,0,1-2.234-.66,2.051,2.051,0,0,1-.965-1.777,2.121,2.121,0,0,1,.762-1.676,24.915,24.915,0,0,0,3.453-3.656,4.728,4.728,0,0,1,2.031-1.625,4.2,4.2,0,0,1,1.422-.254,5.167,5.167,0,0,1,1.016.1l.914.254a1.682,1.682,0,0,1,1.066.965,1.415,1.415,0,0,1-.1,1.371q-.152.2.1.2h9.242a2.209,2.209,0,0,1,1.625.66,2.209,2.209,0,0,1,.66,1.625q0,.051.076.076a.417.417,0,0,0,.127.025,22.886,22.886,0,0,0,3.148-3.4,4.728,4.728,0,0,1,2.031-1.625,3.956,3.956,0,0,1,1.473-.3,4.438,4.438,0,0,1,.965.1l.914.254a1.613,1.613,0,0,1,1.143.939A1.44,1.44,0,0,1,96.5-41.082ZM161.268-3.91a.359.359,0,0,0-.406-.406h-19.8a.359.359,0,0,0-.406.406v2.133q0,.355.406.355h19.8q.406,0,.406-.355Zm-3.961-14.066q0-.355-.406-.355H141.057q-.406,0-.406.355v1.93a.359.359,0,0,0,.406.406H156.9a.359.359,0,0,0,.406-.406Zm-16.25,6.754q-.406,0-.406.355v1.625a.359.359,0,0,0,.406.406h23.359a2.922,2.922,0,0,1,2.107.863,2.855,2.855,0,0,1,.889,2.133V1.574a2.855,2.855,0,0,1-.889,2.133,2.922,2.922,0,0,1-2.107.863h-1.93a1.214,1.214,0,0,1-1.219-1.219q0-.2-.152-.2H140.8q-.152,0-.152.2a1.214,1.214,0,0,1-1.219,1.219h-1.727a2.922,2.922,0,0,1-2.107-.863,2.8,2.8,0,0,1-.889-2.082v-21.48a2.88,2.88,0,0,1,.889-2.107,2.88,2.88,0,0,1,2.107-.889h22.75a2.88,2.88,0,0,1,2.107.889,2.88,2.88,0,0,1,.889,2.107v5.637a2.88,2.88,0,0,1-.889,2.107,2.88,2.88,0,0,1-2.107.889Zm29.352-29.2a2.351,2.351,0,0,1,1.727.711,2.351,2.351,0,0,1,.711,1.727,2.351,2.351,0,0,1-.711,1.727,2.351,2.351,0,0,1-1.727.711H164.67a.2.2,0,0,0-.2.1.216.216,0,0,0,0,.2,7.145,7.145,0,0,1,.457.609,2.144,2.144,0,0,1,.355,1.168,2.3,2.3,0,0,1-.152.813,2.146,2.146,0,0,1-1.523,1.371,3.36,3.36,0,0,1-.965.152,3.7,3.7,0,0,1-1.473-.3,4.155,4.155,0,0,1-1.879-1.625q-.66-1.066-1.473-2.184a.637.637,0,0,0-.559-.3h-2.285a.831.831,0,0,0-.609.254,30.78,30.78,0,0,1-2.336,2.641.819.819,0,0,0-.3.66v2.031q0,.355.406.355h16.5a2.855,2.855,0,0,1,2.133.889,2.922,2.922,0,0,1,.863,2.107v4.316a2.9,2.9,0,0,1-.863,2.133,2.9,2.9,0,0,1-2.133.863,2.9,2.9,0,0,1-2.133-.863,2.9,2.9,0,0,1-.863-2.133v-2.285a.359.359,0,0,0-.406-.406H132.881a.359.359,0,0,0-.406.406v2.387a2.8,2.8,0,0,1-.838,2.057,2.8,2.8,0,0,1-2.057.838,2.8,2.8,0,0,1-2.057-.838,2.8,2.8,0,0,1-.838-2.057v-4.418a2.922,2.922,0,0,1,.863-2.107,2.855,2.855,0,0,1,2.133-.889h15.742q.406,0,.406-.355V-31.18a1.965,1.965,0,0,1,.584-1.447,1.965,1.965,0,0,1,1.447-.584l.025-.051a.083.083,0,0,0-.025-.1q-.457-.254-1.016-.508a.935.935,0,0,1-.508-.762.889.889,0,0,1,.3-.812q.051-.051.025-.076a.1.1,0,0,0-.076-.025h-5.484a.2.2,0,0,0-.2.1.216.216,0,0,0,0,.2,3.552,3.552,0,0,1,.254.508,2.042,2.042,0,0,1,.3,1.066,2.349,2.349,0,0,1-.2.965,2.63,2.63,0,0,1-1.625,1.371,3.549,3.549,0,0,1-.863.1,2.855,2.855,0,0,1-1.371-.355,3.4,3.4,0,0,1-1.625-1.676q-.508-1.016-1.066-1.98a.637.637,0,0,0-.559-.3H134a.637.637,0,0,0-.559.3q-.965,1.27-1.93,2.438a2.97,2.97,0,0,1-2.133,1.066.959.959,0,0,1-.3.051,3.389,3.389,0,0,1-2.031-.66h-.051a2.214,2.214,0,0,1-1.016-1.727v-.3a2.241,2.241,0,0,1,.609-1.574,28.145,28.145,0,0,0,4.215-5.789,3.819,3.819,0,0,1,1.777-1.727,3.475,3.475,0,0,1,1.473-.355,2.876,2.876,0,0,1,.914.152l.508.152a2,2,0,0,1,1.371,1.117,2.3,2.3,0,0,1,.152.813,2.234,2.234,0,0,1-.2.914.168.168,0,0,0,0,.178.171.171,0,0,0,.152.076h8.277a2.88,2.88,0,0,1,2.107.889,2.88,2.88,0,0,1,.889,2.107v.1q0,.152.1.178a.123.123,0,0,0,.152-.076,23.359,23.359,0,0,0,3.352-4.52,4.092,4.092,0,0,1,1.828-1.727,3.3,3.3,0,0,1,1.574-.406,3.339,3.339,0,0,1,.813.1l.457.1a2,2,0,0,1,1.422,1.168,1.787,1.787,0,0,1,.254.863,1.958,1.958,0,0,1-.254.965.168.168,0,0,0,0,.178.228.228,0,0,0,.2.076Zm29.827,29.656a2.3,2.3,0,0,1,.813-.152,2.334,2.334,0,0,1,1.32.406,2.327,2.327,0,0,1,1.219,1.727,4.021,4.021,0,0,1,.051.66,3.661,3.661,0,0,1-.457,1.727A3.405,3.405,0,0,1,201.3-4.926Q197.29-3.5,189.978-1.168a2.438,2.438,0,0,1-.863.152,2.5,2.5,0,0,1-1.32-.406,2.825,2.825,0,0,1-1.32-1.777l-.1-.406a5.823,5.823,0,0,1-.051-.711,3.106,3.106,0,0,1,.457-1.625,2.982,2.982,0,0,1,1.879-1.371q1.523-.406,3.047-.863a.454.454,0,0,0,.406-.457V-20.109q0-.355-.406-.355h-2.031a2.737,2.737,0,0,1-2.006-.838,2.737,2.737,0,0,1-.838-2.006,2.737,2.737,0,0,1,.838-2.006,2.737,2.737,0,0,1,2.006-.838H191.7a.359.359,0,0,0,.406-.406v-8.379q0-.355-.406-.355h-2.437a2.755,2.755,0,0,1-2.057-.863,2.851,2.851,0,0,1-.838-2.057,2.766,2.766,0,0,1,.838-2.031,2.8,2.8,0,0,1,2.057-.838h11.375a2.8,2.8,0,0,1,2.057.838,2.766,2.766,0,0,1,.838,2.031,2.851,2.851,0,0,1-.838,2.057,2.755,2.755,0,0,1-2.057.863h-2.285q-.406,0-.406.355v8.379a.359.359,0,0,0,.406.406h1.473a2.654,2.654,0,0,1,1.98.838,2.78,2.78,0,0,1,.813,2.006,2.78,2.78,0,0,1-.812,2.006,2.654,2.654,0,0,1-1.98.838h-1.473q-.406,0-.406.355v9.648a.249.249,0,0,0,.127.229.228.228,0,0,0,.229.025Q199.525-10.562,200.236-10.766Zm11.223-16.656a.359.359,0,0,0-.406.406v3.707q0,.355.406.355h4.57q.406,0,.406-.355v-3.707a.359.359,0,0,0-.406-.406Zm0-9.191a.359.359,0,0,0-.406.406v3.555q0,.355.406.355h4.57q.406,0,.406-.355v-3.555a.359.359,0,0,0-.406-.406Zm14.93,4.316q.406,0,.406-.355v-3.555a.359.359,0,0,0-.406-.406h-4.367a.359.359,0,0,0-.406.406v3.555q0,.355.406.355Zm0,9.344q.406,0,.406-.355v-3.707a.359.359,0,0,0-.406-.406h-4.367a.359.359,0,0,0-.406.406v3.707q0,.355.406.355ZM222.173-3.1a.359.359,0,0,0,.406.406h9.6a2.7,2.7,0,0,1,1.98.813A2.7,2.7,0,0,1,234.97.1a2.7,2.7,0,0,1-.812,1.98,2.7,2.7,0,0,1-1.98.813H204.349a2.7,2.7,0,0,1-1.98-.812A2.7,2.7,0,0,1,201.556.1a2.7,2.7,0,0,1,.813-1.98,2.7,2.7,0,0,1,1.98-.812h11.172a.359.359,0,0,0,.406-.406V-7.262a.359.359,0,0,0-.406-.406H207.9a2.636,2.636,0,0,1-1.93-.812,2.665,2.665,0,0,1-.812-1.955,2.665,2.665,0,0,1,.813-1.955,2.636,2.636,0,0,1,1.93-.812h7.617a.359.359,0,0,0,.406-.406v-3.707q0-.355-.406-.355h-7.008a2.855,2.855,0,0,1-2.133-.889,2.922,2.922,0,0,1-.863-2.107v-18.18a2.9,2.9,0,0,1,.863-2.133,2.9,2.9,0,0,1,2.133-.863h21.125a2.9,2.9,0,0,1,2.133.863,2.9,2.9,0,0,1,.863,2.133v18.18a2.922,2.922,0,0,1-.863,2.107,2.855,2.855,0,0,1-2.133.889h-7.059q-.406,0-.406.355v3.707a.359.359,0,0,0,.406.406h7.871a2.721,2.721,0,0,1,1.955.813,2.626,2.626,0,0,1,.838,1.955,2.626,2.626,0,0,1-.838,1.955,2.721,2.721,0,0,1-1.955.813h-7.871a.359.359,0,0,0-.406.406Z" transform="translate(722.611 299.004)" fill="#3e659f" opacity="0.92"/>
    <path id="Path_1739" data-name="Path 1739" d="M9.563-17.78q0,.4.349.4h5.877a.352.352,0,0,0,.4-.4V-24.5a.352.352,0,0,0-.4-.4H10.011q-.349,0-.349.4v1.743Q9.662-19.523,9.563-17.78Zm6.624-18.428q0-.349-.4-.349H10.011a.308.308,0,0,0-.349.349v6.524a.308.308,0,0,0,.349.349h5.777q.4,0,.4-.349Zm1.444-4.731a2.866,2.866,0,0,1,2.067.847A2.8,2.8,0,0,1,20.569-38V-1.345a7.92,7.92,0,0,1-.423,2.889,3.1,3.1,0,0,1-1.419,1.594,10.412,10.412,0,0,1-4.582.9h-.05A2.515,2.515,0,0,1,12.4,3.387a3.284,3.284,0,0,1-1.1-1.693A1.719,1.719,0,0,1,11.58.224,1.523,1.523,0,0,1,12.9-.448H15.29a1.14,1.14,0,0,0,.7-.249,1.06,1.06,0,0,0,.2-.747V-12.551q0-.349-.4-.349H9.662q-.4,0-.4.349A56.731,56.731,0,0,1,6.475,2.092a1.523,1.523,0,0,1-1.146,1,1.745,1.745,0,0,1-.548.1,2,2,0,0,1-1.046-.3,2.336,2.336,0,0,1-1.1-1.295,2.191,2.191,0,0,1-.2-.9A2.256,2.256,0,0,1,2.59-.1,40.826,40.826,0,0,0,4.831-10.334q.548-5.653.548-12.426V-38a2.842,2.842,0,0,1,.847-2.092,2.842,2.842,0,0,1,2.092-.847ZM29.186-19.175a.308.308,0,0,0-.349.349V-.05a.215.215,0,0,0,.1.174.178.178,0,0,0,.2.025A23.534,23.534,0,0,0,35.81-5.429a.458.458,0,0,0,.05-.6,48.129,48.129,0,0,1-6.026-12.8.461.461,0,0,0-.5-.349Zm13.6.349a.258.258,0,0,0-.025-.249.262.262,0,0,0-.224-.1H34.116a.287.287,0,0,0-.2.1.226.226,0,0,0-.05.249A38.037,38.037,0,0,0,38.4-9.662a.163.163,0,0,0,.2.125.25.25,0,0,0,.2-.125A37.58,37.58,0,0,0,42.782-18.826Zm1.793-4.682a2.454,2.454,0,0,1,1.295.05l.747.3a1.642,1.642,0,0,1,.921.747,1.472,1.472,0,0,1,.174,1.146,43.415,43.415,0,0,1-6.076,15.24.4.4,0,0,0,.05.6A25.708,25.708,0,0,0,47.414-.747,1.7,1.7,0,0,1,48.261.6a.94.94,0,0,1,.05.3,1.913,1.913,0,0,1-.448,1.245,2.756,2.756,0,0,1-1.644,1,1.462,1.462,0,0,1-.548.1,2.213,2.213,0,0,1-1.245-.4,29.176,29.176,0,0,1-5.479-4.731.282.282,0,0,0-.5,0,29.927,29.927,0,0,1-4.433,4.084,2.822,2.822,0,0,1-1.594.5,3.63,3.63,0,0,1-.6-.05,3.683,3.683,0,0,1-1.992-1.2q-.4-.448-.747-.8a.149.149,0,0,0-.149-.025q-.1.025-.1.174v1a2.126,2.126,0,0,1-.672,1.594,2.285,2.285,0,0,1-3.187,0A2.126,2.126,0,0,1,24.3,1.793V-37.9a2.8,2.8,0,0,1,.872-2.092,2.866,2.866,0,0,1,2.067-.847H43.579a2.866,2.866,0,0,1,2.067.847,2.8,2.8,0,0,1,.872,2.092v6.823a5.978,5.978,0,0,1-.473,2.665,2.943,2.943,0,0,1-1.768,1.37,20.125,20.125,0,0,1-6.126.647,2.64,2.64,0,0,1-1.644-.573,3.339,3.339,0,0,1-1.1-1.469,1.253,1.253,0,0,1,.125-1.295,1.311,1.311,0,0,1,1.121-.6H40.89a1.519,1.519,0,0,0,.872-.174.747.747,0,0,0,.224-.623v-4.931q0-.349-.4-.349h-12.4a.308.308,0,0,0-.349.349v12.152q0,.4.349.4h15.39ZM89.36-14.842q-.05.349.3.349h8.317a2.555,2.555,0,0,1,1.992.9,2.474,2.474,0,0,1,.7,1.743v.3a76.465,76.465,0,0,1-1.32,9.313,9.856,9.856,0,0,1-1.768,4.233,6.023,6.023,0,0,1-3.437,1.544q-.946.05-2.391.05h-1a2.463,2.463,0,0,1-1.693-.672,3.255,3.255,0,0,1-1-1.668,1.406,1.406,0,0,1,.224-1.37A1.343,1.343,0,0,1,89.509-.7q1.395.1,2.465.1a2.087,2.087,0,0,0,1.619-.6q1.295-1.146,2.191-8.915.05-.4-.349-.4H88.812a.461.461,0,0,0-.5.349,21.67,21.67,0,0,1-3.885,7.745,20.141,20.141,0,0,1-7.222,5.5,2.528,2.528,0,0,1-1.046.249,2.256,2.256,0,0,1-.8-.149,3.024,3.024,0,0,1-1.544-1.1A1.717,1.717,0,0,1,73.5.623a1.587,1.587,0,0,1,.921-1.17,16.625,16.625,0,0,0,9.064-9.612.2.2,0,0,0-.05-.224.27.27,0,0,0-.2-.125H78.452a1.928,1.928,0,0,1-1.419-.573,1.9,1.9,0,0,1-.573-1.395,1.982,1.982,0,0,1,.573-1.419,1.887,1.887,0,0,1,1.419-.6H84.23a.39.39,0,0,0,.448-.349q.149-1.1.3-2.142a2.508,2.508,0,0,1,.847-1.668,2.524,2.524,0,0,1,1.743-.672,2.089,2.089,0,0,1,1.594.7,2.046,2.046,0,0,1,.5,1.345v.3Q89.509-15.937,89.36-14.842ZM92.946-33.27a.264.264,0,0,0,0-.224.194.194,0,0,0-.2-.125H84.08a.194.194,0,0,0-.2.125.264.264,0,0,0,0,.224,24.378,24.378,0,0,0,4.682,5.03.363.363,0,0,0,.548,0A17.9,17.9,0,0,0,92.946-33.27ZM101.263-37a1.939,1.939,0,0,1,.6,1.419,1.859,1.859,0,0,1-.6,1.395,1.952,1.952,0,0,1-1.395.573H98.723a.546.546,0,0,0-.548.349,24.345,24.345,0,0,1-5.229,7.57q-.3.249.05.448a35.661,35.661,0,0,0,7.57,3.038,1.388,1.388,0,0,1,1.046,1,1.617,1.617,0,0,1-.249,1.494,4.008,4.008,0,0,1-1.693,1.295,2.976,2.976,0,0,1-1.146.249,2.82,2.82,0,0,1-.9-.149,36.137,36.137,0,0,1-8.367-4.034.575.575,0,0,0-.647,0A38.048,38.048,0,0,1,80.3-18.428a2.681,2.681,0,0,1-.847.149,2.3,2.3,0,0,1-.946-.2,3.364,3.364,0,0,1-1.494-1.146.169.169,0,0,0-.125-.05q-.075,0-.125.1-1.1,3.785-2.042,6.275a1.492,1.492,0,0,1-.946.946,1.591,1.591,0,0,1-1.345-.1,1.922,1.922,0,0,1-.971-1.071,2.128,2.128,0,0,1-.025-1.469q.7-2.142,1.494-5.578.1-.349-.249-.349H69.488a.352.352,0,0,0-.4.4V-1.345a8.426,8.426,0,0,1-.374,2.839A2.814,2.814,0,0,1,67.2,3.038a11.838,11.838,0,0,1-4.333.747h-.1a2.638,2.638,0,0,1-1.693-.6,3.286,3.286,0,0,1-1.1-1.644A1.6,1.6,0,0,1,60.2.075,1.478,1.478,0,0,1,61.469-.6H63.81a1.129,1.129,0,0,0,.647-.2.865.865,0,0,0,.149-.6V-14.842a.044.044,0,0,0-.05-.05.143.143,0,0,0-.1.05,39.4,39.4,0,0,1-5.03,8.766,1.374,1.374,0,0,1-1.146.6.94.94,0,0,1-.3-.05,1.815,1.815,0,0,1-1.345-.946,3.634,3.634,0,0,1-.4-1.644,2.308,2.308,0,0,1,.05-.448,3.326,3.326,0,0,1,.847-1.942,36.531,36.531,0,0,0,5.877-10.061.224.224,0,0,0-.025-.224.245.245,0,0,0-.224-.125H58.132a2.027,2.027,0,0,1-1.494-.6,1.968,1.968,0,0,1-.6-1.444,2.051,2.051,0,0,1,.6-1.469,1.986,1.986,0,0,1,1.494-.623H68.691a.115.115,0,0,0,.125-.075q.025-.075-.075-.125a56.254,56.254,0,0,0-8.666-4.931,1.5,1.5,0,0,1-.847-1.1,1.356,1.356,0,0,1,.4-1.295,2.952,2.952,0,0,1,1.594-.9,2.367,2.367,0,0,1,.647-.1,3.087,3.087,0,0,1,1.2.249q1.2.548,2.291,1.1a.585.585,0,0,0,.647-.1,28.893,28.893,0,0,0,3.835-3.735.281.281,0,0,0,.025-.2q-.025-.1-.174-.1H58.68a1.968,1.968,0,0,1-1.444-.6,1.939,1.939,0,0,1-.6-1.419,1.939,1.939,0,0,1,.6-1.419,1.968,1.968,0,0,1,1.444-.6H73.522a1.755,1.755,0,0,1,1.295.2l.9.6a1.757,1.757,0,0,1,.822,1.121,1.51,1.51,0,0,1-.274,1.32,35.673,35.673,0,0,1-6.674,6.773q-.3.249.05.448.7.4,1.395.847a2.349,2.349,0,0,1,1.1,1.793v.249a2.474,2.474,0,0,1-.7,1.743q-.05.05,0,.149a.16.16,0,0,0,.149.1h2.839a1.746,1.746,0,0,1,1.295,0l.8.249a1.851,1.851,0,0,1,.921.822,1.543,1.543,0,0,1,.174,1.17q-.05.2-.1.349a.2.2,0,0,0,.05.149q.05.05.149,0a33.154,33.154,0,0,0,7.222-2.938q.349-.2.05-.448a31.455,31.455,0,0,1-4.034-4.781q-.2-.3-.448-.05-.548.548-1.046,1.1a2.736,2.736,0,0,1-1.793.747h-.1a2.914,2.914,0,0,1-1.793-.6,1.629,1.629,0,0,1-.747-1.444,1.606,1.606,0,0,1,.6-1.295,30.217,30.217,0,0,0,6.823-8.716,3.206,3.206,0,0,1,1.395-1.345,2.629,2.629,0,0,1,1.1-.249,3.088,3.088,0,0,1,.747.1,1.956,1.956,0,0,1,1.245,1.046,2.256,2.256,0,0,1,.149.8,2.089,2.089,0,0,1-.2.847q-.4.747-.9,1.644a.212.212,0,0,0,0,.2.2.2,0,0,0,.2.1h13.7A1.911,1.911,0,0,1,101.263-37Zm33.678,19.772q0,.349.4.349h12.5a.308.308,0,0,0,.349-.349v-11.6q0-.4-.349-.4h-12.5a.352.352,0,0,0-.4.4Zm-18.129,0a.308.308,0,0,0,.349.349h12.451q.4,0,.4-.349v-11.6a.352.352,0,0,0-.4-.4H117.161q-.349,0-.349.4Zm18.129-16.983q0,.349.4.349h14.892A2.824,2.824,0,0,1,152.3-33a2.824,2.824,0,0,1,.872,2.067v18.976a2.43,2.43,0,0,1-.722,1.743,2.364,2.364,0,0,1-1.768.747h-.05a2.347,2.347,0,0,1-1.718-.722,2.4,2.4,0,0,1-.722-1.768.264.264,0,0,0-.3-.3H135.339a.352.352,0,0,0-.4.4V1.494a2.4,2.4,0,0,1-.722,1.768,2.465,2.465,0,0,1-3.486,0,2.4,2.4,0,0,1-.722-1.768V-11.854a.352.352,0,0,0-.4-.4h-12.5q-.3,0-.3.349v.3a2.305,2.305,0,0,1-.7,1.693,2.305,2.305,0,0,1-1.693.7,2.305,2.305,0,0,1-1.693-.7,2.305,2.305,0,0,1-.7-1.693V-30.929A2.824,2.824,0,0,1,112.9-33a2.824,2.824,0,0,1,2.067-.872h14.643q.4,0,.4-.349v-6.026a2.4,2.4,0,0,1,.722-1.768,2.375,2.375,0,0,1,1.743-.722,2.375,2.375,0,0,1,1.743.722,2.4,2.4,0,0,1,.722,1.768ZM198.1-23.508a1.92,1.92,0,0,1-.4-1.146,1.745,1.745,0,0,1,.1-.548,1.944,1.944,0,0,1,1.046-1.345,2.855,2.855,0,0,1,1.295-.3,4.6,4.6,0,0,1,.647.05,2.708,2.708,0,0,1,1.644,1.1,64.44,64.44,0,0,1,4.433,7.421,49.4,49.4,0,0,1,2.789,6.624,2.973,2.973,0,0,1,.149.946,2.652,2.652,0,0,1-.3,1.2,3.174,3.174,0,0,1-1.544,1.544,2.191,2.191,0,0,1-.9.2,2.191,2.191,0,0,1-.9-.2,2.266,2.266,0,0,1-1.245-1.395,45.286,45.286,0,0,0-2.64-6.674A53.31,53.31,0,0,0,198.1-23.508Zm-30.929,0a1.991,1.991,0,0,1,.9-1.494,1.989,1.989,0,0,1,1.2-.4h.448a2.77,2.77,0,0,1,1.594,1.046,2.311,2.311,0,0,1,.5,1.444,1.1,1.1,0,0,1-.05.349q-1.295,9.812-4.084,15.19a2.129,2.129,0,0,1-1.494,1.146,2.367,2.367,0,0,1-.647.1,2.8,2.8,0,0,1-1.345-.349,2.268,2.268,0,0,1-1.1-1.544,2.036,2.036,0,0,1-.1-.647,2.437,2.437,0,0,1,.349-1.245Q166.079-14.941,167.174-23.508ZM178.629-39.2a1.653,1.653,0,0,1-1-1.2,2.308,2.308,0,0,1-.05-.448,1.714,1.714,0,0,1,.4-1.1,3.567,3.567,0,0,1,1.743-1.1,3.91,3.91,0,0,1,.847-.1,3.76,3.76,0,0,1,1.2.2q3.287,1.295,6.873,3.088,3.337,1.693,5.877,3.287a2.29,2.29,0,0,1,1.1,1.594,2.308,2.308,0,0,1,.05.448,2.311,2.311,0,0,1-.5,1.444,2.5,2.5,0,0,1-1.693,1,2.308,2.308,0,0,1-.448.05,2.962,2.962,0,0,1-1.544-.448,54.1,54.1,0,0,0-5.628-3.287A74.305,74.305,0,0,0,178.629-39.2Zm-2.49,12a2.4,2.4,0,0,1,.722-1.768,2.375,2.375,0,0,1,1.743-.722,2.375,2.375,0,0,1,1.743.722,2.4,2.4,0,0,1,.722,1.768V-4.931a3.25,3.25,0,0,0,.573,2.316,4.042,4.042,0,0,0,2.515.523h8.268a2.594,2.594,0,0,0,2.689-1.893,24.222,24.222,0,0,0,.847-5.777,1.282,1.282,0,0,1,.772-1.146,1.635,1.635,0,0,1,1.469,0A3.831,3.831,0,0,1,199.8-9.612a2.822,2.822,0,0,1,.5,1.594v.3Q199.8-2.341,198.5-.3q-1.494,2.54-5.728,2.54H183.66q-4.383,0-5.952-1.494t-1.569-5.678Z" transform="translate(1002.68 300.952)" fill="#ee8569"/>
    <path id="Subtraction_1" data-name="Subtraction 1" d="M245.228,54.539a49.782,49.782,0,0,1-17.717-3.229,49.489,49.489,0,0,1-14.891-8.89,49.491,49.491,0,0,1-14.891,8.89,50.215,50.215,0,0,1-35.434,0A49.491,49.491,0,0,1,147.4,42.42a49.491,49.491,0,0,1-14.891,8.89,50.215,50.215,0,0,1-35.434,0A49.48,49.48,0,0,1,82.19,42.42,49.493,49.493,0,0,1,67.3,51.31a49.783,49.783,0,0,1-17.717,3.229,49.659,49.659,0,0,1-19.3-3.861,49.446,49.446,0,0,1-15.76-10.53A48.951,48.951,0,0,1,3.9,24.53,48.446,48.446,0,0,1,0,5.4,49.432,49.432,0,0,1,.3,0,49.323,49.323,0,0,0,49.582,43.73,49.806,49.806,0,0,0,82.19,31.61,49.8,49.8,0,0,0,114.8,43.73,49.8,49.8,0,0,0,147.4,31.61,49.806,49.806,0,0,0,180.013,43.73,49.805,49.805,0,0,0,212.62,31.61,49.805,49.805,0,0,0,245.228,43.73,49.323,49.323,0,0,0,294.513,0a49.42,49.42,0,0,1,.3,5.4,48.447,48.447,0,0,1-3.9,19.125,48.951,48.951,0,0,1-10.626,15.618,49.445,49.445,0,0,1-15.76,10.53A49.66,49.66,0,0,1,245.228,54.539Z" transform="translate(698.043 277.89)" fill="#bed7ee"/>
  </g>
</svg>
