<svg xmlns="http://www.w3.org/2000/svg" width="430.163" height="98.278" viewBox="0 0 430.163 98.278">
  <g id="logo-2" transform="translate(-282.837 -254.126)">
    <g id="Union_1" data-name="Union 1" transform="translate(283.033 254.126)">
      <path id="Path_1738" data-name="Path 1738" d="M380.386,97.27a48.654,48.654,0,0,1-32.338-12.212l-.662-.586-.663.586a48.844,48.844,0,0,1-64.675,0l-.662-.586-.663.586a48.917,48.917,0,0,1-65.165-.439l-.673-.611-.672.611a48.844,48.844,0,0,1-65.165.439l-.662-.586-.663.586a48.844,48.844,0,0,1-64.675,0l-.662-.586-.662.586A48.835,48.835,0,0,1,15.03,83.168a47.953,47.953,0,0,1-10.41-15.3,47.887,47.887,0,0,1,0-37.466A47.952,47.952,0,0,1,15.03,15.1a48.843,48.843,0,0,1,66.694-1.889l.662.586.662-.586a48.844,48.844,0,0,1,64.675,0l.663.586.662-.586a48.918,48.918,0,0,1,65.165.439l.672.611.673-.611a48.844,48.844,0,0,1,65.165-.439l.663.586.662-.586a48.845,48.845,0,0,1,64.675,0l.663.586.662-.586A48.833,48.833,0,0,1,414.741,15.1a47.953,47.953,0,0,1,10.41,15.3,47.888,47.888,0,0,1,0,37.466,47.954,47.954,0,0,1-10.41,15.3,48.65,48.65,0,0,1-34.355,14.1Z" fill="#fff"/>
      <path id="Path_1739" data-name="Path 1739" d="M380.386,96.27a47.651,47.651,0,0,0,33.651-13.812,46.954,46.954,0,0,0,10.194-14.983,46.885,46.885,0,0,0,0-36.681,46.954,46.954,0,0,0-10.194-14.982,47.844,47.844,0,0,0-65.327-1.851l-1.324,1.172-1.325-1.172a47.844,47.844,0,0,0-63.35,0l-1.325,1.172-1.325-1.172a47.919,47.919,0,0,0-63.831.43l-1.345,1.222-1.345-1.222a47.843,47.843,0,0,0-63.829-.43l-1.325,1.172-1.325-1.172a47.845,47.845,0,0,0-63.35,0l-1.325,1.172-1.325-1.172a47.835,47.835,0,0,0-65.327,1.851A46.959,46.959,0,0,0,5.54,30.795a46.887,46.887,0,0,0,0,36.681A46.96,46.96,0,0,0,15.734,82.458a47.843,47.843,0,0,0,65.327,1.851l1.325-1.172,1.325,1.172a47.845,47.845,0,0,0,63.35,0l1.325-1.172,1.325,1.172a47.916,47.916,0,0,0,63.829-.43l1.345-1.222,1.345,1.222a47.844,47.844,0,0,0,63.831.43l1.325-1.172,1.325,1.172a47.845,47.845,0,0,0,63.35,0l1.325-1.172,1.324,1.172A47.657,47.657,0,0,0,380.386,96.27m0,2a49.654,49.654,0,0,1-33-12.463,49.92,49.92,0,0,1-66,0,49.919,49.919,0,0,1-66.5-.448,49.916,49.916,0,0,1-66.5.448,49.92,49.92,0,0,1-66,0,49.655,49.655,0,0,1-33,12.463C22,98.27-.2,76.271-.2,49.135S22,0,49.386,0a49.655,49.655,0,0,1,33,12.463,49.92,49.92,0,0,1,66,0,49.916,49.916,0,0,1,66.5.448,49.919,49.919,0,0,1,66.5-.448,49.92,49.92,0,0,1,66,0A49.654,49.654,0,0,1,380.386,0c27.383,0,49.581,22,49.581,49.135S407.769,98.27,380.386,98.27Z" fill="#bed7ee"/>
    </g>
    <path id="資訊服務中心" d="M15.438-40.574a2,2,0,0,1,1.32,1.422,2.176,2.176,0,0,1,.152.762,2.4,2.4,0,0,1-.355,1.219,3.079,3.079,0,0,1-1.727,1.32,4.2,4.2,0,0,1-.914.1A3.531,3.531,0,0,1,12.645-36a63.581,63.581,0,0,0-5.992-2.285,1.831,1.831,0,0,1-1.219-1.219,2.076,2.076,0,0,1-.1-.66,1.711,1.711,0,0,1,.3-.965A3.367,3.367,0,0,1,7.262-42.5a3.147,3.147,0,0,1,1.219-.254,2.876,2.876,0,0,1,.914.152Q12.543-41.691,15.438-40.574Zm-.1,30.367q-.355,0-.355.406v1.523a.314.314,0,0,0,.355.355H37.121a.314.314,0,0,0,.355-.355V-9.8q0-.406-.355-.406Zm0-5.687a.314.314,0,0,0-.355.355v1.473q0,.406.355.406H37.121q.355,0,.355-.406v-1.473a.314.314,0,0,0-.355-.355Zm0-5.738q-.355,0-.355.406v1.473a.314.314,0,0,0,.355.355H37.121a.314.314,0,0,0,.355-.355v-1.473q0-.406-.355-.406Zm8.48-3.809a.045.045,0,0,0-.051.051.045.045,0,0,0,.051.051H40.473a.081.081,0,0,0,.076-.051q.025-.051-.025-.051a15.874,15.874,0,0,1-7.363-5.18q-.254-.3-.457,0Q29.961-27.27,23.816-25.441ZM43.773-7.211A2.922,2.922,0,0,1,42.91-5.1a2.855,2.855,0,0,1-2.133.889H35.191q-.1,0-.1.051a.146.146,0,0,0,.051.1Q41.133-1.93,46.871.609A1.18,1.18,0,0,1,47.607,1.8a1.173,1.173,0,0,1-.787,1.143l-1.574.609a6.37,6.37,0,0,1-2.336.457,6.516,6.516,0,0,1-3.1-.812Q36.156,1.371,31.688-.406A1.4,1.4,0,0,1,30.8-1.65,1.328,1.328,0,0,1,31.484-3l1.777-1.016a.172.172,0,0,0,.051-.127q0-.076-.1-.076H18.789q-.051,0-.076.076t.025.076l1.676.711a1.476,1.476,0,0,1,.914,1.473,1.345,1.345,0,0,1-.762,1.27A67.563,67.563,0,0,1,9.8,3.809a5.154,5.154,0,0,1-1.422.2A5.008,5.008,0,0,1,7.16,3.859a5.376,5.376,0,0,1-2.336-1.32,3.315,3.315,0,0,0-.3-.355,1.462,1.462,0,0,1-.457-1.066A2.354,2.354,0,0,1,4.113.66,1.468,1.468,0,0,1,5.281-.457,53.9,53.9,0,0,0,16.3-4.062q.051,0,.051-.076t-.1-.076H11.984A2.88,2.88,0,0,1,9.877-5.1a2.88,2.88,0,0,1-.889-2.107V-22.344a2.88,2.88,0,0,1,.889-2.107,2.88,2.88,0,0,1,2.107-.889H19.5a.22.22,0,0,0,.178-.1.182.182,0,0,0,.025-.2,13.871,13.871,0,0,0-2.285-3.25.185.185,0,0,1-.152.254q-6.7,1.93-10.156,2.945a4.925,4.925,0,0,1-.965.1,3.584,3.584,0,0,1-1.422-.3A3.371,3.371,0,0,1,3.1-27.625a2.234,2.234,0,0,1-.2-.914,2.315,2.315,0,0,1,.3-1.117,2.3,2.3,0,0,1,1.676-1.219q3.3-.711,9.09-2.082a2.413,2.413,0,0,1,.66-.1,2.572,2.572,0,0,1,1.523.508,2.512,2.512,0,0,1,1.066,1.879l.152,1.32q.051.406.406.3,5.586-.914,8.176-2.539a8.076,8.076,0,0,0,3.5-4.316.228.228,0,0,0-.025-.229.249.249,0,0,0-.229-.127h-3a.769.769,0,0,0-.609.3q-.914,1.066-1.879,2.031a2.756,2.756,0,0,1-2.031.813h-.051a3.914,3.914,0,0,1-2.133-.609,1.793,1.793,0,0,1-.914-1.625,1.788,1.788,0,0,1,.609-1.371A22.972,22.972,0,0,0,23.41-41.59a4.417,4.417,0,0,1,1.727-1.625,3.376,3.376,0,0,1,1.676-.457,3.7,3.7,0,0,1,.609.051l.2.051a1.857,1.857,0,0,1,1.422,1.016,1.8,1.8,0,0,1,.2.813,1.787,1.787,0,0,1-.254.863.168.168,0,0,0,0,.178.171.171,0,0,0,.152.076H42.961a18.339,18.339,0,0,1,4.164.355,1.607,1.607,0,0,1,1.143.965,1.666,1.666,0,0,1-.025,1.473A40.582,40.582,0,0,1,45.8-33.871a3.4,3.4,0,0,1-1.777,1.27,3.692,3.692,0,0,1-1.066.152,3.25,3.25,0,0,1-1.117-.2,1.556,1.556,0,0,1-1.117-1.117,1.917,1.917,0,0,1-.1-.609,1.791,1.791,0,0,1,.3-1.016,4.622,4.622,0,0,0,.355-.508.269.269,0,0,0,0-.229q-.051-.127-.152-.127H36.105a.249.249,0,0,0-.229.127.228.228,0,0,0-.025.229,8.359,8.359,0,0,0,3.479,4.088,22.072,22.072,0,0,0,8,2.564,1.718,1.718,0,0,1,1.32,1.066,1.713,1.713,0,0,1,.2.762,1.96,1.96,0,0,1-.3,1.016,4.736,4.736,0,0,1-1.879,1.777,3.3,3.3,0,0,1-1.574.406,3.339,3.339,0,0,1-.812-.1.146.146,0,0,1-.1-.051q-.406-.051-.406.3ZM83.306-42.453a2.25,2.25,0,0,1,1.65.686,2.28,2.28,0,0,1,.686,1.676,2.28,2.28,0,0,1-.686,1.676,2.25,2.25,0,0,1-1.65.686H72.692a2.25,2.25,0,0,1-1.65-.686,2.28,2.28,0,0,1-.686-1.676,2.28,2.28,0,0,1,.686-1.676,2.25,2.25,0,0,1,1.65-.686Zm1.777,7.008a2.351,2.351,0,0,1,1.727.711,2.351,2.351,0,0,1,.711,1.727,2.351,2.351,0,0,1-.711,1.727,2.351,2.351,0,0,1-1.727.711H70.2a2.351,2.351,0,0,1-1.727-.711,2.351,2.351,0,0,1-.711-1.727,2.351,2.351,0,0,1,.711-1.727,2.351,2.351,0,0,1,1.727-.711Zm-1.625,7.211a2.25,2.25,0,0,1,1.65.686,2.28,2.28,0,0,1,.686,1.676,2.28,2.28,0,0,1-.686,1.676,2.25,2.25,0,0,1-1.65.686H72.591a2.31,2.31,0,0,1-1.7-.686,2.28,2.28,0,0,1-.686-1.676,2.28,2.28,0,0,1,.686-1.676,2.31,2.31,0,0,1,1.7-.686ZM72.489-16.5a2.234,2.234,0,0,1-1.6-.66,2.167,2.167,0,0,1-.686-1.625,2.25,2.25,0,0,1,.686-1.65,2.192,2.192,0,0,1,1.6-.686h11.02a2.192,2.192,0,0,1,1.6.686,2.25,2.25,0,0,1,.686,1.65,2.167,2.167,0,0,1-.686,1.625,2.234,2.234,0,0,1-1.6.66ZM80.208-3.047a.359.359,0,0,0,.406-.406v-5.23q0-.355-.406-.355h-4.57q-.406,0-.406.355v5.23a.359.359,0,0,0,.406.406ZM88.79-37.02a2.837,2.837,0,0,1-.863-2.082,2.755,2.755,0,0,1,.863-2.057A2.881,2.881,0,0,1,90.872-42h17.266a2.837,2.837,0,0,1,2.082.863,2.867,2.867,0,0,1,.813,2.031l-.152,11.68q0,7.668.3,13.965.508,10.766,2.133,11.172.152.051.33-1.066t.33-3a.86.86,0,0,1,.711-.863A.87.87,0,0,1,115.7-6.8a.146.146,0,0,0,.051.1,7.991,7.991,0,0,1,1.422,4.266,5.428,5.428,0,0,1-.1,1.066q-1.219,5.941-4.52,5.941a4.708,4.708,0,0,1-1.93-.457,3.761,3.761,0,0,1-1.549-1.066A6.722,6.722,0,0,1,107.884.99q-.508-1.295-.939-2.666a22.625,22.625,0,0,1-.736-3.5q-.3-2.133-.533-4.012t-.381-4.672q-.152-2.793-.229-4.951t-.127-5.459q-.051-3.3-.076-5.611t-.025-5.865a.359.359,0,0,0-.406-.406H99.3a.359.359,0,0,0-.406.406v10.766a.359.359,0,0,0,.406.406h1.625a2.737,2.737,0,0,1,2.006.838,2.766,2.766,0,0,1,.838,2.031,2.766,2.766,0,0,1-.838,2.031,2.737,2.737,0,0,1-2.006.838H99.149a.359.359,0,0,0-.406.406,51.446,51.446,0,0,1-2.158,11.3,28.8,28.8,0,0,1-5.154,9.521,2.408,2.408,0,0,1-1.879.863h-.1a2.973,2.973,0,0,1-2.031-.914q-.812-.762-1.473-1.32-.1-.1-.1,0a.778.778,0,0,1-.2.533.651.651,0,0,1-.508.229H75.485q-.254,0-.254.2A1.763,1.763,0,0,1,74.7,3.275a1.705,1.705,0,0,1-1.244.533h-.812a2.493,2.493,0,0,1-1.828-.762,2.493,2.493,0,0,1-.762-1.828V-10.918a2.9,2.9,0,0,1,.863-2.133,2.9,2.9,0,0,1,2.133-.863h9.8a2.9,2.9,0,0,1,2.133.863,2.9,2.9,0,0,1,.863,2.133v9.6a.163.163,0,0,0,.1.152.1.1,0,0,0,.152-.051q5.687-6.449,6.7-17.215,0-.406-.355-.406H90.263a2.8,2.8,0,0,1-2.057-.838,2.766,2.766,0,0,1-.838-2.031,2.766,2.766,0,0,1,.838-2.031,2.8,2.8,0,0,1,2.057-.838h2.387q.355,0,.355-.406V-35.75q0-.406-.355-.406H90.872A2.837,2.837,0,0,1,88.79-37.02Zm53.649,18.18a.314.314,0,0,0,.355.355h4.418a.314.314,0,0,0,.355-.355v-5.535a.314.314,0,0,0-.355-.355h-4.367a.314.314,0,0,0-.355.355v1.016Q142.49-20.414,142.439-18.84Zm5.129-17.266q0-.406-.355-.406h-4.367q-.355,0-.355.406v5.23q0,.406.355.406h4.367q.355,0,.355-.406ZM150.31-42.2a2.922,2.922,0,0,1,2.107.863,2.855,2.855,0,0,1,.889,2.133V-2.234a11.144,11.144,0,0,1-.457,3.58A3.91,3.91,0,0,1,151.174,3.4a10.023,10.023,0,0,1-4.266,1.066h-.2a3.1,3.1,0,0,1-2.031-.762,4.1,4.1,0,0,1-1.32-2.133.451.451,0,0,0-.051-.2,2.413,2.413,0,0,1-.1-.66,2.028,2.028,0,0,1,.406-1.219,1.941,1.941,0,0,1,1.676-.863q.355,0,.813-.025t.609-.025a.907.907,0,0,0,.66-.2.991.991,0,0,0,.2-.711v-9.9q0-.406-.355-.406H142.49q-.355,0-.406.406a58.219,58.219,0,0,1-2.59,14.117,1.88,1.88,0,0,1-1.371,1.371,3.339,3.339,0,0,1-.812.1A2.4,2.4,0,0,1,136.092,3a3.442,3.442,0,0,1-1.523-1.727,3.834,3.834,0,0,1-.2-1.219,3.519,3.519,0,0,1,.152-1.016,40.288,40.288,0,0,0,1.625-7.516q.559-4.316.66-7.465t.1-7.414V-39.2a2.855,2.855,0,0,1,.889-2.133A2.922,2.922,0,0,1,139.9-42.2ZM162.4-18.434a.2.2,0,0,0-.2-.152q-.152,0-.152.2V-.762a.2.2,0,0,0,.1.2.216.216,0,0,0,.2,0,24.088,24.088,0,0,0,5.789-4.824.467.467,0,0,0,.051-.609A52.544,52.544,0,0,1,162.4-18.434Zm12.492.254a.28.28,0,0,0-.051-.279.313.313,0,0,0-.254-.127h-6.6a.249.249,0,0,0-.229.127.321.321,0,0,0-.025.279,39.732,39.732,0,0,0,3.656,7.414.316.316,0,0,0,.229.1.182.182,0,0,0,.178-.1A38.338,38.338,0,0,0,174.889-18.18Zm2.285-5.992a4.689,4.689,0,0,1,.66-.051,3.031,3.031,0,0,1,.965.152l1.066.355a2.162,2.162,0,0,1,1.193.965,2.1,2.1,0,0,1,.279,1.523A47.228,47.228,0,0,1,175.65-6.043a.467.467,0,0,0,.051.609,29.078,29.078,0,0,0,4.773,3.809A2.3,2.3,0,0,1,181.643,0a2.353,2.353,0,0,1,.051.457,2.421,2.421,0,0,1-.559,1.523l-.152.152A3.227,3.227,0,0,1,179,3.4a2.413,2.413,0,0,1-.66.1A2.8,2.8,0,0,1,176.768,3,32.469,32.469,0,0,1,172.2-.812a.37.37,0,0,0-.559,0,26.1,26.1,0,0,1-4.062,3.656,2.767,2.767,0,0,1-1.523.457,4.688,4.688,0,0,1-.66-.051,3.21,3.21,0,0,1-1.93-1.27A12.84,12.84,0,0,0,162.295.609a.1.1,0,0,0-.152-.051.163.163,0,0,0-.1.152v.914a2.837,2.837,0,0,1-.863,2.082,2.942,2.942,0,0,1-4.164,0,2.837,2.837,0,0,1-.863-2.082V-39.152a2.855,2.855,0,0,1,.889-2.133,2.922,2.922,0,0,1,2.107-.863h17.926a2.9,2.9,0,0,1,2.133.863,2.9,2.9,0,0,1,.863,2.133v7.008a7.362,7.362,0,0,1-.584,3.275,3.639,3.639,0,0,1-2.158,1.7,20.223,20.223,0,0,1-6.2.813h-.051A3.3,3.3,0,0,1,169-27.117a4.684,4.684,0,0,1-1.371-1.93,2.076,2.076,0,0,1-.1-.66,1.711,1.711,0,0,1,.3-.965,1.615,1.615,0,0,1,1.422-.762h2.234q1.016,0,1.574-.051a1.429,1.429,0,0,0,.838-.178.761.761,0,0,0,.229-.635v-3.758q0-.406-.355-.406H162.4q-.355,0-.355.406v11.527q0,.406.355.406h14.574A.451.451,0,0,0,177.174-24.172Zm58.321,8.734q-.051.355.355.355h8.227a2.552,2.552,0,0,1,1.98.914,2.436,2.436,0,0,1,.762,1.777.958.958,0,0,1-.051.3,81.319,81.319,0,0,1-1.346,9.572,10.14,10.14,0,0,1-1.854,4.443,6.066,6.066,0,0,1-3.809,1.828q-1.117.1-2.844.152a3.009,3.009,0,0,1-2.133-.863,4.39,4.39,0,0,1-1.32-2.133l-.051-.051a3.7,3.7,0,0,1-.051-.609,1.906,1.906,0,0,1,.355-1.117,1.741,1.741,0,0,1,1.473-.762h1.574a2.5,2.5,0,0,0,1.676-.559q1.117-1.066,1.93-7.363.051-.406-.355-.406h-5.281a.454.454,0,0,0-.457.406,21.5,21.5,0,0,1-3.859,7.414A21.071,21.071,0,0,1,223.409,3.3a3.127,3.127,0,0,1-1.32.3,3.519,3.519,0,0,1-1.016-.152,4.2,4.2,0,0,1-1.98-1.473,2.376,2.376,0,0,1-.457-1.371A2.583,2.583,0,0,1,218.686.1a2.011,2.011,0,0,1,1.168-1.523A15.876,15.876,0,0,0,227.827-9.6a.228.228,0,0,0-.025-.229.249.249,0,0,0-.229-.127h-3.3a2.537,2.537,0,0,1-1.828-.736,2.411,2.411,0,0,1-.762-1.8,2.493,2.493,0,0,1,.762-1.828,2.493,2.493,0,0,1,1.828-.762h4.621a.439.439,0,0,0,.457-.355q.1-.66.152-1.27a3.351,3.351,0,0,1,1.092-2.133A3.159,3.159,0,0,1,232.8-19.7h.152a2.605,2.605,0,0,1,2.031.914,2.463,2.463,0,0,1,.711,1.727,1.492,1.492,0,0,1-.051.355Q235.6-16.047,235.495-15.437Zm2.082-17.926a.228.228,0,0,0-.025-.229.214.214,0,0,0-.178-.127h-7.008q-.1,0-.152.127a.269.269,0,0,0,0,.229,21.608,21.608,0,0,0,3.809,3.859.351.351,0,0,0,.559-.051A16.748,16.748,0,0,0,237.577-33.363Zm9.293-4.723a2.493,2.493,0,0,1,.762,1.828,2.411,2.411,0,0,1-.762,1.8,2.537,2.537,0,0,1-1.828.736h-.1a.439.439,0,0,0-.457.355,26.569,26.569,0,0,1-4.824,7.008q-.254.254.1.406a36.4,36.4,0,0,0,6.3,2.234,1.718,1.718,0,0,1,1.27,1.219,1.917,1.917,0,0,1,.1.609,1.748,1.748,0,0,1-.406,1.117,2.361,2.361,0,0,0-.355.457,4.365,4.365,0,0,1-2.031,1.625,3.655,3.655,0,0,1-1.32.254,3.25,3.25,0,0,1-1.117-.2,36.608,36.608,0,0,1-7.414-3.4.587.587,0,0,0-.66,0,38.365,38.365,0,0,1-8.023,3.5,3.986,3.986,0,0,1-.863.1,2.845,2.845,0,0,1-1.066-.2,3.278,3.278,0,0,1-1.574-1.219.151.151,0,0,0-.152-.025q-.1.025-.1.076a63.832,63.832,0,0,1-1.727,6.246,1.833,1.833,0,0,1-1.117,1.27,2.3,2.3,0,0,1-.812.152,2.234,2.234,0,0,1-.914-.2,2.777,2.777,0,0,1-1.32-1.32,2.791,2.791,0,0,1-.254-1.168,2.577,2.577,0,0,1,.1-.711q.559-2.234,1.016-4.57.051-.355-.355-.355h-1.98a.314.314,0,0,0-.355.355V-2.184a9.954,9.954,0,0,1-.482,3.479,3.555,3.555,0,0,1-1.752,1.9,10.838,10.838,0,0,1-4.367,1.066h-.2a3.1,3.1,0,0,1-2.031-.762,3.976,3.976,0,0,1-1.371-2.133.207.207,0,0,1-.051-.152,1.686,1.686,0,0,1-.152-.66A2.028,2.028,0,0,1,204.62-.66a1.9,1.9,0,0,1,1.625-.863h1.727a1.429,1.429,0,0,0,.635-.178q.178-.127.178-.584V-13.051q0-.051-.076-.076t-.076.076a38.025,38.025,0,0,1-4.316,7.059,1.543,1.543,0,0,1-1.27.66,1.669,1.669,0,0,1-.406-.051,1.989,1.989,0,0,1-1.473-1.168l-.3-.609a4.241,4.241,0,0,1-.406-1.828,3.7,3.7,0,0,1,.051-.609,4.625,4.625,0,0,1,1.066-2.336A34.259,34.259,0,0,0,206.7-20.16a.182.182,0,0,0-.025-.2.22.22,0,0,0-.178-.1h-3.453a2.554,2.554,0,0,1-1.9-.812,2.679,2.679,0,0,1-.787-1.93,2.594,2.594,0,0,1,.787-1.9,2.594,2.594,0,0,1,1.9-.787h8.836q.1,0,.1-.076a.172.172,0,0,0-.051-.127q-3.352-1.98-7.16-3.758a1.843,1.843,0,0,1-1.117-1.371v-.406a1.836,1.836,0,0,1,.508-1.27,4.166,4.166,0,0,1,2.133-1.168,3.986,3.986,0,0,1,.863-.1,4.2,4.2,0,0,1,1.574.3q.609.254,1.168.508a.509.509,0,0,0,.609-.1,34.928,34.928,0,0,0,2.742-2.742.166.166,0,0,0,.051-.2.163.163,0,0,0-.152-.1h-9.5a2.553,2.553,0,0,1-1.879-.762,2.493,2.493,0,0,1-.762-1.828,2.493,2.493,0,0,1,.762-1.828,2.553,2.553,0,0,1,1.879-.762h14.066a.451.451,0,0,0,.2-.051,2.128,2.128,0,0,1,1.574.3l1.219.762a2.316,2.316,0,0,1,1.066,1.473,2.583,2.583,0,0,1,.051.508,2.028,2.028,0,0,1-.406,1.219,42.405,42.405,0,0,1-6.043,6.4q-.254.254.1.406l.914.508a2.1,2.1,0,0,1,1.117,1.777.958.958,0,0,1,.051.3,2.292,2.292,0,0,1-.711,1.676l-.2.254A.1.1,0,0,0,216.6-26a.163.163,0,0,0,.152.1h2.031a.207.207,0,0,0,.152-.051,2.425,2.425,0,0,1,1.473.051l2.031.66a1.35,1.35,0,0,1,.66.533,1.043,1.043,0,0,1,.152.838.225.225,0,0,0,.025.1q.025.051.076,0a28.715,28.715,0,0,0,5.891-2.184q.355-.152.051-.406a30.318,30.318,0,0,1-3.2-3.758q-.2-.3-.457-.051a2.991,2.991,0,0,1-2.133.965h-.152a3.513,3.513,0,0,1-2.133-.711.8.8,0,0,1-.2-.152,2.1,2.1,0,0,1-.965-1.828,2.221,2.221,0,0,1,.762-1.676,30.475,30.475,0,0,0,6.3-7.82,4.168,4.168,0,0,1,1.828-1.676,3.7,3.7,0,0,1,1.473-.3,4.2,4.2,0,0,1,.914.1,2.44,2.44,0,0,1,1.625,1.371,2.349,2.349,0,0,1,.2.965,2.315,2.315,0,0,1-.3,1.117,4.094,4.094,0,0,0-.355.66.141.141,0,0,0-.025.2.22.22,0,0,0,.178.1h12.391A2.493,2.493,0,0,1,246.87-38.086ZM293.308-18.18a.359.359,0,0,0,.406.406h10.969a.359.359,0,0,0,.406-.406V-28.59q0-.355-.406-.355H293.715q-.406,0-.406.355Zm-18.23,0a.359.359,0,0,0,.406.406H286.4q.355,0,.355-.406V-28.59a.314.314,0,0,0-.355-.355H275.484q-.406,0-.406.355Zm18.23-17.266a.359.359,0,0,0,.406.406h14.879a2.922,2.922,0,0,1,2.107.863,2.855,2.855,0,0,1,.889,2.133v19.957a2.88,2.88,0,0,1-.889,2.107,2.88,2.88,0,0,1-2.107.889h-1.219a2.167,2.167,0,0,1-1.625-.686,2.294,2.294,0,0,1-.66-1.65q0-.254-.3-.254h-11.07q-.406,0-.406.355V1.523a2.9,2.9,0,0,1-.863,2.133,2.9,2.9,0,0,1-2.133.863h-.559a2.922,2.922,0,0,1-2.107-.863,2.855,2.855,0,0,1-.889-2.133V-11.324a.314.314,0,0,0-.355-.355h-11.02a.269.269,0,0,0-.3.3,2.452,2.452,0,0,1-.736,1.8,2.452,2.452,0,0,1-1.8.736h-.711a2.88,2.88,0,0,1-2.107-.889,2.88,2.88,0,0,1-.889-2.107V-32.043a2.855,2.855,0,0,1,.889-2.133,2.922,2.922,0,0,1,2.107-.863H286.4q.355,0,.355-.406v-5.586a2.855,2.855,0,0,1,.889-2.133,2.922,2.922,0,0,1,2.107-.863h.559a2.9,2.9,0,0,1,2.133.863,2.9,2.9,0,0,1,.863,2.133ZM367.93-23.41a2.687,2.687,0,0,1-.457-1.473,2.984,2.984,0,0,1,.1-.711,2.63,2.63,0,0,1,1.32-1.676l.355-.152a3.3,3.3,0,0,1,1.574-.406,3.339,3.339,0,0,1,.813.1,3.4,3.4,0,0,1,2.031,1.371,65.8,65.8,0,0,1,4.063,6.957,56.241,56.241,0,0,1,2.742,6.449,3.25,3.25,0,0,1,.2,1.117,3.127,3.127,0,0,1-.3,1.32,3.534,3.534,0,0,1-1.727,1.777l-.914.457a2.3,2.3,0,0,1-1.041.254,2.3,2.3,0,0,1-1.041-.254,2.3,2.3,0,0,1-1.32-1.574,59.6,59.6,0,0,0-2.488-6.4A67.862,67.862,0,0,0,367.93-23.41Zm-31.84-.3a2.665,2.665,0,0,1,1.168-1.93,2.572,2.572,0,0,1,1.523-.508,3.7,3.7,0,0,1,.609.051l.2.051a3.249,3.249,0,0,1,2.031,1.27,3.191,3.191,0,0,1,.609,1.879,2.354,2.354,0,0,1-.051.457q-1.27,9.242-3.758,14.574a2.471,2.471,0,0,1-1.777,1.422,3.339,3.339,0,0,1-.812.1,2.93,2.93,0,0,1-1.473-.406l-.609-.355a2.661,2.661,0,0,1-1.32-1.777,2.438,2.438,0,0,1-.152-.863,3.155,3.155,0,0,1,.355-1.422A40.016,40.016,0,0,0,336.091-23.715ZM348.735-39.1a2,2,0,0,1-1.32-1.473,3.7,3.7,0,0,1-.051-.609,2.377,2.377,0,0,1,.457-1.371l.2-.152a3.871,3.871,0,0,1,2.133-1.422,3.691,3.691,0,0,1,1.066-.152,3.7,3.7,0,0,1,1.473.3q3.2,1.32,6.551,3.047,3.148,1.676,5.586,3.25a2.476,2.476,0,0,1,1.219,1.879,2.584,2.584,0,0,1,.051.508,2.771,2.771,0,0,1-.559,1.676l-.508.66a2.716,2.716,0,0,1-1.93,1.117,2.354,2.354,0,0,1-.457.051,2.9,2.9,0,0,1-1.777-.609,61.123,61.123,0,0,0-5.484-3.352Q351.985-37.629,348.735-39.1Zm-3,11.73a2.88,2.88,0,0,1,.889-2.107,2.88,2.88,0,0,1,2.107-.889h.457a2.88,2.88,0,0,1,2.107.889,2.88,2.88,0,0,1,.889,2.107V-5.687a3.7,3.7,0,0,0,.482,2.361,3.586,3.586,0,0,0,2.311.482h7.16A2.408,2.408,0,0,0,364.63-4.57a26.411,26.411,0,0,0,.66-5.027,1.611,1.611,0,0,1,.914-1.422,1.868,1.868,0,0,1,.914-.254,1.9,1.9,0,0,1,.863.2l.406.2a4.078,4.078,0,0,1,1.98,1.625,3.191,3.191,0,0,1,.609,1.879v.457Q370.368-1.93,369,.152q-1.727,2.691-6.348,2.691h-8.48q-4.926,0-6.678-1.8t-1.752-6.729Z" transform="translate(307.601 318.971)" fill="#f3704e" opacity="0.92"/>
    <path id="Subtraction_1" data-name="Subtraction 1" d="M381.228,54.54a49.661,49.661,0,0,1-19.26-3.845,49.448,49.448,0,0,1-15.74-10.488A49.446,49.446,0,0,1,330.488,50.7a49.661,49.661,0,0,1-19.26,3.845,49.756,49.756,0,0,1-17.965-3.325,49.5,49.5,0,0,1-15.035-9.138,49.5,49.5,0,0,1-15.035,9.138,50.2,50.2,0,0,1-35.682.1,49.484,49.484,0,0,1-14.891-8.9,49.5,49.5,0,0,1-14.891,8.891,50.21,50.21,0,0,1-35.433,0,49.486,49.486,0,0,1-14.89-8.891,49.5,49.5,0,0,1-14.891,8.891,50.213,50.213,0,0,1-35.434,0A49.486,49.486,0,0,1,82.19,42.42,49.5,49.5,0,0,1,67.3,51.311a49.774,49.774,0,0,1-17.716,3.23,49.66,49.66,0,0,1-19.3-3.861,49.444,49.444,0,0,1-15.76-10.53A48.947,48.947,0,0,1,3.9,24.53,48.447,48.447,0,0,1,0,5.4C0,3.9.07,2.38.208.888,3.358,25.312,24.5,43.73,49.387,43.73a49.63,49.63,0,0,0,34-13.372,49.626,49.626,0,0,0,34,13.372,49.694,49.694,0,0,0,33.5-12.911,49.7,49.7,0,0,0,33.5,12.911,49.7,49.7,0,0,0,33.5-12.911,49.7,49.7,0,0,0,33.5,12.911,49.629,49.629,0,0,0,34-13.372,49.629,49.629,0,0,0,34,13.372,49.7,49.7,0,0,0,33.5-12.911,49.7,49.7,0,0,0,33.5,12.911,49.483,49.483,0,0,0,41.932-22.9,48.759,48.759,0,0,1-7.025,13.529,49.664,49.664,0,0,1-24.366,17.67,49.935,49.935,0,0,1-15.7,2.511Z" transform="translate(283.033 297.857)" fill="#bed7ee"/>
  </g>
</svg>
