<svg xmlns="http://www.w3.org/2000/svg" width="430.163" height="98.271" viewBox="0 0 430.163 98.271">
  <g id="logo-2" transform="translate(-282.837 -254.126)">
    <g id="Union_1" data-name="Union 1" transform="translate(283.033 254.126)" fill="#fff">
      <path d="M 380.3859252929688 97.27011108398438 C 374.3128662109375 97.27011108398438 368.3894653320312 96.17394256591797 362.7803039550781 94.01205444335938 C 357.3623657226562 91.92388153076172 352.4057006835938 88.91121673583984 348.0480346679688 85.05766296386719 L 347.3855895996094 84.47183227539062 L 346.72314453125 85.05766296386719 C 342.365478515625 88.91121673583984 337.4088134765625 91.92388153076172 331.9908752441406 94.01205444335938 C 326.3816833496094 96.17394256591797 320.4583740234375 97.27011108398438 314.3853149414062 97.27011108398438 C 308.3124694824219 97.27011108398438 302.3893127441406 96.17394256591797 296.7802429199219 94.01210784912109 C 291.3624267578125 91.92394256591797 286.4059143066406 88.91127014160156 282.0483093261719 85.05771636962891 L 281.3858642578125 84.47188568115234 L 280.7234191894531 85.05771636962891 C 276.3657531738281 88.91127014160156 271.4090881347656 91.92394256591797 265.9911499023438 94.01210784912109 C 260.3819580078125 96.17394256591797 254.4586334228516 97.27011108398438 248.3855895996094 97.27011108398438 C 236.1949768066406 97.27011108398438 224.5365295410156 92.77699279785156 215.5579223632812 84.61849975585938 L 214.8854217529297 84.00743865966797 L 214.2129211425781 84.61849975585938 C 205.2344665527344 92.77699279785156 193.5763092041016 97.27011108398438 181.3860321044922 97.27011108398438 C 175.3129730224609 97.27011108398438 169.3895874023438 96.17394256591797 163.7804107666016 94.01205444335938 C 158.3624725341797 91.92388153076172 153.4058074951172 88.91121673583984 149.0481414794922 85.05766296386719 L 148.3856964111328 84.47183227539062 L 147.7232513427734 85.05766296386719 C 143.3655853271484 88.91121673583984 138.4089202880859 91.92388153076172 132.990966796875 94.01205444335938 C 127.3818054199219 96.17394256591797 121.4584732055664 97.27011108398438 115.3854141235352 97.27011108398438 C 109.3125839233398 97.27011108398438 103.3893585205078 96.17394256591797 97.78035736083984 94.01210784912109 C 92.36252593994141 91.92394256591797 87.40597534179688 88.91127014160156 83.04836273193359 85.05771636962891 L 82.38591766357422 84.47188568115234 L 81.72347259521484 85.05771636962891 C 77.36580657958984 88.91127014160156 72.40919494628906 91.92394256591797 66.99124908447266 94.01210784912109 C 61.38208389282227 96.17394256591797 55.45874786376953 97.27011108398438 49.38569259643555 97.27011108398438 C 42.82558441162109 97.27011108398438 36.46236038208008 95.99710845947266 30.47274971008301 93.48654937744141 C 24.68752670288086 91.06160736083984 19.49180603027344 87.59011077880859 15.029860496521 83.16832733154297 C 10.56863880157471 78.74721527099609 7.0661940574646 73.59938812255859 4.619916439056396 67.86782836914062 C 2.087749719619751 61.93494033813477 0.8038051724433899 55.63216400146484 0.8038051724433899 49.13460540771484 C 0.8038051724433899 42.63727569580078 2.087749719619751 36.33466339111328 4.619916439056396 30.40194129943848 C 7.0661940574646 24.67044067382812 10.56863880157471 19.52271842956543 15.029860496521 15.10166263580322 C 19.49180603027344 10.67994022369385 24.68752670288086 7.208440780639648 30.47274971008301 4.783551692962646 C 36.46236038208008 2.272996187210083 42.82563781738281 0.9999961853027344 49.38569259643555 0.9999961853027344 C 55.45874786376953 0.9999961853027344 61.38213729858398 2.096162796020508 66.99124908447266 4.257940769195557 C 72.40919494628906 6.346107482910156 77.36580657958984 9.358774185180664 81.72347259521484 13.21227359771729 L 82.38591766357422 13.7981071472168 L 83.04836273193359 13.21227359771729 C 87.40597534179688 9.358774185180664 92.36252593994141 6.346107482910156 97.78035736083984 4.257940769195557 C 103.3893585205078 2.096162796020508 109.3125839233398 0.9999961853027344 115.3854141235352 0.9999961853027344 C 121.4584732055664 0.9999961853027344 127.3818054199219 2.096162796020508 132.990966796875 4.257996082305908 C 138.4089202880859 6.346162796020508 143.3655853271484 9.358829498291016 147.7232513427734 13.21232986450195 L 148.3856964111328 13.7981071472168 L 149.0481414794922 13.21232986450195 C 153.4058074951172 9.358829498291016 158.3624725341797 6.346162796020508 163.7804107666016 4.257996082305908 C 169.3895874023438 2.096162796020508 175.3129730224609 0.9999961853027344 181.3860321044922 0.9999961853027344 C 193.5763092041016 0.9999961853027344 205.2344207763672 5.493051528930664 214.2129211425781 13.65155220031738 L 214.8854217529297 14.26260757446289 L 215.5579223632812 13.65155220031738 C 224.5365753173828 5.493051528930664 236.1949768066406 0.9999961853027344 248.3855895996094 0.9999961853027344 C 254.4586334228516 0.9999961853027344 260.3820190429688 2.096162796020508 265.9911499023438 4.257940769195557 C 271.4090881347656 6.346107482910156 276.3657531738281 9.358774185180664 280.7234191894531 13.21227359771729 L 281.3858642578125 13.7981071472168 L 282.0483093261719 13.21227359771729 C 286.4059143066406 9.358774185180664 291.3624267578125 6.346107482910156 296.7802429199219 4.257940769195557 C 302.3892517089844 2.096162796020508 308.3124694824219 0.9999961853027344 314.3853149414062 0.9999961853027344 C 320.4583740234375 0.9999961853027344 326.3816833496094 2.096162796020508 331.9908752441406 4.257996082305908 C 337.4088134765625 6.346162796020508 342.365478515625 9.358829498291016 346.72314453125 13.21232986450195 L 347.3855895996094 13.7981071472168 L 348.0480346679688 13.21232986450195 C 352.4057006835938 9.358829498291016 357.3623657226562 6.346162796020508 362.7803039550781 4.257996082305908 C 368.3894653320312 2.096162796020508 374.3128662109375 0.9999961853027344 380.3859252929688 0.9999961853027344 C 386.9459838867188 0.9999961853027344 393.3092041015625 2.272996187210083 399.2987365722656 4.783551692962646 C 405.0838623046875 7.208440780639648 410.2794799804688 10.67994022369385 414.7413024902344 15.10166263580322 C 419.2024230957031 19.52266311645508 422.7047424316406 24.67044067382812 425.1509094238281 30.40194129943848 C 427.6830139160156 36.33466339111328 428.9669189453125 42.6372184753418 428.9669189453125 49.13460540771484 C 428.9669189453125 55.63221740722656 427.6830139160156 61.93494033813477 425.1509094238281 67.86782836914062 C 422.7047424316406 73.59944152832031 419.2024230957031 78.74727630615234 414.7412414550781 83.16838836669922 C 410.2794799804688 87.59011077880859 405.0838623046875 91.06160736083984 399.2987365722656 93.48654937744141 C 393.3092041015625 95.99710845947266 386.9459838867188 97.27011108398438 380.3859252929688 97.27011108398438 Z" stroke="none"/>
      <path d="M 380.3859252929688 96.27011108398438 C 386.8125305175781 96.27011108398438 393.0456848144531 95.02327728271484 398.9121398925781 92.56427764892578 C 404.578369140625 90.18921661376953 409.6672058105469 86.78899383544922 414.037353515625 82.45805358886719 C 418.40625 78.12838745117188 421.8359680175781 73.08744049072266 424.231201171875 67.47527313232422 C 426.7100219726562 61.66721725463867 427.9669189453125 55.49649429321289 427.9669189453125 49.13460540771484 C 427.9669189453125 42.77294158935547 426.7100219726562 36.60238647460938 424.231201171875 30.79444122314453 C 421.8359680175781 25.1823844909668 418.4063110351562 20.14155197143555 414.037353515625 15.81194019317627 C 409.6672058105469 11.48105144500732 404.578369140625 8.080829620361328 398.9122009277344 5.705829620361328 C 393.0456848144531 3.246829509735107 386.8125305175781 1.999996185302734 380.3859252929688 1.999996185302734 C 374.4363098144531 1.999996185302734 368.6339111328125 3.073662757873535 363.1399230957031 5.191107273101807 C 357.8334045410156 7.236273765563965 352.9786987304688 10.18705177307129 348.7104797363281 13.96144104003906 L 347.3855895996094 15.13305187225342 L 346.0606994628906 13.96144104003906 C 341.79248046875 10.18705177307129 336.937744140625 7.236273765563965 331.6312561035156 5.191107273101807 C 326.1372375488281 3.073662757873535 320.3349304199219 1.999996185302734 314.3853149414062 1.999996185302734 C 308.4359130859375 1.999996185302734 302.6336975097656 3.073607206344604 297.1399230957031 5.191051959991455 C 291.8335266113281 7.236218452453613 286.9788513183594 10.18699645996094 282.7107543945312 13.96138477325439 L 281.3858642578125 15.13299655914307 L 280.0609741210938 13.96138477325439 C 275.7928161621094 10.18699645996094 270.9380187988281 7.236218452453613 265.6315307617188 5.191051959991455 C 260.1375732421875 3.073607206344604 254.3351898193359 1.999996185302734 248.3855895996094 1.999996185302734 C 236.4441986083984 1.999996185302734 225.0246429443359 6.400774002075195 216.2304229736328 14.39166259765625 L 214.8854217529297 15.61377429962158 L 213.5404205322266 14.3916072845459 C 204.7463531494141 6.400774002075195 193.3270874023438 1.999996185302734 181.3860321044922 1.999996185302734 C 175.4364166259766 1.999996185302734 169.634033203125 3.073662757873535 164.1400299072266 5.191107273101807 C 158.8335266113281 7.236273765563965 153.9788055419922 10.18705177307129 149.7105865478516 13.96144104003906 L 148.3856964111328 15.13305187225342 L 147.0608062744141 13.96144104003906 C 142.7925872802734 10.18705177307129 137.9378662109375 7.236273765563965 132.6313629150391 5.191107273101807 C 127.1373596191406 3.073662757873535 121.3350296020508 1.999996185302734 115.3854141235352 1.999996185302734 C 109.4360275268555 1.999996185302734 103.6338043212891 3.073607206344604 98.13996887207031 5.191051959991455 C 92.83364105224609 7.236218452453613 87.97897338867188 10.18699645996094 83.71080780029297 13.96138477325439 L 82.38591766357422 15.13299655914307 L 81.06102752685547 13.96138477325439 C 76.79286193847656 10.18699645996094 71.93814086914062 7.236218452453613 66.63163757324219 5.191051959991455 C 61.1376953125 3.073607206344604 55.33530426025391 1.999996185302734 49.38569259643555 1.999996185302734 C 42.95908355712891 1.999996185302734 36.72586059570312 3.246829509735107 30.85930442810059 5.705829620361328 C 25.19302749633789 8.080829620361328 20.10408210754395 11.48105144500732 15.73374938964844 15.81194019317627 C 11.36474990844727 20.1416072845459 7.934971809387207 25.18243980407715 5.539638519287109 30.79449653625488 C 3.060749530792236 36.60243988037109 1.803805112838745 42.77294158935547 1.803805112838745 49.13460540771484 C 1.803805112838745 55.49649429321289 3.060749530792236 61.66716384887695 5.539638519287109 67.47527313232422 C 7.934971809387207 73.08744049072266 11.36474990844727 78.12832641601562 15.73380470275879 82.45805358886719 C 20.10408210754395 86.78899383544922 25.19302749633789 90.18921661376953 30.85930442810059 92.56427764892578 C 36.72586059570312 95.02327728271484 42.95902633666992 96.27011108398438 49.38569259643555 96.27011108398438 C 55.33530426025391 96.27011108398438 61.1376953125 95.19644165039062 66.63163757324219 93.07899475097656 C 71.93807983398438 91.03382873535156 76.79286193847656 88.08299255371094 81.06102752685547 84.30860900878906 L 82.38591766357422 83.13699340820312 L 83.71080780029297 84.30860900878906 C 87.97897338867188 88.08305358886719 92.83364105224609 91.03382873535156 98.13996887207031 93.07899475097656 C 103.6338043212891 95.19644165039062 109.4360275268555 96.27011108398438 115.3854141235352 96.27011108398438 C 121.3350296020508 96.27011108398438 127.1373596191406 95.19644165039062 132.6313629150391 93.07899475097656 C 137.9378051757812 91.03377532958984 142.7925872802734 88.08299255371094 147.0608062744141 84.30854797363281 L 148.3856964111328 83.13694000244141 L 149.7105865478516 84.30854797363281 C 153.9788055419922 88.08299255371094 158.8335876464844 91.03377532958984 164.1400299072266 93.07899475097656 C 169.634033203125 95.19644165039062 175.4364166259766 96.27011108398438 181.3860321044922 96.27011108398438 C 193.3270874023438 96.27011108398438 204.7464141845703 91.86933135986328 213.5404205322266 83.87844085693359 L 214.8854217529297 82.65627288818359 L 216.2304229736328 83.87838745117188 C 225.0245819091797 91.86933135986328 236.4441986083984 96.27011108398438 248.3855895996094 96.27011108398438 C 254.3351898193359 96.27011108398438 260.1375732421875 95.19644165039062 265.6315307617188 93.07899475097656 C 270.9380187988281 91.03382873535156 275.7927551269531 88.08299255371094 280.0609741210938 84.30860900878906 L 281.3858642578125 83.13699340820312 L 282.7107543945312 84.30860900878906 C 286.9788513183594 88.08305358886719 291.8335266113281 91.03382873535156 297.1399230957031 93.07899475097656 C 302.6337585449219 95.19644165039062 308.4359130859375 96.27011108398438 314.3853149414062 96.27011108398438 C 320.3349304199219 96.27011108398438 326.1372375488281 95.19644165039062 331.6312561035156 93.07899475097656 C 336.9376831054688 91.03377532958984 341.79248046875 88.08299255371094 346.0606994628906 84.30854797363281 L 347.3855895996094 83.13694000244141 L 348.7104797363281 84.30854797363281 C 352.9786987304688 88.08299255371094 357.8334655761719 91.03377532958984 363.1399841308594 93.07899475097656 C 368.6339111328125 95.19644165039062 374.4363098144531 96.27011108398438 380.3859252929688 96.27011108398438 M 380.3859252929688 98.27011108398438 C 367.7137451171875 98.27011108398438 356.1509094238281 93.55805206298828 347.3855895996094 85.80677032470703 C 338.6202392578125 93.55805206298828 327.0574645996094 98.27011108398438 314.3853149414062 98.27011108398438 C 301.7135925292969 98.27011108398438 290.1510314941406 93.55810546875 281.3858642578125 85.80683135986328 C 272.6205139160156 93.55810546875 261.0577392578125 98.27011108398438 248.3855895996094 98.27011108398438 C 235.4710845947266 98.27011108398438 223.7087554931641 93.37599945068359 214.8854217529297 85.35860443115234 C 206.062255859375 93.37599945068359 194.3001403808594 98.27011108398438 181.3860321044922 98.27011108398438 C 168.7138061523438 98.27011108398438 157.1510314941406 93.55805206298828 148.3856964111328 85.80677032470703 C 139.620361328125 93.55805206298828 128.0575866699219 98.27011108398438 115.3854141235352 98.27011108398438 C 102.7136383056641 98.27011108398438 91.15113830566406 93.55810546875 82.38591766357422 85.80683135986328 C 73.62063598632812 93.55810546875 62.057861328125 98.27011108398438 49.38569259643555 98.27011108398438 C 22.00230598449707 98.27011108398438 -0.1961948424577713 76.27138519287109 -0.1961948424577713 49.13460540771484 C -0.1961948424577713 21.99871826171875 22.00230598449707 -3.82826056011254e-06 49.38569259643555 -3.82826056011254e-06 C 62.057861328125 -3.82826056011254e-06 73.62063598632812 4.711940765380859 82.38591766357422 12.46316242218018 C 91.15113830566406 4.711940765380859 102.7136383056641 -3.82826056011254e-06 115.3854141235352 -3.82826056011254e-06 C 128.0575866699219 -3.82826056011254e-06 139.620361328125 4.711996078491211 148.3856964111328 12.46321868896484 C 157.1510314941406 4.711996078491211 168.7138061523438 -3.82826056011254e-06 181.3860321044922 -3.82826056011254e-06 C 194.3001403808594 -3.82826056011254e-06 206.062255859375 4.894107341766357 214.8854217529297 12.9114408493042 C 223.7087554931641 4.894107341766357 235.4710845947266 -3.82826056011254e-06 248.3855895996094 -3.82826056011254e-06 C 261.0577392578125 -3.82826056011254e-06 272.6205139160156 4.711940765380859 281.3858642578125 12.46316242218018 C 290.1510314941406 4.711940765380859 301.7135925292969 -3.82826056011254e-06 314.3853149414062 -3.82826056011254e-06 C 327.0574645996094 -3.82826056011254e-06 338.6202392578125 4.711996078491211 347.3855895996094 12.46321868896484 C 356.1509094238281 4.711996078491211 367.7137451171875 -3.82826056011254e-06 380.3859252929688 -3.82826056011254e-06 C 407.7693176269531 -3.82826056011254e-06 429.9669189453125 21.99871826171875 429.9669189453125 49.13460540771484 C 429.9669189453125 76.27138519287109 407.7693176269531 98.27011108398438 380.3859252929688 98.27011108398438 Z" stroke="none" fill="#eaeaea"/>
    </g>
    <path id="Path_1745" data-name="Path 1745" d="M15.438-40.574a2,2,0,0,1,1.32,1.422,2.176,2.176,0,0,1,.152.762,2.4,2.4,0,0,1-.355,1.219,3.079,3.079,0,0,1-1.727,1.32,4.2,4.2,0,0,1-.914.1A3.531,3.531,0,0,1,12.645-36a63.581,63.581,0,0,0-5.992-2.285,1.831,1.831,0,0,1-1.219-1.219,2.076,2.076,0,0,1-.1-.66,1.711,1.711,0,0,1,.3-.965A3.367,3.367,0,0,1,7.262-42.5a3.147,3.147,0,0,1,1.219-.254,2.876,2.876,0,0,1,.914.152Q12.543-41.691,15.438-40.574Zm-.1,30.367q-.355,0-.355.406v1.523a.314.314,0,0,0,.355.355H37.121a.314.314,0,0,0,.355-.355V-9.8q0-.406-.355-.406Zm0-5.687a.314.314,0,0,0-.355.355v1.473q0,.406.355.406H37.121q.355,0,.355-.406v-1.473a.314.314,0,0,0-.355-.355Zm0-5.738q-.355,0-.355.406v1.473a.314.314,0,0,0,.355.355H37.121a.314.314,0,0,0,.355-.355v-1.473q0-.406-.355-.406Zm8.48-3.809a.045.045,0,0,0-.051.051.045.045,0,0,0,.051.051H40.473a.081.081,0,0,0,.076-.051q.025-.051-.025-.051a15.874,15.874,0,0,1-7.363-5.18q-.254-.3-.457,0Q29.961-27.27,23.816-25.441ZM43.773-7.211A2.922,2.922,0,0,1,42.91-5.1a2.855,2.855,0,0,1-2.133.889H35.191q-.1,0-.1.051a.146.146,0,0,0,.051.1Q41.133-1.93,46.871.609A1.18,1.18,0,0,1,47.607,1.8a1.173,1.173,0,0,1-.787,1.143l-1.574.609a6.37,6.37,0,0,1-2.336.457,6.516,6.516,0,0,1-3.1-.812Q36.156,1.371,31.688-.406A1.4,1.4,0,0,1,30.8-1.65,1.328,1.328,0,0,1,31.484-3l1.777-1.016a.172.172,0,0,0,.051-.127q0-.076-.1-.076H18.789q-.051,0-.076.076t.025.076l1.676.711a1.476,1.476,0,0,1,.914,1.473,1.345,1.345,0,0,1-.762,1.27A67.563,67.563,0,0,1,9.8,3.809a5.154,5.154,0,0,1-1.422.2A5.008,5.008,0,0,1,7.16,3.859a5.376,5.376,0,0,1-2.336-1.32,3.315,3.315,0,0,0-.3-.355,1.462,1.462,0,0,1-.457-1.066A2.354,2.354,0,0,1,4.113.66,1.468,1.468,0,0,1,5.281-.457,53.9,53.9,0,0,0,16.3-4.062q.051,0,.051-.076t-.1-.076H11.984A2.88,2.88,0,0,1,9.877-5.1a2.88,2.88,0,0,1-.889-2.107V-22.344a2.88,2.88,0,0,1,.889-2.107,2.88,2.88,0,0,1,2.107-.889H19.5a.22.22,0,0,0,.178-.1.182.182,0,0,0,.025-.2,13.871,13.871,0,0,0-2.285-3.25.185.185,0,0,1-.152.254q-6.7,1.93-10.156,2.945a4.925,4.925,0,0,1-.965.1,3.584,3.584,0,0,1-1.422-.3A3.371,3.371,0,0,1,3.1-27.625a2.234,2.234,0,0,1-.2-.914,2.315,2.315,0,0,1,.3-1.117,2.3,2.3,0,0,1,1.676-1.219q3.3-.711,9.09-2.082a2.413,2.413,0,0,1,.66-.1,2.572,2.572,0,0,1,1.523.508,2.512,2.512,0,0,1,1.066,1.879l.152,1.32q.051.406.406.3,5.586-.914,8.176-2.539a8.076,8.076,0,0,0,3.5-4.316.228.228,0,0,0-.025-.229.249.249,0,0,0-.229-.127h-3a.769.769,0,0,0-.609.3q-.914,1.066-1.879,2.031a2.756,2.756,0,0,1-2.031.813h-.051a3.914,3.914,0,0,1-2.133-.609,1.793,1.793,0,0,1-.914-1.625,1.788,1.788,0,0,1,.609-1.371A22.972,22.972,0,0,0,23.41-41.59a4.417,4.417,0,0,1,1.727-1.625,3.376,3.376,0,0,1,1.676-.457,3.7,3.7,0,0,1,.609.051l.2.051a1.857,1.857,0,0,1,1.422,1.016,1.8,1.8,0,0,1,.2.813,1.787,1.787,0,0,1-.254.863.168.168,0,0,0,0,.178.171.171,0,0,0,.152.076H42.961a18.339,18.339,0,0,1,4.164.355,1.607,1.607,0,0,1,1.143.965,1.666,1.666,0,0,1-.025,1.473A40.582,40.582,0,0,1,45.8-33.871a3.4,3.4,0,0,1-1.777,1.27,3.692,3.692,0,0,1-1.066.152,3.25,3.25,0,0,1-1.117-.2,1.556,1.556,0,0,1-1.117-1.117,1.917,1.917,0,0,1-.1-.609,1.791,1.791,0,0,1,.3-1.016,4.622,4.622,0,0,0,.355-.508.269.269,0,0,0,0-.229q-.051-.127-.152-.127H36.105a.249.249,0,0,0-.229.127.228.228,0,0,0-.025.229,8.359,8.359,0,0,0,3.479,4.088,22.072,22.072,0,0,0,8,2.564,1.718,1.718,0,0,1,1.32,1.066,1.713,1.713,0,0,1,.2.762,1.96,1.96,0,0,1-.3,1.016,4.736,4.736,0,0,1-1.879,1.777,3.3,3.3,0,0,1-1.574.406,3.339,3.339,0,0,1-.812-.1.146.146,0,0,1-.1-.051q-.406-.051-.406.3ZM83.358-42.453a2.25,2.25,0,0,1,1.65.686,2.28,2.28,0,0,1,.686,1.676,2.28,2.28,0,0,1-.686,1.676,2.25,2.25,0,0,1-1.65.686H72.744a2.25,2.25,0,0,1-1.65-.686,2.28,2.28,0,0,1-.686-1.676,2.28,2.28,0,0,1,.686-1.676,2.25,2.25,0,0,1,1.65-.686Zm1.777,7.008a2.351,2.351,0,0,1,1.727.711,2.351,2.351,0,0,1,.711,1.727,2.351,2.351,0,0,1-.711,1.727,2.351,2.351,0,0,1-1.727.711H70.256a2.351,2.351,0,0,1-1.727-.711,2.351,2.351,0,0,1-.711-1.727,2.351,2.351,0,0,1,.711-1.727,2.351,2.351,0,0,1,1.727-.711ZM83.51-28.234a2.25,2.25,0,0,1,1.65.686,2.28,2.28,0,0,1,.686,1.676A2.28,2.28,0,0,1,85.16-24.2a2.25,2.25,0,0,1-1.65.686H72.643a2.31,2.31,0,0,1-1.7-.686,2.28,2.28,0,0,1-.686-1.676,2.28,2.28,0,0,1,.686-1.676,2.31,2.31,0,0,1,1.7-.686ZM72.541-16.5a2.234,2.234,0,0,1-1.6-.66,2.167,2.167,0,0,1-.686-1.625,2.25,2.25,0,0,1,.686-1.65,2.192,2.192,0,0,1,1.6-.686h11.02a2.192,2.192,0,0,1,1.6.686,2.25,2.25,0,0,1,.686,1.65,2.167,2.167,0,0,1-.686,1.625,2.234,2.234,0,0,1-1.6.66ZM80.26-3.047a.359.359,0,0,0,.406-.406v-5.23q0-.355-.406-.355H75.69q-.406,0-.406.355v5.23a.359.359,0,0,0,.406.406ZM88.842-37.02a2.837,2.837,0,0,1-.863-2.082,2.755,2.755,0,0,1,.863-2.057A2.881,2.881,0,0,1,90.924-42H108.19a2.837,2.837,0,0,1,2.082.863,2.867,2.867,0,0,1,.813,2.031l-.152,11.68q0,7.668.3,13.965.508,10.766,2.133,11.172.152.051.33-1.066t.33-3a.86.86,0,0,1,.711-.863.87.87,0,0,1,1.016.406.146.146,0,0,0,.051.1,7.991,7.991,0,0,1,1.422,4.266,5.428,5.428,0,0,1-.1,1.066q-1.219,5.941-4.52,5.941a4.708,4.708,0,0,1-1.93-.457,3.761,3.761,0,0,1-1.549-1.066A6.722,6.722,0,0,1,107.936.99Q107.428-.3,107-1.676a22.625,22.625,0,0,1-.736-3.5q-.3-2.133-.533-4.012t-.381-4.672q-.152-2.793-.229-4.951t-.127-5.459q-.051-3.3-.076-5.611t-.025-5.865a.359.359,0,0,0-.406-.406H99.354a.359.359,0,0,0-.406.406v10.766a.359.359,0,0,0,.406.406h1.625a2.737,2.737,0,0,1,2.006.838,2.766,2.766,0,0,1,.838,2.031,2.766,2.766,0,0,1-.838,2.031,2.737,2.737,0,0,1-2.006.838H99.2a.359.359,0,0,0-.406.406,51.446,51.446,0,0,1-2.158,11.3,28.8,28.8,0,0,1-5.154,9.521A2.408,2.408,0,0,1,89.6,3.25h-.1a2.973,2.973,0,0,1-2.031-.914Q86.658,1.574,86,1.016q-.1-.1-.1,0a.778.778,0,0,1-.2.533.651.651,0,0,1-.508.229H75.537q-.254,0-.254.2a1.763,1.763,0,0,1-.533,1.295,1.705,1.705,0,0,1-1.244.533h-.812a2.493,2.493,0,0,1-1.828-.762A2.493,2.493,0,0,1,70.1,1.219V-10.918a2.9,2.9,0,0,1,.863-2.133,2.9,2.9,0,0,1,2.133-.863h9.8a2.9,2.9,0,0,1,2.133.863,2.9,2.9,0,0,1,.863,2.133v9.6a.163.163,0,0,0,.1.152.1.1,0,0,0,.152-.051q5.687-6.449,6.7-17.215,0-.406-.355-.406H90.315a2.8,2.8,0,0,1-2.057-.838,2.766,2.766,0,0,1-.838-2.031,2.766,2.766,0,0,1,.838-2.031,2.8,2.8,0,0,1,2.057-.838H92.7q.355,0,.355-.406V-35.75q0-.406-.355-.406H90.924A2.837,2.837,0,0,1,88.842-37.02Zm55.377-4.012a3.122,3.122,0,0,1,1.625-1.727,2.855,2.855,0,0,1,1.371-.355,2.876,2.876,0,0,1,.914.152l.3.1a2.6,2.6,0,0,1,1.727,1.473,2.791,2.791,0,0,1,.254,1.168,3.119,3.119,0,0,1-.2,1.066,83.7,83.7,0,0,1-3.707,7.668,1.792,1.792,0,0,0-.152.711V1.473a2.855,2.855,0,0,1-.889,2.133,2.922,2.922,0,0,1-2.107.863H143.1a2.9,2.9,0,0,1-2.133-.863,2.9,2.9,0,0,1-.863-2.133v-22.6a.163.163,0,0,0-.1-.152.1.1,0,0,0-.152.051q-.609.711-1.016,1.168a1.73,1.73,0,0,1-1.371.66h-.355a1.857,1.857,0,0,1-1.473-1.117q-.355-.66-.66-1.27a4.3,4.3,0,0,1-.508-2.031v-.457a4.291,4.291,0,0,1,1.016-2.336A53.562,53.562,0,0,0,144.219-41.031ZM181.7-34.709a2.755,2.755,0,0,1,.863,2.057,2.837,2.837,0,0,1-.863,2.082,2.837,2.837,0,0,1-2.082.863H168.188a.359.359,0,0,0-.406.406v4.672a.359.359,0,0,0,.406.406h10.258a2.78,2.78,0,0,1,2.006.813,2.654,2.654,0,0,1,.838,1.98,2.654,2.654,0,0,1-.838,1.98,2.78,2.78,0,0,1-2.006.813H168.188a.359.359,0,0,0-.406.406V-13.1q0,.355.406.355h10.918a2.737,2.737,0,0,1,2.006.838,2.766,2.766,0,0,1,.838,2.031,2.766,2.766,0,0,1-.838,2.031,2.737,2.737,0,0,1-2.006.838H168.188q-.406,0-.406.355V1.523a2.9,2.9,0,0,1-.863,2.133,2.9,2.9,0,0,1-2.133.863h-.3a2.9,2.9,0,0,1-2.133-.863,2.9,2.9,0,0,1-.863-2.133V-29.3a.359.359,0,0,0-.406-.406H159.86a.621.621,0,0,0-.559.355,60.69,60.69,0,0,1-4.773,7.414,2.361,2.361,0,0,1-1.879,1.016H152.5a2.636,2.636,0,0,1-1.93-.812q-.152-.1-.355-.254a3.017,3.017,0,0,1-.965-2.285,2.893,2.893,0,0,1,.66-1.879,50.7,50.7,0,0,0,8.074-14.523,3.353,3.353,0,0,1,1.574-1.828,3.021,3.021,0,0,1,1.523-.406,3.339,3.339,0,0,1,.813.1l.152.051a2.614,2.614,0,0,1,1.727,1.371,2.4,2.4,0,0,1,.355,1.219,2.349,2.349,0,0,1-.2.965q-.66,1.676-1.371,3.3a.228.228,0,0,0,.025.229.214.214,0,0,0,.178.127h16.859A2.881,2.881,0,0,1,181.7-34.709Zm48.826,4.545a.263.263,0,0,0-.025-.254.267.267,0,0,0-.229-.1H218.639a.2.2,0,0,0-.2.1.327.327,0,0,0,0,.254,23.636,23.636,0,0,1,1.32,2.895.643.643,0,0,1-.051.559.627.627,0,0,1-.457.3v.051h9.242a.522.522,0,0,0,.508-.355Q229.608-27.93,230.522-30.164Zm16.2,18.484a2.464,2.464,0,0,1,.762,1.8,2.464,2.464,0,0,1-.762,1.8,2.436,2.436,0,0,1-1.777.762H232.756q-.051,0-.076.076t.025.076a38.294,38.294,0,0,0,6.145,2.895,53.137,53.137,0,0,0,7.059,2.082,1.6,1.6,0,0,1,1.27,1.117,1.352,1.352,0,0,1,.152.609,1.684,1.684,0,0,1-.406,1.066l-.609.813a4.365,4.365,0,0,1-2.031,1.625,3.655,3.655,0,0,1-1.32.254,4.23,4.23,0,0,1-1.117-.152,43.488,43.488,0,0,1-14.32-7.719.166.166,0,0,0-.2-.051.163.163,0,0,0-.1.152V1.523a2.9,2.9,0,0,1-.863,2.133,2.9,2.9,0,0,1-2.133.863h-.051a2.9,2.9,0,0,1-2.133-.863,2.9,2.9,0,0,1-.863-2.133V-4.164q0-.1-.127-.152t-.178,0A46.276,46.276,0,0,1,206.6,3.047a3.25,3.25,0,0,1-1.117.2A3.787,3.787,0,0,1,204.116,3a5.244,5.244,0,0,1-2.082-1.574l-.3-.406A1.748,1.748,0,0,1,201.323-.1a1.917,1.917,0,0,1,.1-.609,1.718,1.718,0,0,1,1.27-1.219,51.636,51.636,0,0,0,13.2-5.18.115.115,0,0,0,.025-.127q-.025-.076-.076-.076H203.862a2.493,2.493,0,0,1-1.828-.762,2.464,2.464,0,0,1-.762-1.8,2.464,2.464,0,0,1,.762-1.8,2.493,2.493,0,0,1,1.828-.762h16.91q.406,0,.406-.355V-14.32a.359.359,0,0,0-.406-.406h-12.34a2.125,2.125,0,0,1-1.6-.66,2.193,2.193,0,0,1-.635-1.574,2.193,2.193,0,0,1,.635-1.574,2.125,2.125,0,0,1,1.6-.66h12.34q.406,0,.406-.355v-1.574a.359.359,0,0,0-.406-.406H205.995a2.351,2.351,0,0,1-1.727-.711,2.321,2.321,0,0,1-.711-1.7,2.321,2.321,0,0,1,.711-1.7,2.351,2.351,0,0,1,1.727-.711H213.1a.275.275,0,0,0,.2-.127.207.207,0,0,0,.051-.229,24.791,24.791,0,0,0-1.422-3.2.583.583,0,0,1,.025-.381.387.387,0,0,1,.279-.229h-8.277a2.477,2.477,0,0,1-1.777-.736,2.382,2.382,0,0,1-.762-1.777,2.382,2.382,0,0,1,.762-1.777,2.477,2.477,0,0,1,1.777-.736h4.063a.249.249,0,0,0,.229-.127.228.228,0,0,0,.025-.229q-.609-1.523-1.727-3.656a2.315,2.315,0,0,1-.3-1.117,1.9,1.9,0,0,1,.2-.863,2.13,2.13,0,0,1,1.371-1.371,3.761,3.761,0,0,1,1.193-.2,3.761,3.761,0,0,1,1.193.2,3.189,3.189,0,0,1,1.777,1.473A27.572,27.572,0,0,1,213.46-38.7a1.868,1.868,0,0,1,.254.914,1.9,1.9,0,0,1-.2.863,2.317,2.317,0,0,1-1.32,1.27q-.051,0-.025.051l.025.051h4.063q.355,0,.355-.406v-5.18a2.755,2.755,0,0,1,.863-2.057,2.851,2.851,0,0,1,2.057-.838,2.766,2.766,0,0,1,2.031.838,2.8,2.8,0,0,1,.838,2.057v5.18a.359.359,0,0,0,.406.406h3.047a.359.359,0,0,0,.406-.406v-5.18a2.755,2.755,0,0,1,.863-2.057,2.851,2.851,0,0,1,2.057-.838,2.851,2.851,0,0,1,2.057.838,2.755,2.755,0,0,1,.863,2.057v5.18q0,.406.355.406h4.012a.045.045,0,0,0,.051-.051v-.051a1.375,1.375,0,0,1-.914-.812,1.4,1.4,0,0,1,.051-1.219,31.28,31.28,0,0,0,1.422-3.2,3.611,3.611,0,0,1,1.625-1.777,3.212,3.212,0,0,1,1.523-.406,3.339,3.339,0,0,1,.813.1l.66.152a2.138,2.138,0,0,1,1.523,1.27,2.734,2.734,0,0,1,.152.863,2.315,2.315,0,0,1-.3,1.117q-1.473,2.336-2.285,3.656a.17.17,0,0,0-.025.229.214.214,0,0,0,.178.127h3.859a2.452,2.452,0,0,1,1.8.736,2.422,2.422,0,0,1,.736,1.777,2.422,2.422,0,0,1-.736,1.777,2.452,2.452,0,0,1-1.8.736h-6.855a.684.684,0,0,0-.609.3q-.965,1.828-2.031,3.555a.216.216,0,0,0,0,.2.163.163,0,0,0,.152.1h7.414a2.351,2.351,0,0,1,1.727.711,2.321,2.321,0,0,1,.711,1.7,2.321,2.321,0,0,1-.711,1.7,2.351,2.351,0,0,1-1.727.711H227.628a.359.359,0,0,0-.406.406v1.574q0,.355.406.355h13a2.149,2.149,0,0,1,1.574.66,2.149,2.149,0,0,1,.66,1.574,2.149,2.149,0,0,1-.66,1.574,2.149,2.149,0,0,1-1.574.66h-13a.359.359,0,0,0-.406.406V-12.8q0,.355.406.355h17.316A2.436,2.436,0,0,1,246.721-11.68Zm64.315-7.262a2.88,2.88,0,0,1,2.107.889,2.88,2.88,0,0,1,.889,2.107v.3a2.855,2.855,0,0,1-.889,2.133,2.922,2.922,0,0,1-2.107.863H293.973a.359.359,0,0,0-.406.406V1.523a2.9,2.9,0,0,1-.863,2.133,2.9,2.9,0,0,1-2.133.863h-.406a2.9,2.9,0,0,1-2.133-.863,2.9,2.9,0,0,1-.863-2.133V-12.238a.359.359,0,0,0-.406-.406H269.9a2.922,2.922,0,0,1-2.107-.863,2.855,2.855,0,0,1-.889-2.133v-.3a2.88,2.88,0,0,1,.889-2.107,2.88,2.88,0,0,1,2.107-.889h16.859q.406,0,.406-.355V-34.328q0-.355-.406-.355H272.595a2.88,2.88,0,0,1-2.107-.889,2.88,2.88,0,0,1-.889-2.107v-.152a2.88,2.88,0,0,1,.889-2.107,2.88,2.88,0,0,1,2.107-.889H308.04a2.88,2.88,0,0,1,2.107.889,2.88,2.88,0,0,1,.889,2.107v.152a2.88,2.88,0,0,1-.889,2.107,2.88,2.88,0,0,1-2.107.889H293.973q-.406,0-.406.355V-19.3q0,.355.406.355Zm-37.07-9.7a2.845,2.845,0,0,1-.2-1.066,2.68,2.68,0,0,1,.254-1.117,2.63,2.63,0,0,1,1.625-1.371,3.519,3.519,0,0,1,1.016-.152,3.236,3.236,0,0,1,1.371.3,3.335,3.335,0,0,1,1.727,1.676q1.27,2.742,2.082,5.078a2.876,2.876,0,0,1,.152.914A2.58,2.58,0,0,1,281.583-23a2.947,2.947,0,0,1-1.828,1.473l-.3.1a2.438,2.438,0,0,1-.863.152,2.5,2.5,0,0,1-1.32-.406,2.978,2.978,0,0,1-1.422-1.777Q275.083-25.949,273.966-28.641Zm30.621,5.586a3.419,3.419,0,0,1-1.777,1.523,3.655,3.655,0,0,1-1.32.254,3.519,3.519,0,0,1-1.016-.152A2.138,2.138,0,0,1,299-22.75a2.235,2.235,0,0,1-.2-.914,2.845,2.845,0,0,1,.2-1.066q1.27-2.691,2.336-5.586a3.406,3.406,0,0,1,1.523-1.828,3.212,3.212,0,0,1,1.523-.406,3.339,3.339,0,0,1,.813.1l.762.2a2.316,2.316,0,0,1,1.625,1.32,2.577,2.577,0,0,1,.254,1.066,2.577,2.577,0,0,1-.254,1.066Q305.958-25.441,304.587-23.055Zm62.537,10.918a.359.359,0,0,0-.406-.406H345.847q-.355,0-.355.406V-3.91a.314.314,0,0,0,.355.355h20.871q.406,0,.406-.355ZM342.14,4.469a2.922,2.922,0,0,1-2.107-.863,2.855,2.855,0,0,1-.889-2.133V-15.387a2.855,2.855,0,0,1,.889-2.133,2.922,2.922,0,0,1,2.107-.863H370.78a2.922,2.922,0,0,1,2.107.863,2.855,2.855,0,0,1,.889,2.133V1.422a2.88,2.88,0,0,1-.889,2.107,2.88,2.88,0,0,1-2.107.889H368.9a1.705,1.705,0,0,1-1.244-.533,1.705,1.705,0,0,1-.533-1.244.224.224,0,0,0-.254-.254H345.745a.224.224,0,0,0-.254.254,1.763,1.763,0,0,1-.533,1.295,1.763,1.763,0,0,1-1.295.533Zm21.836-37.68a2.418,2.418,0,0,1-.812-1.828,2.366,2.366,0,0,1,1.016-1.98h.051a3.5,3.5,0,0,1,2.234-.762h.1a3.5,3.5,0,0,1,2.336.863,74.956,74.956,0,0,1,10,10.258,2.829,2.829,0,0,1,.609,1.727,3.42,3.42,0,0,1-.051.559,3.438,3.438,0,0,1-1.27,2.031l-.609.457a2.488,2.488,0,0,1-1.574.559,2.583,2.583,0,0,1-.508-.051,3.073,3.073,0,0,1-1.879-1.219q-.66-.914-1.473-1.93a.831.831,0,0,0-.609-.254q-14.422.762-34.531,1.523h-.152a2.867,2.867,0,0,1-2.031-.812,3,3,0,0,1-1.016-2.082v-.254a2.627,2.627,0,0,1,.736-2.107,2.892,2.892,0,0,1,2.057-.939l4.672-.152a.637.637,0,0,0,.559-.3,86.887,86.887,0,0,0,6.3-11.73,3.125,3.125,0,0,1,1.676-1.676,2.763,2.763,0,0,1,1.32-.355,2.717,2.717,0,0,1,1.016.2l1.422.457a2.286,2.286,0,0,1,1.523,1.422,2.235,2.235,0,0,1,.2.914,2.406,2.406,0,0,1-.3,1.168q-2.691,4.824-5.637,9.344a.141.141,0,0,0-.025.2.22.22,0,0,0,.178.1q5.84-.2,16.859-.711a.163.163,0,0,0,.152-.1.1.1,0,0,0-.051-.152Q365.347-31.992,363.976-33.211Z" transform="translate(307.601 318.971)" fill="#f3704e" opacity="0.92"/>
    <path id="Subtraction_1" data-name="Subtraction 1" d="M381.228,54.54a49.661,49.661,0,0,1-19.26-3.845,49.448,49.448,0,0,1-15.74-10.488A49.447,49.447,0,0,1,330.488,50.7a49.661,49.661,0,0,1-19.26,3.845,49.756,49.756,0,0,1-17.965-3.325,49.5,49.5,0,0,1-15.035-9.138,49.5,49.5,0,0,1-15.035,9.138,50.2,50.2,0,0,1-35.682.1A49.484,49.484,0,0,1,212.62,42.42a49.5,49.5,0,0,1-14.891,8.891,50.21,50.21,0,0,1-35.433,0,49.486,49.486,0,0,1-14.89-8.891,49.5,49.5,0,0,1-14.891,8.891,50.213,50.213,0,0,1-35.434,0A49.486,49.486,0,0,1,82.19,42.42,49.5,49.5,0,0,1,67.3,51.311a49.774,49.774,0,0,1-17.716,3.23,49.66,49.66,0,0,1-19.3-3.861,49.444,49.444,0,0,1-15.76-10.53A48.947,48.947,0,0,1,3.9,24.53,48.447,48.447,0,0,1,0,5.4C0,3.9.07,2.38.208.888,3.358,25.312,24.5,43.73,49.387,43.73a49.63,49.63,0,0,0,34-13.372,49.626,49.626,0,0,0,34,13.372,49.694,49.694,0,0,0,33.5-12.911,49.7,49.7,0,0,0,33.5,12.911,49.7,49.7,0,0,0,33.5-12.911,49.7,49.7,0,0,0,33.5,12.911,49.629,49.629,0,0,0,34-13.372,49.629,49.629,0,0,0,34,13.372,49.7,49.7,0,0,0,33.5-12.911,49.7,49.7,0,0,0,33.5,12.911,49.483,49.483,0,0,0,41.932-22.9,48.76,48.76,0,0,1-7.025,13.529,49.664,49.664,0,0,1-24.366,17.67A49.935,49.935,0,0,1,381.228,54.54Z" transform="translate(283.033 297.857)" fill="#bed7ee"/>
  </g>
</svg>
