<svg id="logo-1" xmlns="http://www.w3.org/2000/svg" width="324.549" height="60.588" viewBox="0 0 324.549 60.588">
  <path id="Path_1" data-name="Path 1" d="M73.716,6.6C45.974,6.6,23.5,20.183,23.5,36.894S45.974,67.188,73.716,67.188s50.216-13.583,50.216-30.294S101.458,6.6,73.716,6.6Zm29.718,36.345c-2.058-.453-4.98-3.457-8.685-4.075-3.746-.617-6.5-.165-8.191,3.128s-3.91,10.5-4.528,11.648-5.31,4.075-10.578.247c-1.07-.7-3-3.993-2.058-7.82.988-3.828,5.762-3.91,6.215-1.07-.988-.165-3.211.082-2.14,2.387s4.816,1.605,5.762-.617c.988-2.223,1.07-4.281-.782-5.845-1.852-1.605-3.828-3-6.3-2.3s-5.6,3.211-7.45,4.157c-1.852.988-6.668,2.223-9.961.7s-7.285-5.762-10.661-6.915-5.227-2.3-7.985-1.605c-2.84.906-5.433,1.729-5.433.782.082-.453,5.557-5.063,12.43-3.828,6.051,1.07,5.515,3.91,11.9,4.157,5.186.206,6.586-4.98,7.532-9.055,1.07-4.528,5.063-10.125,11.731-7,6.38,4.445,2.84,9.878,2.3,10.578s-4.445,2.3-4.281.247c.453-.535,1.852-1.317,1.77-2.223a2.953,2.953,0,0,0-2.84-2.675,4.053,4.053,0,0,0-3.91,4.075c.082,2.3.535,5.762,6.833,6.38,4.363.082,7.2-4.98,13.13-5.515,5.968-.535,9.59,3.211,14.653,6.668s13.254,1.441,15.188.7C115.946,39.94,112.283,43.768,103.433,42.945Z" transform="translate(-23.5 -6.6)" fill="#374a87"/>
  <g id="Group_1" data-name="Group 1" transform="translate(108.169 35.645)">
    <path id="Path_2" data-name="Path 2" d="M297.249,106.413a8.612,8.612,0,0,0-.864.412,7.081,7.081,0,0,1-1.029.37,8.464,8.464,0,0,1-1.194.288,7.377,7.377,0,0,1-1.4.123,7.454,7.454,0,0,1-2.593-.412,5.6,5.6,0,0,1-2.058-1.276,5.382,5.382,0,0,1-1.317-2.14,8.359,8.359,0,0,1-.494-3,9.262,9.262,0,0,1,.453-2.922,5.852,5.852,0,0,1,1.317-2.181,5.534,5.534,0,0,1,2.017-1.317,7.687,7.687,0,0,1,2.634-.453,9.768,9.768,0,0,1,2.14.247,10.042,10.042,0,0,1,2.346.906v2.1h-.123a6.865,6.865,0,0,0-2.182-1.317,6.039,6.039,0,0,0-2.3-.412,5.066,5.066,0,0,0-1.811.329,3.768,3.768,0,0,0-1.441.988,4.2,4.2,0,0,0-.947,1.688,8.185,8.185,0,0,0,.041,4.733,5.013,5.013,0,0,0,.988,1.646,4.29,4.29,0,0,0,1.441.988,5.009,5.009,0,0,0,1.77.329,6.419,6.419,0,0,0,4.445-1.77h.123l.041,2.058Z" transform="translate(-286.3 -93.612)" fill="#374a87"/>
    <path id="Path_3" data-name="Path 3" d="M325.855,107.392h-7.327a3.859,3.859,0,0,0,.288,1.605,3.1,3.1,0,0,0,.741,1.111,2.955,2.955,0,0,0,1.111.659,4.992,4.992,0,0,0,1.4.206,5.054,5.054,0,0,0,2.017-.412,5.45,5.45,0,0,0,1.441-.782h.082v1.811a9.467,9.467,0,0,1-1.729.576,6.714,6.714,0,0,1-1.852.247A5.331,5.331,0,0,1,318.2,111.1a5.1,5.1,0,0,1-1.4-3.787,5.577,5.577,0,0,1,1.317-3.869,4.56,4.56,0,0,1,3.5-1.441,4.037,4.037,0,0,1,3.087,1.152,4.647,4.647,0,0,1,1.07,3.334v.906Zm-1.646-1.276a2.773,2.773,0,0,0-.659-2.017,2.527,2.527,0,0,0-1.976-.7,2.859,2.859,0,0,0-2.14.782,3.157,3.157,0,0,0-.906,1.976h5.68v-.041Z" transform="translate(-304.246 -98.378)" fill="#374a87"/>
    <path id="Path_4" data-name="Path 4" d="M353.173,112.225h-1.646v-5.639a12.463,12.463,0,0,0-.082-1.276,2.573,2.573,0,0,0-.288-.947,1.205,1.205,0,0,0-.659-.535,2.658,2.658,0,0,0-1.07-.165,3.831,3.831,0,0,0-1.441.329,5.823,5.823,0,0,0-1.441.864v7.409H344.9v-9.878h1.646V103.5a8.76,8.76,0,0,1,1.605-1.029,4.075,4.075,0,0,1,1.729-.37,3.07,3.07,0,0,1,2.428.947,4.063,4.063,0,0,1,.823,2.8v6.38Z" transform="translate(-320.78 -98.437)" fill="#374a87"/>
    <path id="Path_5" data-name="Path 5" d="M376.415,108.336a7.583,7.583,0,0,1-1.029.206,9.551,9.551,0,0,1-.988.082,3.085,3.085,0,0,1-2.305-.823,3.6,3.6,0,0,1-.782-2.634V99.94H370.2v-1.4h1.111V95.7h1.646v2.84h3.457v1.4h-3.457v4.528A10.453,10.453,0,0,0,373,105.7a2.733,2.733,0,0,0,.247.823,1.338,1.338,0,0,0,.535.535,2.333,2.333,0,0,0,1.029.165,3.365,3.365,0,0,0,.864-.123c.288-.082.494-.165.659-.206h.082v1.441Z" transform="translate(-335.667 -94.671)" fill="#374a87"/>
    <path id="Path_6" data-name="Path 6" d="M396.374,104.411h-.082l-.741-.123a4.992,4.992,0,0,0-.823-.041,3.7,3.7,0,0,0-1.482.329,9.86,9.86,0,0,0-1.4.864v7.038H390.2V102.6h1.646v1.482a6.8,6.8,0,0,1,1.77-1.111,4.1,4.1,0,0,1,1.564-.329,2.369,2.369,0,0,1,.617.041,4.722,4.722,0,0,1,.576.082v1.646Z" transform="translate(-347.434 -98.731)" fill="#374a87"/>
    <path id="Path_7" data-name="Path 7" d="M414.838,112.049h-1.646v-1.07c-.165.082-.329.247-.617.412a3.336,3.336,0,0,1-.741.412,6.4,6.4,0,0,1-.947.329,5.83,5.83,0,0,1-1.276.123,3.255,3.255,0,0,1-2.716-4.98,3.665,3.665,0,0,1,1.358-1.111,7.7,7.7,0,0,1,2.182-.535c.864-.082,1.77-.165,2.717-.206v-.247a2.146,2.146,0,0,0-.206-.947,1.3,1.3,0,0,0-.576-.576,2.672,2.672,0,0,0-.864-.288,8.019,8.019,0,0,0-1.029-.082,6.781,6.781,0,0,0-1.482.165,12.505,12.505,0,0,0-1.646.494h-.082v-1.688a11.465,11.465,0,0,1,1.4-.288,9.263,9.263,0,0,1,1.811-.165,7.761,7.761,0,0,1,1.811.165,4.508,4.508,0,0,1,1.358.576,2.768,2.768,0,0,1,.864,1.07,3.616,3.616,0,0,1,.288,1.605v6.833Zm-1.646-2.47v-2.758c-.494.041-1.111.082-1.811.123a10.911,10.911,0,0,0-1.646.247,2.388,2.388,0,0,0-1.152.617,1.647,1.647,0,0,0-.453,1.194,1.586,1.586,0,0,0,.494,1.276,2.37,2.37,0,0,0,1.564.412,4.143,4.143,0,0,0,1.605-.329A4.239,4.239,0,0,0,413.191,109.579Z" transform="translate(-356.966 -98.26)" fill="#374a87"/>
    <path id="Path_8" data-name="Path 8" d="M436.446,106.989H434.8V93.2h1.646Z" transform="translate(-373.677 -93.2)" fill="#374a87"/>
    <path id="Path_9" data-name="Path 9" d="M476.6,94.6l-3.416,13.212h-1.976L468.45,96.864l-2.717,10.949H463.8L460.3,94.6h1.811l2.758,10.99,2.717-10.99h1.77l2.758,11.072L474.871,94.6Z" transform="translate(-388.681 -94.024)" fill="#374a87"/>
    <path id="Path_10" data-name="Path 10" d="M511.014,107.392h-7.285a3.858,3.858,0,0,0,.288,1.605,3.1,3.1,0,0,0,.741,1.111,2.955,2.955,0,0,0,1.111.659,4.992,4.992,0,0,0,1.4.206,5.054,5.054,0,0,0,2.017-.412,5.454,5.454,0,0,0,1.441-.782h.082v1.811a9.47,9.47,0,0,1-1.729.576,6.715,6.715,0,0,1-1.852.247A5.331,5.331,0,0,1,503.4,111.1a5.1,5.1,0,0,1-1.4-3.787,5.576,5.576,0,0,1,1.317-3.869,4.559,4.559,0,0,1,3.5-1.441,4.037,4.037,0,0,1,3.087,1.152,4.647,4.647,0,0,1,1.07,3.334l.041.906Zm-1.646-1.276a2.773,2.773,0,0,0-.659-2.017,2.527,2.527,0,0,0-1.976-.7,2.859,2.859,0,0,0-2.14.782,3.157,3.157,0,0,0-.906,1.976h5.68Z" transform="translate(-413.217 -98.378)" fill="#374a87"/>
    <path id="Path_11" data-name="Path 11" d="M536.638,112.049h-1.646v-1.07c-.165.082-.329.247-.617.412a3.337,3.337,0,0,1-.741.412,6.4,6.4,0,0,1-.947.329,5.829,5.829,0,0,1-1.276.123,3.255,3.255,0,0,1-2.717-4.98,3.665,3.665,0,0,1,1.358-1.111,7.694,7.694,0,0,1,2.181-.535c.864-.082,1.77-.165,2.717-.206v-.247a2.145,2.145,0,0,0-.206-.947,1.3,1.3,0,0,0-.576-.576,2.672,2.672,0,0,0-.864-.288,8.016,8.016,0,0,0-1.029-.082,6.78,6.78,0,0,0-1.482.165,12.508,12.508,0,0,0-1.646.494h-.082v-1.688a11.467,11.467,0,0,1,1.4-.288,9.262,9.262,0,0,1,1.811-.165,7.762,7.762,0,0,1,1.811.165,4.511,4.511,0,0,1,1.358.576,2.766,2.766,0,0,1,.864,1.07,3.616,3.616,0,0,1,.288,1.605l.041,6.833Zm-1.646-2.47v-2.758c-.494.041-1.111.082-1.811.123a10.911,10.911,0,0,0-1.646.247,2.389,2.389,0,0,0-1.152.617,1.647,1.647,0,0,0-.453,1.194,1.586,1.586,0,0,0,.494,1.276,2.37,2.37,0,0,0,1.564.412,4.143,4.143,0,0,0,1.605-.329A4.238,4.238,0,0,0,534.992,109.579Z" transform="translate(-428.633 -98.26)" fill="#374a87"/>
    <path id="Path_12" data-name="Path 12" d="M560.115,108.336a7.586,7.586,0,0,1-1.029.206,9.55,9.55,0,0,1-.988.082,3.085,3.085,0,0,1-2.3-.823,3.6,3.6,0,0,1-.782-2.634V99.94H553.9v-1.4h1.111V95.7h1.646v2.84h3.457v1.4h-3.457v4.528a10.453,10.453,0,0,0,.041,1.235,2.731,2.731,0,0,0,.247.823,1.337,1.337,0,0,0,.535.535,2.333,2.333,0,0,0,1.029.165,3.366,3.366,0,0,0,.864-.123c.288-.082.494-.165.617-.206h.082v1.441Z" transform="translate(-443.755 -94.671)" fill="#374a87"/>
    <path id="Path_13" data-name="Path 13" d="M582.173,106.989h-1.646V101.35a12.453,12.453,0,0,0-.082-1.276,2.575,2.575,0,0,0-.288-.947,1.206,1.206,0,0,0-.659-.535,2.659,2.659,0,0,0-1.07-.165,3.831,3.831,0,0,0-1.441.329,5.824,5.824,0,0,0-1.441.864v7.409H573.9V93.2h1.646v4.98a8.76,8.76,0,0,1,1.605-1.029,4.075,4.075,0,0,1,1.729-.37,3.07,3.07,0,0,1,2.429.947,4.063,4.063,0,0,1,.823,2.8l.041,6.462Z" transform="translate(-455.523 -93.2)" fill="#374a87"/>
    <path id="Path_14" data-name="Path 14" d="M609.014,107.392h-7.285a3.859,3.859,0,0,0,.288,1.605,3.1,3.1,0,0,0,.741,1.111,2.954,2.954,0,0,0,1.111.659,4.993,4.993,0,0,0,1.4.206,5.054,5.054,0,0,0,2.017-.412,5.452,5.452,0,0,0,1.441-.782h.082v1.811a9.47,9.47,0,0,1-1.729.576,6.715,6.715,0,0,1-1.852.247A5.331,5.331,0,0,1,601.4,111.1a5.1,5.1,0,0,1-1.4-3.787,5.576,5.576,0,0,1,1.317-3.869,4.559,4.559,0,0,1,3.5-1.441,4.036,4.036,0,0,1,3.087,1.152,4.647,4.647,0,0,1,1.07,3.334l.041.906Zm-1.605-1.276a2.774,2.774,0,0,0-.659-2.017,2.527,2.527,0,0,0-1.976-.7,2.859,2.859,0,0,0-2.14.782,3.157,3.157,0,0,0-.905,1.976h5.68Z" transform="translate(-470.88 -98.378)" fill="#374a87"/>
    <path id="Path_15" data-name="Path 15" d="M634.174,104.411h-.082l-.741-.123a4.991,4.991,0,0,0-.823-.041,3.7,3.7,0,0,0-1.482.329,9.855,9.855,0,0,0-1.4.864v7.038H628V102.6h1.646v1.482a6.8,6.8,0,0,1,1.77-1.111,4.1,4.1,0,0,1,1.564-.329,2.369,2.369,0,0,1,.617.041,4.722,4.722,0,0,1,.576.082Z" transform="translate(-487.355 -98.731)" fill="#374a87"/>
    <path id="Path_16" data-name="Path 16" d="M672.661,103.738a3.819,3.819,0,0,1-.37,1.729,3.647,3.647,0,0,1-.988,1.235,4.765,4.765,0,0,1-1.646.823,8.618,8.618,0,0,1-2.264.247H662.7V94.6h3.91a14.44,14.44,0,0,1,2.182.123,3.784,3.784,0,0,1,1.358.453,2.5,2.5,0,0,1,1.07.988,3.1,3.1,0,0,1,.329,1.441,2.656,2.656,0,0,1-.494,1.605,3.625,3.625,0,0,1-1.276,1.07v.082a3.362,3.362,0,0,1,2.1,1.194A3.064,3.064,0,0,1,672.661,103.738ZM669.7,97.811a1.733,1.733,0,0,0-.165-.823,1.54,1.54,0,0,0-.494-.535,2.52,2.52,0,0,0-1.029-.288c-.412-.041-.905-.041-1.482-.041h-2.1v3.828h2.264a10.633,10.633,0,0,0,1.317-.082,1.931,1.931,0,0,0,.906-.37,1.2,1.2,0,0,0,.576-.7A2.488,2.488,0,0,0,669.7,97.811Zm1.111,6.009a2.817,2.817,0,0,0-.247-1.276,1.8,1.8,0,0,0-.865-.782,2.52,2.52,0,0,0-1.029-.288,14.532,14.532,0,0,0-1.482-.082h-2.758v4.9h2.3a11.765,11.765,0,0,0,1.893-.123,2.422,2.422,0,0,0,1.194-.453,2.638,2.638,0,0,0,.741-.782A2.223,2.223,0,0,0,670.809,103.82Z" transform="translate(-507.773 -94.024)" fill="#374a87"/>
    <path id="Path_17" data-name="Path 17" d="M700.732,112.52h-1.646v-1.111a9.379,9.379,0,0,1-1.605,1.029,3.764,3.764,0,0,1-1.688.37,3.191,3.191,0,0,1-2.429-.947,4,4,0,0,1-.864-2.8v-6.421h1.646v5.639a10.455,10.455,0,0,0,.082,1.276,2.605,2.605,0,0,0,.288.906,1.65,1.65,0,0,0,.617.576,2.627,2.627,0,0,0,1.111.165,3.814,3.814,0,0,0,1.4-.329,5.819,5.819,0,0,0,1.441-.864V102.6h1.646v9.92Z" transform="translate(-525.307 -98.731)" fill="#374a87"/>
    <path id="Path_18" data-name="Path 18" d="M726.674,104.411h-.082l-.741-.123a4.991,4.991,0,0,0-.823-.041,3.7,3.7,0,0,0-1.482.329,9.855,9.855,0,0,0-1.4.864v7.038H720.5V102.6h1.646v1.482a6.8,6.8,0,0,1,1.77-1.111,4.1,4.1,0,0,1,1.564-.329,2.369,2.369,0,0,1,.617.041,4.724,4.724,0,0,1,.576.082Z" transform="translate(-541.782 -98.731)" fill="#374a87"/>
    <path id="Path_19" data-name="Path 19" d="M746.514,107.392h-7.285a3.858,3.858,0,0,0,.288,1.605,3.1,3.1,0,0,0,.741,1.111,2.954,2.954,0,0,0,1.111.659,4.992,4.992,0,0,0,1.4.206,5.053,5.053,0,0,0,2.017-.412,5.452,5.452,0,0,0,1.441-.782h.082v1.811a9.47,9.47,0,0,1-1.729.576,6.715,6.715,0,0,1-1.852.247A5.331,5.331,0,0,1,738.9,111.1a5.1,5.1,0,0,1-1.4-3.787,5.576,5.576,0,0,1,1.317-3.869,4.56,4.56,0,0,1,3.5-1.441,4.036,4.036,0,0,1,3.087,1.152,4.647,4.647,0,0,1,1.07,3.334l.041.906Zm-1.605-1.276a2.773,2.773,0,0,0-.659-2.017,2.527,2.527,0,0,0-1.976-.7,2.859,2.859,0,0,0-2.14.782,3.156,3.156,0,0,0-.906,1.976h5.68Z" transform="translate(-551.785 -98.378)" fill="#374a87"/>
    <path id="Path_20" data-name="Path 20" d="M772.238,112.049h-1.646v-1.07c-.165.082-.329.247-.617.412a3.335,3.335,0,0,1-.741.412,6.4,6.4,0,0,1-.947.329,5.83,5.83,0,0,1-1.276.123,3.255,3.255,0,0,1-2.716-4.98,3.665,3.665,0,0,1,1.358-1.111,7.7,7.7,0,0,1,2.182-.535c.864-.082,1.77-.165,2.716-.206v-.247a2.146,2.146,0,0,0-.206-.947,1.3,1.3,0,0,0-.576-.576,2.671,2.671,0,0,0-.864-.288,8.016,8.016,0,0,0-1.029-.082,6.78,6.78,0,0,0-1.482.165,12.506,12.506,0,0,0-1.646.494h-.041v-1.688a11.464,11.464,0,0,1,1.4-.288,9.262,9.262,0,0,1,1.811-.165,7.762,7.762,0,0,1,1.811.165,4.507,4.507,0,0,1,1.358.576,2.768,2.768,0,0,1,.864,1.07,3.615,3.615,0,0,1,.288,1.605v6.833Zm-1.688-2.47v-2.758c-.494.041-1.111.082-1.811.123a10.912,10.912,0,0,0-1.646.247,2.389,2.389,0,0,0-1.153.617,1.647,1.647,0,0,0-.453,1.194,1.586,1.586,0,0,0,.494,1.276,2.37,2.37,0,0,0,1.564.412,4.143,4.143,0,0,0,1.605-.329A4.238,4.238,0,0,0,770.55,109.579Z" transform="translate(-567.26 -98.26)" fill="#374a87"/>
    <path id="Path_21" data-name="Path 21" d="M800.232,112.52h-1.646v-1.111a9.381,9.381,0,0,1-1.605,1.029,3.764,3.764,0,0,1-1.687.37,3.191,3.191,0,0,1-2.429-.947,4,4,0,0,1-.864-2.8v-6.421h1.646v5.639a10.465,10.465,0,0,0,.082,1.276,2.609,2.609,0,0,0,.288.906,1.652,1.652,0,0,0,.617.576,2.628,2.628,0,0,0,1.111.165,3.814,3.814,0,0,0,1.4-.329,5.82,5.82,0,0,0,1.441-.864V102.6h1.646v9.92Z" transform="translate(-583.852 -98.731)" fill="#374a87"/>
  </g>
  <g id="Group_2" data-name="Group 2" transform="translate(109.528 5.886)">
    <path id="Path_22" data-name="Path 22" d="M309.892,25.417a.26.26,0,0,1,.288.288v.864c0,.206-.082.288-.288.288h-20a.26.26,0,0,1-.288-.288V25.7c0-.206.082-.288.288-.288Zm-6.38,6.709a10.659,10.659,0,0,1,2.058,1.029c0,.123-.124.206-.329.247-.247.041-.37.206-.453.494a24.33,24.33,0,0,1-2.017,3.54,14.13,14.13,0,0,1-1.976,2.181,12.488,12.488,0,0,1-2.3,1.482,30.775,30.775,0,0,1-3.334,1.358,25.03,25.03,0,0,1-4.034,1.029.386.386,0,0,1-.329-.247,5.752,5.752,0,0,0-.823-1.07.728.728,0,0,1-.206-.329,9.68,9.68,0,0,0,2.84-.412c.988-.247,2.017-.617,3.169-1.029a14.806,14.806,0,0,0,2.881-1.523,7.029,7.029,0,0,0,1.976-1.646,18.92,18.92,0,0,0,1.564-2.14A16.46,16.46,0,0,0,303.512,32.126Zm-7.7-4.363,1.4,1.029a.6.6,0,0,1,.206.329c0,.082-.082.123-.247.165a1.046,1.046,0,0,0-.535.206,18.745,18.745,0,0,1-1.976,2.058,19.2,19.2,0,0,1-3.169,2.1.454.454,0,0,1-.412-.206,9.552,9.552,0,0,1-.864-.741c-.123-.041-.206-.123-.206-.165a.221.221,0,0,1,.124-.165,6.634,6.634,0,0,0,1.523-.7,12.222,12.222,0,0,0,2.223-1.729c.535-.535,1.153-1.194,1.811-1.976C295.733,27.845,295.774,27.763,295.815,27.763Zm1.111,7.862a9.613,9.613,0,0,0,2.181,2.346,14.136,14.136,0,0,0,3.334,2.017,18.476,18.476,0,0,0,4.2,1.194,15.355,15.355,0,0,0,3.457.37.768.768,0,0,1-.206.412c-.165.412-.329.782-.494,1.194-.041.165-.124.288-.206.288a29.882,29.882,0,0,1-3.993-.659,18.9,18.9,0,0,1-3.457-1.194,18.069,18.069,0,0,1-3.5-2.017,13.853,13.853,0,0,1-2.182-2.223,16.953,16.953,0,0,1-2.264-4.322,8.223,8.223,0,0,1,1.605-.576A13.389,13.389,0,0,0,296.926,35.624Zm4.24-12.636a.331.331,0,0,1-.247.37q-.247,0-.247.494v1.976c0,.206-.124.329-.37.329h-.988c-.247,0-.37-.123-.37-.329v-2.84c0-.206.123-.288.37-.288C300.549,22.7,301.166,22.782,301.166,22.988Zm8.438,9.426c0,.082-.041.165-.165.288-.453.741-.7,1.07-.782,1.07a38.375,38.375,0,0,1-6.421-4.692s.288-.37.864-1.029c.123-.165.206-.206.247-.206A36.031,36.031,0,0,0,309.6,32.414Z" transform="translate(-289.6 -21.959)" fill="#374a87"/>
    <path id="Path_23" data-name="Path 23" d="M348.757,39.905H350.4a3.191,3.191,0,0,0,.206,1.235,1.807,1.807,0,0,0,.576.659,3.582,3.582,0,0,0,1.276.412,14.724,14.724,0,0,0,2.017.123h4.939a40.412,40.412,0,0,0,6.791-.7.554.554,0,0,1,.329-.082c.124,0,.165.041.165.165a15.171,15.171,0,0,0-.453,1.852.378.378,0,0,1-.412.37h-11.4c-.535,0-1.07-.041-1.605-.082a8.246,8.246,0,0,1-1.523-.37,4.447,4.447,0,0,1-1.235-.659,3.978,3.978,0,0,1-.823-1.235l-.082-.082a.314.314,0,0,0-.206.082,8.691,8.691,0,0,0-2.428,2.428.226.226,0,0,1-.206.123c-.123,0-.412-.412-.906-1.235a.878.878,0,0,1-.123-.494,20.738,20.738,0,0,0,3.375-2.1C348.716,40.317,348.757,40.152,348.757,39.905Zm1.317-6.256c.206,0,.329.082.329.288v6.215c0,.206-.123.288-.37.288h-.947c-.206,0-.329-.082-.329-.288V35.09h-2.922a.26.26,0,0,1-.288-.288v-.864c0-.206.082-.288.288-.288Zm-1.194-4.281q.926.679,1.605,1.235c0,.041-.041.082-.124.206a7.641,7.641,0,0,1-.782.988,23.949,23.949,0,0,0-2.223-1.646,15.15,15.15,0,0,0-1.605-.823,3.856,3.856,0,0,1,.782-.988c.082-.123.165-.165.206-.165C347.6,28.627,348.3,29,348.881,29.368Zm.412-4.939c.617.412,1.111.782,1.523,1.111,0,.041-.041.082-.123.206a7.644,7.644,0,0,1-.782.988,18.9,18.9,0,0,0-2.1-1.441,16.273,16.273,0,0,0-1.523-.741,3.856,3.856,0,0,1,.782-.988c.082-.123.165-.165.206-.165A11.343,11.343,0,0,1,349.293,24.429Zm14.447-.947-.453,1.4H353.038c-.206,0-.288-.082-.288-.288v-.782c0-.206.082-.288.288-.288l10.7-.041Zm-10.619,4.9h.906c.247,0,.329.082.329.288V40.893c0,.206-.124.288-.329.288h-.906c-.206,0-.329-.082-.329-.288V28.669C352.791,28.463,352.915,28.38,353.12,28.38Zm11.607,0a.327.327,0,0,1,.37.37V39.823a1.19,1.19,0,0,1-.864,1.07,7.223,7.223,0,0,1-2.181.37.272.272,0,0,1-.288-.247,4.377,4.377,0,0,0-.535-1.4c0-.041.041-.082.165-.082a7.081,7.081,0,0,0,1.811-.123.581.581,0,0,0,.329-.494v-9.1h-9.673c-.206,0-.288-.082-.288-.288v-.864c0-.206.082-.288.288-.288Zm-.659,3.663c.165,0,.247.082.247.288v.782c0,.206-.082.288-.247.288H353.82c-.165,0-.247-.082-.247-.288v-.782c0-.206.082-.288.247-.288Zm0,3.746c.165,0,.247.082.247.288v.782c0,.206-.082.288-.247.288H353.82c-.165,0-.247-.082-.247-.288v-.782c0-.206.082-.288.247-.288Zm-5.351-9.055c.906.37,1.688.741,2.3,1.029,0,.041-.041.082-.123.206a6.743,6.743,0,0,1-.741.947,31.1,31.1,0,0,0-3.128-1.358,18.584,18.584,0,0,0-2.264-.7,3.667,3.667,0,0,1,.741-.947c.082-.123.124-.165.165-.165A22.188,22.188,0,0,1,358.718,26.734Zm4.569-3.252h.453a.886.886,0,0,1,.412.082c.288.247.453.453.453.576l-4.857,3.375a.553.553,0,0,1-.37.082c-.906-.247-1.317-.453-1.317-.659Zm-5.269,5.6h1.646V41.058c0,.206-.123.288-.37.288h-.947c-.206,0-.329-.082-.329-.288Z" transform="translate(-322.374 -22.371)" fill="#374a87"/>
    <path id="Path_24" data-name="Path 24" d="M413.9,31.29a.26.26,0,0,1,.288.288v.864c0,.206-.082.288-.288.288H402.088a.26.26,0,0,1-.288-.288v-.864c0-.206.082-.288.288-.288Zm-.535-6.668a.26.26,0,0,1,.288.288v.864c0,.206-.082.288-.288.288H402.541a.26.26,0,0,1-.288-.288v-.864c0-.206.082-.288.288-.288Zm-9.837,9.92h.947c.247,0,.37.082.37.288v7.779c0,.206-.123.288-.37.288h-.947c-.206,0-.329-.082-.329-.288V34.83C403.2,34.665,403.282,34.542,403.529,34.542Zm2.428-5.886a12.726,12.726,0,0,1,.576,1.893,5.18,5.18,0,0,1-1.605.535,12.866,12.866,0,0,0-.412-1.564,18.425,18.425,0,0,0-.906-2.14c0-.123.453-.37,1.358-.823A22.635,22.635,0,0,1,405.957,28.656Zm6.339,5.886c.206,0,.329.082.329.288v7.738c0,.206-.123.288-.37.288h-.905c-.206,0-.329-.082-.329-.288V35.983h-6.709a.26.26,0,0,1-.288-.288V34.83c0-.206.082-.288.288-.288Zm-.741,5.557a.26.26,0,0,1,.288.288v.864c0,.206-.082.288-.288.288H404.27a.26.26,0,0,1-.288-.288v-.864c0-.206.082-.288.288-.288Zm-2.14-18.069c0,.206-.082.329-.247.329s-.247.165-.247.453v2.223c0,.206-.123.288-.37.288H407.6c-.206,0-.329-.082-.329-.288V21.988c0-.206.123-.288.329-.288C408.8,21.741,409.415,21.823,409.415,22.029Zm1.564,4.322,1.4.576c.206.082.329.206.329.329a.226.226,0,0,1-.165.247.313.313,0,0,0-.329.247,14.558,14.558,0,0,1-1.358,3.046c-.082.165-.165.206-.247.206a.948.948,0,0,1-.37-.123c-.329-.165-.617-.288-.864-.412-.123-.041-.206-.082-.206-.123s.041-.082.082-.165a11.908,11.908,0,0,0,.905-1.729,11.505,11.505,0,0,0,.659-1.893C410.9,26.475,410.938,26.351,410.979,26.351Zm4.528-3.663h.947c.247,0,.37.082.37.288V42.609c0,.206-.124.288-.37.288h-.947c-.206,0-.329-.082-.329-.288V22.976C415.177,22.77,415.3,22.688,415.506,22.688Zm6.421,0v1.358h-5.6c-.206,0-.329-.082-.329-.288v-.823a.294.294,0,0,1,.329-.288h5.6Zm0,0a.854.854,0,0,1,.617.165c.412.329.617.535.617.659l-3.252,6.544a.948.948,0,0,0-.124.37.847.847,0,0,0,.206.37,10.5,10.5,0,0,1,1.976,2.881,8.954,8.954,0,0,1,.741,3.54,4.651,4.651,0,0,1-.453,2.1,3.052,3.052,0,0,1-1.482,1.317,4.247,4.247,0,0,1-2.1.412c-.37,0-.576-.123-.576-.37a3.647,3.647,0,0,0-.37-1.276c0-.165.082-.288.206-.288l1.111.165a1.715,1.715,0,0,0,1.523-.617,2.088,2.088,0,0,0,.453-1.441,7.51,7.51,0,0,0-.617-2.8A13.356,13.356,0,0,0,418.058,31a.392.392,0,0,1-.247-.288,3.439,3.439,0,0,1,.082-.412Z" transform="translate(-355.618 -21.371)" fill="#374a87"/>
    <path id="Path_25" data-name="Path 25" d="M461.77,26.646h.988c.247,0,.37.123.37.329V37.306c0,.206-.123.329-.37.329h-.988c-.247,0-.37-.123-.37-.329V26.975C461.4,26.769,461.523,26.646,461.77,26.646Zm17.987,0c.247,0,.37.123.37.329V37.43c0,.206-.123.329-.37.329h-.988c-.247,0-.37-.123-.37-.329V28.292H462.552c-.206,0-.288-.123-.288-.329v-.988c0-.206.082-.329.288-.329Zm-.823,7.45c.206,0,.288.123.288.329v.947c0,.247-.082.329-.288.329H462.552c-.206,0-.288-.123-.288-.329v-.947c0-.247.082-.329.288-.329Zm-6.586-11.319a.331.331,0,0,1-.247.37q-.247,0-.247.494V43.234c0,.206-.123.329-.37.329H470.5c-.247,0-.37-.123-.37-.329V22.777c0-.206.123-.288.37-.288C471.731,22.448,472.349,22.571,472.349,22.777Z" transform="translate(-390.687 -21.83)" fill="#374a87"/>
    <path id="Path_26" data-name="Path 26" d="M524.484,22.4l1.688.123q.371.123.37.247a.3.3,0,0,1-.247.288.415.415,0,0,0-.288.453l.082,8.15a11.62,11.62,0,0,1-.37,3.334,6.15,6.15,0,0,1-1.4,3,11.775,11.775,0,0,1-2.511,2.387,18.352,18.352,0,0,1-4.651,2.387,8.713,8.713,0,0,1-2.305.535c-.123,0-.206-.082-.288-.247a8.271,8.271,0,0,0-.7-1.194c-.124-.041-.165-.082-.165-.123,0-.123.041-.165.165-.165a16.438,16.438,0,0,0,3.7-.864,13.474,13.474,0,0,0,3.087-1.564,7.172,7.172,0,0,0,2.223-2.058,4.231,4.231,0,0,0,1.07-2.14,10.143,10.143,0,0,0,.453-3.334l-.082-7.491a12.909,12.909,0,0,0-.041-1.441C524.319,22.523,524.4,22.4,524.484,22.4Zm10.455,11.278a.26.26,0,0,1,.288.288v.864c0,.206-.082.288-.288.288H514.77a.26.26,0,0,1-.288-.288v-.864c0-.206.082-.288.288-.288Zm-17.246-7.82h.988c.247,0,.37.082.37.288V34.09c0,.206-.123.329-.37.329h-.988c-.247,0-.371-.123-.371-.329V26.146A.361.361,0,0,1,517.693,25.857Zm14.941,0c.247,0,.37.123.37.329v7.9c0,.206-.123.329-.37.329h-.988c-.247,0-.37-.123-.37-.329v-6.75h-12.76a.26.26,0,0,1-.288-.288v-.864c0-.206.082-.288.288-.288h14.118Zm-5.145,11.237a8.931,8.931,0,0,0,2.429,2.181,14.892,14.892,0,0,0,3.828,1.77q1.05.309,1.976.494c.206.082.288.123.288.165a.4.4,0,0,1-.165.37,8.872,8.872,0,0,1-.782.906c-.082.165-.165.206-.288.206a12.139,12.139,0,0,1-1.4-.329,18.744,18.744,0,0,1-4.816-2.346,13.808,13.808,0,0,1-2.511-2.387A14.867,14.867,0,0,1,524.278,35q0-.247,1.605-.617A12.45,12.45,0,0,0,527.489,37.094Z" transform="translate(-421.46 -21.783)" fill="#374a87"/>
    <path id="Path_27" data-name="Path 27" d="M574.587,21.8l1.647.617c.165.123.247.206.247.329,0,.165-.082.247-.247.329a.274.274,0,0,0-.288.206,18.114,18.114,0,0,1-.864,2.223c-.288.535-.617,1.07-.947,1.564a10.017,10.017,0,0,1-1.07,1.194,1.534,1.534,0,0,1-.494-.082,5.952,5.952,0,0,0-.906-.37c-.123-.041-.165-.082-.165-.165,0-.041.041-.082.082-.123a9.739,9.739,0,0,0,1.564-1.976,8.176,8.176,0,0,0,.7-1.482,16.991,16.991,0,0,0,.617-2.1C574.5,21.841,574.546,21.8,574.587,21.8Zm4.034,14.53,1.441.782c-.864.988-1.564,1.77-2.181,2.346a13.688,13.688,0,0,1-2.058,1.605,19.188,19.188,0,0,1-2.552,1.358.477.477,0,0,1-.412-.165c-.329-.288-.617-.576-.947-.864a1.62,1.62,0,0,1-.082-.247,11.64,11.64,0,0,0,1.976-.864,13.638,13.638,0,0,0,2.346-1.564A15.492,15.492,0,0,0,578.621,36.33Zm7.82-.659c.165,0,.247.082.247.288v.782c0,.206-.082.288-.247.288H572.776c-.165,0-.247-.082-.247-.288v-.782c0-.206.082-.288.247-.288Zm3.663-6.5-.165,1.441H573.681c-.206,0-.288-.082-.288-.288v-.864c0-.206.082-.288.288-.288Zm-13.377,4.98A12.521,12.521,0,0,1,577.509,36c0,.082-.494.247-1.523.494a7.51,7.51,0,0,0-.576-1.564,16.668,16.668,0,0,0-1.235-2.14c0-.123.412-.37,1.276-.782C575.987,32.831,576.4,33.531,576.727,34.148Zm13.994-10.661c.165,0,.247.082.247.288v.782c0,.206-.082.288-.247.288H574.958c-.165,0-.247-.082-.247-.288v-.782c0-.206.082-.288.247-.288Zm-1.729,2.881c.165,0,.247.082.247.288v.782c0,.206-.082.288-.247.288h-13.13c-.165,0-.247-.082-.247-.288v-.782c0-.206.082-.288.247-.288ZM578.662,36.33h1.358a25.315,25.315,0,0,0,2.305,2.181,12.248,12.248,0,0,0,2.428,1.482,10.646,10.646,0,0,0,2.346.823.261.261,0,0,1-.206.247,7.809,7.809,0,0,0-.823.906c-.082.123-.165.165-.206.165a12.828,12.828,0,0,1-2.922-1.482,14.475,14.475,0,0,1-2.223-1.77A14.147,14.147,0,0,1,578.662,36.33Zm2.182-4.9a.288.288,0,0,1-.247.329c-.165,0-.247.165-.247.453V43c0,.206-.124.288-.329.288h-.906c-.206,0-.329-.082-.329-.288V31.473c0-.165.123-.247.329-.247C580.267,31.143,580.844,31.267,580.844,31.432Zm3.21.37,1.317.535c.206.082.329.206.329.329s-.082.206-.288.288c-.247,0-.411.082-.453.288a14.071,14.071,0,0,1-2.058,3.169.867.867,0,0,1-.329.247.947.947,0,0,1-.37-.123c-.288-.165-.576-.288-.823-.412-.123-.041-.165-.082-.165-.123s.041-.082.123-.165a14.4,14.4,0,0,0,1.441-1.77,7.586,7.586,0,0,0,1.029-1.976C583.889,31.884,583.972,31.8,584.054,31.8Zm5.351-2.634h.7a.42.42,0,0,1,.329.206,4.293,4.293,0,0,1,.329.823,9.837,9.837,0,0,0-.988,3,10.457,10.457,0,0,0-.329,2.47,10.173,10.173,0,0,0,.617,3.951c.329.782.659,1.152.947,1.152.165,0,.288-.123.329-.329a7.221,7.221,0,0,0,.37-1.976c.041-.123.082-.165.206-.165s.165.041.247.165a8.44,8.44,0,0,0,.782.617c.123.041.165.165.165.329a9.825,9.825,0,0,1-1.276,3.169.91.91,0,0,1-.823.453,2.042,2.042,0,0,1-1.482-.947,6.44,6.44,0,0,1-1.235-2.675,15.832,15.832,0,0,1-.412-3.746A21.368,21.368,0,0,1,589.4,29.168Z" transform="translate(-455.469 -21.43)" fill="#374a87"/>
    <path id="Path_28" data-name="Path 28" d="M636.062,20.9c1.276.617,1.893.988,1.893,1.111,0,.165-.041.206-.165.206a.5.5,0,0,0-.494.247,15.275,15.275,0,0,1-3.622,3.416,36.086,36.086,0,0,1-3.458,2.017.661.661,0,0,1-.453-.206c-.206-.165-.453-.37-.7-.576a.3.3,0,0,1-.165-.247c.864-.453,1.688-.947,2.552-1.441a14.313,14.313,0,0,0,2.881-2.181,11.784,11.784,0,0,0,1.646-2.1C635.979,20.941,636.021,20.9,636.062,20.9Zm4.9,14.982,1.441.535a12.365,12.365,0,0,1-2.387,1.77,20.423,20.423,0,0,1-2.8,1.564,29.7,29.7,0,0,1-3.581,1.358,21.816,21.816,0,0,1-2.8.7c-.082,0-.206-.082-.288-.288a7.973,7.973,0,0,0-.823-.864.737.737,0,0,1-.206-.288q2.717-.494,4.569-.988a23.741,23.741,0,0,0,3.787-1.441C638.614,37.488,639.684,36.829,640.96,35.882ZM639.6,33.619l1.441.535a10.738,10.738,0,0,1-1.935,1.441A20.7,20.7,0,0,1,636.8,36.87a29.158,29.158,0,0,1-2.922,1.111,18.118,18.118,0,0,1-2.305.576c-.082,0-.206-.082-.288-.288a7.973,7.973,0,0,0-.823-.864.736.736,0,0,1-.206-.288A36.5,36.5,0,0,0,634,36.335a23.189,23.189,0,0,0,3.087-1.111C637.667,34.853,638.531,34.318,639.6,33.619Zm.082-3.375,1.441.535a10.45,10.45,0,0,1-1.852,1.482,15.039,15.039,0,0,1-2.223,1.317,23.859,23.859,0,0,1-2.84,1.152,11.69,11.69,0,0,1-2.223.576c-.082,0-.206-.082-.288-.288a7.978,7.978,0,0,0-.823-.864.737.737,0,0,1-.206-.288,29.6,29.6,0,0,0,3.581-.823,22,22,0,0,0,2.964-1.152A19.372,19.372,0,0,0,639.684,30.243Zm-7.615-4.528h.947c.247,0,.37.082.37.288v5.762c0,.206-.123.288-.37.288h-.947c-.206,0-.329-.082-.329-.288V26C631.74,25.8,631.863,25.716,632.069,25.716Zm15.435,0c.206,0,.329.082.329.288v5.474c0,.206-.123.288-.37.288h-.947c-.206,0-.329-.082-.329-.288V27.156H632.81a.26.26,0,0,1-.288-.288V26c0-.206.082-.288.288-.288Zm-.782,3.993a.26.26,0,0,1,.288.288v.864c0,.206-.082.288-.288.288H632.81a.26.26,0,0,1-.288-.288V30c0-.206.082-.288.288-.288Zm-2.634-7.244-.453,1.358h-7.862c-.206,0-.288-.082-.288-.288v-.782c0-.206.082-.288.288-.288ZM641.948,35.1a8.341,8.341,0,0,1,.782,3.54,7.485,7.485,0,0,1-.329,2.428,2.626,2.626,0,0,1-.988,1.194,4.8,4.8,0,0,1-2.387.494c-.988,0-1.482-.206-1.523-.576a5.1,5.1,0,0,0-.412-1.07c0-.123.041-.165.082-.165a13.031,13.031,0,0,0,1.893.206,1.848,1.848,0,0,0,1.564-.617,3.107,3.107,0,0,0,.453-1.893,6.037,6.037,0,0,0-.535-2.717,14.724,14.724,0,0,0-2.47-3.581l1.194-.988A17.454,17.454,0,0,1,641.948,35.1Zm1.688-12.636h.453a.886.886,0,0,1,.412.082c.288.247.453.453.453.576l-4.363,3.457a.467.467,0,0,1-.329.123c-.906-.247-1.317-.453-1.317-.659ZM638.9,26.457h1.646v3.7c0,.206-.124.288-.37.288h-.947c-.206,0-.329-.082-.329-.288Zm5.6,10.99a21.928,21.928,0,0,0,2.675,1.688,10.66,10.66,0,0,0,2.922.988.311.311,0,0,1-.165.288,6.262,6.262,0,0,0-1.029.906c-.041.082-.165.123-.329.123a14.38,14.38,0,0,1-4.61-2.47,23.326,23.326,0,0,1-3.334-3.046l1.111-.947A19.029,19.029,0,0,0,644.5,37.446Zm1.934-4.569a.425.425,0,0,1,.329.165c.947.617,1.4,1.029,1.4,1.152q0,.37-.247.37l-.535-.123a2.21,2.21,0,0,0-.782.206c-1.029.494-2.346,1.194-3.869,2.017-.823-.453-1.235-.782-1.235-.947,0-.041.082-.123.206-.165a32.43,32.43,0,0,0,4.157-2.511A1.767,1.767,0,0,1,646.434,32.878Z" transform="translate(-489.243 -20.9)" fill="#374a87"/>
    <path id="Path_29" data-name="Path 29" d="M687.993,24.2h.947c.247,0,.37.082.37.288V31.2a31.375,31.375,0,0,1-.535,6.668,14.754,14.754,0,0,1-1.317,4.157,9.149,9.149,0,0,1-1.523,2.346c-.123,0-.206,0-.247-.041a5.622,5.622,0,0,0-.864-.617.467.467,0,0,1-.123-.329,9.055,9.055,0,0,0,1.605-2.84,21.956,21.956,0,0,0,1.07-3.993A38.673,38.673,0,0,0,687.7,31.2V24.488C687.664,24.282,687.787,24.2,687.993,24.2Zm15.6,0c.206,0,.329.082.329.288v4.939c0,.206-.123.288-.37.288H702.6c-.206,0-.329-.082-.329-.288V25.641H688.734a.26.26,0,0,1-.288-.288v-.864c0-.206.082-.288.288-.288Zm-.741,4.075a.26.26,0,0,1,.288.288v.864c0,.206-.082.288-.288.288H688.775a.26.26,0,0,1-.288-.288v-.864c0-.206.082-.288.288-.288Zm2.1,3.746-.659,1.441H688.816c-.206,0-.329-.082-.329-.288v-.864c0-.206.123-.288.329-.288Zm-13.336,3.54h.947c.247,0,.37.082.37.288v6.833c0,.206-.123.288-.37.288h-.947c-.206,0-.329-.082-.329-.288V35.848C691.286,35.643,691.409,35.56,691.615,35.56Zm8.15,0c.206,0,.329.082.329.288V40.87c0,.206-.123.288-.37.288h-.905c-.206,0-.329-.082-.329-.288V37H692.4a.26.26,0,0,1-.288-.288v-.864c0-.206.082-.288.288-.288Zm-.741,4.2a.26.26,0,0,1,.288.288v.864c0,.206-.082.288-.288.288H692.4a.26.26,0,0,1-.288-.288v-.864c0-.206.082-.288.288-.288Zm4.692-7.738h1.235c.206,0,.288.123.288.329a62.882,62.882,0,0,1-.371,7.162,13.022,13.022,0,0,1-.906,3.91c-.329.906-1.317,1.358-2.881,1.358-1.235,0-1.893-.165-1.935-.494a4.206,4.206,0,0,0-.782-1.317c0-.165.041-.206.082-.206a20.527,20.527,0,0,0,2.634.165,1.471,1.471,0,0,0,1.564-.906,8.462,8.462,0,0,0,.617-2.922A48.981,48.981,0,0,0,703.716,32.02Z" transform="translate(-522.076 -22.842)" fill="#374a87"/>
  </g>
</svg>
